<?xml version="1.0" encoding="utf-8"?>
<svg version="1.1" xmlns:xlink="http://www.w3.org/1999/xlink" width="12px" height="12px" xmlns="http://www.w3.org/2000/svg">
  <g transform="matrix(1 0 0 1 -1548 -302 )">
    <path d="M 11.9662809954545 6  C 11.9662809954545 5.7461157  11.7441322363636 5.52396694090909  11.4902479363636 5.52396694090909  L 6.47603305909091 5.52396694090909  L 6.47603305909091 0.509752063636364  C 6.47603305909091 0.255867763636364  6.2538843 0.0337190045454544  6 0.0337190045454544  C 5.7461157 0.0337190045454544  5.52396694090909 0.255867763636364  5.52396694090909 0.509752063636363  L 5.52396694090909 5.52396694090909  L 0.509752063636364 5.52396694090909  C 0.255867763636364 5.52396694090909  0.0337190045454544 5.7461157  0.0337190045454544 6  C 0.0337190045454544 6.2538843  0.255867763636364 6.47603305909091  0.509752063636363 6.47603305909091  L 5.52396694090909 6.47603305909091  L 5.52396694090909 11.4902479363636  C 5.52396694090909 11.7441322363636  5.7461157 11.9662809954545  6 11.9662809954545  C 6.2538843 11.9662809954545  6.47603305909091 11.7441322363636  6.47603305909091 11.4902479363636  L 6.47603305909091 6.47603305909091  L 11.4902479363636 6.47603305909091  C 11.7441322363636 6.47603305909091  11.9662809954545 6.2538843  11.9662809954545 6  Z " fill-rule="nonzero" fill="#ffffff" stroke="none" transform="matrix(1 0 0 1 1548 302 )" />
  </g>
</svg>