<?xml version="1.0" encoding="utf-8"?>
<svg version="1.1" xmlns:xlink="http://www.w3.org/1999/xlink" width="16px" height="14px" xmlns="http://www.w3.org/2000/svg">
  <g transform="matrix(1 0 0 1 -79 -9 )">
    <path d="M 0.712871287128713 12.4653465346535  L 15.2871287128713 12.4653465346535  C 15.6808364356436 12.4653465346535  16 12.7845090851485  16 13.1782178217822  C 16 13.5719255445545  15.6808364356436 13.8910891089109  15.2871287128713 13.8910891089109  L 0.712871287128713 13.8910891089109  C 0.319163229782178 13.8910891089109  0 13.5719255445545  0 13.1782178217822  C 0 12.7845090851485  0.319163229782178 12.4653465346535  0.712871287128713 12.4653465346535  Z M 0.712871287128713 6.28712871287129  L 15.2871287128713 6.28712871287129  C 15.6808364356436 6.28712871287129  16 6.60629156752475  16 7  C 16 7.39370741861386  15.6808364356436 7.71287128712871  15.2871287128713 7.71287128712871  L 0.712871287128713 7.71287128712871  C 0.319163229782178 7.71287128712871  0 7.39370741861386  0 7  C 0 6.60629156752475  0.319163229782178 6.28712871287129  0.712871287128713 6.28712871287129  Z M 0.712871287128713 0.108910891089109  L 15.2871287128713 0.108910891089109  C 15.6808364356436 0.108910891089109  16 0.428074333782178  16 0.821782178217822  C 16 1.2154899009901  15.6808364356436 1.53465346534653  15.2871287128713 1.53465346534653  L 0.712871287128713 1.53465346534653  C 0.319163229782178 1.53465346534653  0 1.2154899009901  0 0.821782178217822  C 0 0.428074333782178  0.319163229782178 0.108910891089109  0.712871287128713 0.108910891089109  Z " fill-rule="nonzero" fill="#ffffff" stroke="none" fill-opacity="0.996078431372549" transform="matrix(1 0 0 1 79 9 )" />
  </g>
</svg>