<?xml version="1.0" encoding="utf-8"?>
<svg version="1.1" xmlns:xlink="http://www.w3.org/1999/xlink" width="14px" height="14px" xmlns="http://www.w3.org/2000/svg">
  <g transform="matrix(1 0 0 1 -23 -9 )">
    <path d="M 0.705277114735753 7.60324036027298  L 5.69148204993363 7.60324036027298  C 6.06940635555785 7.60324036027298  6.37577368294177 7.90960768739563  6.37577368294177 8.28753199269755  L 6.37577368294177 13.3157083675754  C 6.37577368294177 13.693631991627  6.06940635555785 14  5.69148204993363 14  L 0.705277114735753 14  C 0.327353198397438 14  0.0209854817276081 13.693631991627  0.0209854817276081 13.3157083675754  L 0.0209854817276081 8.28753199269755  C 0.0209854817276081 7.90960768739563  0.327353198397438 7.60324036027298  0.705277114735753 7.60324036027298  Z M 8.30851748149292 7.60324036027298  L 13.2947230006197 7.60324036027298  C 13.6726475982083 7.60324036027298  13.9790146336278 7.90960768739563  13.9790146336278 8.28753199269755  L 13.9790146336278 13.3157083675754  C 13.9790146336278 13.693631991627  13.6726475982083 14  13.2947230006197 14  L 8.30851748149292 14  C 7.9305931758687 14  7.62422584848478 13.693631991627  7.62422584848478 13.3157083675754  L 7.62422584848478 8.28753199269755  C 7.62422584848478 7.90960768739563  7.9305931758687 7.60324036027298  8.30851748149292 7.60324036027298  Z M 5.00719041692548 12.6314167351509  L 5.00719041692548 8.97182362512212  L 1.3895687477439 8.97182362512212  L 1.3895687477439 12.6314167351509  L 5.00719041692548 12.6314167351509  Z M 12.6104313676115 12.6314167351509  L 12.6104313676115 8.97182362512212  L 8.99280911450107 8.97182362512212  L 8.99280911450107 12.6314167351509  L 12.6104313676115 12.6314167351509  Z M 0.705277114735753 0  L 5.69148204993363 0  C 6.06940635555785 0  6.37577368294177 0.306368261408823  6.37577368294177 0.68429204117477  L 6.37577368294177 5.71246703408768  C 6.37577368294177 6.0903913393896  6.06940635555785 6.39675915311963  5.69148204993363 6.39675915311963  L 0.705277114735753 6.39675915311963  C 0.327353198397438 6.39675915311963  0.0209854817276081 6.0903913393896  0.0209854817276081 5.71246703408768  L 0.0209854817276081 0.684291632424569  C 0.0209854817276081 0.306367891587212  0.327353198397438 0  0.705277114735753 0  Z M 8.30851748149292 0  L 13.2947230006197 0  C 13.6726475982083 0  13.9790146336278 0.306368261408823  13.9790146336278 0.68429204117477  L 13.9790146336278 5.71246703408768  C 13.9790146336278 6.0903913393896  13.6726475982083 6.39675915311963  13.2947230006197 6.39675915311963  L 8.30851748149292 6.39675915311963  C 7.9305931758687 6.39675915311963  7.62422584848478 6.0903913393896  7.62422584848478 5.71246703408768  L 7.62422584848478 0.684291632424569  C 7.62422584848478 0.306367891587212  7.9305931758687 0  8.30851748149292 0  Z M 5.00719041692548 5.02817540166311  L 5.00719041692548 1.36858365413504  L 1.3895687477439 1.36858365413504  L 1.3895687477439 5.02817540166311  L 5.00719041692548 5.02817540166311  Z M 12.6104313676115 5.02817540166311  L 12.6104313676115 1.36858365413504  L 8.99280911450107 1.36858365413504  L 8.99280911450107 5.02817540166311  L 12.6104313676115 5.02817540166311  Z " fill-rule="nonzero" fill="#ffffff" stroke="none" fill-opacity="0.996078431372549" transform="matrix(1 0 0 1 23 9 )" />
  </g>
</svg>