<?xml version="1.0" encoding="utf-8"?>
<svg version="1.1" xmlns:xlink="http://www.w3.org/1999/xlink" width="408px" height="184px" xmlns="http://www.w3.org/2000/svg">
  <defs>
    <linearGradient gradientUnits="userSpaceOnUse" x1="22.9788359788368" y1="28.8080808080789" x2="351.247921390778" y2="124.767676767676" id="LinearGradient4643">
      <stop id="Stop4644" stop-color="#cad2ec" stop-opacity="0.235294117647059" offset="0" />
      <stop id="Stop4645" stop-color="#ffffff" stop-opacity="0.0784313725490196" offset="1" />
    </linearGradient>
    <radialGradient cx="4.71137026238983" cy="8.75036075035967" r="409.345080752531" gradientTransform="matrix(0.993524097391061 0.113621599633508 -0.0451955996860105 0.395197018251177 0.425988176555321 4.75693084751693 )" gradientUnits="userSpaceOnUse" id="RadialGradient4646">
      <stop id="Stop4647" stop-color="#ffffff" stop-opacity="0.549019607843137" offset="0" />
      <stop id="Stop4648" stop-color="#ffffff" stop-opacity="0" offset="0.99" />
    </radialGradient>
    <filter x="-1px" y="-1px" width="408px" height="184px" filterUnits="userSpaceOnUse" id="filter4649">
      <feOffset dx="1" dy="1" in="SourceAlpha" result="shadowOffsetInner" />
      <feGaussianBlur stdDeviation="1" in="shadowOffsetInner" result="shadowGaussian" />
      <feComposite in2="shadowGaussian" operator="atop" in="SourceAlpha" result="shadowComposite" />
      <feColorMatrix type="matrix" values="0 0 0 0 0.00784313725490196  0 0 0 0 0.654901960784314  0 0 0 0 0.941176470588235  0 0 0 0.552941176470588 0  " in="shadowComposite" />
    </filter>
    <g id="widget4650">
      <path d="M 0.5 12  A 11.5 11.5 0 0 1 12 0.5 L 392 0.5  A 11.5 11.5 0 0 1 403.5 12 L 403.5 168  A 11.5 11.5 0 0 1 392 179.5 L 12 179.5  A 11.5 11.5 0 0 1 0.5 168 L 0.5 12  Z " fill-rule="nonzero" fill="url(#LinearGradient4643)" stroke="none" />
      <path d="M 0.5 12  A 11.5 11.5 0 0 1 12 0.5 L 392 0.5  A 11.5 11.5 0 0 1 403.5 12 L 403.5 168  A 11.5 11.5 0 0 1 392 179.5 L 12 179.5  A 11.5 11.5 0 0 1 0.5 168 L 0.5 12  Z " stroke-width="1" stroke="url(#RadialGradient4646)" fill="none" />
    </g>
  </defs>
  <g transform="matrix(1 0 0 1 1 1 )">
    <use xlink:href="#widget4650" filter="url(#filter4649)" />
    <use xlink:href="#widget4650" />
  </g>
</svg>