<?xml version="1.0" encoding="utf-8"?>
<svg version="1.1" xmlns:xlink="http://www.w3.org/1999/xlink" width="12px" height="12px" xmlns="http://www.w3.org/2000/svg">
  <g transform="matrix(1 0 0 1 -1414 -302 )">
    <path d="M 11.5714285714286 7.71428571428572  C 11.8285714285714 7.71428571428572  12 7.88571428571429  12 8.14285714285714  L 12 9.85714285714286  C 12 11.0571428571429  11.0571428571429 12  9.85714285714286 12  L 2.14285714285714 12  C 0.942857142857143 12  0 11.0571428571429  0 9.85714285714286  L 0 2.14285714285714  C 0 0.942857142857143  0.942857142857143 0  2.14285714285714 0  L 3.85714285714286 0  C 4.11428571428571 0  4.28571428571429 0.171428571428571  4.28571428571429 0.428571428571429  C 4.28571428571429 0.685714285714286  4.11428571428571 0.857142857142857  3.85714285714286 0.857142857142857  L 2.14285714285714 0.857142857142857  C 1.45714285714286 0.857142857142857  0.857142857142857 1.45714285714286  0.857142857142857 2.14285714285714  L 0.857142857142857 9.85714285714286  C 0.857142857142857 10.5428571428571  1.45714285714286 11.1428571428571  2.14285714285714 11.1428571428571  L 9.85714285714286 11.1428571428571  C 10.5428571428571 11.1428571428571  11.1428571428571 10.5428571428571  11.1428571428571 9.85714285714286  L 11.1428571428571 8.14285714285714  C 11.1428571428571 7.88571428571429  11.3142857142857 7.71428571428572  11.5714285714286 7.71428571428572  Z M 5.14285714285714 6.85714285714286  L 9.85714285714286 6.85714285714286  C 10.1142857142857 6.85714285714286  10.2857142857143 6.68571428571429  10.2857142857143 6.42857142857143  C 10.2857142857143 6.17142857142857  10.1142857142857 6  9.85714285714286 6  L 6.6 6  L 10.9714285714286 1.62857142857143  C 11.1428571428571 1.45714285714286  11.1428571428571 1.2  10.9714285714286 1.02857142857143  C 10.8 0.857142857142857  10.5428571428571 0.857142857142857  10.3714285714286 1.02857142857143  L 6 5.4  L 6 2.14285714285714  C 6 1.88571428571429  5.82857142857143 1.71428571428571  5.57142857142857 1.71428571428571  C 5.31428571428571 1.71428571428571  5.14285714285714 1.88571428571429  5.14285714285714 2.14285714285714  L 5.14285714285714 6.85714285714286  Z " fill-rule="nonzero" fill="#ffffff" stroke="none" transform="matrix(1 0 0 1 1414 302 )" />
  </g>
</svg>