<?xml version="1.0" encoding="utf-8"?>
<svg version="1.1" xmlns:xlink="http://www.w3.org/1999/xlink" width="11px" height="10px" xmlns="http://www.w3.org/2000/svg">
  <g transform="matrix(1 0 0 1 -314 -153 )">
    <path d="M 10.267644440625 9.5960579673913  C 10.267644440625 9.80011593478261  10.091644440625 9.96707245652174  9.87653333333333 9.9670724673913  L 1.14106666666667 9.9670724673913  C 0.925955559375 9.9670724673913  0.749955559375 9.80011594565218  0.749955559375 9.5960579673913  C 0.749955559375 9.39199998913044  0.925955559375 9.22504347826087  1.14106666666667 9.22504347826087  L 9.87653333333333 9.22504347826087  C 10.091644440625 9.22504347826087  10.267644440625 9.392  10.267644440625 9.5960579673913  Z M 10.9833777739583 0.799304347826087  C 10.9833777739583 0.389333336956522  10.6333333333333 0.0572753586956522  10.201155559375 0.0572753586956522  L 0.814488892708332 0.0572753586956522  C 0.382311118749999 0.0572753586956522  0.0322666666666656 0.389333326086957  0.0322666666666656 0.799304347826087  L 0.0322666666666656 7.90608695652174  C 0.0322666666666656 8.3160579673913  0.382311107291666 8.64811594565217  0.814488892708332 8.64811594565217  L 10.201155559375 8.64811594565217  C 10.6333333333333 8.64811594565217  10.9833777854167 8.31605797826087  10.9833777739583 7.90608695652174  L 10.9833777739583 0.799304347826087  Z M 3.62071110729167 4.76544927173913  L 3.62071110729167 6.16602898913044  C 3.62071110729167 6.37008695652174  3.44471110729167 6.53704347826087  3.2296 6.53704347826087  C 3.01448889270833 6.53704347826087  2.83848889270833 6.37008695652174  2.83848889270833 6.16602898913044  L 2.83848889270833 4.76544927173913  C 2.83848889270833 4.56139130434783  3.01448889270833 4.3944347826087  3.2296 4.3944347826087  C 3.44471110729167 4.3944347826087  3.62071110729167 4.56139130434783  3.62071110729167 4.76544927173913  Z M 5.14017777395833 2.53936231521739  L 5.14017777395833 6.16602898913044  C 5.14017777395833 6.37008695652174  4.96417777395833 6.53704347826087  4.74906666666667 6.53704347826087  C 4.533955559375 6.53704347826087  4.357955559375 6.37008695652174  4.357955559375 6.16602898913044  L 4.357955559375 2.53936231521739  C 4.357955559375 2.33530434782609  4.533955559375 2.16834782608696  4.74906666666667 2.16834782608696  C 4.96417777395833 2.16834782608696  5.14017777395833 2.33530434782609  5.14017777395833 2.53936231521739  Z M 6.659644440625 5.69298551086957  L 6.659644440625 6.16602898913044  C 6.659644440625 6.37008695652174  6.483644440625 6.53704347826087  6.26853333333333 6.53704347826087  C 6.05342222604167 6.53704347826087  5.87742222604167 6.37008695652174  5.87742222604167 6.16602898913044  L 5.87742222604167 5.69298551086957  C 5.87742222604167 5.48892754347826  6.05342222604167 5.32197102173913  6.26853333333333 5.32197101086957  C 6.483644440625 5.321971  6.659644440625 5.4889275326087  6.659644440625 5.69298551086957  Z M 8.177155559375 3.65240579347826  L 8.177155559375 6.16602898913044  C 8.177155559375 6.37008695652174  8.001155559375 6.53704347826087  7.786044440625 6.53704347826087  C 7.570933321875 6.53704347826087  7.39493333333333 6.37008695652174  7.39493333333333 6.16602898913044  L 7.39493333333333 3.65240579347826  C 7.39493333333333 3.44834782608696  7.57093333333333 3.28139130434783  7.786044440625 3.28139130434783  C 8.00115554791667 3.28139130434783  8.17715554791667 3.44834782608696  8.177155559375 3.65240579347826  Z " fill-rule="nonzero" fill="#ffffff" stroke="none" fill-opacity="0.756862745098039" transform="matrix(1 0 0 1 314 153 )" />
  </g>
</svg>