<?xml version="1.0" encoding="utf-8"?>
<svg version="1.1" xmlns:xlink="http://www.w3.org/1999/xlink" width="8px" height="10px" xmlns="http://www.w3.org/2000/svg">
  <g transform="matrix(1 0 0 1 -353 -153 )">
    <path d="M 7.98448979591837 8.52208695652174  C 7.98448979591837 9.29048313019936  7.39971885692185 9.91339130434783  6.67836734693878 9.91339130434783  L 1.3294693877551 9.91339130434783  C 0.595591836734694 9.91339130434783  0 9.44469565217391  0 8.64765217391304  L 0 2.15373913043478  C 0 1.35721739130435  0.604897959183674 0.711652173913042  1.35134693877551 0.710956521739129  L 1.35134693877551 0.733043478260868  C 1.35167346938776 1.51739130434783  1.94742857142857 2.15286956521739  2.68212244897959 2.15286956521739  L 5.42677551020408 2.15286956521739  C 6.1614693877551 2.15286956521739  6.75722448979592 1.51721739130435  6.75738775510204 0.733043478260869  L 6.75738775510204 0.710956521739129  L 6.76620408163265 0.710956521739129  C 7.51395918367347 0.710956521739129  7.98448979591837 1.31182608695652  7.98448979591837 2.10886956521739  L 7.98448979591837 8.52208695652174  Z M 6.31493893573108 4.23199982966426  C 6.31493893573108 4.03619455951097  6.16602118576844 3.87740926306231  5.98220408163265 3.87721739130435  L 1.98987755102041 3.87721739130435  C 1.8059966673792 3.8775053459731  1.65712564817482 4.0364745935831  1.65730612244898 4.23234782608696  C 1.65712564817482 4.42822105859081  1.8059966673792 4.58719030620081  1.98987755102041 4.58747826086957  L 5.98220408163265 4.58747826086957  C 6.16602118576843 4.5872863891116  6.31493893573108 4.42850109266295  6.31493893573108 4.23269582250966  Z M 4.83934693877551 5.29773913043478  L 5.98220408163265 5.29773913043478  L 1.98987755102041 5.29773913043478  C 1.8059966673792 5.29802708510354  1.65712564817482 5.45699633271354  1.65730612244898 5.65286956521739  C 1.65712564817482 5.84874279772125  1.8059966673792 6.00771204533125  1.98987755102041 6.008  L 4.83934693877551 6.008  C 5.02316404291129 6.00780812824204  5.17208179287394 5.84902283179338  5.17208179287394 5.65321756164009  C 5.17208179287394 5.4567162986414  5.02316404291129 5.29793100219275  4.83934693877551 5.29773913043478  Z M 4.02302040816326 6.86295652173913  L 5.98220408163265 6.86295652173913  L 1.98987755102041 6.86295652173913  C 1.8059966673792 6.86324447640788  1.65712564817482 7.02221372401789  1.65730612244898 7.21808695652174  C 1.65712564817482 7.41396018902559  1.8059966673792 7.57292943663559  1.98987755102041 7.57321739130435  L 4.02302040816326 7.57321739130435  C 4.20683751229905 7.57302551954638  4.35575526226169 7.41424022309773  4.35575526226169 7.21843495294444  C 4.35575526226169 7.02193368994575  4.20683751229905 6.8631483934971  4.02302040816326 6.86295652173913  Z M 5.8974693877551 1.23495652173913  C 5.77277253389941 1.3680449955132  5.60345885140825 1.44276564774615  5.4269387755102 1.44260869565217  L 2.70367346938776 1.44260869565217  C 2.33607127784526 1.44260871712232  2.03820358079391 1.12531486591545  2.03820358079391 0.733913064948406  L 2.03820408163265 0.710434782608696  C 2.03775291715983 0.318620436626811  2.33552134685762 0.000575903263289027  2.70334693877551 0  L 5.4269387755102 0  C 5.79476433250445 0.00047997620859295  6.09260578750935 0.318446583889364  6.09224489795918 0.710260869565217  L 6.09224489795918 0.732869565217391  C 6.09224489795918 0.921391304347826  6.02220408163265 1.10191304347826  5.8974693877551 1.23495652173913  Z " fill-rule="nonzero" fill="#ffffff" stroke="none" fill-opacity="0.756862745098039" transform="matrix(1 0 0 1 353 153 )" />
  </g>
</svg>