<?xml version="1.0" encoding="utf-8"?>
<svg version="1.1" xmlns:xlink="http://www.w3.org/1999/xlink" width="10px" height="10px" xmlns="http://www.w3.org/2000/svg">
  <g transform="matrix(1 0 0 1 -273 -153 )">
    <path d="M 10 1.53846153846154  C 10 0.692307692307692  9.30769230769231 0  8.46153846153846 0  L 1.53846153846154 0  C 0.692307692307692 0  0 0.692307692307692  0 1.53846153846154  L 0 8.46153846153846  C 0 9.30769230769231  0.692307692307692 10  1.53846153846154 10  L 8.46153846153846 10  C 9.30769230769231 10  10 9.30769230769231  10 8.46153846153846  L 10 1.53846153846154  Z M 3.07692307692308 7.30769230769231  C 3.07692307692308 7.52307692307692  2.90769230769231 7.69230769230769  2.69230769230769 7.69230769230769  C 2.47692307692308 7.69230769230769  2.30769230769231 7.52307692307692  2.30769230769231 7.30769230769231  C 2.30769230769231 7.09230769230769  2.47692307692308 6.92307692307692  2.69230769230769 6.92307692307692  C 2.90769230769231 6.92307692307692  3.07692307692308 7.09230769230769  3.07692307692308 7.30769230769231  Z M 3.07692307692308 5  C 3.07692307692308 5.21538461538461  2.90769230769231 5.38461538461538  2.69230769230769 5.38461538461538  C 2.47692307692308 5.38461538461538  2.30769230769231 5.21538461538461  2.30769230769231 5  C 2.30769230769231 4.78461538461538  2.47692307692308 4.61538461538462  2.69230769230769 4.61538461538462  C 2.90769230769231 4.61538461538462  3.07692307692308 4.78461538461538  3.07692307692308 5  Z M 3.07692307692308 2.69230769230769  C 3.07692307692308 2.90769230769231  2.90769230769231 3.07692307692308  2.69230769230769 3.07692307692308  C 2.47692307692308 3.07692307692308  2.30769230769231 2.90769230769231  2.30769230769231 2.69230769230769  C 2.30769230769231 2.47692307692308  2.47692307692308 2.30769230769231  2.69230769230769 2.30769230769231  C 2.90769230769231 2.30769230769231  3.07692307692308 2.47692307692308  3.07692307692308 2.69230769230769  Z M 7.69230769230769 7.30769230769231  C 7.69230769230769 7.52307692307692  7.52307692307692 7.69230769230769  7.30769230769231 7.69230769230769  L 4.23076923076923 7.69230769230769  C 4.01538461538462 7.69230769230769  3.84615384615385 7.52307692307692  3.84615384615385 7.30769230769231  C 3.84615384615385 7.09230769230769  4.01538461538462 6.92307692307692  4.23076923076923 6.92307692307692  L 7.30769230769231 6.92307692307692  C 7.52307692307692 6.92307692307692  7.69230769230769 7.09230769230769  7.69230769230769 7.30769230769231  Z M 7.69230769230769 5  C 7.69230769230769 5.21538461538461  7.52307692307692 5.38461538461538  7.30769230769231 5.38461538461538  L 4.23076923076923 5.38461538461538  C 4.01538461538462 5.38461538461538  3.84615384615385 5.21538461538461  3.84615384615385 5  C 3.84615384615385 4.78461538461538  4.01538461538462 4.61538461538462  4.23076923076923 4.61538461538462  L 7.30769230769231 4.61538461538462  C 7.52307692307692 4.61538461538462  7.69230769230769 4.78461538461538  7.69230769230769 5  Z M 7.69230769230769 2.69230769230769  C 7.69230769230769 2.90769230769231  7.52307692307692 3.07692307692308  7.30769230769231 3.07692307692308  L 4.23076923076923 3.07692307692308  C 4.01538461538462 3.07692307692308  3.84615384615385 2.90769230769231  3.84615384615385 2.69230769230769  C 3.84615384615385 2.47692307692308  4.01538461538462 2.30769230769231  4.23076923076923 2.30769230769231  L 7.30769230769231 2.30769230769231  C 7.52307692307692 2.30769230769231  7.69230769230769 2.47692307692308  7.69230769230769 2.69230769230769  Z " fill-rule="nonzero" fill="#ffffff" stroke="none" fill-opacity="0.756862745098039" transform="matrix(1 0 0 1 273 153 )" />
  </g>
</svg>