<?xml version="1.0" encoding="utf-8"?>
<svg version="1.1" xmlns:xlink="http://www.w3.org/1999/xlink" width="12px" height="9px" xmlns="http://www.w3.org/2000/svg">
  <g transform="matrix(1 0 0 1 -348 -419 )">
    <path d="M 11.818976744186 2.9372  C 11.9386046511628 2.8094  11.9361860465116 2.6008  11.8122790697674 2.4776  C 8.51609302325581 -0.7998  3.38958139534884 -0.7986  0.0946976744186046 2.4776  C -0.0292093023255814 2.6008  -0.0316279069767442 2.8094  0.0881860465116279 2.9372  L 0.725209302325581 3.6166  C 0.839441860465116 3.7386  1.02325581395349 3.7412  1.14195348837209 3.6242  C 3.85674418604651 0.950599999999999  8.04986046511628 0.949999999999999  10.7652093023256 3.6242  C 10.8839069767442 3.7412  11.0677209302326 3.7384  11.1819534883721 3.6166  L 11.818976744186 2.9372  Z M 7.14418604651163 7.7  C 7.14418604651163 6.993  6.61116279069767 6.42  5.95348837209302 6.42  C 5.29581395348837 6.42  4.76279069767442 6.993  4.76279069767442 7.7  C 4.76279069767442 8.407  5.29581395348837 8.98  5.95348837209302 8.98  C 6.61116279069767 8.98  7.14418604651163 8.407  7.14418604651163 7.7  Z M 9.73451162790698 5.2112  C 9.85655813953488 5.082  9.85227906976744 4.87  9.72409302325581 4.7482  C 7.57972093023256 2.7096  4.32483720930233 2.7118  2.18288372093023 4.7482  C 2.05451162790698 4.8702  2.05041860465116 5.082  2.17227906976744 5.2112  L 2.81302325581395 5.891  C 2.9246511627907 6.0094  3.10437209302326 6.0174  3.22325581395349 5.907  C 4.78511627906977 4.4556  7.12539534883721 4.4588  8.68353488372093 5.907  C 8.80241860465116 6.0174  8.98213953488372 6.0096  9.09376744186047 5.891  L 9.73451162790698 5.2112  Z " fill-rule="nonzero" fill="#555555" stroke="none" transform="matrix(1 0 0 1 348 419 )" />
  </g>
</svg>