<?xml version="1.0" encoding="utf-8"?>
<svg version="1.1" xmlns:xlink="http://www.w3.org/1999/xlink" width="48px" height="32px" xmlns="http://www.w3.org/2000/svg">
  <g transform="matrix(1 0 0 1 -1574 -944 )">
    <path d="M 1574.5 948  A 3.5 3.5 0 0 1 1578 944.5 L 1618 944.5  A 3.5 3.5 0 0 1 1621.5 948 L 1621.5 972  A 3.5 3.5 0 0 1 1618 975.5 L 1578 975.5  A 3.5 3.5 0 0 1 1574.5 972 L 1574.5 948  Z " fill-rule="nonzero" fill="#2f3744" stroke="none" fill-opacity="0.549019607843137" />
    <path d="M 1574.5 948  A 3.5 3.5 0 0 1 1578 944.5 L 1618 944.5  A 3.5 3.5 0 0 1 1621.5 948 L 1621.5 972  A 3.5 3.5 0 0 1 1618 975.5 L 1578 975.5  A 3.5 3.5 0 0 1 1574.5 972 L 1574.5 948  Z " stroke-width="1" stroke="#325bee" fill="none" />
  </g>
</svg>