<?xml version="1.0" encoding="utf-8"?>
<svg version="1.1" xmlns:xlink="http://www.w3.org/1999/xlink" width="15px" height="20px" xmlns="http://www.w3.org/2000/svg">
  <defs>
    <linearGradient gradientUnits="userSpaceOnUse" x1="7.5" y1="0" x2="7.5" y2="20" id="LinearGradient4707">
      <stop id="Stop4708" stop-color="#0095f7" offset="0" />
      <stop id="Stop4709" stop-color="#0095f7" offset="0.02" />
      <stop id="Stop4710" stop-color="#0095f7" stop-opacity="0.650980392156863" offset="0.99" />
      <stop id="Stop4711" stop-color="#0095f7" stop-opacity="0.650980392156863" offset="1" />
    </linearGradient>
  </defs>
  <g transform="matrix(1 0 0 1 -29 -22 )">
    <path d="M 0 18.75  L 0 1.25  C 0 0.55957031  0.55957031 0  1.25 0  L 5 0  L 5 20  L 1.25 20  C 0.55957031 20  0 19.44043  0 18.75  Z M 10 20  L 10 0  L 13.75 0  C 14.44043 0  15 0.55957031  15 1.25  L 15 18.75  C 15 19.44043  14.44043 20  13.75 20  L 10 20  Z M 8.75 20  L 8.75 0  L 6.25 0  L 6.25 20  L 8.75 20  Z M 13.979821 3.5343866  C 13.9838343333333 3.49364473333333  13.9858406666667 3.45280426666667  13.98584 3.4118652  C 13.9858406666667 3.3709262  13.9838343333333 3.33008573333333  13.979821 3.2893438  C 13.975809 3.24860206666667  13.969809 3.20815493333333  13.961821 3.1680024  C 13.9538343333333 3.12785  13.943899 3.08818573333333  13.932015 3.0490096  C 13.920131 3.00983326666667  13.9063553333333 2.97133366666667  13.890688 2.9335108  C 13.875022 2.89568806666667  13.8575396666667 2.8587242  13.838241 2.8226192  C 13.818943 2.7865142  13.797921 2.75144186666667  13.775175 2.7174022  C 13.752431 2.68336273333333  13.7280733333333 2.65051986666667  13.702102 2.6188736  C 13.6761306666667 2.5872272  13.6486706666667 2.55692983333333  13.619722 2.5279815  C 13.5907746666667 2.49903336666667  13.5604776666667 2.4715735  13.528831 2.4456019  C 13.4971843333333 2.4196305  13.4643413333333 2.39527256666667  13.430302 2.3725281  C 13.3962626666667 2.34978356666667  13.3611903333333 2.32876203333333  13.325085 2.3094635  C 13.2889796666667 2.29016496666667  13.2520153333333 2.27268236666667  13.214192 2.2570157  C 13.17637 2.24134903333333  13.1378713333333 2.2275737  13.098696 2.2156897  C 13.0595193333333 2.20380576666667  13.0198546666667 2.19387036666667  12.979702 2.1858835  C 12.93955 2.17789683333333  12.899103 2.1718972  12.858361 2.1678846  C 12.8176196666667 2.16387186666667  12.7767793333333 2.1618654  12.73584 2.1618652  C 12.6949006666667 2.1618654  12.65406 2.16387186666667  12.613318 2.1678846  C 12.572576 2.1718972  12.5321286666667 2.17789683333333  12.491976 2.1858835  C 12.4518233333333 2.19387036666667  12.4121593333333 2.20380576666667  12.372984 2.2156897  C 12.3338073333333 2.2275737  12.2953073333333 2.24134903333333  12.257484 2.2570157  C 12.219662 2.27268236666667  12.1826986666667 2.29016496666667  12.146594 2.3094635  C 12.1104886666667 2.32876203333333  12.075416 2.34978346666667  12.041376 2.3725278  C 12.0073373333333 2.39527246666667  11.9744946666667 2.4196305  11.942848 2.4456019  C 11.9112013333333 2.4715735  11.8809036666667 2.49903336666667  11.851955 2.5279815  C 11.823007 2.55692983333333  11.7955476666667 2.5872272  11.769577 2.6188736  C 11.743605 2.65051986666667  11.7192466666667 2.68336273333333  11.696502 2.7174022  C 11.673758 2.75144186666667  11.6527366666667 2.78651426666667  11.633438 2.8226194  C 11.6141393333333 2.85872426666667  11.5966566666667 2.89568806666667  11.58099 2.9335108  C 11.565324 2.97133366666667  11.551549 3.00983326666667  11.539665 3.0490096  C 11.527781 3.08818573333333  11.5178453333333 3.1278499  11.509858 3.1680021  C 11.501872 3.2081547  11.4958723333333 3.24860193333333  11.491859 3.2893438  C 11.487847 3.33008573333333  11.4858406666667 3.3709262  11.48584 3.4118652  C 11.4858406666667 3.45280426666667  11.487847 3.49364473333333  11.491859 3.5343866  C 11.4958723333333 3.57512853333333  11.5018716666667 3.61557563333333  11.509857 3.6557279  C 11.5178443333333 3.69588043333333  11.5277796666667 3.73554476666667  11.539663 3.7747209  C 11.551547 3.81389723333333  11.5653223333333 3.85239666666667  11.580989 3.8902192  C 11.5966563333333 3.92804193333333  11.6141393333333 3.96500586666667  11.633438 4.001111  C 11.6527366666667 4.03721586666667  11.6737576666667 4.07228803333333  11.696501 4.1063275  C 11.7192456666667 4.14036736666667  11.743604 4.1732105  11.769576 4.2048569  C 11.7955473333333 4.23650296666667  11.823007 4.26680006666667  11.851955 4.2957482  C 11.8809036666667 4.32469666666667  11.9112013333333 4.35215663333333  11.942848 4.3781281  C 11.9744946666667 4.40409976666667  12.0073373333333 4.4284577  12.041376 4.4512019  C 12.075416 4.4739467  12.1104886666667 4.49496823333333  12.146594 4.5142665  C 12.1826986666667 4.53356503333333  12.219662 4.55104763333333  12.257484 4.5667143  C 12.2953073333333 4.58238123333333  12.333807 4.59615656666667  12.372983 4.6080403  C 12.412159 4.61992436666667  12.4518233333333 4.62985976666667  12.491976 4.6378465  C 12.5321286666667 4.6458335  12.572576 4.65183336666667  12.613318 4.6558461  C 12.65406 4.65985883333333  12.6949006666667 4.6618652  12.73584 4.6618652  C 12.7767793333333 4.6618652  12.81762 4.659859  12.858362 4.6558466  C 12.8991033333333 4.65183353333333  12.93955 4.64583363333333  12.979702 4.6378469  C 13.0198546666667 4.62986023333333  13.0595193333333 4.61992486666667  13.098696 4.6080408  C 13.1378713333333 4.59615673333333  13.17637 4.58238123333333  13.214192 4.5667143  C 13.2520153333333 4.55104796666667  13.28898 4.53356553333333  13.325086 4.514267  C 13.3611906666667 4.4949684  13.3962626666667 4.4739467  13.430302 4.4512019  C 13.4643413333333 4.4284577  13.4971843333333 4.4040999  13.528831 4.3781285  C 13.5604776666667 4.3521571  13.5907746666667 4.32469716666667  13.619722 4.2957487  C 13.6486706666667 4.26680056666667  13.676131 4.2365033  13.702103 4.2048569  C 13.7280736666667 4.17321076666667  13.752431 4.1403678  13.775175 4.106328  C 13.797921 4.07228853333333  13.818943 4.0372162  13.838241 4.001111  C 13.8575396666667 3.9650062  13.875022 3.92804226666667  13.890688 3.8902192  C 13.9063553333333 3.85239666666667  13.920131 3.8138973  13.932015 3.7747211  C 13.943899 3.73554483333333  13.9538343333333 3.69588043333333  13.961821 3.6557279  C 13.969809 3.61557563333333  13.975809 3.57512853333333  13.979821 3.5343866  Z M 2.6133184 18.822596  C 2.65406033333333 18.8266073333333  2.6949008 18.828613  2.7358398 18.828613  C 2.77677886666667 18.828613  2.81761933333333 18.8266066666667  2.8583612 18.822594  C 2.89910313333333 18.818582  2.93955023333333 18.812582  2.9797025 18.804594  C 3.01985503333333 18.7966073333333  3.05951936666667 18.786672  3.0986955 18.774788  C 3.13787163333333 18.762904  3.17637106666667 18.7491283333333  3.2141938 18.733461  C 3.25201666666667 18.7177956666667  3.2889806 18.7003136666667  3.3250856 18.681015  C 3.3611908 18.6617163333333  3.39626306666667 18.6406943333333  3.4303024 18.617949  C 3.46434206666667 18.5952043333333  3.497185 18.5708466666667  3.5288312 18.544876  C 3.56047766666667 18.5189046666667  3.59077496666667 18.4914446666667  3.6197231 18.462496  C 3.64867136666667 18.4335473333333  3.67613123333333 18.4032496666667  3.7021027 18.371603  C 3.72807423333333 18.3399576666667  3.75243216666667 18.307115  3.7751765 18.273075  C 3.79792103333333 18.239035  3.81894256666667 18.2039626666667  3.8382411 18.167858  C 3.85753963333333 18.1317533333333  3.87502223333333 18.0947896666667  3.8906889 18.056967  C 3.9063557 18.0191443333333  3.92013113333333 17.9806443333333  3.9320152 17.941467  C 3.94389906666667 17.9022916666667  3.95383436666667 17.8626276666667  3.9618211 17.822475  C 3.9698081 17.7823243333333  3.97580796666667 17.741878  3.9798207 17.701136  C 3.98383343333333 17.6603933333333  3.9858398 17.6195523333333  3.9858398 17.578613  C 3.9858398 17.5376736666667  3.98383343333333 17.4968336666667  3.9798207 17.456093  C 3.97580796666667 17.4153496666667  3.9698081 17.3749016666667  3.9618211 17.334749  C 3.95383436666667 17.294597  3.94389906666667 17.254933  3.9320152 17.215757  C 3.92013113333333 17.1765803333333  3.9063557 17.13808  3.8906889 17.100256  C 3.87502223333333 17.0624346666667  3.85753963333333 17.0254716666667  3.8382411 16.989367  C 3.81894256666667 16.9532616666667  3.79792103333333 16.9181886666667  3.7751765 16.884148  C 3.75243216666667 16.8501106666667  3.7280743 16.8172686666667  3.7021029 16.785622  C 3.6761313 16.7539753333333  3.64867136666667 16.7236776666667  3.6197231 16.694729  C 3.59077496666667 16.6657803333333  3.56047776666667 16.6383206666667  3.5288315 16.61235  C 3.4971851 16.5863786666667  3.46434196666667 16.5620206666667  3.4303021 16.539276  C 3.39626276666667 16.51653  3.3611906 16.495508  3.3250856 16.47621  C 3.2889806 16.4569113333333  3.25201666666667 16.4394283333333  3.2141938 16.423761  C 3.17637106666667 16.4080943333333  3.13787173333333 16.3943196666667  3.0986958 16.382437  C 3.05951946666667 16.370553  3.01985503333333 16.3606176666667  2.9797025 16.352631  C 2.93955023333333 16.344645  2.89910313333333 16.3386456666667  2.8583612 16.334633  C 2.81761933333333 16.3306196666667  2.77677886666667 16.328613  2.7358398 16.328613  C 2.6949008 16.328613  2.65406026666667 16.3306196666667  2.6133182 16.334633  C 2.57257626666667 16.3386456666667  2.53212903333333 16.344645  2.4919765 16.352631  C 2.4518241 16.3606176666667  2.41215983333333 16.370553  2.3729837 16.382437  C 2.33380756666667 16.3943196666667  2.29530806666667 16.4080943333333  2.2574852 16.423761  C 2.2196626 16.4394283333333  2.1826988 16.4569113333333  2.1465938 16.47621  C 2.1104888 16.495508  2.0754164 16.5165293333333  2.0413766 16.539274  C 2.00733726666667 16.5620186666667  1.97449443333333 16.5863773333333  1.9428481 16.61235  C 1.91120183333333 16.6383206666667  1.8809045 16.6657803333333  1.8519561 16.694729  C 1.82300796666667 16.7236776666667  1.79554816666667 16.7539753333333  1.7695767 16.785622  C 1.74360516666667 16.8172686666667  1.71924716666667 16.8501106666667  1.6965027 16.884148  C 1.67375816666667 16.9181886666667  1.65273663333333 16.953262  1.6334381 16.989368  C 1.61413956666667 17.0254733333333  1.59665693333333 17.0624366666667  1.5809902 17.100258  C 1.5653236 17.138082  1.5515483 17.1765816666667  1.5396643 17.215757  C 1.52778036666667 17.254933  1.51784493333333 17.294597  1.509858 17.334749  C 1.50187133333333 17.3749016666667  1.49587166666667 17.4153496666667  1.491859 17.456093  C 1.4878462 17.4968336666667  1.4858398 17.5376736666667  1.4858398 17.578613  C 1.4858398 17.6195523333333  1.4878462 17.6603933333333  1.491859 17.701136  C 1.49587173333333 17.741878  1.50187143333333 17.7823243333333  1.5098581 17.822475  C 1.51784496666667 17.8626276666667  1.5277804 17.9022916666667  1.5396644 17.941467  C 1.55154833333333 17.9806443333333  1.56532363333333 18.0191443333333  1.5809903 18.056967  C 1.5966571 18.0947896666667  1.61413973333333 18.1317533333333  1.6334382 18.167858  C 1.65273666666667 18.2039626666667  1.67375816666667 18.2390343333333  1.6965027 18.273073  C 1.71924723333333 18.307113  1.74360526666667 18.3399563333333  1.7695768 18.371603  C 1.7955482 18.4032496666667  1.823008 18.4335473333333  1.8519562 18.462496  C 1.8809046 18.4914446666667  1.91120193333333 18.5189046666667  1.9428482 18.544876  C 1.97449446666667 18.5708466666667  2.00733733333333 18.5952043333333  2.0413768 18.617949  C 2.07541646666667 18.6406943333333  2.1104888 18.6617163333333  2.1465938 18.681015  C 2.1826988 18.7003136666667  2.21966266666667 18.7177956666667  2.2574854 18.733461  C 2.29530813333333 18.7491283333333  2.33380763333333 18.762904  2.3729839 18.774788  C 2.4121601 18.786672  2.45182436666667 18.7966073333333  2.4919767 18.804594  C 2.5321293 18.812582  2.57257653333333 18.8185826666667  2.6133184 18.822596  Z " fill-rule="nonzero" fill="url(#LinearGradient4707)" stroke="none" transform="matrix(1 0 0 1 29 22 )" />
  </g>
</svg>