<?xml version="1.0" encoding="utf-8"?>
<svg version="1.1" xmlns:xlink="http://www.w3.org/1999/xlink" width="22px" height="22px" xmlns="http://www.w3.org/2000/svg">
  <defs>
    <linearGradient gradientUnits="userSpaceOnUse" x1="10.9998053125" y1="0.800048828125" x2="10.9998053125" y2="21.200050078125" id="LinearGradient4715">
      <stop id="Stop4716" stop-color="#1cd34b" offset="0" />
      <stop id="Stop4717" stop-color="#1cd34b" stop-opacity="0.650980392156863" offset="1" />
    </linearGradient>
  </defs>
  <g transform="matrix(1 0 0 1 -21 -21 )">
    <path d="M 17.6693396875 6.596999128125  C 18.2702866875 6.596999128125  18.8464546875 6.357493828125  19.2703166875 5.931493728125  L 20.8708686875 7.532895528125  C 21.3094516875 7.976607828125  21.3094516875 8.690584628125  20.8708686875 9.134297328125  L 9.1340531875 20.871112828125  C 8.6903404875 21.309695828125  7.9763636875 21.309695828125  7.5326513875 20.871112828125  L 5.9312495875 19.270560828125  C 6.3572496875 18.846698828125  6.5967549875 18.270530828125  6.5967549875 17.669583828125  C 6.5967549875 17.068637828125  6.3572496875 16.492470828125  5.9312495875 16.068607828125  C 5.5073856875 15.642606828125  4.9312190875 15.403101828125  4.3302721875 15.403101828125  C 3.7293252875 15.403101828125  3.1531588875 15.642606828125  2.7292950875 16.068607828125  L 1.1287430775 14.467204828125  C 0.6901585575 14.023491828125  0.6901585575 13.309514828125  1.1287430775 12.865803828125  L 12.8655596875 1.128987218125  C 13.3092706875 0.690402698125  14.0232476875 0.690402698125  14.4669606875 1.128987218125  L 16.0683636875 2.729539228125  C 15.6423626875 3.153403028125  15.4028576875 3.729569428125  15.4028576875 4.330516328125  C 15.4028576875 4.931463228125  15.6423626875 5.507629828125  16.0683636875 5.931493728125  C 16.4922266875 6.357493828125  17.0683936875 6.596999128125  17.6693396875 6.596999128125  Z M 9.2998046875 5.584211328125  C 9.2998046875 5.725638428125  9.3571080875 5.861030628125  9.4586372875 5.959486528125  L 10.9401896875 7.441038628125  C 11.0386446875 7.542567228125  11.1740366875 7.599870728125  11.3154636875 7.599870728125  C 11.4568916875 7.599870728125  11.5922836875 7.542567228125  11.6907396875 7.441038628125  C 11.7922676875 7.342582728125  11.8495716875 7.207190028125  11.8495716875 7.065763028125  C 11.8495716875 6.924335528125  11.7922676875 6.788943328125  11.6907396875 6.690487828125  L 10.2091874875 5.208935728125  C 9.9975375875 4.996435628125  9.6702870875 4.996435628125  9.4586372875 5.208935728125  C 9.3571080875 5.307391628125  9.2998046875 5.442784328125  9.2998046875 5.584211328125  Z M 11.8496096875 8.134260128125  C 11.8496096875 8.275687228125  11.9069126875 8.411079428125  12.0084416875 8.509535328125  L 13.4899936875 9.991086928125  C 13.7016426875 10.203587528125  14.0484436875 10.203587528125  14.2405446875 9.991086928125  C 14.3420726875 9.892631528125  14.3993766875 9.757238428125  14.3993766875 9.615812328125  C 14.3993766875 9.474384328125  14.3420726875 9.338992128125  14.2405446875 9.240536728125  L 12.7589926875 7.758984528125  C 12.5473426875 7.546484028125  12.2200916875 7.546484028125  12.0084416875 7.758984528125  C 11.9069126875 7.857440428125  11.8496096875 7.992833128125  11.8496096875 8.134260128125  Z M 14.3999026875 10.684309028125  C 14.3999026875 10.825735828125  14.4572066875 10.961127828125  14.5587346875 11.059583828125  L 16.0402866875 12.541135828125  C 16.1387426875 12.642664828125  16.2741346875 12.699968828125  16.4155616875 12.699968828125  C 16.5569896875 12.699968828125  16.6923806875 12.642664828125  16.7908376875 12.541135828125  C 16.8923646875 12.442680828125  16.9496686875 12.307286828125  16.9496686875 12.165860828125  C 16.9496686875 12.024432828125  16.8923646875 11.889040828125  16.7908376875 11.790585828125  L 15.3092856875 10.309033428125  C 15.0976356875 10.096532828125  14.7703846875 10.096532828125  14.5587346875 10.309033428125  C 14.4572066875 10.407489728125  14.3999026875 10.542881928125  14.3999026875 10.684309028125  Z " fill-rule="nonzero" fill="url(#LinearGradient4715)" stroke="none" transform="matrix(1 0 0 1 21 21 )" />
  </g>
</svg>