<?xml version="1.0" encoding="utf-8"?>
<svg version="1.1" xmlns:xlink="http://www.w3.org/1999/xlink" width="17px" height="20px" xmlns="http://www.w3.org/2000/svg">
  <defs>
    <linearGradient gradientUnits="userSpaceOnUse" x1="8.2494085" y1="-2.99343883014558E-12" x2="8.2494085" y2="19.9999990754782" id="LinearGradient4721">
      <stop id="Stop4722" stop-color="#fba113" offset="0" />
      <stop id="Stop4723" stop-color="#fba113" stop-opacity="0.650980392156863" offset="1" />
    </linearGradient>
  </defs>
  <g transform="matrix(1 0 0 1 -24 -22 )">
    <path d="M 16.498817 8.0001335000018  C 16.4953 8.23796270000176  16.374626 8.45872880000173  16.176338 8.59009170000171  L 4.9651442 19.5543060000001  L 4.9601445 19.5543060000001  C 4.7587466 19.837231  4.4314699 20.003485  4.0842075 19.999273  C 3.5310264 20.020121  3.0652602 19.5894580000001  3.0427821 19.0363430000001  C 3.0427821 19.0118450000002  3.0487819 18.9888480000002  3.0507815 18.9648480000002  L 3.0427821 18.9623490000002  L 3.0542812 18.9323520000002  C 3.0710542 18.7817570000002  3.12519 18.6377370000002  3.2117698 18.5133820000002  L 5.6055975 12.1498370000012  L 0.9604311 12.1498370000012  L 0.95343149 12.1358380000012  C 0.90278578 12.1450520000012  0.85141975 12.1497360000012  0.79994261 12.1498370000012  C 0.37398416 12.1653100000012  0.0159963459999997 11.8328290000012  0 11.4068900000013  C 0.00337829249999988 11.1692720000013  0.12363555 10.9485830000014  0.321477 10.8169320000014  L 0.321477 10.8144310000014  L 9.9302874 0.444675150002927  L 9.9352865 0.444675150002927  C 10.136963 0.162193220002969  10.464166 -0.00364905879700606  10.811225 0.000707005212993056  C 11.364215 -0.0198577939970036  11.82967 0.410722260002932  11.852151 0.963637950002849  C 11.852151 0.988136230002845  11.846151 1.01363440000284  11.84415 1.03563270000284  L 11.852151 1.03563270000284  L 11.837151 1.10112820000283  C 11.830742 1.14105060000282  11.821553 1.18047690000282  11.809653 1.21911970000281  L 10.409754 7.25718740000191  L 15.536886 7.25718740000191  L 15.543886 7.2716866000019  C 15.594353 7.2623310000019  15.645551 7.25747970000191  15.696875 7.25718740000191  C 16.123497 7.24086190000191  16.482559 7.57350870000186  16.498817 8.0001335000018  Z " fill-rule="nonzero" fill="url(#LinearGradient4721)" stroke="none" transform="matrix(1 0 0 1 24 22 )" />
  </g>
</svg>