<?xml version="1.0" encoding="utf-8"?>
<svg version="1.1" xmlns:xlink="http://www.w3.org/1999/xlink" width="24px" height="24px" xmlns="http://www.w3.org/2000/svg">
  <defs>
    <linearGradient gradientUnits="userSpaceOnUse" x1="12" y1="0" x2="12" y2="24" id="LinearGradient4724">
      <stop id="Stop4725" stop-color="#38e0e9" offset="0" />
      <stop id="Stop4726" stop-color="#38e0e9" stop-opacity="0.650980392156863" offset="1" />
    </linearGradient>
  </defs>
  <g transform="matrix(1 0 0 1 -20 -20 )">
    <path d="M 23.985546 11.411186  C 23.995182 11.6073393333333  24 11.8036106666667  24 12  C 24 12.1963886666667  23.9951813333333 12.3926596666667  23.985544 12.588813  C 23.975908 12.784965  23.9614656666667 12.980763  23.942217 13.176207  C 23.922967 13.3716503333333  23.8989336666667 13.566503  23.870117 13.760765  C 23.841301 13.9550283333333  23.8077356666667 14.148468  23.769421 14.341084  C 23.731107 14.5336993333333  23.688091 14.725259  23.640373 14.915763  C 23.5926536666667 15.1062656666667  23.5402906666667 15.2954836666667  23.483284 15.483417  C 23.4262746666667 15.6713483333333  23.364689 15.8577683333333  23.298527 16.042677  C 23.232365 16.2275856666667  23.1617066666667 16.4107596666667  23.086552 16.592199  C 23.0113973333333 16.773639  22.9318366666667 16.9531263333333  22.84787 17.130661  C 22.7639033333333 17.3081943333333  22.6756313333333 17.483561  22.583054 17.656761  C 22.490476 17.829961  22.3937046666667 18.000785  22.29274 18.169233  C 22.191776 18.3376816666667  22.0867403333333 18.5035513333333  21.977633 18.666842  C 21.868525 18.8301333333333  21.755477 18.9906493333333  21.638489 19.14839  C 21.5214996666667 19.3061313333333  21.4007116666667 19.4609076666667  21.276125 19.612719  C 21.1515383333333 19.7645283333333  21.0233016666667 19.91319  20.891415 20.058704  C 20.7595276666667 20.20422  20.6241496666667 20.3464116666667  20.485281 20.485279  C 20.346413 20.624147  20.204222 20.759525  20.058708 20.891413  C 19.913194 21.0232996666667  19.764532 21.151537  19.612722 21.276125  C 19.4609113333333 21.4007116666667  19.3061353333333 21.521499  19.148394 21.638487  C 18.990652 21.7554763333333  18.830135 21.868525  18.666843 21.977633  C 18.5035516666667 22.0867403333333  18.3376816666667 22.1917766666667  18.169233 22.292742  C 18.000785 22.3937053333333  17.8299616666667 22.490476  17.656763 22.583054  C 17.4835616666667 22.6756313333333  17.3081943333333 22.7639033333333  17.130661 22.84787  C 16.9531276666667 22.9318366666667  16.773641 23.0113973333333  16.592201 23.086552  C 16.4107616666667 23.1617066666667  16.2275876666667 23.232365  16.042679 23.298527  C 15.8577696666667 23.364689  15.6713493333333 23.4262746666667  15.483418 23.483284  C 15.2954846666667 23.5402906666667  15.106266 23.5926536666667  14.915762 23.640373  C 14.7252586666667 23.688091  14.5336993333333 23.731107  14.341084 23.769421  C 14.148468 23.8077356666667  13.9550286666667 23.8413003333333  13.760766 23.870115  C 13.5665033333333 23.898933  13.3716503333333 23.922967  13.176207 23.942217  C 12.980763 23.9614656666667  12.7849646666667 23.9759086666667  12.588812 23.985546  C 12.3926593333333 23.995182  12.1963886666667 24  12 24  C 11.8036106666667 24  11.6073393333333 23.9951813333333  11.411186 23.985544  C 11.2150346666667 23.975908  11.019237 23.9614656666667  10.823793 23.942217  C 10.6283496666667 23.922967  10.4334963333333 23.8989336666667  10.239233 23.870117  C 10.0449695333333 23.841301  9.85153006666667 23.8077356666667  9.6589146 23.769421  C 9.46629906666667 23.731107  9.27473956666667 23.688091  9.0842361 23.640373  C 8.8937333 23.5926536666667  8.70451573333333 23.5402906666667  8.5165834 23.483284  C 8.32865046666667 23.4262746666667  8.14222973333333 23.364689  7.9573212 23.298527  C 7.77241233333333 23.232365  7.58923803333333 23.1617066666667  7.4077983 23.086552  C 7.2263589 23.0113973333333  7.0468723 22.9318366666667  6.8693385 22.84787  C 6.69180503333333 22.7639033333333  6.51643846666667 22.6756313333333  6.3432388 22.583054  C 6.1700392 22.490476  5.99921516666667 22.3937046666667  5.8307667 22.29274  C 5.66231823333333 22.191776  5.4964482 22.0867403333333  5.3331566 21.977633  C 5.16986526666667 21.868525  5.009349 21.755477  4.8516078 21.638489  C 4.6938666 21.5214996666667  4.53909083333333 21.4007116666667  4.3872805 21.276125  C 4.2354695 21.1515383333333  4.08680676666667 21.0233016666667  3.9412923 20.891415  C 3.79577783333333 20.7595276666667  3.65358656666667 20.6241496666667  3.5147185 20.485281  C 3.3758505 20.346413  3.24047316666667 20.204222  3.1085865 20.058708  C 2.9766997 19.913194  2.8484624 19.764532  2.7238746 19.612722  C 2.59928653333333 19.4609113333333  2.4784982 19.3061353333333  2.3615096 19.148394  C 2.2445206 18.990652  2.1314722 18.830135  2.0223644 18.666843  C 1.9132566 18.5035516666667  1.8082206 18.3376816666667  1.7072564 18.169233  C 1.60629246666667 18.000785  1.5095219 17.8299616666667  1.4169447 17.656763  C 1.32436756666667 17.4835616666667  1.2360955 17.3081943333333  1.1521285 17.130661  C 1.06816136666667 16.9531276666667  0.988600376666667 16.773641  0.91344553 16.592201  C 0.83829071 16.4107616666667  0.767632603333333 16.2275876666667  0.70147121 16.042679  C 0.635309736666667 15.8577696666667  0.573724646666667 15.6713493333333  0.51671594 15.483418  C 0.45970724 15.2954846666667  0.407343566666667 15.106266  0.35962492 14.915762  C 0.3119063 14.7252586666667  0.268890193333333 14.5336993333333  0.2305766 14.341084  C 0.192263013333333 14.148468  0.158698103333333 13.9550286666667  0.12988187 13.760766  C 0.101065624666667 13.5665033333333  0.07703276 13.3716503333333  0.057783276 13.176207  C 0.0385337906666667 12.980763  0.0240908733333333 12.7849646666667  0.014454524 12.588812  C 0.00481817466666667 12.3926593333333  0 12.1963886666667  0 12  C 0 11.8036106666667  0.00481817466666667 11.6073393333333  0.014454524 11.411186  C 0.0240908733333333 11.2150346666667  0.0385337906666667 11.019237  0.057783276 10.823793  C 0.07703276 10.6283496666667  0.101065621333333 10.4334963333333  0.12988186 10.239233  C 0.1586981 10.0449695333333  0.192263013333333 9.85153006666667  0.2305766 9.6589146  C 0.268890193333333 9.46629906666667  0.3119063 9.27473956666667  0.35962492 9.0842361  C 0.407343566666667 8.8937333  0.45970724 8.70451573333333  0.51671594 8.5165834  C 0.573724646666667 8.32865046666667  0.635309716666667 8.14222973333333  0.70147115 7.9573212  C 0.767632583333333 7.77241233333333  0.83829071 7.58923803333333  0.91344553 7.4077983  C 0.988600376666667 7.2263589  1.06816136666667 7.0468723  1.1521285 6.8693385  C 1.23609563333333 6.69180503333333  1.32436776666667 6.51643846666667  1.4169449 6.3432388  C 1.50952203333333 6.1700392  1.60629266666667 5.99921516666667  1.7072568 5.8307667  C 1.80822086666667 5.66231823333333  1.9132568 5.4964482  2.0223646 5.3331566  C 2.1314726 5.16986526666667  2.24452093333333 5.009349  2.3615096 4.8516078  C 2.4784984 4.6938666  2.59928673333333 4.53909083333333  2.7238746 4.3872805  C 2.8484624 4.2354695  2.97669963333333 4.08680676666667  3.1085863 3.9412923  C 3.2404731 3.79577783333333  3.3758505 3.65358656666667  3.5147185 3.5147185  C 3.65358656666667 3.3758505  3.79577783333333 3.24047316666667  3.9412923 3.1085865  C 4.08680676666667 2.9766997  4.2354695 2.8484624  4.3872805 2.7238746  C 4.53909083333333 2.59928653333333  4.6938666 2.4784982  4.8516078 2.3615096  C 5.009349 2.2445206  5.16986526666667 2.1314722  5.3331566 2.0223644  C 5.4964482 1.9132566  5.66231823333333 1.8082206  5.8307667 1.7072564  C 5.99921543333333 1.60629246666667  6.1700398 1.5095219  6.3432398 1.4169447  C 6.51643913333333 1.32436756666667  6.69180553333333 1.2360955  6.869339 1.1521285  C 7.04687246666667 1.06816136666667  7.2263589 0.988600376666667  7.4077983 0.91344553  C 7.58923803333333 0.83829071  7.77241233333333 0.767632603333333  7.9573212 0.70147121  C 8.14222973333333 0.635309736666667  8.32865046666667 0.573724646666667  8.5165834 0.51671594  C 8.70451573333333 0.45970724  8.89373363333333 0.407343566666667  9.0842371 0.35962492  C 9.27474056666667 0.3119063  9.46630003333333 0.268890193333333  9.6589155 0.2305766  C 9.85153036666667 0.192263013333333  10.0449695333333 0.158698103333333  10.239233 0.12988187  C 10.4334963333333 0.101065624666667  10.6283496666667 0.07703276  10.823793 0.057783276  C 11.019237 0.0385337906666667  11.2150346666667 0.0240908733333333  11.411186 0.014454524  C 11.6073393333333 0.00481817466666667  11.8036106666667 0  12 0  C 12.1963886666667 0  12.3926596666667 0.00481817466666667  12.588813 0.014454524  C 12.784965 0.0240908733333333  12.980763 0.0385337906666667  13.176207 0.057783276  C 13.3716503333333 0.07703276  13.566503 0.101065621333333  13.760765 0.12988186  C 13.9550283333333 0.1586981  14.148468 0.192263013333333  14.341084 0.2305766  C 14.5336993333333 0.268890193333333  14.725259 0.3119063  14.915763 0.35962492  C 15.1062656666667 0.407343566666667  15.2954836666667 0.45970724  15.483417 0.51671594  C 15.6713483333333 0.573724646666667  15.8577683333333 0.635309716666667  16.042677 0.70147115  C 16.2275856666667 0.767632583333333  16.4107596666667 0.83829071  16.592199 0.91344553  C 16.773639 0.988600376666667  16.9531263333333 1.06816136666667  17.130661 1.1521285  C 17.3081943333333 1.23609563333333  17.483561 1.32436776666667  17.656761 1.4169449  C 17.829961 1.50952203333333  18.000785 1.60629266666667  18.169233 1.7072568  C 18.3376816666667 1.80822086666667  18.5035513333333 1.9132568  18.666842 2.0223646  C 18.8301333333333 2.1314726  18.9906493333333 2.24452093333333  19.14839 2.3615096  C 19.3061313333333 2.4784984  19.4609076666667 2.59928673333333  19.612719 2.7238746  C 19.7645283333333 2.8484624  19.91319 2.97669963333333  20.058704 3.1085863  C 20.20422 3.2404731  20.3464116666667 3.3758505  20.485279 3.5147185  C 20.624147 3.65358656666667  20.759525 3.79577783333333  20.891413 3.9412923  C 21.0232996666667 4.08680676666667  21.151537 4.2354695  21.276125 4.3872805  C 21.4007116666667 4.53909083333333  21.521499 4.6938666  21.638487 4.8516078  C 21.7554763333333 5.009349  21.868525 5.16986526666667  21.977633 5.3331566  C 22.0867403333333 5.4964482  22.1917766666667 5.66231823333333  22.292742 5.8307667  C 22.3937053333333 5.99921543333333  22.490476 6.1700398  22.583054 6.3432398  C 22.6756313333333 6.51643913333333  22.7639033333333 6.69180553333333  22.84787 6.869339  C 22.9318366666667 7.04687246666667  23.0113973333333 7.2263589  23.086552 7.4077983  C 23.1617066666667 7.58923803333333  23.232365 7.77241233333333  23.298527 7.9573212  C 23.364689 8.14222973333333  23.4262746666667 8.32865046666667  23.483284 8.5165834  C 23.5402906666667 8.70451573333333  23.5926536666667 8.89373363333333  23.640373 9.0842371  C 23.688091 9.27474056666667  23.731107 9.46630003333333  23.769421 9.6589155  C 23.8077356666667 9.85153036666667  23.8413003333333 10.0449695333333  23.870115 10.239233  C 23.898933 10.4334963333333  23.922967 10.6283496666667  23.942217 10.823793  C 23.9614656666667 11.019237  23.9759086666667 11.2150346666667  23.985546 11.411186  Z M 22.187521 12.500479  C 22.195711 12.333749  22.199806 12.166919  22.199806 11.999989  C 22.199806 11.8330576666667  22.1957103333333 11.6662273333333  22.187519 11.499498  C 22.179329 11.3327693333333  22.1670533333333 11.1663416666667  22.150692 11.000215  C 22.1343293333333 10.8340876666667  22.113901 10.668462  22.089407 10.503338  C 22.064913 10.3382133333333  22.036383 10.1737896666667  22.003817 10.010067  C 21.9712503333333 9.846344  21.9346863333333 9.6835184  21.894125 9.5215902  C 21.8535643333333 9.35966266666667  21.8090556666667 9.1988274  21.760599 9.0390844  C 21.712141 8.87934206666667  21.6597933333333 8.72088463333333  21.603556 8.5637121  C 21.547318 8.40653956666667  21.487258 8.2508411  21.423376 8.0966167  C 21.359494 7.94239296666667  21.291867 7.7898294  21.220495 7.638926  C 21.1491236666667 7.48802266666667  21.074093 7.3389613  20.995403 7.1917419  C 20.916711 7.04452196666667  20.8344553333333 6.89932126666667  20.748636 6.7561398  C 20.6628166666667 6.61295826666667  20.5735356666667 6.47196863333333  20.480793 6.3331709  C 20.3880523333333 6.19437316666667  20.2919613333333 6.05793416666667  20.19252 5.9238539  C 20.0930813333333 5.7897743  19.990412 5.65821506666667  19.884512 5.5291762  C 19.778612 5.4001368  19.6696103333333 5.27377353333333  19.557507 5.1500864  C 19.445403 5.02639866666667  19.330332 4.90553603333333  19.212294 4.7874985  C 19.0942553333333 4.66946096666667  18.9733923333333 4.5543903  18.849705 4.4422865  C 18.726017 4.3301827  18.5996536666667 4.2211809  18.470615 4.1152811  C 18.341577 4.00938143333333  18.210017 3.9067114  18.075935 3.807271  C 17.9418563333333 3.7078304  17.805418 3.6117392  17.66662 3.5189974  C 17.5278226666667 3.4262558  17.3868333333333 3.3369753  17.243652 3.2511559  C 17.1004713333333 3.1653363  16.9552713333333 3.08308123333333  16.808052 3.0043907  C 16.6608326666667 2.92570016666667  16.511771 2.8506689  16.360867 2.7792969  C 16.2099636666667 2.70792483333333  16.0573996666667 2.64029796666667  15.903175 2.5764163  C 15.7489516666667 2.5125347  15.5932536666667 2.4524753  15.436081 2.3962381  C 15.278909 2.34000103333333  15.120452 2.28765376666667  14.96071 2.2391963  C 14.800966 2.19073896666667  14.6401303333333 2.14622986666667  14.478203 2.105669  C 14.316275 2.06510826666667  14.1534493333333 2.02854456666667  13.989726 1.9959779  C 13.8260033333333 1.96341136666667  13.66158 1.93488116666667  13.496456 1.9103873  C 13.3313326666667 1.88589356666667  13.1657076666667 1.8654657  12.999581 1.8491037  C 12.8334543333333 1.83274156666667  12.667026 1.82046503333333  12.500296 1.8122741  C 12.333566 1.80408323333333  12.1667356666667 1.7999878  11.999805 1.7999878  C 11.832875 1.7999878  11.666045 1.80408326666667  11.499315 1.8122742  C 11.3325863333333 1.82046506666667  11.1661583333333 1.83274156666667  11.000031 1.8491037  C 10.8339043333333 1.8654657  10.668279 1.88589356666667  10.503155 1.9103873  C 10.3380303333333 1.93488116666667  10.1736066666667 1.96341136666667  10.009884 1.9959779  C 9.84616093333333 2.02854456666667  9.6833353 2.06510826666667  9.5214071 2.105669  C 9.35947896666667 2.14622986666667  9.1986437 2.19073896666667  9.0389013 2.2391963  C 8.8791583 2.28765376666667  8.72070056666667 2.3400011  8.5635281 2.3962383  C 8.40635556666667 2.45247536666667  8.2506574 2.5125347  8.0964336 2.5764163  C 7.94220986666667 2.64029796666667  7.78964613333333 2.70792483333333  7.6387424 2.7792969  C 7.48783873333333 2.8506689  7.33877723333333 2.92570016666667  7.1915579 3.0043907  C 7.0443379 3.08308123333333  6.89913716666667 3.1653363  6.7559557 3.2511559  C 6.61277483333333 3.3369753  6.47178553333333 3.4262558  6.3329878 3.5189974  C 6.19419 3.6117392  6.057751 3.7078304  5.9236708 3.807271  C 5.78959113333333 3.9067114  5.6580319 4.00938143333333  5.5289931 4.1152811  C 5.39995396666667 4.2211809  5.2735907 4.3301827  5.1499033 4.4422865  C 5.0262159 4.5543903  4.90535326666667 4.66946096666667  4.7873154 4.7874985  C 4.66927786666667 4.90553603333333  4.5542072 5.02639866666667  4.4421034 5.1500864  C 4.3299996 5.27377353333333  4.22099796666667 5.4001368  4.1150985 5.5291762  C 4.0091987 5.65821506666667  3.9065285 5.7897746  3.8070879 5.9238548  C 3.7076475 6.05793446666667  3.6115564 6.19437316666667  3.5188146 6.3331709  C 3.42607293333333 6.47196863333333  3.3367923 6.61295826666667  3.2509727 6.7561398  C 3.16515316666667 6.89932126666667  3.08289813333333 7.04452183333333  3.0042076 7.1917415  C 2.92551693333333 7.33896116666667  2.8504855 7.48802266666667  2.7791133 7.638926  C 2.70774123333333 7.7898294  2.6401145 7.94239296666667  2.5762331 8.0966167  C 2.51235156666667 8.2508411  2.4522922 8.40653926666667  2.396055 8.5637112  C 2.33981793333333 8.72088433333333  2.28747066666667 8.87934206666667  2.2390132 9.0390844  C 2.19055573333333 9.1988274  2.14604663333333 9.359663  2.1054859 9.5215912  C 2.06492503333333 9.68351873333333  2.0283613 9.846344  1.9957947 10.010067  C 1.9632281 10.1737896666667  1.93469793333333 10.3382133333333  1.9102042 10.503338  C 1.8857104 10.668462  1.86528253333333 10.8340876666667  1.8489206 11.000215  C 1.83255846666667 11.1663416666667  1.82028196666667 11.3327693333333  1.8120911 11.499498  C 1.80390016666667 11.6662273333333  1.7998047 11.8330576666667  1.7998047 11.999989  C 1.7998047 12.166919  1.80390016666667 12.333749  1.8120911 12.500479  C 1.82028196666667 12.6672083333333  1.83255846666667 12.8336363333333  1.8489206 12.999763  C 1.86528253333333 13.1658896666667  1.8857104 13.331515  1.9102042 13.496639  C 1.93469793333333 13.661763  1.9632281 13.8261863333333  1.9957947 13.989909  C 2.0283613 14.1536323333333  2.06492503333333 14.316458  2.1054859 14.478386  C 2.14604663333333 14.6403133333333  2.19055573333333 14.8011486666667  2.2390132 14.960892  C 2.28747066666667 15.120634  2.33981793333333 15.2790913333333  2.396055 15.436264  C 2.4522922 15.5934366666667  2.51235156666667 15.7491346666667  2.5762331 15.903358  C 2.6401145 16.0575813333333  2.7077413 16.2101446666667  2.7791135 16.361048  C 2.85048556666667 16.5119506666667  2.92551693333333 16.6610123333333  3.0042076 16.808233  C 3.08289813333333 16.955451  3.1651531 17.1006513333333  3.2509725 17.243834  C 3.3367921 17.3870146666667  3.4260727 17.5280036666667  3.5188143 17.666801  C 3.6115561 17.805599  3.7076473 17.942038  3.8070879 18.076118  C 3.9065285 18.2101986666667  4.0091987 18.3417586666667  4.1150985 18.470798  C 4.22099796666667 18.5998366666667  4.3299996 18.7262  4.4421034 18.849888  C 4.5542072 18.9735753333333  4.66927786666667 19.0944383333333  4.7873154 19.212477  C 4.90535326666667 19.330515  5.0262159 19.4455853333333  5.1499033 19.557688  C 5.27359103333333 19.6697913333333  5.39995446666667 19.778793  5.5289936 19.884693  C 5.65803206666667 19.990593  5.78959126666667 20.093263  5.9236712 20.192703  C 6.05775113333333 20.292145  6.19419 20.3882366666667  6.3329878 20.480978  C 6.47178553333333 20.5737193333333  6.61277483333333 20.6630003333333  6.7559557 20.748821  C 6.89913716666667 20.8346403333333  7.0443379 20.9168953333333  7.1915579 20.995586  C 7.33877723333333 21.074276  7.48783873333333 21.1493066666667  7.6387424 21.220678  C 7.78964613333333 21.29205  7.94220986666667 21.359677  8.0964336 21.423559  C 8.2506574 21.487441  8.40635556666667 21.547501  8.5635281 21.603739  C 8.72070056666667 21.6599763333333  8.8791583 21.7123233333333  9.0389013 21.76078  C 9.1986437 21.8092373333333  9.35947866666667 21.853746  9.5214062 21.894306  C 9.68333433333333 21.9348666666667  9.84615993333333 21.9714306666667  10.009883 22.003998  C 10.1736063333333 22.0365653333333  10.33803 22.0650953333333  10.503154 22.089588  C 10.668278 22.1140833333333  10.8339036666667 22.1345123333333  11.000031 22.150875  C 11.1661583333333 22.167235  11.3325863333333 22.1795106666667  11.499315 22.187702  C 11.666045 22.1958933333333  11.832875 22.199989  11.999805 22.199989  C 12.1667356666667 22.199989  12.333566 22.1958933333333  12.500296 22.187702  C 12.6670253333333 22.1795106666667  12.8334533333333 22.167235  12.99958 22.150875  C 13.1657066666667 22.1345123333333  13.331332 22.114084  13.496456 22.08959  C 13.6615793333333 22.065096  13.8260023333333 22.0365653333333  13.989725 22.003998  C 14.1534483333333 21.9714306666667  14.3162743333333 21.9348666666667  14.478203 21.894306  C 14.6401303333333 21.853746  14.8009656666667 21.8092373333333  14.960709 21.76078  C 15.120451 21.7123206666667  15.278908 21.659973  15.43608 21.603737  C 15.5932526666667 21.5474983333333  15.7489506666667 21.4874383333333  15.903174 21.423557  C 16.057398 21.3596763333333  16.2099616666667 21.2920493333333  16.360865 21.220676  C 16.5117676666667 21.1493046666667  16.6608293333333 21.074274  16.80805 20.995584  C 16.9552706666667 20.9168933333333  17.1004713333333 20.8346376666667  17.243652 20.748817  C 17.3868333333333 20.6629983333333  17.5278226666667 20.573718  17.66662 20.480976  C 17.805418 20.3882346666667  17.941857 20.2921436666667  18.075937 20.192703  C 18.2100176666667 20.0932616666667  18.341577 19.9905916666667  18.470615 19.884693  C 18.5996536666667 19.778793  18.726017 19.6697913333333  18.849705 19.557688  C 18.9733923333333 19.4455853333333  19.0942553333333 19.330515  19.212294 19.212477  C 19.330332 19.0944383333333  19.445403 18.9735753333333  19.557507 18.849888  C 19.6696103333333 18.7262  19.778612 18.5998366666667  19.884512 18.470798  C 19.990412 18.34176  20.0930813333333 18.2102  20.19252 18.076118  C 20.2919613333333 17.9420393333333  20.3880523333333 17.805601  20.480793 17.666803  C 20.5735356666667 17.5280056666667  20.6628166666667 17.3870163333333  20.748636 17.243835  C 20.8344553333333 17.1006543333333  20.916711 16.9554543333333  20.995403 16.808235  C 21.074093 16.6610143333333  21.1491236666667 16.5119526666667  21.220495 16.36105  C 21.291867 16.2101453333333  21.359494 16.0575813333333  21.423376 15.903358  C 21.487258 15.7491346666667  21.547318 15.5934366666667  21.603556 15.436264  C 21.6597933333333 15.2790913333333  21.712141 15.120634  21.760599 14.960892  C 21.8090556666667 14.8011486666667  21.8535643333333 14.640313  21.894125 14.478385  C 21.9346863333333 14.3164576666667  21.9712503333333 14.1536323333333  22.003817 13.989909  C 22.036383 13.8261863333333  22.064913 13.661763  22.089407 13.496639  C 22.113901 13.331515  22.1343293333333 13.1658896666667  22.150692 12.999763  C 22.1670533333333 12.8336363333333  22.1793296666667 12.6672083333333  22.187521 12.500479  Z M 4.372211 14.590485  C 4.2621799 13.76525  4.5372577 13.077556  5.1974449 12.582415  C 5.8851404 12.032259  6.6553588 12.004751  7.4805927 12.472384  C 8.3058271 12.940017  9.2135849 12.995032  10.148849 12.664938  C 10.368912 12.582415  10.478943 12.417368  10.478943 12.197306  C 10.478943 11.977243  10.341404 11.839705  10.066326 11.839705  C 9.5161705 11.812197  8.9660149 11.674658  8.3608427 11.39958  C 7.8381944 11.15201  7.3705616 10.849423  6.9854527 10.491821  C 5.747601 9.3640022  5.5275388 8.0711355  6.2977571 6.5857134  C 6.6003428 6.0355577  7.067976 5.567925  7.7281628 5.1553078  C 8.3608427 4.742691  9.0485382 4.4951205  9.7637405 4.3850894  C 10.5889748333333 4.27505826666667  11.2491623333333 4.55013623333333  11.744303 5.2103233  C 12.239443 5.8705111  12.294458 6.640729  11.826826 7.4659634  C 11.579256 7.9335961  11.441717 8.4287367  11.441717 8.9513845  C 11.441717 9.39151  11.496733 9.776619  11.634272 10.161728  C 11.716795 10.354282  11.881842 10.491821  12.101904 10.464314  C 12.321966 10.436806  12.459506 10.299267  12.459506 10.051697  C 12.487013 9.5290489  12.65206 8.9513845  12.927138 8.3462133  C 13.174708 7.8235645  13.449786 7.3559322  13.807388 6.9708228  C 14.935207 5.7604795  16.228073 5.5404172  17.713497 6.3106356  C 18.263653 6.5857134  18.731285 7.0533462  19.143902 7.7135334  C 19.556519 8.3462133  19.804089 9.0339088  19.91412 9.7491112  C 20.024151 10.574345  19.749073 11.26204  19.088886 11.757181  C 18.401192 12.279829  17.630974 12.307337  16.80574 11.839705  C 16.338106 11.592134  15.842966 11.454596  15.320317 11.454596  C 14.9077 11.454596  14.522591 11.537119  14.137482 11.674658  C 13.917418 11.729673  13.807388 11.89472  13.807388 12.114782  C 13.807388 12.334845  13.944927 12.472384  14.220005 12.472384  C 14.770161 12.499891  15.320317 12.664938  15.925489 12.940017  C 16.475643 13.187587  16.91577 13.490172  17.30088 13.847774  C 18.538731 14.948086  18.758793 16.240952  17.988575 17.726376  C 17.713497 18.276531  17.245863 18.744164  16.585676 19.15678  C 15.952996 19.569397  15.265301 19.816967  14.550098 19.926998  C 13.724865 20.064537  13.037169 19.789459  12.542029 19.129272  C 12.046888 18.469086  11.991873 17.698866  12.459506 16.873632  C 12.927138 16.048397  12.982154 15.140641  12.65206 14.177868  C 12.542029 13.985313  12.40449 13.875281  12.184427 13.875281  C 11.964365 13.875281  11.826826 14.012821  11.826826 14.287898  C 11.799318 14.838055  11.634272 15.388211  11.359194 15.993382  C 11.111623 16.543539  10.836545 16.983665  10.478943 17.368773  C 9.3511238 18.579117  8.0582571 18.799179  6.572835 18.028961  C 6.0226793 17.753883  5.5550466 17.286249  5.1424294 16.626062  C 4.7298126 15.993382  4.4822421 15.305688  4.372211 14.590485  Z M 12.734601 12.719934  C 12.87214 12.554887  12.954663 12.362332  12.954663 12.142269  C 12.954663 11.922207  12.899648 11.75716  12.734601 11.592113  C 12.569554 11.427067  12.404508 11.372051  12.184444 11.344543  C 11.9643826666667 11.344543  11.7718283333333 11.4270663333333  11.606781 11.592113  C 11.469242 11.729652  11.386719 11.922207  11.386719 12.142269  C 11.386719 12.362332  11.441734 12.554887  11.606781 12.719934  C 11.771828 12.857472  11.964382 12.939996  12.184444 12.939996  C 12.404508 12.939996  12.569554 12.857472  12.734601 12.719934  Z " fill-rule="nonzero" fill="url(#LinearGradient4724)" stroke="none" transform="matrix(1 0 0 1 20 20 )" />
  </g>
</svg>