<?xml version="1.0" encoding="utf-8"?>
<svg version="1.1" xmlns:xlink="http://www.w3.org/1999/xlink" width="25px" height="22px" xmlns="http://www.w3.org/2000/svg">
  <defs>
    <linearGradient gradientUnits="userSpaceOnUse" x1="12.0001478326872" y1="0.800000066323413" x2="12.0001478326872" y2="21.8000590715256" id="LinearGradient4727">
      <stop id="Stop4728" stop-color="#0095f7" offset="0" />
      <stop id="Stop4729" stop-color="#0095f7" stop-opacity="0.650980392156863" offset="1" />
    </linearGradient>
  </defs>
  <g transform="matrix(1 0 0 1 -20 -21 )">
    <path d="M 10.141757 13.5917180715256  L 3.032475 8.62547387152557  L 1.9883367 7.90491947152557  L 1.6902122 8.47117317152557  C 1.516072 8.83120807152557  1.5906031 9.24291887152557  1.8889618 9.47461207152557  L 6.1395774 12.6651880715256  C 5.0956736 12.9997470715256  4.3250504 13.9774690715256  4.3250504 15.1611680715256  C 4.3250504 16.6020340715256  5.4685636 17.7857330715256  6.8853574 17.7857330715256  C 8.3021507 17.7857330715256  9.4456644 16.6020340715256  9.4456644 15.1611680715256  L 9.4456644 15.1354510715256  L 15.103934 18.9961170715256  C 15.228151 19.0732700715256  15.352605 19.1247010715256  15.476824 19.1247010715256  C 15.700416 19.1247010715256  15.8994 18.9958750715256  16.023619 18.7901430715256  L 16.371666 18.2241290715256  L 16.993225 17.0147140715256  L 17.912912 15.4193070715256  C 17.937756 15.3935890715256  17.987442 15.2904790715256  18.086817 15.1361800715256  C 17.639397 14.7759030715256  14.864871 13.1290600715256  14.243311 12.6916320715256  C 14.019483 12.5370890715256  13.795889 12.4599390715256  13.572062 12.4599390715256  C 13.398155 12.4599390715256  13.199406 12.5113720715256  12.975578 12.6399560715256  C 12.726908 12.7685400715256  12.453627 12.9999900715256  12.229799 13.2574000715256  C 11.93144 13.6431510715256  11.508862 13.8748450715256  11.011755 13.8748450715256  C 10.688553 13.8748450715256  10.390429 13.7717350715256  10.141757 13.5917180715256  Z M 23.879307 12.7166500715256  C 23.829618 12.6394990715256  23.77993 12.5880660715256  23.705399 12.5366330715256  L 7.010201 1.16327765152557  C 6.0656719 0.494399461525574  4.8476276 0.777283752525574  4.2263007 1.78096491152557  C 4.201457 1.78096491152557  4.201457 1.80668167152557  4.201457 1.80668167152557  L 1.889587 5.79496177152557  C 1.6657594 6.12927997152557  1.7651342 6.54099027152557  2.063493 6.79840027152557  L 2.0883367 6.79840027152557  L 2.4612265 7.08152707152557  L 3.5550523 7.82779827152557  L 10.639256 12.7938000715256  C 10.912771 12.9740610715256  11.260818 12.9226260715256  11.459566 12.6394990715256  C 11.757925 12.3049390715256  12.10597 11.9963380715256  12.503704 11.7646440715256  C 13.274328 11.3272180715256  14.069796 11.3786510715256  14.79073 11.8675120715256  C 16.978149 13.3340940715256  20.448999 15.8043580715256  20.473845 15.8043580715256  C 20.598063 15.9329420715256  20.747358 15.9843750715256  20.896421 15.9843750715256  C 21.045483 15.9843750715256  21.19478 15.9329420715256  21.294155 15.8300760715256  L 23.755087 13.7458060715256  C 24.028368 13.4629210715256  24.078289 13.0512100715256  23.879307 12.7166500715256  Z M 1.242888 14.9356270715256  L 1.242888 12.4338230715256  C 1.242888 12.0478290715256  0.94452924 11.7132690715256  0.6213268 11.7132690715256  C 0.29835874 11.7132690715256  0 12.0221130715256  0 12.4338230715256  L 0 21.0795050715256  C 0 21.4654990715256  0.29812437 21.8000590715256  0.6213268 21.8000590715256  C 0.94452924 21.8000590715256  1.242888 21.4912160715256  1.242888 21.0795050715256  L 1.242888 18.9013450715256  L 5.6294413 18.9013450715256  C 5.941628 18.9013450715256  6.1645184 18.6664970715256  6.1645184 18.4158790715256  C 6.0402994 18.4415960715256  5.8910027 18.4415960715256  5.7667847 18.4415960715256  C 4.9361615 18.4415960715256  3.4846799 17.1598820715256  3.4846799 15.7782140715256  L 3.4846694 15.7298790715256  C 3.4845259 15.2954740715256  3.4845219 15.2834460715256  3.6044452 14.9356270715256  L 1.242888 14.9356270715256  Z M 5.6425781 15.1612120715256  C 5.6425781 14.4406570715256  6.2142177 13.8746460715256  6.9103098 13.8746460715256  C 7.6310115 13.8746460715256  8.1780415 14.4406570715256  8.1780415 15.1612120715256  C 8.1780415 15.8817660715256  7.6312456 16.4477770715256  6.9103098 16.4477770715256  C 6.189374 16.4477770715256  5.6425781 15.8817660715256  5.6425781 15.1612120715256  Z " fill-rule="nonzero" fill="url(#LinearGradient4727)" stroke="none" transform="matrix(1 0 0 1 20 21 )" />
  </g>
</svg>