<?xml version="1.0" encoding="utf-8"?>
<svg version="1.1" xmlns:xlink="http://www.w3.org/1999/xlink" width="19px" height="21px" xmlns="http://www.w3.org/2000/svg">
  <defs>
    <linearGradient gradientUnits="userSpaceOnUse" x1="9.2500875292756" y1="0" x2="9.2500875292756" y2="20.000076623116" id="LinearGradient4730">
      <stop id="Stop4731" stop-color="#fba113" offset="0" />
      <stop id="Stop4732" stop-color="#fba113" stop-opacity="0.650980392156863" offset="1" />
    </linearGradient>
  </defs>
  <g transform="matrix(1 0 0 1 -23 -22 )">
    <path d="M 17.324064 18.803715  C 17.094391 18.803715  16.647949 18.498726  16.647949 18.126093  L 16.647949 0.6776219  C 16.647949 0.3049885  17.105373 0  17.324064 0  C 17.542944 0  18.000364 0.304793  18 0.6776219  L 18 18.126093  C 18.000175 18.498726  17.553736 18.803715  17.324064 18.803715  Z M 5.1592999 5.9065032  C 5.1396084 6.1319189  5.1396084 6.3587084  5.1592999 6.5841246  L 5.1592999 12.230909  C 5.1396084 12.456325  5.1396084 12.683114  5.1592999 12.90853  C 10.846775 12.90853  15.466417 18.329506  15.466417 18.329506  C 15.718053 18.600477  15.925763 18.510153  16 18.13752  L 16 0.67770928  C 15.925763 0.30507585  15.717865 0.21475232  15.466417 0.4857229  C 15.466228 0.4857229  10.857758 5.9065032  5.1592999 5.9065032  Z M 1.1562618 12.897186  C 0.98225588 12.897186  0.81525558 12.825829  0.69218284 12.69875  C 0.569110081 12.571671  0.5 12.399235  0.5 12.219564  L 0.5 6.629282  C 0.5 6.2550845  0.79385987 5.9516602  1.1562618 5.9516602  L 3.7156069 5.9516602  C 4.0780089 5.9516602  4.3718688 6.2550845  4.3718688 6.629282  L 4.3718688 12.050258  C 4.3718688 12.517906  4.0047333 12.897186  3.5516362 12.897186  L 1.1562618 12.897186  Z M 6.485456 19.796764  C 6.1033134 19.694641  5.7696638 19.45363  5.5457482 19.11797  L 2.7760434 14.966999  C 2.7088268 14.866118  2.6728516 14.746469  2.6728516 14.624083  C 2.6728516 14.290355  2.9349017 14.019775  3.2581098 14.019775  L 4.9345703 14.019775  C 5.2079258 14.019765  5.4634066 14.160369  5.6157227 14.394745  L 8.7305908 19.185608  C 8.8112507 19.309557  8.8367691 19.463419  8.800415 19.608093  C 8.7301693 19.887665  7.4539437 20.055614  7.1831837 19.983276  L 6.485456 19.796764  Z " fill-rule="nonzero" fill="url(#LinearGradient4730)" stroke="none" transform="matrix(1 0 0 1 23 22 )" />
  </g>
</svg>