<?xml version="1.0" encoding="utf-8"?>
<svg version="1.1" xmlns:xlink="http://www.w3.org/1999/xlink" width="22px" height="18px" xmlns="http://www.w3.org/2000/svg">
  <defs>
    <linearGradient gradientUnits="userSpaceOnUse" x1="11.0000010715256" y1="0" x2="11.0000010715256" y2="17.8500250812998" id="LinearGradient4733">
      <stop id="Stop4734" stop-color="#1cd34b" offset="0" />
      <stop id="Stop4735" stop-color="#1cd34b" stop-opacity="0.650980392156863" offset="1" />
    </linearGradient>
  </defs>
  <g transform="matrix(1 0 0 1 -21 -23 )">
    <path d="M 19.6703100715256 16.999233  L 19.6703100715256 6.1008339  C 19.6711850715256 5.8749218  19.5816370715256 5.6580062  19.4215420715256 5.4982367  C 19.2614750715256 5.3384023  19.0440050715256 5.2490425  18.8175400715256 5.2500486  L 3.18309247152557 5.2500486  C 2.95671857152557 5.2492361  2.73930217152557 5.338397  2.57908977152557 5.4982367  C 2.41887737152557 5.6580763  2.32930507152557 5.8749866  2.33032287152557 6.101037  L 2.33032287152557 16.999435  C 2.32930507152557 17.225283  2.41908097152557 17.44199  2.57908977152557 17.60183  C 2.73909857152557 17.761669  2.95671857152557 17.85083  3.18309247152557 17.850018  L 18.8175400715256 17.850018  C 19.0439920715256 17.850941  19.2614330715256 17.7616  19.4215590715256 17.601847  C 19.5816850715256 17.442093  19.6712350715256 17.225157  19.6703100715256 16.999233  Z M 20.4125030715256 0  C 20.8474260715256 0  21.2000020715256 0.35257536  21.2000020715256 0.78749919  C 21.2000020715256 1.2224231  20.8474260715256 1.5749984  20.4125030715256 1.5749984  L 16.1000200715256 1.5749984  L 16.1000200715256 5.2499938  L 14.5700200715256 5.2499938  L 14.5700200715256 1.5749984  L 7.43009797152557 1.5749984  L 7.43009797152557 5.2499938  L 5.90009777152557 5.2499938  L 5.90009777152557 1.5749984  L 1.58749908152557 1.5749984  C 1.15257543152557 1.5749984  0.800000071525574 1.2224231  0.800000071525574 0.78749919  C 0.800000071525574 0.35257536  1.15257543152557 0  1.58749926152557 0  L 20.4125030715256 0  Z M 16.4901580715256 9.1875  C 16.8380970715256 9.1875  17.1201560715256 9.4695606  17.1201560715256 9.8174992  C 17.1201560715256 10.165438  16.8380970715256 10.447498  16.4901580715256 10.447498  L 9.59015547152557 10.447498  C 9.24221697152557 10.447498  8.96015627152557 10.165438  8.96015627152557 9.8174992  C 8.96015627152557 9.4695606  9.24221697152557 9.1875  9.59015547152557 9.1875  L 16.4901580715256 9.1875  Z M 17.1200700715256 12.836298  C 17.1200700715256 13.184237  16.8380100715256 13.466297  16.4900710715256 13.466297  L 5.51007737152557 13.466297  C 5.16213837152557 13.466297  4.88007817152557 13.184237  4.88007817152557 12.836298  C 4.88007817152557 12.488359  5.16213837152557 12.206299  5.51007737152557 12  L 16.4900710715256 12  C 16.8380100715256 12.206299  17.1200700715256 12.488359  17.1200700715256 12.836298  Z " fill-rule="nonzero" fill="url(#LinearGradient4733)" stroke="none" transform="matrix(1 0 0 1 21 23 )" />
  </g>
</svg>