<?xml version="1.0" encoding="utf-8"?>
<svg version="1.1" xmlns:xlink="http://www.w3.org/1999/xlink" width="20px" height="22px" xmlns="http://www.w3.org/2000/svg">
  <defs>
    <linearGradient gradientUnits="userSpaceOnUse" x1="9.96238359536743" y1="0.800000071525574" x2="9.96238359536743" y2="21.2000020715256" id="LinearGradient4736">
      <stop id="Stop4737" stop-color="#0095f7" offset="0" />
      <stop id="Stop4738" stop-color="#0095f7" stop-opacity="0.650980392156863" offset="1" />
    </linearGradient>
  </defs>
  <g transform="matrix(1 0 0 1 -26 -17 )">
    <path d="M 9 20.1673800715256  L 9 2.36040517152557  C 8.95592002870077 1.87086636485891  8.83977649536743 1.48841412819224  8.60749009536743 1.21304846152557  C 8.37520169536743 0.937682871525574  8.09012219536743 0.800000071525574  7.75224969536743 0.800000071525574  L 1.60367139536743 0.800000071525574  C 1.26579879536743 0.800000076492628  0.980718742034099 0.926209316492628  0.748431235367431 1.17862779152557  C 0.516143808700765 1.43104619152557  0.400000095367432 1.74083251819224  0.400000095367432 2.10798677152557  L 0.400000095367432 19.9149640715256  C 0.400000095367432 20.2668180715256  0.516143815367432 20.5689570715256  0.748431235367431 20.8213740715256  C 0.980718702034098 21.0737927381922  1.26579875536743 21.2000020715256  1.60367139536743 21.2000020715256  L 7.75224969536743 21.2000020715256  C 8.09012219536743 21.2000020715256  8.37520169536743 21.0852650715256  8.60749009536743 20.8557960715256  C 8.83977649536743 20.6263230715256  8.95592069536743 20.3968530715256  9 20.1673800715256  Z M 19.5247670953674 20.1673800715256  L 19.5247670953674 2.36040517152557  C 19.5247670953674 1.87086637152557  19.4086250953674 1.48841411152557  19.1763370953674 1.21304846152557  C 18.9440480953674 0.937682871525574  18.6589700953674 0.800000071525574  18.3210970953674 0.800000071525574  L 12.1725190953674 0.800000071525574  C 11.8346470953674 0.800000076492628  11.5495670953674 0.926209316492628  11.3172790953674 1.17862779152557  C 11.0849920953674 1.43104625152557  10.9688480953674 1.74083251152557  11 2.10798677152557  L 11 19.9149640715256  C 10.9688480953674 20.2668180715256  11.0849920953674 20.5689570715256  11.3172790953674 20.8213740715256  C 11.5495670953674 21.0737927381922  11.8346470953674 21.2000020715256  12.1725190953674 21.2000020715256  L 18.3210970953674 21.2000020715256  C 18.6589700953674 21.2000020715256  18.9440480953674 21.0852650715256  19.1763370953674 20.8557960715256  C 19.4086250953674 20.6263230715256  19.5247670953674 20.3968530715256  19.5247670953674 20.1673800715256  Z M 6.76989369536743 2.93916027152557  C 6.96698669536743 2.93916027152557  7.12888339536743 3.02329977152557  7.25558659536743 3.19157877152557  C 7.38228849536743 3.35985767152557  7.44563959536743 3.57403097152557  7.44563959536743 3.83409847152557  L 7.44563959536743 10.6601542715256  C 7.4456392620341 10.9202214715256  7.3822882620341 11.1382190715256  7.25558659536743 11.3141470715256  C 7.12888339536743 11.4900750715256  6.96698669536743 11.5780390715256  6.76989369536743 11.5780390715256  L 2.48053049536743 11.5780390715256  C 2.28343809536743 11.5780390715256  2.12154079536743 11.4900750715256  1.99483859536743 11.3141470715256  C 1.86813639536743 11.1382190715256  1.80478529536743 10.9202214715256  1.80478529536743 10.6601542715256  L 1.80478529536743 3.83409847152557  C 1.80478529536743 3.57403100485891  1.86813639536743 3.35985777152557  1.99483859536743 3.19157877152557  C 2.12154092870077 3.02329977152557  2.28343822870077 2.93916027152557  2.48053049536743 2.93916027152557  L 6.76989369536743 2.93916027152557  Z M 17.4329530953674 2.93916027152557  C 17.6300444287008 2.93916027152557  17.7919420953674 3.02329977152557  17.9186460953674 3.19157877152557  C 18.0453474287008 3.35985777152557  18.1086980953674 3.57403100485891  18.1086980953674 3.83409847152557  L 18.1086980953674 10.6601542715256  C 18.1086980953674 10.9202214715256  18.0453474287008 11.1382190715256  17.9186460953674 11.3141470715256  C 17.7919420953674 11.4900750715256  17.6300444287008 11.5780390715256  17.4329530953674 11.5780390715256  L 13.1548470953674 11.5780390715256  C 12.9577550953674 11.5780390715256  12.7958570953674 11.4900750715256  12.6691550953674 11.3141470715256  C 12.5424520953674 11.1382190715256  12.4791020953674 10.9202210715256  12.4791020953674 10.6601542715256  L 12.4791020953674 3.83409847152557  C 12.4791020953674 3.57403100485891  12.5424530953674 3.35985777152557  12.6691550953674 3.19157877152557  C 12.7958570953674 3.02329977152557  12.9577550953674 2.93916027152557  13.1548470953674 2.93916027152557  L 17.4329530953674 2.93916027152557  Z " fill-rule="nonzero" fill="url(#LinearGradient4736)" stroke="none" transform="matrix(1 0 0 1 26 17 )" />
  </g>
</svg>