<?xml version="1.0" encoding="utf-8"?>
<svg version="1.1" xmlns:xlink="http://www.w3.org/1999/xlink" width="20px" height="20px" xmlns="http://www.w3.org/2000/svg">
  <defs>
    <linearGradient gradientUnits="userSpaceOnUse" x1="10" y1="0" x2="10" y2="20" id="LinearGradient4742">
      <stop id="Stop4743" stop-color="#00f7ad" offset="0" />
      <stop id="Stop4744" stop-color="#00ab78" offset="0" />
      <stop id="Stop4745" stop-color="#00ab78" stop-opacity="0.647058823529412" offset="1" />
    </linearGradient>
  </defs>
  <g transform="matrix(1 0 0 1 -24 -22 )">
    <path d="M 17.6883928571429 17.6881696428571  C 16.0529017857143 19.3696428571429  13.3113839285714 19.9446428571429  10 19.9901785714286  C 6.68861607142857 19.9448660714286  3.94709821428571 19.3698660714286  2.31183035714286 17.6883928571429  C 0.630357142857143 16.053125  0.0551339285714292 13.3113839285714  0.00982142857142852 10  C 0.0551339285714292 6.68861607142857  0.630133928571429 3.946875  2.31160714285714 2.31160714285714  C 3.946875 0.630357142857143  6.68861607142857 0.0551339285714292  10 0.00982142857142979  C 13.3113839285714 0.0551339285714292  16.0529017857143 0.630133928571429  17.6881696428571 2.31160714285714  C 19.3696428571429 3.946875  19.9448660714286 6.68861607142857  19.9901785714286 10  C 19.9448660714286 13.3113839285714  19.3696428571429 16.0529017857143  17.6883928571429 17.6881696428571  Z M 9.28571428571429 8.98816964285714  L 9.28571428571429 6.209375  C 9.28459821428572 5.86205357142857  9.00044642857143 5.57790178571428  8.653125 5.71428571428571  L 5.87433035714286 5.71428571428571  C 5.52700892857143 5.57790178571428  5.24285714285714 5.86205357142857  5.35714285714286 6.209375  L 5.35714285714286 8.98816964285714  C 5.24285714285714 9.33549107142857  5.52700892857143 9.61964285714286  5.87433035714286 9.64285714285714  L 8.653125 9.64285714285714  C 9.00044642857143 9.61964285714286  9.28459821428572 9.33549107142857  9.28571428571429 8.98816964285714  Z M 9.28571428571429 14.0589285714286  L 9.28571428571429 11.2801339285714  C 9.28459821428572 10.9328125  9.00044642857143 10.6486607142857  8.653125 10.5357142857143  L 5.87433035714286 10.5357142857143  C 5.52700892857143 10.6486607142857  5.24285714285714 10.9328125  5.35714285714286 11.2801339285714  L 5.35714285714286 14.0589285714286  C 5.24285714285714 14.40625  5.52700892857143 14.6904017857143  5.87433035714286 14.6428571428571  L 8.653125 14.6428571428571  C 9.00044642857143 14.6904017857143  9.28459821428572 14.40625  9.28571428571429 14.0589285714286  Z M 12.8457589285714 9.72566964285714  L 14.5787946428571 7.99263392857143  C 14.7953125 7.77611607142857  14.7953125 7.42165178571429  14.5787946428571 7.20513392857143  L 12.8457589285714 5.47209821428572  C 12.6292410714286 5.25558035714286  12.2747767857143 5.25558035714286  12.0582589285714 5.47209821428572  L 10.3252232142857 7.20513392857143  C 10.1087053571429 7.42165178571429  10.1087053571429 7.77611607142857  10.3252232142857 7.99263392857143  L 12.0582589285714 9.72566964285714  C 12.275 9.9421875  12.6292410714286 9.9421875  12.8457589285714 9.72566964285714  Z M 14.4642857142857 14.0589285714286  L 14.4642857142857 11.2801339285714  C 14.4729910714286 10.9328125  14.1888392857143 10.6486607142857  13.8415178571429 10.5357142857143  L 11.0627232142857 10.5357142857143  C 10.7154017857143 10.6486607142857  10.43125 10.9328125  10.3571428571429 11.2801339285714  L 10.3571428571429 14.0589285714286  C 10.43125 14.40625  10.7154017857143 14.6904017857143  11.0627232142857 14.6428571428571  L 13.8415178571429 14.6428571428571  C 14.1888392857143 14.6904017857143  14.4729910714286 14.40625  14.4642857142857 14.0589285714286  Z " fill-rule="nonzero" fill="url(#LinearGradient4742)" stroke="none" transform="matrix(1 0 0 1 24 22 )" />
  </g>
</svg>