<?xml version="1.0" encoding="utf-8"?>
<svg version="1.1" xmlns:xlink="http://www.w3.org/1999/xlink" width="22px" height="20px" xmlns="http://www.w3.org/2000/svg">
  <defs>
    <linearGradient gradientUnits="userSpaceOnUse" x1="11.00078225" y1="0.39990234375" x2="11.00078225" y2="19.59968734375" id="LinearGradient4739">
      <stop id="Stop4740" stop-color="#38e0e9" offset="0" />
      <stop id="Stop4741" stop-color="#38e0e9" stop-opacity="0.650980392156863" offset="1" />
    </linearGradient>
  </defs>
  <g transform="matrix(1 0 0 1 -22 -18 )">
    <path d="M 2.71328135 0.39990234375  L 19.28828225 0.39990234375  C 20.34453025 0.39990234375  21.20078325 1.25951612375  21 2.31990264375  L 21 14.47990234375  C 21.20078325 15.54028934375  20.34453025 16.39990234375  19.28828225 16  L 2.71328135 16  C 1.65703666 16.39990234375  0.80078125 15.54028934375  1 14.47990234375  L 1 2.31990264375  C 0.80078125 1.25951612375  1.65703666 0.39990234375  2.71328135 0.39990234375  Z M 17.37500225 17.67968734375  L 17.37500225 19.59968734375  L 4.62500005 19.59968734375  L 4.62500005 17.67968734375  L 17.37500225 17.67968734375  Z M 15.46210925 4.23974614375  L 13.54961025 4.23974614375  L 13.54961025 12.55974534375  L 15.46210925 12.55974534375  L 15.46210925 4.23974614375  Z M 10.04335975 6.15974564375  L 10.04335975 12.55974534375  L 11.95585925 12.55974534375  L 11.95585925 6.15974564375  L 10.04335975 6.15974564375  Z M 6.53710935 8.07974624375  L 6.53710935 12.55974534375  L 8.44960885 12.55974534375  L 8.44960885 8.07974624375  L 6.53710935 8.07974624375  Z " fill-rule="nonzero" fill="url(#LinearGradient4739)" stroke="none" transform="matrix(1 0 0 1 22 18 )" />
  </g>
</svg>