<?xml version="1.0" encoding="utf-8"?>
<svg version="1.1" xmlns:xlink="http://www.w3.org/1999/xlink" width="15px" height="20px" xmlns="http://www.w3.org/2000/svg">
  <defs>
    <linearGradient gradientUnits="userSpaceOnUse" x1="7.49879478182771" y1="0" x2="7.49879478182771" y2="20" id="LinearGradient4746">
      <stop id="Stop4747" stop-color="#fba113" offset="0" />
      <stop id="Stop4748" stop-color="#fba113" stop-opacity="0.650980392156863" offset="1" />
    </linearGradient>
  </defs>
  <g transform="matrix(1 0 0 1 -25 -18 )">
    <path d="M 9.07364477334294 18.5012  L 9.07364477334294 18.499905  C 9.27956216731996 18.500126  9.46428606191688 18.62656  9.53903025973065 18.81843  C 9.61377635754436 19.010303  9.56325545902208 19.228378  9.41174906345356 19.367834  C 8.95316997686677 19.790142  8.31582469550881 20  7.49970981937976 20  C 6.68359444325073 20  6.04495266193068 19.790144  5.58637357534389 19.369131  C 5.4348700797753 19.229675  5.384349581253 19.0116  5.45909337906678 18.819729  C 5.53383667688057 18.627855  5.71856097147748 18.501425  5.92447786545451 18.5012  L 9.07364477334294 18.5012  Z M 5.24956398519541 16.501068  L 9.74985515356413 16.501068  C 10.1516231418126 16.51778  10.4687301325374 16.848354  10.4687301325374 17.250467  C 10.4687301325374 17.652584  10.1516231418126 17.983158  9.74985515356413 17.999868  L 5.24956398519541 17.999868  C 4.84779719694688 17.983158  4.53068860622215 17.652584  4.53068860622215 17.250467  C 4.53068860622215 16.848354  4.84779719694688 16.51778  5.24956398519541 16.501068  Z M 7.49841421941766 0.00129542569999996  L 7.49970981937976 0  C 10.8406731216582 0.00143843659999998  13.777895035746 2.212465  14.7034200086748 5.4226756  C 15.6289449816037 8.632885  14.3196100199011 12.068224  11.4921951026016 13.848047  C 11.5795711000458 15.007769  10.6628451268596 15.997213  9.49983896087698 15.998446  L 5.49828507792044 15.998446  C 4.33424931196791 15.99872  3.41588343882965 15.008792  3.50333723627167 13.848047  C 0.676797208946563 12.067495  -0.631482082786918 8.6322346  0.294580740126205 5.4225454  C 1.22064380303932 2.2128558  4.15780291712888 0.00249483529999983  7.49841421941766 0.00129542569999996  Z M 12.4987370731607 6.8178  C 12.4987370731607 4.4332342  10.5656651297021 2.5001619  8.18110009944943 2.5001621  C 7.80477831045666 2.5001621  7.49970981937976 2.8052313  7.49970981937976 3.1815534  C 7.49970981937976 3.5578754  7.80477831045666 3.8629448  8.18110009944943 3.8629448  C 9.81332985170753 3.8629448  11.1346601130593 5.1855693  11.1346601130593 6.8178  C 11.1346611130592 7.1944799  11.4400191041277 7.4998398  11.8167000931099 7.4998398  C 12.1933790820923 7.4998398  12.4987390731606 7.1944795  12.4987370731607 6.8178  Z " fill-rule="nonzero" fill="url(#LinearGradient4746)" stroke="none" transform="matrix(1 0 0 1 25 18 )" />
  </g>
</svg>