<?xml version="1.0" encoding="utf-8"?>
<svg version="1.1" xmlns:xlink="http://www.w3.org/1999/xlink" width="28px" height="28px" xmlns="http://www.w3.org/2000/svg">
  <defs>
    <filter x="48px" y="188px" width="28px" height="28px" filterUnits="userSpaceOnUse" id="filter4749">
      <feOffset dx="0" dy="0" in="SourceAlpha" result="shadowOffsetInner" />
      <feGaussianBlur stdDeviation="2" in="shadowOffsetInner" result="shadowGaussian" />
      <feComposite in2="shadowGaussian" operator="atop" in="SourceAlpha" result="shadowComposite" />
      <feColorMatrix type="matrix" values="0 0 0 0 1  0 0 0 0 1  0 0 0 0 1  0 0 0 0.996078431372549 0  " in="shadowComposite" />
    </filter>
    <g id="widget4750">
      <path d="M 62 193  C 67.04 193  71 196.96  71 202  C 71 207.04  67.04 211  62 211  C 56.96 211  53 207.04  53 202  C 53 196.96  56.96 193  62 193  Z " fill-rule="nonzero" fill="#141b29" stroke="none" />
      <path d="M 62 193  C 67.04 193  71 196.96  71 202  C 71 207.04  67.04 211  62 211  C 56.96 211  53 207.04  53 202  C 53 196.96  56.96 193  62 193  Z " stroke-width="2" stroke="#4c5c70" fill="none" />
    </g>
  </defs>
  <g transform="matrix(1 0 0 1 -48 -188 )">
    <use xlink:href="#widget4750" filter="url(#filter4749)" />
    <use xlink:href="#widget4750" />
  </g>
</svg>