<?xml version="1.0" encoding="utf-8"?>
<svg version="1.1" xmlns:xlink="http://www.w3.org/1999/xlink" width="16px" height="16px" xmlns="http://www.w3.org/2000/svg">
  <g transform="matrix(1 0 0 1 -783 -300 )">
    <path d="M 784 304  A 3 3 0 0 1 787 301 L 795 301  A 3 3 0 0 1 798 304 L 798 312  A 3 3 0 0 1 795 315 L 787 315  A 3 3 0 0 1 784 312 L 784 304  Z " fill-rule="nonzero" fill="#1f2128" stroke="none" fill-opacity="0" />
    <path d="M 783.5 304  A 3.5 3.5 0 0 1 787 300.5 L 795 300.5  A 3.5 3.5 0 0 1 798.5 304 L 798.5 312  A 3.5 3.5 0 0 1 795 315.5 L 787 315.5  A 3.5 3.5 0 0 1 783.5 312 L 783.5 304  Z " stroke-width="1" stroke="#325bee" fill="none" stroke-opacity="0.996078431372549" />
  </g>
</svg>