<?xml version="1.0" encoding="utf-8"?>
<svg version="1.1" xmlns:xlink="http://www.w3.org/1999/xlink" width="12px" height="12px" xmlns="http://www.w3.org/2000/svg">
  <g transform="matrix(1 0 0 1 -1476 -74 )">
    <path d="M 11.1574901911765 0.177098044117647  C 11.2461661309105 0.0852850677030606  11.3683345463084 0.0334330061282695  11.4959787585776 0.0334330061282695  C 11.7558774643803 0.0334330061282695  11.9665669938717 0.244122535619661  11.9665669938717 0.504021241422387  C 11.9665669938717 0.631665453691563  11.9147149322969 0.753833869089501  11.8229019558824 0.842509808823529  L 5.16831372058824 7.49725489705882  C 5.08005383432838 7.58551478331868  4.9603477399269 7.63509867111848  4.83552941176471 7.63509867111848  C 4.57560869874622 7.63509867111848  4.36490132888151 7.42439130125378  4.36490132888151 7.16447058823529  C 4.36490132888151 7.0396522600731  4.41448521668132 6.91994616567162  4.50274510294118 6.83168627941176  L 11.1574901911765 0.177254897058823  Z M 11.0196078382353 10.2352941176471  L 11.0196078382353 5.05882352941176  C 11.0196078382353 4.79892482360904  11.2302973677267 4.58823529411765  11.4901960735294 4.58823529411765  C 11.7500947793321 4.58823529411765  11.9607843088235 4.79892482360904  11.9607843088235 5.05882352941176  L 11.9607843088235 10.2352941176471  C 11.9607843088235 11.1882352941176  11.1882352941176 11.9607843088235  10.2352941176471 11.9607843088235  L 1.76470588235294 11.9607843088235  C 0.811764705882353 11.9607843088235  0.0392156911764706 11.1882352941176  0.0392156911764706 10.2352941176471  L 0.0392156911764706 1.76470588235294  C 0.0392156911764706 0.811764705882353  0.811764705882353 0.0392156911764706  1.76470588235294 0.0392156911764706  L 6.78431372058824 0.0392156911764706  C 7.04421242639096 0.0392156911764709  7.25490195588235 0.249905220667862  7.25490195588235 0.509803926470588  C 7.25490195588235 0.769702632273315  7.04421242639096 0.980392161764706  6.78431372058824 0.980392161764706  L 1.76470588235294 0.980392161764706  C 1.33154137538901 0.980392161764706  0.980392161764706 1.33154137538901  0.980392161764706 1.76470588235294  L 0.980392161764706 10.2352941176471  C 0.980392161764706 10.668458624611  1.33154137538901 11.0196078382353  1.76470588235294 11.0196078382353  L 10.2352941176471 11.0196078382353  C 10.668458624611 11.0196078382353  11.0196078382353 10.668458624611  11.0196078382353 10.2352941176471  Z " fill-rule="nonzero" fill="#ffffff" stroke="none" transform="matrix(1 0 0 1 1476 74 )" />
  </g>
</svg>