<?xml version="1.0" encoding="utf-8"?>
<svg version="1.1" xmlns:xlink="http://www.w3.org/1999/xlink" width="16px" height="15px" xmlns="http://www.w3.org/2000/svg">
  <g transform="matrix(1 0 0 1 -1602 -73 )">
    <path d="M 10.798 4.828125  C 13.658 4.828125  15.984 7.099609375  15.984 9.892578125  C 15.984 12.685546875  13.658 14.958984375  10.798 14.958984375  L 1.362 14.958984375  C 1.104 14.958984375  0.894 14.755859375  0.894 14.501953125  C 0.894 14.25  1.102 14.044921875  1.362 14.044921875  L 10.796 14.044921875  C 13.14 14.044921875  15.048 12.181640625  15.048 9.892578125  C 15.048 7.603515625  13.14 5.73828125  10.796 5.73828125  L 1.636 5.73828125  L 5.628 9.63671875  C 5.81 9.814453125  5.81 10.103515625  5.628 10.28125  C 5.536 10.37109375  5.418 10.4140625  5.298 10.4140625  C 5.178 10.4140625  5.06 10.369140625  4.968 10.28125  L 0.18 5.607421875  C -0.00199999999999989 5.4296875  -0.00199999999999989 5.140625  0.18 4.962890625  L 4.972 0.28515625  C 5.154 0.107421875000001  5.45 0.107421875000001  5.632 0.28515625  C 5.814 0.462890625  5.814 0.751953125000001  5.632 0.9296875  L 1.64 4.828125  L 10.798 4.828125  Z " fill-rule="nonzero" fill="#ffffff" stroke="none" fill-opacity="0.996078431372549" transform="matrix(1 0 0 1 1602 73 )" />
  </g>
</svg>