<?xml version="1.0" encoding="utf-8"?>
<svg version="1.1" xmlns:xlink="http://www.w3.org/1999/xlink" width="10px" height="9px" xmlns="http://www.w3.org/2000/svg">
  <g transform="matrix(1 0 0 1 -1356 -649 )">
    <path d="M 9.9987587653577 8.57565031764706  C 9.9987587653577 8.46342645995944  9.95299349868907 8.35579899931124  9.87153080163043 8.27644474852941  L 8.21295014945652 6.66079206617647  C 8.52746001784388 6.23009883781582  8.69645393108069 5.71467688420183  8.69645393108069 5.18613266021742  C 8.69645393108069 3.78108705864913  7.52717575183316 2.6420725499233  6.0847980207546 2.6420725499233  C 4.64242028967604 2.6420725499233  3.47314211042851 3.78108705864913  3.47314211042851 5.18613266021742  C 3.47314211042851 6.59117826178571  4.64242028967604 7.73019277051154  6.0847980207546 7.73019277051154  C 6.62738569030381 7.73019277051154  7.15650243012494 7.56557281738204  7.59863919836956 7.25920320441176  L 9.25721985054348 8.87485588676471  C 9.33868254760211 8.95421013754653  9.44916967507914 8.9987908914308  9.56437532608696 8.9987908914308  C 9.80427867517524 8.9987908914308  9.9987587653577 8.80934440358247  9.9987587653577 8.57565031764706  Z M 6.08691203804348 6.88273394558823  C 5.1262197810429 6.88271131194876  4.34743715295997 6.1240670625887  4.34743715295997 5.18823978137795  C 4.34743715295997 4.25239649553362  5.12624542232268 3.49374561667207  6.08695410948171 3.49374561667207  C 7.04766279664074 3.49374561667207  7.82647106600344 4.25239649553362  7.82647106600344 5.18823978137795  C 7.82647106600344 5.63765761755295  7.64319288834513 6.06866762194279  7.31695730978261 6.3864485867647  C 6.99144956157355 6.70524949797469  6.54854572094667 6.88395467988897  6.08696112771739 6.88273394558823  Z M 0.434770339673913 0.953319189705883  L 7.39136570652174 0.955757580882353  C 7.6312296875 0.955757580882353  7.82569277173913 0.765132366176471  7.82574184782609 0.531476629411765  C 7.82579092391305 0.297820892647059  7.63132783967391 0.106956622058824  7.3914147826087 0.106908816176471  L 0.434819415760869 0.104709467647059  C 0.194789825168269 0.105078768724448  0.000415899168590682 0.294742763098299  0.000443274456521684 0.528560113235294  C 0.000443274456521684 0.762263655882353  0.194857282608696 0.953319176470588  0.434770339673913 0.953319189705883  Z M 0.434770339673913 3.49374561617647  L 3.04348133152174 3.49455840882353  C 3.28338065380641 3.49455840882353  3.47785747961957 3.30511510085495  3.47785747961957 3.0714249375  C 3.47785747961957 2.83773477414505  3.28338065380641 2.64829146617647  3.04348133152174 2.64829146617647  L 0.434770339673914 2.64829146617647  C 0.195101427435247 2.64829146617647  0.00081138586956604 2.83755282431339  0.00081138586956604 3.07101854117647  C 0.00081138586956604 3.30448425803955  0.195101427435247 3.49374561617647  0.434770339673914 3.49374561617647  Z M 2.17414005434783 5.1879051  L 0.435015747282609 5.18709229411765  C 0.195184192437825 5.18709229411765  0.000762302989130449 5.37648208760414  0.000762302989130449 5.6101062375  C 0.000762302989130449 5.84373038739586  0.195184192437825 6.03312018088235  0.435015747282609 6.03312018088235  L 2.17414005434783 6.0333592367647  C 2.17567852399024 6.0333751763579  2.17721706977181 6.03338314632353  2.17875562643048 6.03338314632353  C 2.41843809065635 6.03338314632353  2.61273911827831 5.84411108647532  2.61273911827831 5.61063216838235  C 2.61273911827831 5.37715325028939  2.41843809065635 5.18788119044118  2.17875562643048 5.18788119044118  C 2.17721706977181 5.18788119044118  2.17567852399024 5.18788916040681  2.17414005434783 5.1879051  Z " fill-rule="nonzero" fill="#ffffff" stroke="none" transform="matrix(1 0 0 1 1356 649 )" />
  </g>
</svg>