<?xml version="1.0" encoding="utf-8"?>
<svg version="1.1" xmlns:xlink="http://www.w3.org/1999/xlink" width="12px" height="12px" xmlns="http://www.w3.org/2000/svg">
  <g transform="matrix(1 0 0 1 -1354 -646 )">
    <path d="M 7.32530722566372 11.1498730353982  L 2.10656376106195 11.1498730353982  C 1.47008744472719 11.1497937459134  0.954163490464077 10.6338055160575  0.954163490464077 9.99732919478393  L 0.954163778761062 2.10776257964602  C 0.95416345556771 1.47039201650532  1.47005642407551 0.954348946565083  2.10656376106195 0.954163778761062  L 9.99531517699115 0.954163778761062  C 10.3013755579817 0.953390945183662  10.5950301418581 1.07506930334576  10.8108472433628 1.29208665929204  C 11.0285526371681 1.50979205309735  11.1475233584071 1.79928268141593  11.1476672123894 2.10728305752212  L 11.1297328938053 7.32506746460177  L 11.1297328938053 7.3264580840708  C 11.1318151696869 7.55979814254181  11.3215634651599 7.74786072058301  11.5549128143343 7.74786072058301  C 11.7877389180341 7.74786072058301  11.9772658081564 7.56060988180771  11.9800786327434 7.3278007699115  L 11.9976772831858 2.10915321238938  L 11.9976772831858 2.10776257964602  C 11.9976774906544 1.00148040511121  11.101597351526 0.10540026598272  9.99622648180489 0.10540026598272  L 2.10656376106195 0.105400473451327  C 2.10605164261632 0.105400079980157  2.10553952403916 0.105399883244551  2.10502740544237 0.105399883244551  C 1.00066291339117 0.105399883244551  0.105398604557415 1.00066419207831  0.105398604557415 2.10502868412951  C 0.105398604557415 2.10593998295428  0.105399227522198 2.10685128167296  0.105400473451327 2.10776257964602  L 0.105400473451327 9.99651399557522  C 0.105399436443203 9.99734538571443  0.10539891793899 9.99817677641952  0.10539891793899 9.99900816720546  C 0.10539891793899 11.1033726592567  1.00066322677275 11.9986369680904  2.10502771882395 11.9986369680904  C 2.10555571969112 11.9986369680904  2.10608372053742 11.9986367589629  2.10661172123894 11.998636340708  L 7.32530722566372 11.998636340708  C 7.55968674053299 11.998636340708  7.74968887831858 11.8086342029224  7.74968887831858 11.5742546880531  C 7.74968887831858 11.3398751731838  7.55968674053299 11.1498730353982  7.32530722566372 11.1498730353982  Z " fill-rule="nonzero" fill="#ffffff" stroke="none" transform="matrix(1 0 0 1 1354 646 )" />
  </g>
</svg>