<?xml version="1.0" encoding="utf-8"?>
<svg version="1.1" xmlns:xlink="http://www.w3.org/1999/xlink" width="14px" height="14px" xmlns="http://www.w3.org/2000/svg">
  <g transform="matrix(1 0 0 1 -40 -217 )">
    <path d="M 13.951724137931 6.95172413793103  C 13.951724137931 3.13793103448276  10.8620689655172 0  7 0  C 3.13793103448276 0  0.0482758620689654 3.13793103448276  0.0482758620689654 6.95172413793103  C 0.0482758620689654 10.7655172413793  3.18620689655172 13.9034482758621  7 13.9034482758621  C 10.8137931034483 13.9034482758621  13.951724137931 10.7655172413793  13.951724137931 6.95172413793103  Z M 13.2275862068966 7  C 13.2275862068966 10.4275862068966  10.4758620689655 13.2275862068966  7 13.2275862068966  C 3.57241379310345 13.2275862068966  0.772413793103448 10.4275862068966  0.772413793103448 7  C 0.772413793103448 3.57241379310345  3.57241379310345 0.772413793103448  7 0.772413793103448  C 10.4275862068966 0.772413793103448  13.2275862068966 3.57241379310345  13.2275862068966 7  Z M 11.8275862068966 7.62758620689655  C 11.8275862068966 7.38620689655172  11.6827586206897 7.24137931034483  11.4896551724138 7.24137931034483  L 7.28965517241379 7.24137931034483  L 7.28965517241379 2.99310344827586  C 7.28965517241379 2.8  7.1448275862069 2.6551724137931  6.95172413793104 2.6551724137931  C 6.75862068965517 2.6551724137931  6.61379310344828 2.8  6.61379310344828 2.99310344827586  L 6.61379310344828 7.62758620689655  C 6.61379310344828 7.82068965517241  6.75862068965517 7.96551724137931  6.95172413793104 7.96551724137931  C 6.95172413793104 7.96551724137931  7 7.96551724137931  7 7.96551724137931  L 11.4896551724138 7.96551724137931  C 11.6827586206897 7.96551724137931  11.8275862068966 7.82068965517241  11.8275862068966 7.62758620689655  Z " fill-rule="nonzero" fill="#ffffff" stroke="none" fill-opacity="0.729411764705882" transform="matrix(1 0 0 1 40 217 )" />
  </g>
</svg>