<?xml version="1.0" encoding="utf-8"?>
<svg version="1.1" xmlns:xlink="http://www.w3.org/1999/xlink" width="24px" height="24px" xmlns="http://www.w3.org/2000/svg">
  <defs>
    <filter x="262px" y="18px" width="24px" height="24px" filterUnits="userSpaceOnUse" id="filter4833">
      <feOffset dx="0" dy="0" in="SourceAlpha" result="shadowOffsetInner" />
      <feGaussianBlur stdDeviation="1.5" in="shadowOffsetInner" result="shadowGaussian" />
      <feComposite in2="shadowGaussian" operator="atop" in="SourceAlpha" result="shadowComposite" />
      <feColorMatrix type="matrix" values="0 0 0 0 0  0 0 0 0 1  0 0 0 0 1  0 0 0 0.933333333333333 0  " in="shadowComposite" />
    </filter>
    <g id="widget4834">
      <path d="M 3.102004975 3.1111583875  C 3.427421775 2.7858397875  3.954921275 2.7858397875  4.280337775 3.1111583875  C 4.605655875 3.4365744875  4.605655875 3.9640748875  4.280337775 4.2894913875  C 1.677619375 6.8932656875  1.678189075 11.1138731875  4.281610775 13.7169431875  C 6.885030775 16.3200141875  11.105638375 16.3200141875  13.709060375 13.7169441875  C 16.312484375 11.1138751875  16.313054375 6.8932680875  13.710337375 4.2894913875  C 13.375190375 3.9658290875  13.370525375 3.4302563875  13.699978375 3.1008021875  C 14.029433375 2.7713474875  14.565006375 2.7760138875  14.888669375 3.1111583875  C 18.142835375 6.3661579875  18.142000375 11.6419911875  14.887835375 14.8953231875  C 11.633669375 18.1494921875  6.357004675 18.1494921875  3.102837775 14.8953231875  C -0.150494575 11.6419901875  -0.152161244999999 6.3669914875  3.102004975 3.1111583875  Z M 8.166169675 1.5003253775  C 8.166169675 1.0400882075  8.539266075 0.6669921875  8.999503175 0.6669921875  C 9.421981775 0.667047691335  9.777573575 0.983247907500001  9.827002575 1.4028254775  L 9.832838075 1.5003253775  L 9.832838075 8.1669911875  C 9.832347875 8.6079020875  9.488495875 8.9721278875  9.048340775 8.9979676875  C 8.608188175 9.0238065875  8.224080075 8.7023152875  8.172004675 8.2644910875  L 8.166169675 8.1669911875  L 8.166169675 1.5003253775  Z " fill-rule="nonzero" fill="#4fb9e4" stroke="none" transform="matrix(1 0 0 1 265 21 )" />
    </g>
  </defs>
  <g transform="matrix(1 0 0 1 -262 -18 )">
    <use xlink:href="#widget4834" filter="url(#filter4833)" />
    <use xlink:href="#widget4834" />
  </g>
</svg>