<?xml version="1.0" encoding="utf-8"?>
<svg version="1.1" xmlns:xlink="http://www.w3.org/1999/xlink" width="14px" height="14px" xmlns="http://www.w3.org/2000/svg">
  <g transform="matrix(1 0 0 1 -267 -23 )">
    <path d="M 2.41267053611111 2.41978985694445  C 2.66577249166667 2.16676427916667  3.07604988055556 2.16676427916667  3.32915160277778 2.41978985694445  C 3.58217679166667 2.67289126805556  3.58217679166667 3.08316935694445  3.32915160277778 3.33627107916667  C 1.30481506944444 5.36142886805555  1.30525816944444 8.64412359027778  3.33014171388889 10.6687335902778  C 5.35502393611111 12.6933443680556  8.63771873611111 12.6933443680556  10.6626025138889 10.6687343680556  C 12.6874878472222 8.64412514583333  12.6879311805556 5.36143073472222  10.6635957361111 3.33627107916667  C 10.4029258472222 3.08453373472222  10.3992975138889 2.66797719027778  10.6555387361111 2.41173503472222  C 10.9117815138889 2.15549249027778  11.3283382916667 2.1591219125  11.5800761805556 2.41978985694445  C 14.1110941805556 4.9514562125  14.1104447361111 9.05488203472222  11.5794275138889 11.5852513680556  C 9.04840951388888 14.1162717013889  4.94433696944444 14.1162717013889  2.41331826944445 11.5852513680556  C -0.117051336111111 9.05488125694444  -0.118347634999999 4.95210449027778  2.41267053611111 2.41978985694445  Z M 6.35146530277778 1.16691973805556  C 6.35146530277778 0.808957494722221  6.64165139166667 0.518771701388889  6.99961358055556 0.518771701388889  C 7.32820804722222 0.518814871038333  7.60477944722222 0.764748372500001  7.643224225 1.0910864825  L 7.64776294722222 1.16691973805556  L 7.64776294722222 6.35210425694444  C 7.64738168055556 6.69503495694445  7.37994123611111 6.97832169027778  7.03759838055556 6.9984193125  C 6.69525746944445 7.01851623472222  6.396506725 6.76846744583333  6.35600363611111 6.4279375125  L 6.35146530277778 6.35210425694444  L 6.35146530277778 1.16691973805556  Z " fill-rule="nonzero" fill="#7f7f7f" stroke="none" transform="matrix(1 0 0 1 267 23 )" />
  </g>
</svg>