<?xml version="1.0" encoding="utf-8"?>
<svg version="1.1" xmlns:xlink="http://www.w3.org/1999/xlink" width="16px" height="16px" xmlns="http://www.w3.org/2000/svg">
  <g transform="matrix(1 0 0 1 0 -28 )">
    <path d="M 16 8  C 16 12.41828125  12.41828125 16  8 16  C 3.58171875 16  0 12.41828125  0 8  C 0 3.58171875  3.58171875 0  8 0  C 12.41828125 0  16 3.58171875  16 8  Z M 8 12.6875  C 8.3796875 12.6875  8.6875 12.3796875  8.6875 12  L 8.6875 6.6954375  C 8.6875 6.315734375  8.3796875 6.0079375  8 6.0079375  C 7.6203125 6.0079375  7.3125 6.315734375  7.3125 6.6954375  L 7.3125 12  C 7.3125 12.3796875  7.6203125 12.6875  8 12.6875  Z M 7 4.3125  C 7 4.86478125  7.44771875 5.3125  8 5.3125  C 8.55228125 5.3125  9 4.86478125  9 4.3125  C 9 3.76021875  8.55228125 3.3125  8 3.3125  C 7.44771875 3.3125  7 3.76021875  7 4.3125  Z " fill-rule="nonzero" fill="#ffffff" stroke="none" transform="matrix(1 0 0 1 0 28 )" />
  </g>
</svg>