<?xml version="1.0" encoding="utf-8"?>
<svg version="1.1" xmlns:xlink="http://www.w3.org/1999/xlink" width="15px" height="14px" xmlns="http://www.w3.org/2000/svg">
  <g transform="matrix(1 0 0 1 -164 -29 )">
    <path d="M 14.7022217018412 5.32244609665428  C 14.9839768123408 5.04413465972739  15.0229429546585 4.63258900817844  14.7891461569534 4.40164972688971  L 13.9438808114041 3.56819578686493  C 13.710084013699 3.33725650557621  13.2934461212423 3.37426601040892  13.0131897128472 3.65257744733581  L 6.65421655006879 9.93382982701363  C 6.37246143956912 10.2106608793061  6.33499399935603 10.622206530855  6.56879079706115 10.8531458121437  L 7.41255744050581 11.688080136803  C 7.64635423821093 11.9175390334572  8.06299211661739 11.8805295425031  8.34474724116734 11.6022180916976  L 14.7022217018412 5.32244609665428  Z M 8.23983841700085 12.3305650557621  C 8.18138921757457 12.3868194914498  8.1169452378304 12.4193878562577  8.05399994614056 12.4623188718711  L 8.08397388988087 12.4874853273854  L 5.43877293680297 13.8671995043371  L 10.790621432544 13.8671995043371  C 11.1892749418962 13.8671995043371  11.5099961947136 13.5489178071871  11.5099961947136 13.1566171003717  L 11.5099961947136 9.11517967781908  L 8.23983841700085 12.3305650557621  Z M 5.70104499019407 10.466766616109  L 5.73401633814361 10.4963742255266  C 5.78647074320171 10.3586988847584  5.85990692152328 10.2239842993804  5.97830400843017 10.1085146587361  L 11.5099961947136 4.66959851301115  L 11.5099961947136 0.721425030978935  C 11.5099961947136 0.329124324163569  11.1877762538419 0.0108426270136311  10.790621432544 0  L 0.719374762169599 0  C 0.322219940871703 0.0108426270136311  0 0.329124324163569  0 0.721425030978935  L 0 13.1551367157373  C 0 13.5489177933086  0.322219940871703 13.8657191197026  0.719374762169599 13.8657191197026  L 4.27728244475017 13.8657191197026  L 5.70104499019407 10.466766616109  Z M 1.0790621432544 1.51490871078067  C 1.0790621432544 1.27212639405204  1.4012820841261 1.07671623296159  1.798436905424 1.07671623296159  L 9.35187190820478 1.07671623296159  C 9.75052541755701 1.07671623296159  10.0712466703744 1.27212639405204  10.0712466703744 1.51490871078067  C 10.0712466703744 1.75769102750929  9.74902672950268 1.95162081784387  9.35187190820478 1.95162081784387  L 1.798436905424 1.95162081784387  C 1.4012820841261 1.95162081784387  1.0790621432544 1.75621065675341  1.0790621432544 1.51490871078067  Z M 1.0790621432544 3.87611481933086  C 1.0790621432544 3.62296985179678  1.4012820841261 3.41719702602231  1.798436905424 3.41719702602231  L 9.35187190820478 3.41719702602231  C 9.75052541755701 3.41719702602231  10.0712466703744 3.62296985179678  10.0712466703744 3.87611483320942  C 10.0712466703744 4.12925981462206  9.74902672950268 4.33503264039653  9.35187190820478 4.33503264039653  L 1.798436905424 4.33503262651797  C 1.4012820841261 4.33503262651797  1.0790621432544 4.12925980074349  1.0790621432544 3.87611481933086  Z M 6.47437285952639 6.75841470929368  L 1.798436905424 6.75841470929368  C 1.4012820841261 6.75841470929368  1.0790621432544 6.54523998810409  1.0790621432544 6.28469311127633  C 1.0790621432544 6.02414623444858  1.4012820841261 5.81097151325898  1.798436905424 5.81097151325898  L 6.47437285952639 5.81097151325898  C 6.87152768082428 5.81097151325898  7.19374762169599 6.02266584981413  7.19374762169599 6.28469311127633  C 7.19374762169599 6.54672037273854  6.87152768082428 6.75841470929368  6.47437285952639 6.75841470929368  Z M 7.52795715130404 12.4741619211896  L 5.86290431168223 10.9034787231722  L 4.50508444808711 13.9959925650558  L 7.52795715130404 12.4741619211896  Z " fill-rule="nonzero" fill="#ffffff" stroke="none" transform="matrix(1 0 0 1 164 29 )" />
  </g>
</svg>