<?xml version="1.0" encoding="utf-8"?>
<svg version="1.1" xmlns:xlink="http://www.w3.org/1999/xlink" width="14px" height="14px" xmlns="http://www.w3.org/2000/svg">
  <g transform="matrix(1 0 0 1 0 -29 )">
    <path d="M 14 7  C 14 10.86599609375  10.86599609375 14  7 14  C 3.13400390625 14  0 10.86599609375  0 7  C 0 3.13400390625  3.13400390625 0  7 0  C 10.86599609375 0  14 3.13400390625  14 7  Z M 7 11.1015625  C 7.3322265625 11.1015625  7.6015625 10.8322265625  7.6015625 10.5  L 7.6015625 5.8585078125  C 7.6015625 5.526267578125  7.3322265625 5.2569453125  7 5.2569453125  C 6.6677734375 5.2569453125  6.3984375 5.526267578125  6.3984375 5.8585078125  L 6.3984375 10.5  C 6.3984375 10.8322265625  6.6677734375 11.1015625  7 11.1015625  Z M 6.125 3.7734375  C 6.125 4.25668359375  6.51675390625 4.6484375  7 4.6484375  C 7.48324609375 4.6484375  7.875 4.25668359375  7.875 3.7734375  C 7.875 3.29019140625  7.48324609375 2.8984375  7 2.8984375  C 6.51675390625 2.8984375  6.125 3.29019140625  6.125 3.7734375  Z " fill-rule="nonzero" fill="#ffffff" stroke="none" transform="matrix(1 0 0 1 0 29 )" />
  </g>
</svg>