<?xml version="1.0" encoding="utf-8"?>
<svg version="1.1" xmlns:xlink="http://www.w3.org/1999/xlink" width="16px" height="16px" xmlns="http://www.w3.org/2000/svg">
  <g transform="matrix(1 0 0 1 -1530 -25 )">
    <path d="M 12 6.31578947368421  L 16 6.31578947368421  L 16 2.3859649122807  L 14.6954285714286 3.66764912280702  C 13.2159468683574 1.46540549478693  10.7097958563627 0.140149751558435  8.024 0.13978947368421  C 3.60571428571429 0.139789473684211  0.0234285714285714 3.65866666666667  0.0234285714285714 8  C 0.0234285714285714 12.3413333333333  3.60571428571429 15.8602105263158  8.024 15.8602105263158  C 11.281060518653 15.8608480873931  14.2134468980621 13.9217190235958  15.4388571428571 10.9569122807018  C 15.4721432440585 10.876406361517  15.4892581931189 10.7903329727507  15.4892581931189 10.7034385964912  C 15.4892581931189 10.3314655273273  15.1823297311133 10.0299217751814  14.8037142857143 10.0299217751814  C 14.5247267503096 10.0299217751814  14.2735665767406 10.1960231585692  14.1685714285714 10.4499649122807  C 13.1527387448912 12.9065129749872  10.7228870052864 14.5131651768421  8.024 14.5128421052632  C 4.36285714285714 14.5128421052632  1.39485714285714 11.5969122807018  1.39485714285714 8  C 1.39485714285714 4.40308771929825  4.36285714285714 1.48715789473684  8.024 1.48715789473684  C 10.3891428571429 1.48715789473684  12.5228571428571 2.71663157894737  13.7028571428571 4.64224561403509  L 12 6.31578947368421  Z " fill-rule="nonzero" fill="#ffffff" stroke="none" fill-opacity="0.996078431372549" transform="matrix(1 0 0 1 1530 25 )" />
  </g>
</svg>