<?xml version="1.0" encoding="utf-8"?>
<svg version="1.1" xmlns:xlink="http://www.w3.org/1999/xlink" width="17px" height="16px" xmlns="http://www.w3.org/2000/svg">
  <g transform="matrix(1 0 0 1 -164 -28 )">
    <path d="M 16.6625179287533 6.08279553903346  C 16.9818403873196 5.76472532540273  17.0260020152797 5.29438743791822  16.7610323112139 5.0304568307311  L 15.8030649195914 4.07793804213135  C 15.5380952155256 3.81400743494424  15.0659056040746 3.85630401189591  14.7482816745602 4.17437422552664  L 7.54144542341129 11.3529483737299  C 7.22212296484501 11.6693267192069  7.17965986593683 12.1396646066914  7.44462957000263 12.4035952138786  L 8.40089843257325 13.357805870632  C 8.66586813663905 13.6200446096654  9.13805773216638 13.577748048575  9.45738020665632 13.259677819083  L 16.6625179287533 6.08279553903346  Z M 9.33848353926763 14.0920743494424  C 9.27224111325118 14.1563651330855  9.19920460287445 14.1935861214374  9.12786660562597 14.2426501392813  L 9.16183707519831 14.2714118027261  L 6.16394266171004 15.8482280049566  L 12.2293709568832 15.8482280049566  C 12.6811782674824 15.8482280049566  13.0446623540087 15.4844774939281  13.0446623540087 15.0361338289963  L 13.0446623540087 10.4173482032218  L 9.33848353926763 14.0920743494424  Z M 6.46118432221995 11.9620189898389  L 6.49855184989609 11.9958562577447  C 6.5580001756286 11.8385130111524  6.64122784439306 11.6845534850062  6.7754112095542 11.5525881814126  L 13.0446623540087 5.33668401486989  L 13.0446623540087 0.824485749690211  C 13.0446623540087 0.376142084758365  12.6794797543541 0.0123915737298641  12.2293709568832 0  L 0.815291397125545 0  C 0.365182599654597 0.0123915737298641  0 0.376142084758365  0 0.824485749690211  L 0 15.0344419608426  C 0 15.4844774780669  0.365182599654597 15.846536136803  0.815291397125545 15.846536136803  L 4.84758677071686 15.846536136803  L 6.46118432221995 11.9620189898389  Z M 1.22293709568832 1.73132424089219  C 1.22293709568832 1.45385873605948  1.58811969534291 1.23053283767038  2.03822849281386 1.23053283767038  L 10.5987881626321 1.23053283767038  C 11.0505954732313 1.23053283767038  11.4140795597576 1.45385873605948  11.4140795597576 1.73132424089219  C 11.4140795597576 2.00878974572491  11.048896960103 2.23042379182156  10.5987881626321 2.23042379182156  L 2.03822849281386 2.23042379182156  C 1.58811969534291 2.23042379182156  1.22293709568832 2.00709789343247  1.22293709568832 1.73132424089219  Z M 1.22293709568832 4.42984550780669  C 1.22293709568832 4.14053697348203  1.58811969534291 3.90536802973978  2.03822849281386 3.90536802973978  L 10.5987881626321 3.90536802973978  C 11.0505954732313 3.90536802973978  11.4140795597576 4.14053697348203  11.4140795597576 4.42984552366791  C 11.4140795597576 4.71915407385378  11.048896960103 4.95432301759604  10.5987881626321 4.95432301759604  L 2.03822849281386 4.95432300173482  C 1.58811969534291 4.95432300173482  1.22293709568832 4.71915405799257  1.22293709568832 4.42984550780669  Z M 7.33762257412991 7.72390252490706  L 2.03822849281386 7.72390252490706  C 1.58811969534291 7.72390252490706  1.22293709568832 7.48027427211896  1.22293709568832 7.18250641288724  C 1.22293709568832 6.88473855365551  1.58811969534291 6.64111030086741  2.03822849281386 6.64111030086741  L 7.33762257412991 6.64111030086741  C 7.78773137160085 6.64111030086741  8.15291397125545 6.88304668550186  8.15291397125545 7.18250641288724  C 8.15291397125545 7.48196614027261  7.78773137160085 7.72390252490706  7.33762257412991 7.72390252490706  Z M 8.53168477147791 14.2561850527881  L 6.64462488657319 12.4611185407683  L 5.10576237449873 15.9954200743494  L 8.53168477147791 14.2561850527881  Z " fill-rule="nonzero" fill="#ffffff" stroke="none" transform="matrix(1 0 0 1 164 28 )" />
  </g>
</svg>