<?xml version="1.0" encoding="utf-8"?>
<svg version="1.1" xmlns:xlink="http://www.w3.org/1999/xlink" width="1568px" height="544px" xmlns="http://www.w3.org/2000/svg">
  <g transform="matrix(1 0 0 1 0 -72 )">
    <path d="M 1 80  A 7 7 0 0 1 8 73 L 1560 73  A 7 7 0 0 1 1567 80 L 1567 608  A 7 7 0 0 1 1560 615 L 8 615  A 7 7 0 0 1 1 608 L 1 80  Z " fill-rule="nonzero" fill="#ffffff" stroke="none" fill-opacity="0" />
    <path d="M 0.5 80  A 7.5 7.5 0 0 1 8 72.5 L 1560 72.5  A 7.5 7.5 0 0 1 1567.5 80 L 1567.5 608  A 7.5 7.5 0 0 1 1560 615.5 L 8 615.5  A 7.5 7.5 0 0 1 0.5 608 L 0.5 80  Z " stroke-width="1" stroke="#797979" fill="none" stroke-opacity="0.819607843137255" />
  </g>
</svg>