<?xml version="1.0" encoding="utf-8"?>
<svg version="1.1" xmlns:xlink="http://www.w3.org/1999/xlink" width="12px" height="12px" xmlns="http://www.w3.org/2000/svg">
  <g transform="matrix(1 0 0 1 -1476 -74 )">
    <path d="M 12 1.97525000390625  C 12 0.88599999609375  11.1137499960938 0  10.0245 0  L 1.97525000390625 0  C 0.88599999609375 0  0 0.88599999609375  0 1.97525000390625  L 0 10.0250000039062  C 0 11.1137499960938  0.88599999609375 12  1.97525000390625 12  L 10.0250000039062 12  C 11.1137500078125 12  12 11.1137499960938  12 10.0250000039062  L 12 1.97525000390625  Z M 2.51300000390625 0.53775  C 2.51300000390625 0.52475000390625  2.50749999609375 0.51324999609375  2.50550000390625 0.50075000390625  L 9.49425 0.50075000390625  C 9.49224999609375 0.5132500078125  9.48675 0.52475000390625  9.48675 0.53775  L 9.48675 3.98750000390625  C 9.48675 4.3247500078125  9.21225 4.59950000390625  8.87499999609375 4.59950000390625  L 3.1249999921875 4.59950000390625  C 2.78774998828125 4.59950000390625  2.5129999921875 4.32500000390625  2.5129999921875 3.98750000390625  L 2.51300000390625 0.53775  Z M 11.499 1.97525000390625  L 11.499 10.0250000039062  C 11.499 10.8380000039063  10.8375 11.4992500078125  10.0245 11.4992500078125  L 1.97525000390625 11.4992499960937  C 1.16225000390625 11.4992499960937  0.50075000390625 10.8377499960938  0.50075000390625 10.0249999921875  L 0.50075000390625 1.97525000390625  C 0.50075000390625 1.16225000390625  1.16225000390625 0.50075000390625  1.97525000390625 0.50075000390625  L 2.01975 0.50075000390625  C 2.01774999609375 0.5132500078125  2.01225 0.52475000390625  2.01225 0.53775  L 2.01225 3.98775  C 2.01225 4.60100000390625  2.51150000390625 5.10050000390625  3.12525 5.10050000390625  L 8.87450000390625 5.10050000390625  C 9.48825 5.10050000390625  9.98750000390625 4.60125  9.98750000390625 3.98750000390625  L 9.98750000390625 0.53775  C 9.98750000390625 0.52475000390625  9.9820000078125 0.51324999609375  9.98000000390625 0.50075000390625  L 10.0245 0.50075000390625  C 10.8375 0.50075000390625  11.499 1.1625  11.499 1.97525000390625  Z M 7.47399999609375 3.41274999609375  C 7.47399999609375 3.55100000390625  7.58649999609375 3.663  7.72449999609375 3.663  C 7.86324999609375 3.663  7.97499999609375 3.55100000390625  7.97499999609375 3.41274999609375  L 7.97499999609375 1.68774999609375  C 7.97499999609375 1.54974999609375  7.86324999609375 1.4374999921875  7.72449999609375 1.4374999921875  C 7.58625 1.4374999921875  7.47399999609375 1.54974999609375  7.47399999609375 1.68774999609375  L 7.47399999609375 3.41274999609375  Z " fill-rule="nonzero" fill="#ffffff" stroke="none" transform="matrix(1 0 0 1 1476 74 )" />
  </g>
</svg>