<?xml version="1.0" encoding="utf-8"?>
<svg version="1.1" xmlns:xlink="http://www.w3.org/1999/xlink" width="14px" height="16px" xmlns="http://www.w3.org/2000/svg">
  <g transform="matrix(1 0 0 1 -279 -556 )">
    <path d="M 10.370761502907 0.389869677419358  C 10.7897600552326 0.772080064516129  10.6800595145349 1.65247548387097  10.6939074476744 2.40320812903226  C 11.3845127354651 2.50593486021505  12.1031470610465 2.37371931182796  12.6670594709302 2.4751036344086  C 13.5802935523256 2.63929477419355  14.0431890232558 3.46000834408602  13.942859244186 4.66819187096774  C 13.5742962412791 4.66819187096774  13.2057749127907 4.66819187096774  12.8371494389535 4.66819187096774  C 12.8059968139535 6.8114351827957  12.820198755814 8.93531268817204  12.820198755814 11.0856861505376  C 12.820198755814 12.1710509247312  12.9057227005814 13.3125104731183  12.8032064186047 14.2854215913978  C 12.7062084767442 15.2052308172043  12.0686834360465 15.7654084301075  11.2892848372093 15.9033016989247  C 10.5207563430233 16.0392583870968  9.50090365406977 15.9392604516129  8.65274440116279 15.9392604516129  C 6.8742129505814 15.9392604516129  5.07202550872093 15.9756593333333  3.3285824127907 15.9392604516129  C 2.47952772965117 15.9215011397849  1.85399725 15.6367359354839  1.474480875 15.0943396344086  C 1.09492284593023 14.5519873548387  1.13428010174419 13.7312297634409  1.13428010174419 12.7574823870968  C 1.13428010174419 10.0446426451613  1.13428010174419 7.35460172043011  1.13428010174419 4.66819187096774  C 0.782709456395351 4.66819187096774  0.431159607558142 4.66819187096774  0.0796306162790726 4.66819187096774  C -0.0916255029069737 3.55657324731183  0.363752517441863 2.75773421505377  1.13428010174419 2.49308303225807  C 1.70067057267442 2.2985008172043  2.4557676133721 2.45567182795699  3.26050895930233 2.40320812903226  C 3.19553825581396 1.20668810752688  3.25671900872093 0.297772129032261  4.23011347093023 0.174161139784949  C 4.6651465 0.11890260215054  5.24609290116279 0.174161139784949  5.77799890988372 0.174161139784949  C 6.7370664883721 0.174161139784949  7.84846122965117 0.174161139784949  8.8738739127907 0.174161139784949  C 9.46414944186047 0.174161139784949  10.0682104127907 0.113951118279573  10.370761502907 0.389869677419358  Z M 4.33208829069768 1.30666402150538  C 4.31226390406977 1.30967892473118  4.31361746802326 1.33507451612903  4.31509595348837 1.36058015053763  C 4.31509595348837 1.72010172043011  4.31509595348837 2.07962331182796  4.31509595348837 2.43914488172043  C 6.08981661627907 2.43914488172043  7.86453727906977 2.43914488172043  9.639237125 2.43914488172043  C 9.639237125 2.06164391397849  9.639237125 1.68414296774194  9.639237125 1.30666402150538  C 7.87022221511628 1.30666402150538  6.10112401744186 1.30666402150538  4.33208829069768 1.30666402150538  Z M 3.29449363372093 4.74008737634409  C 3.27466922674419 4.74310227956989  3.27600195348837 4.76849789247312  3.27748045930233 4.79402552688172  C 3.27748045930233 7.06902225806452  3.27748045930233 9.33451215053763  3.27748045930233 11.6429368817204  C 3.27748045930233 12.2279819354839  3.15020450581395 13.4744789247312  3.48159675581395 13.7281708387097  C 3.61343314825581 13.8291150537634  3.95336322093023 13.8440135053763  4.11097965697674 13.7281708387097  C 4.45384590406977 13.476327483871  4.33210912790698 12.2653051182796  4.33210912790698 11.6609162580645  C 4.33210912790698 9.32280464516129  4.33210912790698 6.95379576344086  4.33210912790698 4.74008737634409  C 3.98626505232558 4.74008737634409  3.64035852616279 4.74008737634409  3.29449363372093 4.74008737634409  Z M 6.45835878197675 4.74013137634409  C 6.43853439534884 4.74310227956989  6.43988795930233 4.76849789247312  6.44134562790698 4.79402552688172  C 6.44134562790698 6.84204634408602  6.44134562790698 9.23354593548387  6.44134562790698 11.427228344086  C 6.44134562790698 11.9505669462366  6.32629334302326 13.1893396129032  6.52639062209302 13.5484210537634  C 6.65860184011628 13.7856520430108  7.10354707267442 13.8931982150538  7.32586349127907 13.7102354623656  C 7.62733173837209 13.4621332258065  7.49599511337209 12.1502106666667  7.49599511337209 11.6070221290323  C 7.49599511337209 9.26299073118279  7.49599511337209 7.01451193548387  7.49599511337209 4.74013137634409  C 7.15013022093023 4.74013137634409  6.80420285755814 4.74013137634409  6.45835878197675 4.74013137634409  Z M 9.65625029941861 4.74013139784946  C 9.63642589244186 4.74310227956989  9.63777945639535 4.76849789247312  9.639237125 4.79402552688172  C 9.639237125 6.99827109677419  9.639237125 9.4518732688172  9.639237125 11.7328337849462  C 9.639237125 12.4434704301075  9.50815040406977 13.5334565806452  9.94541159011628 13.7281708387097  C 10.1358049156977 13.8129842150538  10.473694244186 13.7473825806452  10.5577605 13.6742767096774  C 10.8432359447674 13.4259103870968  10.7108997848837 12.0943359569892  10.7108997848837 11.5710633763441  C 10.7108997848837 9.23884952688172  10.7108997848837 7.00227627956989  10.7108997848837 4.74013139784946  C 10.3593291395349 4.74013139784946  10.0077584738372 4.74013139784946  9.65625029941861 4.74013139784946  Z " fill-rule="nonzero" fill="#ffffff" stroke="none" fill-opacity="0.996078431372549" transform="matrix(1 0 0 1 279 556 )" />
  </g>
</svg>