<?xml version="1.0" encoding="utf-8"?>
<svg version="1.1" xmlns:xlink="http://www.w3.org/1999/xlink" width="14px" height="16px" xmlns="http://www.w3.org/2000/svg">
  <g transform="matrix(1 0 0 1 -249 -556 )">
    <path d="M 11.437368763264 3.02637137390989  L 9.20877236726078 3.02637140481004  C 9.09759522177979 3.02637140481004  9.00410534787012 2.9868981602744  8.92830274553176 2.90795167120311  C 8.8525001431934 2.82900518213183  8.78933131120806 2.73690094659867  8.73879624957573 2.63163896460364  C 8.68826118794341 2.52637698260861  8.65035988677423 2.4184834513212  8.6250923460682 2.30795837074142  C 8.59982480536216 2.19743329016164  8.58719103995409 2.10532905462848  8.58719104984395 2.03164566414195  L 8.58719104984395 0.0895621473188689  L 8.61751208682335 0.0895621473188689  C 8.70847520765141 0.0895621473188689  8.79438481737129 0.100088334188318  8.87524091598301 0.121140707927216  C 8.95609701459473 0.142193081666114  9.05464039466764 0.192192523371255  9.17087105620173 0.271139033042639  C 9.28710171773582 0.350085542714023  9.4285999001962 0.460610623293803  9.59536560358287 0.602714274781979  C 9.76213130696955 0.744817926270156  9.97185183252344 0.931657941478822  10.2245271802445 1.16323432040798  C 10.4974165328388 1.41586307307603  10.7147173176376 1.62901858635847  10.8764295346408 1.80270086025529  C 11.0381417516439 1.97638313415211  11.161952662533 2.12374990482513  11.247862267308 2.24480117227436  C 11.3337718720829 2.36585243972359  11.3868336917418 2.46848287242625  11.4070477262846 2.55269247038233  C 11.4272617608274 2.63690206833841  11.4373687731539 2.71058545367492  11.437368763264 2.77374262639187  L 11.437368763264 3.02637137390989  Z M 13.6583849000224 10.0447140164761  C 13.7746155516666 10.1762915016949  13.863051919413 10.3157636244908  13.9236940180965 10.4631303539636  C 13.9540150550759 10.5473399416196  13.9742290797288 10.6526019236147  13.9843360920553 10.7789162999487  C 13.9944431043817 10.9052306762827  13.9439080378045 11.026281954032  13.8327308923235 11.1420701331965  C 13.7821958306912 11.194701119044  13.7367142702771 11.2447005607492  13.6962862110814 11.292068458312  C 13.6558581518857 11.3394363558747  13.6204836037981 11.3789096004104  13.5901625668187 11.4104881919189  C 13.5497345175129 11.4525929805969  13.5143599694253 11.4841715772554  13.484038922556 11.5052239818944  L 12.1953947470881 10.1789230303872  C 12.2560368309368 10.1262920445397  12.3242591690853 10.0631348563727  12.4000617615338 9.98945146588612  C 12.4758643539823 9.91576807539958  12.5390331859676 9.85787398581732  12.5895682574898 9.81576919713932  C 12.7108524152973 9.69998101797479  12.8422435854312 9.64998157626965  12.9837417678916 9.6657708720239  C 13.125239950352 9.68156016777815  13.2414706019962 9.71577031372904  13.3324337228242 9.76840130987658  C 13.4335038559788 9.82103229572407  13.5421542483781 9.91313653125723  13.6583849000224 10.0447140164761  Z M 2.88683560816908 11.9315349827092  L 8.57203053135425 11.9315349827092  C 8.79438482231623 11.9315349827092  8.98136456519064 11.8683777945422  9.13296975997748 11.7420634182082  L 6.19182892078446 14.9315014386674  L 2.00752546159259 14.9315014386674  C 1.81549220761001 14.9315014386674  1.60577168205612 14.8736073490852  1.37836388493092 14.7578191699206  C 1.15095608780571 14.6420309907561  0.938708809170206 14.4894011163483  0.741622049024396 14.2999295466972  C 0.544535288878587 14.1104579770462  0.380296323738724 13.892039365179  0.248905153604808 13.6446737110957  C 0.117513983470892 13.3973080570124  0.0518183984039336 13.142047755052  0 12.8788928052144  L 0 2.12638146956758  C 0.0518183984039336 1.90533130840802  0.099826711899578 1.67375495007896  0.195843338890866 1.4316523945804  C 0.291859965882155 1.18954983908185  0.423251136016071 0.971131227214662  0.590016849292615 0.776396558978847  C 0.756782562569159 0.581661890743033  0.946289058525184 0.418505819165737  1.15853633716069 0.286928344246961  C 1.3707836157962 0.155350879628233  1.59313790675817 0.0895621473188689  1.82559921004661 0.0895621473188689  L 7.63207829598417 0.0895621473188689  L 7.63207829598417 2.06322427110052  C 7.63207829598417 2.26322203792108  7.6623993379085 2.47900910049589  7.72304142175716 2.71058545882495  C 7.78368350560582 2.94216181715401  7.8771733795155 3.15531733043645  8.00351104348618 3.35005199867226  C 8.12984870745686 3.54478666690808  8.29408767259673 3.70794273848537  8.49622793890577 3.83952021340415  C 8.69836820521481 3.97109768832292  8.94093652082971 4.03688642578231  9.22393288575048 4.03688642578231  L 11.4373687780988 4.03688642578231  L 11.4373687780988 9.2631437684903  L 9.36037756699256 11.5052239509943  C 9.47155471247355 11.3368047859823  9.52714328521404 11.152596320066  9.52714328521404 10.9525985532454  C 9.52714328521404 10.6789174062384  9.43365341130437 10.4447094986169  9.24667366348502 10.2499748303811  C 9.05969391566568 10.0552401621453  8.83481287162209 9.9578728280274  8.57203053135426 9.9578728280274  L 2.88683560816908 9.9578728280274  C 2.62405326790125 9.9578728280274  2.40169897693928 10.0552401621453  2.21977273528316 10.2499748303811  C 2.03784649362705 10.4447094986169  1.946883372799 10.6789174062384  1.946883372799 10.9525985532454  C 1.946883372799 11.2262797002525  2.03784649362705 11.4578560585815  2.21977273528316 11.6473276282326  C 2.40169897693928 11.8367991978837  2.62405326790125 11.9315349827092  2.88683560816908 11.9315349827092  Z M 8.57203053135426 6.01054856501403  L 2.88683560816908 6.01054856501403  C 2.62405326790125 6.01054856501403  2.40169897693927 6.10791589913194  2.21977273528316 6.30265056736775  C 2.03784649362705 6.49738523560357  1.94688337279899 6.731593143225  1.94688337279899 7.00527429023205  C 1.94688337279899 7.2789554372391  2.03784649362705 7.51053179556816  2.21977273528316 7.70000336521923  C 2.40169897693927 7.88947493487029  2.62405326790125 7.98421071969583  2.88683560816908 7.98421071969583  L 8.57203053135426 7.98421071969583  C 8.83481287162209 7.98421071969583  9.05969391566568 7.88947493487029  9.24667366348502 7.70000336521923  C 9.43365341130436 7.51053179556816  9.52714328521404 7.2789554372391  9.52714328521404 7.00527429023205  C 9.52714328521404 6.731593143225  9.43365341130437 6.49738523560357  9.24667366348502 6.30265056736775  C 9.05969391566568 6.10791589913194  8.83481287162209 6.01054856501403  8.57203053135426 6.01054856501403  Z M 8.35978325766368 14.2841402972932  C 8.42042534151234 14.1472997237897  8.501281445069 14.0262484460404  8.60235158316846 13.9209864176952  L 8.79943833836933 13.7157255574399  L 9.17845133028138 13.3209931326835  C 9.33005652506823 13.163100164841  9.49682224328971 12.9867863468019  9.67874848494582 12.792051678566  C 9.86067472660193 12.5973170103302  10.0426009633131 12.4052138965368  10.2245271950794 12.2157423371858  C 10.6591287646768 11.7631158176972  11.1493189070148 11.2578583123611  11.6950976220933 10.6999698211775  L 12.9685812790715 12.0262707726848  L 11.4980108520576 13.5578325998974  L 10.9522321419241 14.1262472934005  L 10.4519349872596 14.6472940996409  C 10.3104368047992 14.7946608703139  10.1916794000734 14.920975246648  10.0956627730821 15.026237228643  C 9.99964614609082 15.131499210638  9.94658432643195 15.1893933002203  9.93647731410548 15.1999194973898  C 9.88594225247316 15.2420242860678  9.83035367973266 15.2867606291882  9.769711595884 15.334128526751  C 9.70906951203534 15.3814964243138  9.64842743313162 15.4209696688494  9.58778535917283 15.4525482603579  C 9.52714328521404 15.4841268518664  9.43365341130436 15.523600096402  9.30731573744381 15.5709679939648  C 9.18097806358325 15.6183358915276  9.05211364653095 15.663072234648  8.92072248628691 15.705177023326  C 8.78933132604287 15.747281812004  8.66299366207218 15.7841235072473  8.54170949437486 15.8157021090558  C 8.42042532667754 15.8472807108643  8.32946220584948 15.8683331052033  8.26882013189069 15.8788592920728  C 8.14753597408324 15.8999116864118  8.06667987052658 15.8841223906575  8.02625182122072 15.83149140481  C 7.98582377191486 15.7788604189625  7.9757167595884 15.6893877378718  7.99593078424133 15.5630733615378  C 8.00603779656779 15.4999161682207  8.02625182122073 15.4051803833952  8.05657285820012 15.2788660070612  C 8.08689389517951 15.1525516307271  8.12226844326708 15.0236057051007  8.16269650246281 14.892028230182  C 8.20312456165854 14.7604507552632  8.24102586282772 14.6367679282215  8.27640040597034 14.520979749057  C 8.31177494911297 14.4051915698925  8.33956923301075 14.3262450859712  8.35978325766368 14.2841402972932  Z " fill-rule="nonzero" fill="#ffffff" stroke="none" fill-opacity="0.996078431372549" transform="matrix(1 0 0 1 249 556 )" />
  </g>
</svg>