<?xml version="1.0" encoding="utf-8"?>
<svg version="1.1" xmlns:xlink="http://www.w3.org/1999/xlink" width="12px" height="11px" xmlns="http://www.w3.org/2000/svg">
  <g transform="matrix(1 0 0 1 -160 -419 )">
    <path d="M 11.5714285714286 3  L 0.428571428571429 3  C 0.428571428571429 2.96153846153846  0.428571428571429 2.96153846153846  0.428571428571429 2.96153846153846  C 0.191877964358231 2.96153846153846  0 2.77212047108226  0 2.53846153846154  C 0 2.30480260584082  0.191877964358231 2.11538461538462  0.428571428571429 2.11538461538462  L 11.5714285714286 2.11538461538462  C 11.8081220356418 2.11538461538462  12 2.30480260584082  12 2.53846153846154  C 12 2.77212047108226  11.8081220356418 2.96153846153846  11.5714285714286 2.96153846153846  C 11.5714285714286 2.96153846153846  11.5714285714286 2.96153846153846  11.5714285714286 3  Z M 10.2857142857143 8.88461538461539  L 10.2857142857143 2.96153846153846  L 11.1428571428571 2.96153846153846  L 11.1428571428571 8.88461538461539  C 11.1428571428571 10.052910047719  10.183467321066 11  9 11  L 3 11  C 1.81653267893401 11  0.857142857142857 10.052910047719  0.857142857142857 8.88461538461539  L 0.857142857142857 2.96153846153846  L 1.71428571428571 2.96153846153846  L 1.71428571428571 4.23076923076923  L 0.857142857142857 4.23076923076923  L 0.857142857142857 2.96153846153846  L 1.71428571428571 2.96153846153846  L 1.71428571428571 8.88461538461539  C 1.71428571428571 9.58559218247755  2.28991960736041 10.1538461538462  3 10.1538461538462  L 9 10.1538461538462  C 9.71008039263959 10.1538461538462  10.2857142857143 9.58559218247755  10.2857142857143 8.88461538461539  Z M 3.42857142857143 8.67307692307692  L 3.42857142857143 4.44230769230769  C 3.42857142857143 4.20864875968697  3.62044939292966 4.01923076923077  3.85714285714286 4.01923076923077  C 4.09383632135605 4.01923076923077  4.28571428571429 4.20864875968697  4.28571428571429 4.44230769230769  L 4.28571428571429 8.67307692307692  C 4.28571428571429 8.90673585569764  4.09383632135605 9.09615384615384  3.85714285714286 9.09615384615384  C 3.62044939292966 9.09615384615384  3.42857142857143 8.90673585569764  3.42857142857143 8.67307692307692  Z M 7.71428571428572 8.67307692307692  L 7.71428571428572 4.44230769230769  C 7.71428571428572 4.20864875968697  7.90616367864395 4.01923076923077  8.14285714285714 4.01923076923077  C 8.37955060707034 4.01923076923077  8.57142857142857 4.20864875968697  8.57142857142857 4.44230769230769  L 8.57142857142857 8.67307692307692  C 8.57142857142857 8.90673585569764  8.37955060707034 9.09615384615384  8.14285714285714 9.09615384615384  C 7.90616367864395 9.09615384615384  7.71428571428572 8.90673585569764  7.71428571428572 8.67307692307692  Z M 3 1.26923076923077  L 3 2.11538461538462  L 2.14285714285714 2.11538461538462  L 2.14285714285714 1.26923076923077  C 2.14285714285714 0.568253971368608  2.71849103593184 0  3.42857142857143 0  L 8.57142857142857 0  C 9.28150896406816 0  9.85714285714286 0.568253971368609  9.85714285714286 1.26923076923077  L 9.85714285714286 2.11538461538462  L 9 2.11538461538462  L 9 1.69230769230769  L 9.85714285714286 1.69230769230769  L 9.85714285714286 2.11538461538462  L 9 2.11538461538462  L 9 1.26923076923077  C 9 1.03557183661005  8.80812203564177 0.846153846153846  8.57142857142857 0.846153846153846  L 3.42857142857143 0.846153846153846  C 3.19187796435823 0.846153846153846  3 1.03557183661005  3 1.26923076923077  Z " fill-rule="nonzero" fill="#ffffff" stroke="none" transform="matrix(1 0 0 1 160 419 )" />
  </g>
</svg>