<?xml version="1.0" encoding="utf-8"?>
<svg version="1.1" xmlns:xlink="http://www.w3.org/1999/xlink" width="434px" height="42px" xmlns="http://www.w3.org/2000/svg">
  <g transform="matrix(1 0 0 1 -180 -62 )">
    <path d="M 181 66  A 3 3 0 0 1 184 63 L 610 63  A 3 3 0 0 1 613 66 L 613 100  A 3 3 0 0 1 610 103 L 184 103  A 3 3 0 0 1 181 100 L 181 66  Z " fill-rule="nonzero" fill="#ffffff" stroke="none" fill-opacity="0" />
    <path d="M 180.5 66  A 3.5 3.5 0 0 1 184 62.5 L 610 62.5  A 3.5 3.5 0 0 1 613.5 66 L 613.5 100  A 3.5 3.5 0 0 1 610 103.5 L 184 103.5  A 3.5 3.5 0 0 1 180.5 100 L 180.5 66  Z " stroke-width="1" stroke="#797979" fill="none" stroke-opacity="0.819607843137255" />
  </g>
</svg>