<?xml version="1.0" encoding="utf-8"?>
<svg version="1.1" xmlns:xlink="http://www.w3.org/1999/xlink" width="14px" height="14px" xmlns="http://www.w3.org/2000/svg">
  <defs>
    <mask fill="white" id="clip4916">
      <path d="M 7 1.08589793103454  C 3.73346206896554 1.08589793103454  1.08402482758629 3.73344275862064  1.08402482758629 7  C 1.08402482758629 10.2660937931034  3.73346206896554 12.9159751724138  7 12.9159751724138  C 10.2656303448275 12.9159751724138  12.9131172413793 10.2660744827587  12.9131172413793 7  C 12.9131172413793 3.73344275862064  10.2656303448275 1.08589793103454  7 1.08589793103454  Z M 7 13.90088  C 3.18763586206887 13.90088  0.0991200000000845 10.8119779310344  0.0991200000000845 7  C 0.0991200000000845 3.18997241379316  3.18763586206887 0.0991199999999708  7 0.0991199999999708  C 10.8095641379311 0.0991199999999708  13.9008799999999 3.18997241379316  13.9008799999999 7  C 13.9008799999999 10.8119779310344  10.8095641379311 13.90088  7 13.90088  Z " fill-rule="evenodd" />
    </mask>
  </defs>
  <g transform="matrix(1 0 0 1 -84 -13 )">
    <path d="M 7 1.08589793103454  C 3.73346206896554 1.08589793103454  1.08402482758629 3.73344275862064  1.08402482758629 7  C 1.08402482758629 10.2660937931034  3.73346206896554 12.9159751724138  7 12.9159751724138  C 10.2656303448275 12.9159751724138  12.9131172413793 10.2660744827587  12.9131172413793 7  C 12.9131172413793 3.73344275862064  10.2656303448275 1.08589793103454  7 1.08589793103454  Z M 7 13.90088  C 3.18763586206887 13.90088  0.0991200000000845 10.8119779310344  0.0991200000000845 7  C 0.0991200000000845 3.18997241379316  3.18763586206887 0.0991199999999708  7 0.0991199999999708  C 10.8095641379311 0.0991199999999708  13.9008799999999 3.18997241379316  13.9008799999999 7  C 13.9008799999999 10.8119779310344  10.8095641379311 13.90088  7 13.90088  Z " fill-rule="nonzero" fill="#ffffff" stroke="none" fill-opacity="0.149019607843137" transform="matrix(1 0 0 1 84 13 )" />
    <path d="M 7 1.08589793103454  C 3.73346206896554 1.08589793103454  1.08402482758629 3.73344275862064  1.08402482758629 7  C 1.08402482758629 10.2660937931034  3.73346206896554 12.9159751724138  7 12.9159751724138  C 10.2656303448275 12.9159751724138  12.9131172413793 10.2660744827587  12.9131172413793 7  C 12.9131172413793 3.73344275862064  10.2656303448275 1.08589793103454  7 1.08589793103454  Z " stroke-width="2" stroke="#d7d7d7" fill="none" stroke-opacity="0.913725490196078" transform="matrix(1 0 0 1 84 13 )" mask="url(#clip4916)" />
    <path d="M 7 13.90088  C 3.18763586206887 13.90088  0.0991200000000845 10.8119779310344  0.0991200000000845 7  C 0.0991200000000845 3.18997241379316  3.18763586206887 0.0991199999999708  7 0.0991199999999708  C 10.8095641379311 0.0991199999999708  13.9008799999999 3.18997241379316  13.9008799999999 7  C 13.9008799999999 10.8119779310344  10.8095641379311 13.90088  7 13.90088  Z " stroke-width="2" stroke="#d7d7d7" fill="none" stroke-opacity="0.913725490196078" transform="matrix(1 0 0 1 84 13 )" mask="url(#clip4916)" />
  </g>
</svg>