<?xml version="1.0" encoding="utf-8"?>
<svg version="1.1" xmlns:xlink="http://www.w3.org/1999/xlink" width="160px" height="24px" xmlns="http://www.w3.org/2000/svg">
  <g transform="matrix(1 0 0 1 -573 -12 )">
    <path d="M 574 16  A 3 3 0 0 1 577 13 L 729 13  A 3 3 0 0 1 732 16 L 732 32  A 3 3 0 0 1 729 35 L 577 35  A 3 3 0 0 1 574 32 L 574 16  Z " fill-rule="nonzero" fill="#ffffff" stroke="none" fill-opacity="0" />
    <path d="M 573.5 16  A 3.5 3.5 0 0 1 577 12.5 L 729 12.5  A 3.5 3.5 0 0 1 732.5 16 L 732.5 32  A 3.5 3.5 0 0 1 729 35.5 L 577 35.5  A 3.5 3.5 0 0 1 573.5 32 L 573.5 16  Z " stroke-width="1" stroke="#797979" fill="none" stroke-opacity="0.819607843137255" />
  </g>
</svg>