<?xml version="1.0" encoding="utf-8"?>
<svg version="1.1" xmlns:xlink="http://www.w3.org/1999/xlink" width="11px" height="12px" xmlns="http://www.w3.org/2000/svg">
  <g transform="matrix(1 0 0 1 -1161 -12 )">
    <path d="M 10.7602448979592 8.79908571428571  C 10.8105306122449 8.86582857142857  10.8231020408163 8.94628571428571  10.7943673469388 9.03405714285714  C 10.7692244897959 9.12365714285714  10.6560816326531 9.18582857142857  10.5061224489796 9.26811428571429  C 10.3435918367347 9.35497142857143  10.202612244898 9.34674285714286  10.1020408163265 9.3184  C 10.0041632653061 9.28914285714286  9.91616326530612 9.22331428571429  9.8425306122449 9.12365714285714  L 8.492 7.30422857142857  L 6.85322448979592 9.11451428571429  C 6.6574693877551 9.33028571428572  6.43567346938776 9.36228571428572  6.18244897959184 9.2096  C 6.07828571428572 9.14742857142857  5.88791836734694 8.91702857142857  5.86546938775511 8.8128  C 5.84391836734694 8.70948571428572  5.88432653061225 8.60068571428572  5.98848979591837 8.48457142857143  L 7.80057142857143 6.4768  L 6.48057142857143 4.69851428571429  C 6.42579591836735 4.61714285714286  6.42040816326531 4.52205714285714  6.46351020408163 4.41417142857143  C 6.50481632653061 4.30628571428571  6.60269387755102 4.24228571428571  6.70685714285714 4.1792  C 6.85681632653061 4.09325714285714  6.99420408163265 4.09051428571429  7.09567346938776 4.09874285714286  C 7.19804081632653 4.10514285714286  7.2905306122449 4.16457142857143  7.37583673469388 4.27428571428571  L 8.47314285714286 5.73074285714286  L 9.80122448979592 4.25782857142857  C 9.91616326530612 4.128  10.0463673469388 4.08228571428571  10.1720816326531 4.04571428571429  C 10.2968979591837 4.00914285714286  10.5438367346939 4.1408  10.6785306122449 4.2176  C 10.8168163265306 4.29348571428571  10.8886530612245 4.38125714285714  10.8976326530612 4.48  C 10.9057142857143 4.57874285714286  10.868 4.67565714285714  10.7817959183673 4.77165714285714  L 9.15918367346939 6.56365714285714  L 10.7602448979592 8.79908571428571  Z M 7.32914285714286 0.727771428571428  C 7.38302040816326 0.199314285714286  6.86130612244898 0.149942857142857  6.62424489795918 0.122514285714286  C 6.06122448979592 0.0576  4.88220408163265 -0.0283428571428571  4.16742857142857 0.442514285714286  C 3.45085714285714 0.9152  3.03959183673469 1.72708571428571  2.84024489795918 2.69257142857143  L 2.55918367346939 4.05668571428571  L 0.541469387755102 4.05668571428571  C 0.307102040816327 4.05668571428571  0.120326530612245 4.12525714285714  0.100571428571429 4.55314285714286  C 0.120326530612245 4.78628571428571  0.307102040816327 4.97097142857143  0.541469387755102 4.97097142857143  L 2.36612244897959 4.97097142857143  L 1.16375510204082 10.9522285714286  C 1.16375510204082 10.9522285714286  0.855755102040816 11.9277714285714  1.52922448979592 11.9707428571429  C 2.11738775510204 12.0082285714286  2.23412244897959 11.0336  2.23412244897959 11.0336  L 3.44636734693878 4.97097142857143  L 4.98636734693877 4.97097142857143  C 5.23420408163265 4.97097142857143  5.43534693877551 4.76617142857143  5.43534693877551 4.51382857142857  C 5.43534693877551 4.26148571428571  5.23420408163265 4.05668571428571  4.98636734693877 4.05668571428571  L 3.63763265306122 4.05668571428571  L 3.90432653061225 2.72  C 4.4745306122449 0.589714285714286  5.53771428571429 1.1072  6.52008163265306 1.1072  C 6.68081632653061 1.1072  7.2869387755102 1.15017142857143  7.32914285714286 0.727771428571428  Z M 0.0924897959183673 4.51382857142857  L 0.0924897959183673 4.61988571428571  C 0.0924897959183673 4.59245714285714  0.0987755102040815 4.57874285714286  0.100571428571428 4.55405714285714  C 0.0987755102040817 4.54034285714286  0.0924897959183673 4.52845714285714  0.0924897959183673 4.51382857142857  Z " fill-rule="nonzero" fill="#ffffff" stroke="none" transform="matrix(1 0 0 1 1161 12 )" />
  </g>
</svg>