<?xml version="1.0" encoding="utf-8"?>
<svg version="1.1" xmlns:xlink="http://www.w3.org/1999/xlink" width="14px" height="12px" xmlns="http://www.w3.org/2000/svg">
  <g transform="matrix(1 0 0 1 -1224 -8 )">
    <path d="M 0.00131436346424888 5.49999992794835  C 0.00131436346424888 2.46287377839244  2.87335287623139 0.000622192358359769  6.41666666666667 0  C 6.41703147164055 0  6.41739627660183 0  6.41776108158101 0  C 9.9615882263286 0  12.8344277482477 2.46243385951487  12.8344277482477 5.49999996333437  C 12.8344277482477 6.78619720817861  12.3085273043784 8.03171834513855  11.3481666666667 9.0200000198661  L 13.8681666666667 11.1800000054665  C 14.0641666666667 11.3440000043732  14.0373333333333 11.6380000024133  13.8098333333333 11.83800000108  C 13.5765 12.03299999978  13.2335 12.0549999996333  13.0433333333333 11.8870000007533  L 10.5233333333333 9.7270000151529  C 9.37053374910749 10.5495804993572  7.91795679075768 10.9999998912827  6.41798103013092 10.9999998912827  C 2.87415388538333 10.9999998912827  0.00131436346424888 8.53756603176784  0.00131436346424888 5.49999992794835  Z M 11.6643333333333 5.50000004333211  C 11.6643333333333 3.29000005806503  9.7475 0.99000007339793  6.41666666666667 0.99000007339793  C 3.08583333333333 0.99000007339793  1.16433333333333 3.29000005806503  1.16433333333333 5.50000004333211  C 1.16433333333333 7.7100000285992  3.08 10.0200000131996  6.41433333333333 10.0200000131996  C 9.7475 10.0200000131996  11.6643333333333 7.71000002859919  11.6643333333333 5.50000004333211  Z " fill-rule="nonzero" fill="#ffffff" stroke="none" fill-opacity="0.8" transform="matrix(1 0 0 1 1224 8 )" />
  </g>
</svg>