<?xml version="1.0" encoding="utf-8"?>
<svg version="1.1" xmlns:xlink="http://www.w3.org/1999/xlink" width="220px" height="28px" xmlns="http://www.w3.org/2000/svg">
  <g transform="matrix(1 0 0 1 -1032 0 )">
    <path d="M 1033 4  A 3 3 0 0 1 1036 1 L 1248 1  A 3 3 0 0 1 1251 4 L 1251 24  A 3 3 0 0 1 1248 27 L 1036 27  A 3 3 0 0 1 1033 24 L 1033 4  Z " fill-rule="nonzero" fill="#1f2128" stroke="none" fill-opacity="0" />
    <path d="M 1032.5 4  A 3.5 3.5 0 0 1 1036 0.5 L 1248 0.5  A 3.5 3.5 0 0 1 1251.5 4 L 1251.5 24  A 3.5 3.5 0 0 1 1248 27.5 L 1036 27.5  A 3.5 3.5 0 0 1 1032.5 24 L 1032.5 4  Z " stroke-width="1" stroke="#325bee" fill="none" stroke-opacity="0.6" />
  </g>
</svg>