<?xml version="1.0" encoding="utf-8"?>
<svg version="1.1" xmlns:xlink="http://www.w3.org/1999/xlink" width="14px" height="12px" xmlns="http://www.w3.org/2000/svg">
  <g transform="matrix(1 0 0 1 -256 -10 )">
    <path d="M 13.83725 4.92654545454546  C 14.05425 5.14385454545455  14.05425 5.49294545454545  13.83725 5.70938181818182  L 11.80725 7.73410909090909  C 11.703125 7.83709090909091  11.561375 7.89643636363636  11.414375 7.89643636363636  C 11.267375 7.89643636363636  11.127375 7.83796363636364  11.0215 7.73410909090909  L 8.99325 5.70938181818182  C 8.777125 5.49294545454545  8.777125 5.14298181818182  8.99325 4.92654545454545  C 9.21025 4.71010909090909  9.56025 4.71010909090909  9.779 4.92654545454545  L 10.85875 6.00523636363636  L 10.85875 6  C 10.85875 3.31898181818182  8.673875 1.13890909090909  5.985 1.13890909090909  C 3.297875 1.13890909090909  1.11125 3.31898181818182  1.11125 6  C 1.11125 8.68101818181818  3.297875 10.8610909090909  5.985 10.8610909090909  C 7.287 10.8610909090909  8.511125 10.3557818181818  9.433375 9.43767272727273  C 9.648625 9.22123636363636  10.000375 9.22123636363636  10.217375 9.43767272727273  C 10.434375 9.65410909090909  10.4335 10.0032  10.217375 10.2196363636364  C 9.08775 11.3480727272727  7.5845 11.9685818181818  5.985 11.9685818181818  C 2.6845 11.9677090909091  0 9.29105454545455  0 6  C 0 2.70894545454545  2.6845 0.0305454545454547  5.985 0.0305454545454547  C 9.2855 0.0305454545454547  11.97 2.70807272727273  11.97 6  L 11.97 6.00523636363636  L 13.0515 4.92654545454546  C 13.2685 4.71010909090909  13.6185 4.71010909090909  13.83725 4.92654545454546  Z M 4.151 8.53265454545455  L 8.526 5.91447272727273  L 4.151 3.29629090909091  L 4.151 8.53265454545455  Z " fill-rule="nonzero" fill="#ffffff" stroke="none" transform="matrix(1 0 0 1 256 10 )" />
  </g>
</svg>