<?xml version="1.0" encoding="utf-8"?>
<svg version="1.1" xmlns:xlink="http://www.w3.org/1999/xlink" width="346px" height="42px" xmlns="http://www.w3.org/2000/svg">
  <g transform="matrix(1 0 0 1 -204 -127 )">
    <path d="M 205 131  A 3 3 0 0 1 208 128 L 546 128  A 3 3 0 0 1 549 131 L 549 165  A 3 3 0 0 1 546 168 L 208 168  A 3 3 0 0 1 205 165 L 205 131  Z " fill-rule="nonzero" fill="#ffffff" stroke="none" fill-opacity="0" />
    <path d="M 204.5 131  A 3.5 3.5 0 0 1 208 127.5 L 546 127.5  A 3.5 3.5 0 0 1 549.5 131 L 549.5 165  A 3.5 3.5 0 0 1 546 168.5 L 208 168.5  A 3.5 3.5 0 0 1 204.5 165 L 204.5 131  Z " stroke-width="1" stroke="#797979" fill="none" stroke-opacity="0.819607843137255" />
  </g>
</svg>