<?xml version="1.0" encoding="utf-8"?>
<svg version="1.1" xmlns:xlink="http://www.w3.org/1999/xlink" width="12px" height="12px" xmlns="http://www.w3.org/2000/svg">
  <g transform="matrix(1 0 0 1 -127 -930 )">
    <path d="M 10.4706461538462 3.12  C 10.5467617344423 3.0790816131027  10.6060494522225 3.01087450415203  10.6375384615385 2.928  C 10.6331702873495 2.79947481290817  10.5577764045772 2.68515236348926  10.4440615384615 2.634624  L 5.47273846153846 0.044928  C 5.39274235444303 0.00351786434515603  5.29870379940312 0.00351786434515581  5.21870769230769 0.044928  L 0.250338461538462 2.630016  C 0.0657230769230769 2.755968  0.0923076923076924 3.03552  0.0923076923076924 3.064704  L 0.0923076923076924 8.58048  C 0.0931447556837326 8.68349543864137  0.145085700437236 8.77875401430973  0.229661538461539 8.832384  C 0.229661538461539 8.832384  5.09169230769231 11.887488  5.17587692307692 11.925888  C 5.28302056802795 11.998143662993  5.41885163880973 12.0063159786565  5.53329230769231 11.947392  L 7.15790769230769 10.973568  C 7.29673846153846 10.890624  7.3056 10.7616  7.28935384615385 10.541952  C 7.27310769230769 10.322304  7.08701538461538 10.202496  6.95113846153846 10.283904  C 6.81526153846154 10.365312  5.74449230769231 11.035008  5.74449230769231 11.035008  L 5.74449230769231 6  L 10.0275692307692 3.40416  L 10.4706461538462 3.12  Z M 4.96615384615385 10.972032  L 4.96615384615385 10.973568  L 0.830769230769231 8.353152  L 0.830769230769231 3.531648  L 4.96615384615385 6  L 4.96615384615385 10.972032  Z M 9.28024615384615 2.878848  L 5.34424615384615 5.195136  L 1.42153846153846 2.878848  L 5.35163076923077 0.835968  L 9.28024615384615 2.878848  Z M 11.8072615384615 9.262464  L 11.8072615384615 9.268608  L 9.59926153846154 10.651008  C 9.5204924737139 10.7020031329479  9.41975481273074 10.6977393528783  9.34523076923077 10.640256  C 9.33193846153846 10.640256  7.14609230769231 9.273216  7.14609230769231 9.273216  C 7.08198163555219 9.23363282774738  7.04268861603828 9.16182764122997  7.04270769230769 9.084288  L 7.04270769230769 6.6144  C 7.0454425283757 6.48692529852766  7.12360947770876 6.37445892691583  7.23913846153846 6.331776  L 9.38067692307692 5.102976  C 9.44006967803335 5.07387700360619  9.50885339888973 5.07387700360619  9.56824615384615 5.102976  L 11.7142153846154 6.331776  L 11.6964923076923 6.331776  C 11.7033099881927 6.33028425629538  11.7103515502688 6.33028425629538  11.7171692307692 6.331776  L 11.7732923076923 6.36096  C 11.8499032671135 6.39185241050881  11.9023319259471 6.46615130988429  11.9076923076923 6.551424  L 11.9076923076923 9.072  C 11.9074340481411 9.14909127104576  11.8696259286516 9.22079325765405  11.8072615384615 9.262464  Z M 9.46338461538462 5.648256  L 7.86978461538462 6.569856  L 9.46338461538462 7.500672  L 11.0791384615385 6.569856  L 9.46338461538462 5.648256  Z M 9.78092307692308 8.0352  L 9.78092307692308 9.93984  L 11.4055384615385 8.9184  L 11.4055384615385 7.0752  L 9.78092307692308 8.0352  Z M 7.60541538461538 8.909184  L 9.20344615384615 9.910656  L 9.20344615384615 8.049024  L 7.60541538461538 7.108992  L 7.60541538461538 8.909184  Z " fill-rule="nonzero" fill="#ffffff" stroke="none" transform="matrix(1 0 0 1 127 930 )" />
  </g>
</svg>