<?xml version="1.0" encoding="utf-8"?>
<svg version="1.1" xmlns:xlink="http://www.w3.org/1999/xlink" width="60px" height="66px" xmlns="http://www.w3.org/2000/svg">
  <defs>
    <linearGradient gradientUnits="userSpaceOnUse" x1="25" y1="0" x2="25" y2="56" id="LinearGradient4928">
      <stop id="Stop4929" stop-color="#0095f7" offset="0" />
      <stop id="Stop4930" stop-color="#ffffff" stop-opacity="0.411764705882353" offset="1" />
    </linearGradient>
    <filter x="873px" y="563px" width="60px" height="66px" filterUnits="userSpaceOnUse" id="filter4931">
      <feOffset dx="1" dy="1" in="SourceAlpha" result="shadowOffsetInner" />
      <feGaussianBlur stdDeviation="2.5" in="shadowOffsetInner" result="shadowGaussian" />
      <feComposite in2="shadowGaussian" operator="atop" in="SourceAlpha" result="shadowComposite" />
      <feColorMatrix type="matrix" values="0 0 0 0 0.00784313725490196  0 0 0 0 0.654901960784314  0 0 0 0 0.941176470588235  0 0 0 0.356862745098039 0  " in="shadowComposite" />
    </filter>
    <g id="widget4932">
      <path d="M 28.2943287393162 56  C 24.2331569644885 52.8609804900043  21.8467832378992 47.9546180111863  21.8504008547009 42.74743528125  C 21.8502244469026 41.1598745977984  22.0726344028615 39.5805068416365  22.5108271367521 38  L 9.77185357905983 38  C 8.71768203948047 38.0576453359375  7.86310715811966 37.1827743011444  7.86310715811966 36.1035661875  C 7.86310715811966 35.0243580738556  8.71768203948046 34.1494870390625  9.77185357905983 34  L 24.1905239850427 34  C 25.1325459853202 32.557610627389  26.328752019415 31.1387999506024  27.7293398504274 30  L 9.78712355769231 30  C 9.78712355769231 29.9521250546875  9.78712355769231 29.9521250546875  9.78712355769231 29.9521250546875  C 8.73295201811295 29.9521250546875  7.87837713675214 29.0772540198944  7.87837713675214 27.99804590625  C 7.87837713675214 26.9188377926056  8.73295201811295 26.0439667578125  9.78712355769231 26.0439667578125  C 9.78712355769231 26.0439667578125  9.78712355769231 26.0439667578125  9.78712355769231 26  L 40.2659862713675 26  C 40.7107017776879 26.0447636715639  41.1407746481671 26.2067561061741  41.4799489850427 26.5012213046875  C 44.5837285943342 27.185678279001  47.4229756780191 28.7878170258827  49 31.1089399140625  L 49 10.2471910078125  C 49.6455661324786 7.65709154110661  47.594586421996 5.5574010625  45.064574732906 6  L 32.7378904380342 6  C 31.4857527777778 2.13776259375  28.561553258547 0  24.8089577991453 0  C 21.4648340811966 0  18.1245278846154 2.13776259375  17.2884969551282 6  L 4.95799513888889 6  C 2.42798344979889 5.5574010625  0.37700373931624 7.65709154110662  1 10.2471910078125  L 1 51.306301921875  C 0.37700373931624 53.8964013885809  2.42798344979889 55.9960918671875  4.95799513888889 56  L 28.2943287393162 56  Z M 9.77153426267254 17.9384465039062  C 9.7716407014624 17.9384465039062  9.77174714027147 17.9384465130208  9.77185357905983 18  L 40.250716292735 18  C 41.3047631189185 17.938627051862  42.1591433972879 18.8134451989386  42.1591433972879 19.8925256523438  C 42.1591433972879 20.9716061057489  41.3047631189185 21.8464242528256  40.250716292735 22  L 9.77185357905983 22  C 9.77174714027147 21.8466047916667  9.7716407014624 21.8466048007813  9.77153426267254 21.8466048007813  C 8.71736272309318 21.8466048007813  7.86278784173237 20.9717337659881  7.86278784173237 19.8925256523438  C 7.86278784173237 18.8133175386994  8.71736272309318 17.9384465039062  9.77153426267254 17.9384465039062  Z " fill-rule="nonzero" fill="url(#LinearGradient4928)" stroke="none" transform="matrix(1 0 0 1 877 567 )" />
    </g>
  </defs>
  <g transform="matrix(1 0 0 1 -873 -563 )">
    <use xlink:href="#widget4932" filter="url(#filter4931)" />
    <use xlink:href="#widget4932" />
  </g>
</svg>