<?xml version="1.0" encoding="utf-8"?>
<svg version="1.1" xmlns:xlink="http://www.w3.org/1999/xlink" width="165px" height="259px" xmlns="http://www.w3.org/2000/svg">
  <defs>
    <linearGradient gradientUnits="userSpaceOnUse" x1="0" y1="179.402971046056" x2="165" y2="180.194638667921" id="LinearGradient4959">
      <stop id="Stop4960" stop-color="#ffffff" stop-opacity="0.149019607843137" offset="0" />
      <stop id="Stop4961" stop-color="#ffffff" stop-opacity="0.447058823529412" offset="0.51" />
      <stop id="Stop4962" stop-color="#ffffff" stop-opacity="0.149019607843137" offset="1" />
    </linearGradient>
  </defs>
  <g transform="matrix(1 0 0 1 0 -48 )">
    <path d="M 0.5 68  A 19.5 19.5 0 0 1 20 48.5 L 145 48.5  A 19.5 19.5 0 0 1 164.5 68 L 164.5 287  A 19.5 19.5 0 0 1 145 306.5 L 20 306.5  A 19.5 19.5 0 0 1 0.5 287 L 0.5 68  Z " fill-rule="nonzero" fill="#2f3744" stroke="none" fill-opacity="0.549019607843137" />
    <path d="M 0.5 68  A 19.5 19.5 0 0 1 20 48.5 L 145 48.5  A 19.5 19.5 0 0 1 164.5 68 L 164.5 287  A 19.5 19.5 0 0 1 145 306.5 L 20 306.5  A 19.5 19.5 0 0 1 0.5 287 L 0.5 68  Z " stroke-width="1" stroke="url(#LinearGradient4959)" fill="none" />
  </g>
</svg>