<?xml version="1.0" encoding="utf-8"?>
<svg version="1.1" xmlns:xlink="http://www.w3.org/1999/xlink" width="200px" height="26px" xmlns="http://www.w3.org/2000/svg">
  <g transform="matrix(1 0 0 1 -220 -170 )">
    <path d="M 221 174  A 3 3 0 0 1 224 171 L 416 171  A 3 3 0 0 1 419 174 L 419 192  A 3 3 0 0 1 416 195 L 224 195  A 3 3 0 0 1 221 192 L 221 174  Z " fill-rule="nonzero" fill="#ffffff" stroke="none" fill-opacity="0" />
    <path d="M 220.5 174  A 3.5 3.5 0 0 1 224 170.5 L 416 170.5  A 3.5 3.5 0 0 1 419.5 174 L 419.5 192  A 3.5 3.5 0 0 1 416 195.5 L 224 195.5  A 3.5 3.5 0 0 1 220.5 192 L 220.5 174  Z " stroke-width="1" stroke="#797979" fill="none" stroke-opacity="0.819607843137255" />
  </g>
</svg>