<?xml version="1.0" encoding="utf-8"?>
<svg version="1.1" xmlns:xlink="http://www.w3.org/1999/xlink" width="150px" height="102px" xmlns="http://www.w3.org/2000/svg">
  <defs>
    <linearGradient gradientUnits="userSpaceOnUse" x1="0" y1="85.7494326127324" x2="150" y2="86.0612090506871" id="LinearGradient4963">
      <stop id="Stop4964" stop-color="#ffffff" stop-opacity="0.149019607843137" offset="0" />
      <stop id="Stop4965" stop-color="#ffffff" stop-opacity="0.447058823529412" offset="0.51" />
      <stop id="Stop4966" stop-color="#ffffff" stop-opacity="0.149019607843137" offset="1" />
    </linearGradient>
  </defs>
  <g transform="matrix(1 0 0 1 0 -34 )">
    <path d="M 0.5 54  A 19.5 19.5 0 0 1 20 34.5 L 130 34.5  A 19.5 19.5 0 0 1 149.5 54 L 149.5 116  A 19.5 19.5 0 0 1 130 135.5 L 20 135.5  A 19.5 19.5 0 0 1 0.5 116 L 0.5 54  Z " fill-rule="nonzero" fill="#2f3744" stroke="none" fill-opacity="0.549019607843137" />
    <path d="M 0.5 54  A 19.5 19.5 0 0 1 20 34.5 L 130 34.5  A 19.5 19.5 0 0 1 149.5 54 L 149.5 116  A 19.5 19.5 0 0 1 130 135.5 L 20 135.5  A 19.5 19.5 0 0 1 0.5 116 L 0.5 54  Z " stroke-width="1" stroke="url(#LinearGradient4963)" fill="none" />
  </g>
</svg>