<?xml version="1.0" encoding="utf-8"?>
<svg version="1.1" xmlns:xlink="http://www.w3.org/1999/xlink" width="248px" height="40px" xmlns="http://www.w3.org/2000/svg">
  <g transform="matrix(1 0 0 1 -204 -120 )">
    <path d="M 205 124  A 3 3 0 0 1 208 121 L 448 121  A 3 3 0 0 1 451 124 L 451 156  A 3 3 0 0 1 448 159 L 208 159  A 3 3 0 0 1 205 156 L 205 124  Z " fill-rule="nonzero" fill="#ffffff" stroke="none" fill-opacity="0" />
    <path d="M 204.5 124  A 3.5 3.5 0 0 1 208 120.5 L 448 120.5  A 3.5 3.5 0 0 1 451.5 124 L 451.5 156  A 3.5 3.5 0 0 1 448 159.5 L 208 159.5  A 3.5 3.5 0 0 1 204.5 156 L 204.5 124  Z " stroke-width="1" stroke="#797979" fill="none" stroke-opacity="0.819607843137255" />
  </g>
</svg>