<?xml version="1.0" encoding="utf-8"?>
<svg version="1.1" xmlns:xlink="http://www.w3.org/1999/xlink" width="168px" height="258px" xmlns="http://www.w3.org/2000/svg">
  <defs>
    <linearGradient gradientUnits="userSpaceOnUse" x1="0" y1="178.8956236675" x2="168" y2="179.68423465762" id="LinearGradient4973">
      <stop id="Stop4974" stop-color="#ffffff" stop-opacity="0.149019607843137" offset="0" />
      <stop id="Stop4975" stop-color="#ffffff" stop-opacity="0.447058823529412" offset="0.51" />
      <stop id="Stop4976" stop-color="#ffffff" stop-opacity="0.149019607843137" offset="1" />
    </linearGradient>
  </defs>
  <g transform="matrix(1 0 0 1 0 -48 )">
    <path d="M 0.5 68  A 19.5 19.5 0 0 1 20 48.5 L 148 48.5  A 19.5 19.5 0 0 1 167.5 68 L 167.5 286  A 19.5 19.5 0 0 1 148 305.5 L 20 305.5  A 19.5 19.5 0 0 1 0.5 286 L 0.5 68  Z " fill-rule="nonzero" fill="#2f3744" stroke="none" fill-opacity="0.549019607843137" />
    <path d="M 0.5 68  A 19.5 19.5 0 0 1 20 48.5 L 148 48.5  A 19.5 19.5 0 0 1 167.5 68 L 167.5 286  A 19.5 19.5 0 0 1 148 305.5 L 20 305.5  A 19.5 19.5 0 0 1 0.5 286 L 0.5 68  Z " stroke-width="1" stroke="url(#LinearGradient4973)" fill="none" />
  </g>
</svg>