<?xml version="1.0" encoding="utf-8"?>
<svg version="1.1" xmlns:xlink="http://www.w3.org/1999/xlink" width="340px" height="40px" xmlns="http://www.w3.org/2000/svg">
  <g transform="matrix(1 0 0 1 -380 -178 )">
    <path d="M 381 182  A 3 3 0 0 1 384 179 L 716 179  A 3 3 0 0 1 719 182 L 719 214  A 3 3 0 0 1 716 217 L 384 217  A 3 3 0 0 1 381 214 L 381 182  Z " fill-rule="nonzero" fill="#ffffff" stroke="none" fill-opacity="0" />
    <path d="M 380.5 182  A 3.5 3.5 0 0 1 384 178.5 L 716 178.5  A 3.5 3.5 0 0 1 719.5 182 L 719.5 214  A 3.5 3.5 0 0 1 716 217.5 L 384 217.5  A 3.5 3.5 0 0 1 380.5 214 L 380.5 182  Z " stroke-width="1" stroke="#797979" fill="none" stroke-opacity="0.819607843137255" />
  </g>
</svg>