<?xml version="1.0" encoding="utf-8"?>
<svg version="1.1" xmlns:xlink="http://www.w3.org/1999/xlink" width="326px" height="40px" xmlns="http://www.w3.org/2000/svg">
  <g transform="matrix(1 0 0 1 -190 0 )">
    <path d="M 191 4  A 3 3 0 0 1 194 1 L 512 1  A 3 3 0 0 1 515 4 L 515 36  A 3 3 0 0 1 512 39 L 194 39  A 3 3 0 0 1 191 36 L 191 4  Z " fill-rule="nonzero" fill="#ffffff" stroke="none" fill-opacity="0" />
    <path d="M 190.5 4  A 3.5 3.5 0 0 1 194 0.5 L 512 0.5  A 3.5 3.5 0 0 1 515.5 4 L 515.5 36  A 3.5 3.5 0 0 1 512 39.5 L 194 39.5  A 3.5 3.5 0 0 1 190.5 36 L 190.5 4  Z " stroke-width="1" stroke="#797979" fill="none" stroke-opacity="0.819607843137255" />
  </g>
</svg>