<?xml version="1.0" encoding="utf-8"?>
<svg version="1.1" xmlns:xlink="http://www.w3.org/1999/xlink" width="123px" height="26px" xmlns="http://www.w3.org/2000/svg">
  <g transform="matrix(1 0 0 1 -366 -170 )">
    <path d="M 367 174  A 3 3 0 0 1 370 171 L 485 171  A 3 3 0 0 1 488 174 L 488 192  A 3 3 0 0 1 485 195 L 370 195  A 3 3 0 0 1 367 192 L 367 174  Z " fill-rule="nonzero" fill="#ffffff" stroke="none" fill-opacity="0" />
    <path d="M 366.5 174  A 3.5 3.5 0 0 1 370 170.5 L 485 170.5  A 3.5 3.5 0 0 1 488.5 174 L 488.5 192  A 3.5 3.5 0 0 1 485 195.5 L 370 195.5  A 3.5 3.5 0 0 1 366.5 192 L 366.5 174  Z " stroke-width="1" stroke="#797979" fill="none" stroke-opacity="0.819607843137255" />
  </g>
</svg>