<?xml version="1.0" encoding="utf-8"?>
<svg version="1.1" xmlns:xlink="http://www.w3.org/1999/xlink" width="468px" height="40px" xmlns="http://www.w3.org/2000/svg">
  <g transform="matrix(1 0 0 1 -2231 -731 )">
    <path d="M 2232 735  A 3 3 0 0 1 2235 732 L 2695 732  A 3 3 0 0 1 2698 735 L 2698 767  A 3 3 0 0 1 2695 770 L 2235 770  A 3 3 0 0 1 2232 767 L 2232 735  Z " fill-rule="nonzero" fill="#ffffff" stroke="none" fill-opacity="0" />
    <path d="M 2231.5 735  A 3.5 3.5 0 0 1 2235 731.5 L 2695 731.5  A 3.5 3.5 0 0 1 2698.5 735 L 2698.5 767  A 3.5 3.5 0 0 1 2695 770.5 L 2235 770.5  A 3.5 3.5 0 0 1 2231.5 767 L 2231.5 735  Z " stroke-width="1" stroke="#797979" fill="none" stroke-opacity="0.819607843137255" />
  </g>
</svg>