<?xml version="1.0" encoding="utf-8"?>
<svg version="1.1" xmlns:xlink="http://www.w3.org/1999/xlink" width="168px" height="178px" xmlns="http://www.w3.org/2000/svg">
  <defs>
    <linearGradient gradientUnits="userSpaceOnUse" x1="0" y1="138.307833383004" x2="168" y2="138.851913833552" id="LinearGradient5014">
      <stop id="Stop5015" stop-color="#ffffff" stop-opacity="0.149019607843137" offset="0" />
      <stop id="Stop5016" stop-color="#ffffff" stop-opacity="0.447058823529412" offset="0.51" />
      <stop id="Stop5017" stop-color="#ffffff" stop-opacity="0.149019607843137" offset="1" />
    </linearGradient>
  </defs>
  <g transform="matrix(1 0 0 1 0 -48 )">
    <path d="M 0.5 68  A 19.5 19.5 0 0 1 20 48.5 L 148 48.5  A 19.5 19.5 0 0 1 167.5 68 L 167.5 206  A 19.5 19.5 0 0 1 148 225.5 L 20 225.5  A 19.5 19.5 0 0 1 0.5 206 L 0.5 68  Z " fill-rule="nonzero" fill="#2f3744" stroke="none" fill-opacity="0.549019607843137" />
    <path d="M 0.5 68  A 19.5 19.5 0 0 1 20 48.5 L 148 48.5  A 19.5 19.5 0 0 1 167.5 68 L 167.5 206  A 19.5 19.5 0 0 1 148 225.5 L 20 225.5  A 19.5 19.5 0 0 1 0.5 206 L 0.5 68  Z " stroke-width="1" stroke="url(#LinearGradient5014)" fill="none" />
  </g>
</svg>