<?xml version="1.0" encoding="utf-8"?>
<svg version="1.1" xmlns:xlink="http://www.w3.org/1999/xlink" width="260px" height="44px" xmlns="http://www.w3.org/2000/svg">
  <defs>
    <linearGradient gradientUnits="userSpaceOnUse" x1="610" y1="11.4312" x2="610" y2="54.12" id="LinearGradient5031">
      <stop id="Stop5032" stop-color="#010919" stop-opacity="0" offset="0" />
      <stop id="Stop5033" stop-color="#213072" offset="1" />
    </linearGradient>
    <linearGradient gradientUnits="userSpaceOnUse" x1="610" y1="11" x2="610" y2="54.12" id="LinearGradient5034">
      <stop id="Stop5035" stop-color="#010919" offset="0" />
      <stop id="Stop5036" stop-color="#027db4" offset="1" />
    </linearGradient>
  </defs>
  <g transform="matrix(1 0 0 1 -480 -11 )">
    <path d="M 480.5 11  L 739.5 11  L 739.5 12  A 42.5 42.5 0 0 1 697 54.5 L 523 54.5  A 42.5 42.5 0 0 1 480.5 12 L 480.5 11  Z " fill-rule="nonzero" fill="url(#LinearGradient5031)" stroke="none" />
    <path d="M 739.5 11  L 739.5 12  A 42.5 42.5 0 0 1 697 54.5 L 523 54.5  A 42.5 42.5 0 0 1 480.5 12 L 480.5 11  " stroke-width="1" stroke="url(#LinearGradient5034)" fill="none" />
  </g>
</svg>