<?xml version="1.0" encoding="utf-8"?>
<svg version="1.1" xmlns:xlink="http://www.w3.org/1999/xlink" width="120px" height="24px" xmlns="http://www.w3.org/2000/svg">
  <g transform="matrix(1 0 0 1 -1128 -193 )">
    <path d="M 1129 197  A 3 3 0 0 1 1132 194 L 1244 194  A 3 3 0 0 1 1247 197 L 1247 213  A 3 3 0 0 1 1244 216 L 1132 216  A 3 3 0 0 1 1129 213 L 1129 197  Z " fill-rule="nonzero" fill="#ffffff" stroke="none" fill-opacity="0" />
    <path d="M 1128.5 197  A 3.5 3.5 0 0 1 1132 193.5 L 1244 193.5  A 3.5 3.5 0 0 1 1247.5 197 L 1247.5 213  A 3.5 3.5 0 0 1 1244 216.5 L 1132 216.5  A 3.5 3.5 0 0 1 1128.5 213 L 1128.5 197  Z " stroke-width="1" stroke="#797979" fill="none" stroke-opacity="0.819607843137255" />
  </g>
</svg>