<?xml version="1.0" encoding="utf-8"?>
<svg version="1.1" xmlns:xlink="http://www.w3.org/1999/xlink" width="260px" height="52px" xmlns="http://www.w3.org/2000/svg">
  <defs>
    <linearGradient gradientUnits="userSpaceOnUse" x1="258" y1="132.5096" x2="258" y2="182.96" id="LinearGradient2738">
      <stop id="Stop2739" stop-color="#010919" stop-opacity="0" offset="0" />
      <stop id="Stop2740" stop-color="#213072" offset="1" />
    </linearGradient>
    <linearGradient gradientUnits="userSpaceOnUse" x1="258" y1="132" x2="258" y2="182.96" id="LinearGradient2741">
      <stop id="Stop2742" stop-color="#010919" offset="0" />
      <stop id="Stop2743" stop-color="#027db4" offset="1" />
    </linearGradient>
  </defs>
  <g transform="matrix(1 0 0 1 -128 -132 )">
    <path d="M 128.5 132  L 387.5 132  L 387.5 141  A 42.5 42.5 0 0 1 345 183.5 L 171 183.5  A 42.5 42.5 0 0 1 128.5 141 L 128.5 132  Z " fill-rule="nonzero" fill="url(#LinearGradient2738)" stroke="none" />
    <path d="M 387.5 132  L 387.5 141  A 42.5 42.5 0 0 1 345 183.5 L 171 183.5  A 42.5 42.5 0 0 1 128.5 141 L 128.5 132  " stroke-width="1" stroke="url(#LinearGradient2741)" fill="none" />
  </g>
</svg>