<?xml version="1.0" encoding="utf-8"?>
<svg version="1.1" xmlns:xlink="http://www.w3.org/1999/xlink" width="1368px" height="836px" xmlns="http://www.w3.org/2000/svg">
  <defs>
    <linearGradient gradientUnits="userSpaceOnUse" x1="1845.00591866189" y1="540.46829810901" x2="542.371933285543" y2="540.46829810901" id="LinearGradient2752">
      <stop id="Stop2753" stop-color="#ffffff" stop-opacity="0.0470588235294118" offset="0" />
      <stop id="Stop2754" stop-color="#ffffff" stop-opacity="0.0392156862745098" offset="1" />
    </linearGradient>
    <radialGradient cx="516.260869565213" cy="154.616425120776" r="1395.10969374723" gradientTransform="matrix(0.96875134000564 0.248033951783375 -0.171506955541555 0.669858266606488 42.6502527306192 -77.0048890288999 )" gradientUnits="userSpaceOnUse" id="RadialGradient2755">
      <stop id="Stop2756" stop-color="#ffffff" stop-opacity="0.403921568627451" offset="0" />
      <stop id="Stop2757" stop-color="#ffffff" stop-opacity="0" offset="1" />
    </radialGradient>
  </defs>
  <g transform="matrix(1 0 0 1 -504 -132 )">
    <path d="M 504.5 156  A 23.5 23.5 0 0 1 528 132.5 L 1848 132.5  A 23.5 23.5 0 0 1 1871.5 156 L 1871.5 944  A 23.5 23.5 0 0 1 1848 967.5 L 528 967.5  A 23.5 23.5 0 0 1 504.5 944 L 504.5 156  Z " fill-rule="nonzero" fill="url(#LinearGradient2752)" stroke="none" />
    <path d="M 504.5 156  A 23.5 23.5 0 0 1 528 132.5 L 1848 132.5  A 23.5 23.5 0 0 1 1871.5 156 L 1871.5 944  A 23.5 23.5 0 0 1 1848 967.5 L 528 967.5  A 23.5 23.5 0 0 1 504.5 944 L 504.5 156  Z " stroke-width="1" stroke="url(#RadialGradient2755)" fill="none" />
  </g>
</svg>