<?xml version="1.0" encoding="utf-8"?>
<svg version="1.1" xmlns:xlink="http://www.w3.org/1999/xlink" width="18px" height="10px" xmlns="http://www.w3.org/2000/svg">
  <g transform="matrix(1 0 0 1 -146 -23 )">
    <path d="M 9.67383675 9.59263476190476  C 9.50221170608108 9.76406901785714  9.26730072972973 9.86067398809524  9.02209095608108 9.86067398809524  C 8.77691231756757 9.86067398809524  8.54197020608108 9.76406901785714  8.37034516216216 9.59263476190476  L 0.461405158783784 1.69365502976191  C 0.108603060810811 1.34134532738095  0.114452513513514 0.775785922619048  0.474410827702703 0.430480982142857  C 0.834338037162162 0.0852065178571424  1.41215688851351 0.0908712499999996  1.76489674662162 0.443211398809524  L 9.02209095608108 7.69126485119048  L 16.2792851959459 0.443211398809524  C 16.6320250540541 0.0908407738095243  17.2097816655405 0.0850846726190485  17.5697711148649 0.430480982142857  C 17.9297605641892 0.775816369047619  17.9355788817568 1.34134532738095  17.5827767837838 1.69365502976191  L 9.67383675 9.59263476190476  Z " fill-rule="nonzero" fill="#ffffff" stroke="none" fill-opacity="0.996078431372549" transform="matrix(1 0 0 1 146 23 )" />
  </g>
</svg>