<?xml version="1.0" encoding="utf-8"?>
<svg version="1.1" xmlns:xlink="http://www.w3.org/1999/xlink" width="420px" height="836px" xmlns="http://www.w3.org/2000/svg">
  <defs>
    <linearGradient gradientUnits="userSpaceOnUse" x1="459.712343448825" y1="540.46829810901" x2="59.7808567104739" y2="540.46829810901" id="LinearGradient2726">
      <stop id="Stop2727" stop-color="#ffffff" stop-opacity="0.0470588235294118" offset="0" />
      <stop id="Stop2728" stop-color="#ffffff" stop-opacity="0.0392156862745098" offset="1" />
    </linearGradient>
    <radialGradient cx="51.7643020594951" cy="154.616425120776" r="999.953139894123" gradientTransform="matrix(0.0907455466998031 0.995874111398702 -0.411524462722639 0.0374987279242144 110.695363445495 97.2677775468841 )" gradientUnits="userSpaceOnUse" id="RadialGradient2729">
      <stop id="Stop2730" stop-color="#ffffff" stop-opacity="0.403921568627451" offset="0" />
      <stop id="Stop2731" stop-color="#ffffff" stop-opacity="0" offset="1" />
    </radialGradient>
  </defs>
  <g transform="matrix(1 0 0 1 -48 -132 )">
    <path d="M 48.5 156  A 23.5 23.5 0 0 1 72 132.5 L 444 132.5  A 23.5 23.5 0 0 1 467.5 156 L 467.5 944  A 23.5 23.5 0 0 1 444 967.5 L 72 967.5  A 23.5 23.5 0 0 1 48.5 944 L 48.5 156  Z " fill-rule="nonzero" fill="url(#LinearGradient2726)" stroke="none" />
    <path d="M 48.5 156  A 23.5 23.5 0 0 1 72 132.5 L 444 132.5  A 23.5 23.5 0 0 1 467.5 156 L 467.5 944  A 23.5 23.5 0 0 1 444 967.5 L 72 967.5  A 23.5 23.5 0 0 1 48.5 944 L 48.5 156  Z " stroke-width="1" stroke="url(#RadialGradient2729)" fill="none" />
  </g>
</svg>