<?xml version="1.0" encoding="utf-8"?>
<svg version="1.1" xmlns:xlink="http://www.w3.org/1999/xlink" width="14px" height="12px" xmlns="http://www.w3.org/2000/svg">
  <g transform="matrix(1 0 0 1 -950 -791 )">
    <path d="M 1.08994712499999 11.520282125  C 0.807760125000001 9.601410875  0.807760125000001 7.85185174999999  0.807760125000001 6.045855375  L 0.807760125000001 0.684303374999999  L 0.807760125000001 0.458553749999993  L 4.024691375 0.458553749999993  C 4.024691375 0.458553749999993  4.08112875 0.458553749999993  4.08112875 0.514991124999995  L 4.08112875 2.1516755  C 4.08112875 2.1516755  4.08112875 2.208112875  4.13756612500001 2.208112875  L 4.19400350000001 2.208112875  C 4.25044087500001 2.1516755  4.36331562500001 2.03880074999999  4.41975312500001 1.925925875  C 4.58906525000002 1.700176375  4.81481487500001 1.53086412500001  5.04056437500002 1.361552  C 5.66137562500002 0.853615500000004  6.33862437500002 0.571428499999996  7.07231037500002 0.345679000000004  C 7.69312162500002 0.176366874999999  8.31393300000002 0.119929499999998  8.93474425000001 0.176366874999999  C 9.55555550000001 0.176366874999999  10.119929375 0.289241625000003  10.74074075 0.514991124999995  C 11.1358025 0.684303249999999  11.53086425 0.910052874999991  11.8694885 1.192239875  C 12.26455025 1.58730162499999  12.603174625 2.03880074999999  12.77248675 2.54673724999999  C 12.8853615 2.82892424999999  12.941798875 3.1675485  12.998236375 3.44973549999999  C 13.05467375 3.90123462499999  13.111111125 4.35273374999998  13.111111125 4.80423274999998  L 13.111111125 11.689594375  C 13.111111125 11.689594375  13.111111125 11.74603175  13.05467375 11.74603175  L 10.063492125 11.74603175  L 9.95061725000002 11.74603175  L 9.89417987500002 11.689594375  L 9.89417987500002 11.407407375  L 9.89417987500002 5.31216925000001  L 9.89417987500002 4.69135800000001  C 9.89417987500002 4.35273362500001  9.78130512500002 4.07054675000001  9.66843037500001 3.73192237500001  C 9.44268087500001 3.22398587500001  9.10405650000001 2.88536150000002  8.65255737500001 2.71604937500001  C 8.53968262500001 2.65961200000001  8.42680787500001 2.60317462500001  8.25749562500002 2.60317462500001  C 8.08818350000001 2.54673725000001  7.91887125000002 2.54673725000001  7.74955912500002 2.54673725000001  C 7.35449737500002 2.54673725000001  7.01587300000001 2.54673725000001  6.62081125000002 2.60317462500001  C 6.28218687500002 2.65961200000001  6.00000000000001 2.77248675000001  5.71781300000002 2.941799  C 5.09700175000002 3.280423375  4.70194000000002 3.7319225  4.47619050000002 4.352733625  C 4.36331575000001 4.747795375  4.25044100000001 5.08641975  4.25044087500001 5.4814815  L 4.25044087500001 11.802469125  L 1.1463845 11.802469125  C 1.1463845 11.802469125  1.08994712499999 11.802469125  1.08994712499999 11.74603175  L 1.08994712499999 11.520282125  Z " fill-rule="nonzero" fill="#ffffff" stroke="none" transform="matrix(1 0 0 1 950 791 )" />
  </g>
</svg>