<?xml version="1.0" encoding="utf-8"?>
<svg version="1.1" xmlns:xlink="http://www.w3.org/1999/xlink" width="234px" height="234px" xmlns="http://www.w3.org/2000/svg">
  <defs>
    <linearGradient gradientUnits="userSpaceOnUse" x1="927" y1="346" x2="927" y2="580" id="LinearGradient2827">
      <stop id="Stop2828" stop-color="#325bee" stop-opacity="0.447058823529412" offset="0" />
      <stop id="Stop2829" stop-color="#000000" offset="1" />
    </linearGradient>
  </defs>
  <g transform="matrix(1 0 0 1 -810 -346 )">
    <path d="M 810.5 362  A 15.5 15.5 0 0 1 826 346.5 L 1028 346.5  A 15.5 15.5 0 0 1 1043.5 362 L 1043.5 564  A 15.5 15.5 0 0 1 1028 579.5 L 826 579.5  A 15.5 15.5 0 0 1 810.5 564 L 810.5 362  Z " fill-rule="nonzero" fill="url(#LinearGradient2827)" stroke="none" />
    <path d="M 810.5 362  A 15.5 15.5 0 0 1 826 346.5 L 1028 346.5  A 15.5 15.5 0 0 1 1043.5 362 L 1043.5 564  A 15.5 15.5 0 0 1 1028 579.5 L 826 579.5  A 15.5 15.5 0 0 1 810.5 564 L 810.5 362  Z " stroke-width="1" stroke="#ffffff" fill="none" />
  </g>
</svg>