<?xml version="1.0" encoding="utf-8"?>
<svg version="1.1" xmlns:xlink="http://www.w3.org/1999/xlink" width="54px" height="60px" xmlns="http://www.w3.org/2000/svg">
  <defs>
    <linearGradient gradientUnits="userSpaceOnUse" x1="25.9203193186044" y1="2.18181836270022" x2="25.9203193186044" y2="59.4547065587061" id="LinearGradient2784">
      <stop id="Stop2785" stop-color="#0095f7" offset="0" />
      <stop id="Stop2786" stop-color="#0095f7" stop-opacity="0.650980392156863" offset="1" />
    </linearGradient>
  </defs>
  <g transform="matrix(1 0 0 1 -1646 -280 )">
    <path d="M 49.2368134736842 53.7249  C 48.5840586315789 53.7249  47.3152234736842 52.8535028571429  47 51.7888371428571  L 47 1.93606257142857  C 47.3152234736842 0.871395714285714  48.615270631579 0  49.2368134736842 0  C 49.8588934736842 0  51.1589292631579 0.870837142857143  51 1.93606257142857  L 51 51.7888371428571  C 51.1583921052632 52.8535028571429  49.8895654736842 53.7249  49.2368134736842 53.7249  Z M 14.6632734 16.8757234285714  C 14.6073080842105 17.5197682857143  14.6073080842105 18.1677382857143  15 18.8117845714286  L 15 34.9454542857143  C 14.6073080842105 35.5895  14.6073080842105 36.2374685714286  14.6632734 36.8815142857143  C 30.8276763157895 36.8815142857143  43.9571851578947 52.3700171428571  43.9571851578947 52.3700171428571  C 44.6723611578947 53.14422  45.2626948421053 52.8861514285714  45 51.8214857142857  L 45 1.93631222857143  C 45.2626948421053 0.871645285714286  44.6718268421053 0.613578057142858  43.9571851578947 1.38777971428571  C 43.956648 1.38777971428571  30.8588911578947 16.8757234285714  14.6632734 16.8757234285714  Z M 3.28621774736842 36.8491028571429  C 2.79167460631579 36.8491028571429  2.31704217473684 36.6452257142857  1.96725649263158 36.2821428571429  C 1.61747075652632 35.91906  1.42105263157895 35.4263857142857  2 34.91304  L 2 18.9408057142857  C 1.42105263157895 17.87167  2.25623331473684 17.0047434285714  3.28621774736842 17.0047434285714  L 10.5601459263158 17.0047434285714  C 11.5901305578947 17.0047434285714  12.4253113263158 17.87167  13 18.9408057142857  L 13 34.4293085714286  C 12.4253113263158 35.7654457142857  11.3818735894737 36.8491028571429  10.0941239368421 36.8491028571429  L 3.28621774736842 36.8491028571429  Z M 18.4323486315789 56.5621828571429  C 17.3462591368421 56.2704028571429  16.3979918526316 55.5818  15.7616001473684 54.6227714285714  L 7.88980755789474 42.7628542857143  C 7.69877090526316 42.4746228571429  7.5965256 42.1327685714286  7.5965256 41.7830942857143  C 7.5965256 40.8295857142857  8.34129956842105 40.0565  9.25989101052632 40.0565  L 14.0245682210526 40.0565  C 14.8014733263158 40.0564714285714  15.5275766526316 40.4581971428571  15.9604750421053 41.1278428571429  L 24.8132580631579 54.8160228571428  C 25.0425019894737 55.1701628571429  25.1150279684211 55.6097685714286  25.0117057894737 56.0231228571429  C 24.8120601157895 56.8219  21.1848926210526 57.3017542857143  20.4153642 57.0950742857143  L 18.4323486315789 56.5621828571429  Z " fill-rule="nonzero" fill="url(#LinearGradient2784)" stroke="none" transform="matrix(1 0 0 1 1646 280 )" />
  </g>
</svg>