<?xml version="1.0" encoding="utf-8"?>
<svg version="1.1" xmlns:xlink="http://www.w3.org/1999/xlink" width="380px" height="48px" xmlns="http://www.w3.org/2000/svg">
  <g transform="matrix(1 0 0 1 -1252 -444 )">
    <path d="M 1253 448  A 3 3 0 0 1 1256 445 L 1628 445  A 3 3 0 0 1 1631 448 L 1631 488  A 3 3 0 0 1 1628 491 L 1256 491  A 3 3 0 0 1 1253 488 L 1253 448  Z " fill-rule="nonzero" fill="#1f2128" stroke="none" fill-opacity="0" />
    <path d="M 1252.5 448  A 3.5 3.5 0 0 1 1256 444.5 L 1628 444.5  A 3.5 3.5 0 0 1 1631.5 448 L 1631.5 488  A 3.5 3.5 0 0 1 1628 491.5 L 1256 491.5  A 3.5 3.5 0 0 1 1252.5 488 L 1252.5 448  Z " stroke-width="1" stroke="#ffffff" fill="none" stroke-opacity="0.247058823529412" />
  </g>
</svg>