<?xml version="1.0" encoding="utf-8"?>
<svg version="1.1" xmlns:xlink="http://www.w3.org/1999/xlink" width="20px" height="20px" xmlns="http://www.w3.org/2000/svg">
  <g transform="matrix(1 0 0 1 -1592 -458 )">
    <path d="M 0.00187766209178412 9.16666654658058  C 0.00187766209178412 4.10478963065407  4.1047898231877 0.00103698726393295  9.16666666666667 0  C 9.16718781662935 0  9.16770896657404 0  9.1682301165443 0  C 14.2308403233266 0  18.334896783211 4.10405643252479  18.334896783211 9.16666660555728  C 18.334896783211 11.3103286802977  17.5836104348262 13.3861972418976  16.2116666666667 15.0333333664435  L 19.8116666666667 18.6333333424442  C 20.0916666666667 18.9066666739554  20.0533333333333 19.3966666706888  19.7283333333333 19.7300000017999  C 19.395 20.0549999996333  18.905 20.0916666660556  18.6333333333333 19.8116666679222  L 15.0333333333333 16.2116666919215  C 13.3864767844393 17.5826341655954  11.3113668439395 18.3333331521379  9.16854432875845 18.3333331521379  C 4.10593412197618 18.3333331521379  0.00187766209178412 14.2292767196131  0.00187766209178412 9.16666654658058  Z M 16.6633333333333 9.16666673888685  C 16.6633333333333 5.48333343010838  13.925 1.65000012232988  9.16666666666667 1.65000012232988  C 4.40833333333333 1.65000012232988  1.66333333333333 5.48333343010838  1.66333333333333 9.16666673888685  C 1.66333333333333 12.8500000476653  4.4 16.7000000219994  9.16333333333333 16.7000000219994  C 13.925 16.7000000219994  16.6633333333333 12.8500000476653  16.6633333333333 9.16666673888685  Z " fill-rule="nonzero" fill="#ffffff" stroke="none" fill-opacity="0.447058823529412" transform="matrix(1 0 0 1 1592 458 )" />
  </g>
</svg>