<?xml version="1.0" encoding="utf-8"?>
<svg version="1.1" xmlns:xlink="http://www.w3.org/1999/xlink" width="18px" height="17px" xmlns="http://www.w3.org/2000/svg">
  <defs>
    <linearGradient gradientUnits="userSpaceOnUse" x1="2.76413578647316" y1="2.07254038179138" x2="15.4202643171807" y2="15.1121879588839" id="LinearGradient5247">
      <stop id="Stop5248" stop-color="#81a1ea" offset="0" />
      <stop id="Stop5249" stop-color="#4763a2" offset="1" />
    </linearGradient>
  </defs>
  <g transform="matrix(1 0 0 1 -1706 -26 )">
    <path d="M 11.9177955642857 16.9595192257463  C 11.9177955642857 15.8252282257463  11.9214136928571 14.3036119850746  11.9167759285714 13.2362444347015  C 11.9126644392857 12.3694525261194  11.7281732785714 12.1824757742537  10.8650218178571 12.1787758320896  C 9.581445 12.1735829347015  8.29790106428572 12.1741022276119  7.01432424642857 12.1785486473881  C 6.13459520357143 12.1815670037313  5.96730657857143 12.3355039701493  5.95332748928572 13.2257287929104  C 5.936355225 14.2915709421642  5.949216 15.8124082276119  5.949216 16.9269337779851  C 5.70637446428572 16.9545859589552  5.53652026071429 16.9899625783582  5.36640290357143 16.9907090559702  C 4.20311208214286 16.9955449533582  3.03965678571429 17.0050544235075  1.876497525 16.9899625783582  C 0.496053803571431 16.9720795298507  0.170094246428574 16.6314254738806  0.179863167857146 15.2968184626866  C 0.188480860714288 14.0903786380597  0.16933773214286 8.95642088432836  0.202854664285717 7.75063016791045  C 0.209663292857146 7.51039377985075  0.337382871428575 7.20940047014926  0.514045735714289 7.04725225  C 2.83372007142857 4.91874863246269  5.16852475714286 2.806343  7.50770402142857 0.698643417910449  C 8.44088252142857 -0.142054156716418  9.542139075 -0.152050505597015  10.476731925 0.69737764738806  C 12.8217002142857 2.82828299067164  15.1533143357143 4.97350125559702  17.4746332928571 7.12926757649254  C 17.6379419892857 7.28090018656716  17.7516495964286 7.56439989365672  17.7563860392857 7.78915499067164  C 17.7624381535714 8.08063879850746  17.7881267892857 13.2757429197761  17.7656615678571 15.5156341847015  C 17.7571754357143 16.3533783264925  17.3385591428571 16.9141462891791  16.5535261392857 16.9431616100746  C 15.0356268321429 16.9992124496269  13.5142409571429 16.9595192257463  11.9177955642857 16.9595192257463  Z " fill-rule="nonzero" fill="url(#LinearGradient5247)" stroke="none" transform="matrix(1 0 0 1 1706 26 )" />
  </g>
</svg>