<?xml version="1.0" encoding="utf-8"?>
<svg version="1.1" xmlns:xlink="http://www.w3.org/1999/xlink" width="24px" height="13px" xmlns="http://www.w3.org/2000/svg">
  <defs>
    <linearGradient gradientUnits="userSpaceOnUse" x1="3.68551438196422" y1="1.58488382136988" x2="20.5603524229076" y2="11.5563790273818" id="LinearGradient5250">
      <stop id="Stop5251" stop-color="#81a1ea" offset="0" />
      <stop id="Stop5252" stop-color="#4763a2" offset="1" />
    </linearGradient>
  </defs>
  <g transform="matrix(1 0 0 1 -1703 -20 )">
    <path d="M 11.7078374021739 0.229213413265306  C 12.8676326413043 0.226837895408163  13.4716724673913 0.618155903061225  14.0141805 1.15251493367347  C 16.1043946304348 3.21071002040816  18.1984127934783 5.26544359183673  20.2898282282609 7.32241697704082  C 21.2551841413043 8.2719511377551  22.2181709021739 9.22416628316326  23.1815580652174 10.1758384464286  C 23.2836328695652 10.276832494898  23.3850402717391 10.379319752551  23.4792734347826 10.4878815586735  C 24.0154080326087 11.1054860229592  24.0874843695652 11.768327369898  23.6777837282609 12.2873133035714  C 23.2458261521739 12.8342626352041  22.3802092173913 12.9623038137755  21.7357599130435 12.5603637780612  C 21.5644784673913 12.4533969591837  21.40991475 12.3136817142857  21.2628589891304 12.1725072193878  C 18.8821037608696 9.88364795918367  16.501582076087 7.5946868877551  14.1256319347826 5.30056753571429  C 12.366735423913 3.60229953571428  11.6932219891304 3.5884875  9.91647322826087 5.26727616071429  C 7.54639597826087 7.50679222959184  5.19520539130435 9.76714507653061  2.80647502173914 11.9858582602041  C 2.46951808695653 12.2989534107143  1.98697359782609 12.51410875  1.53662990217392 12.6204308086735  C 0.94550373913044 12.7598745459184  0.457353293478266 12.4544489642857  0.181928217391309 11.900339119898  C -0.0946647717391249 11.3439894617347  0.0153517500000047 10.8064404566327  0.405364891304353 10.3435170892857  C 0.629168641304353 10.0777289719388  0.893114902173918 9.84601276020408  1.14544884782609 9.60608399744898  C 4.07381748913044 6.82172264030612  7.00635723913044 4.04251959693877  9.92975396739131 1.25272848469388  C 10.5429033913043 0.667736676020408  11.2109443695652 0.237052678571429  11.7078374021739 0.229213413265306  Z " fill-rule="nonzero" fill="url(#LinearGradient5250)" stroke="none" transform="matrix(1 0 0 1 1703 20 )" />
  </g>
</svg>