<?xml version="1.0" encoding="utf-8"?>
<svg version="1.1" xmlns:xlink="http://www.w3.org/1999/xlink" width="60px" height="60px" xmlns="http://www.w3.org/2000/svg">
  <defs>
    <linearGradient gradientUnits="userSpaceOnUse" x1="29.9994690340909" y1="2.18195134943182" x2="29.9994690340909" y2="57.8183183948864" id="LinearGradient5296">
      <stop id="Stop5297" stop-color="#1cd34b" offset="0" />
      <stop id="Stop5298" stop-color="#1cd34b" stop-opacity="0.650980392156863" offset="1" />
    </linearGradient>
  </defs>
  <g transform="matrix(1 0 0 1 -674 -280 )">
    <path d="M 48.1891082386364 17.9918158039773  C 49.8280546022727 17.9918158039773  51.399421875 17.33861953125  52.5554091477273 16.1768010767045  L 56.9205509659091 20.54426053125  C 58.1166864204545 21.7543849857955  58.1166864204545 23.7015944403409  56.9205509659091 24.9117199857955  L 24.9110541477273 56.9212168039773  C 23.7009286022727 58.1173522585227  21.7537191477273 58.1173522585227  20.5435946931818 56.9212168039773  L 16.1761352386364 52.5560749857955  C 17.3379536931818 51.4000877130682  17.9911499659091 49.8287204403409  17.9911499659091 48.1897740767045  C 17.9911499659091 46.5508304403409  17.3379536931818 44.9794658948864  16.1761352386364 43.8234758948864  C 15.0201427840909 42.6616549857955  13.4487793295455 42.00845953125  11.8098332386364 42.00845953125  C 10.1708871477273 42.00845953125  8.59952423863636 42.6616549857955  7.44353205681818 43.8234758948864  L 3.07839021136364 39.4560131676136  C 1.88225061136364 38.2458868039773  1.88225061136364 36.2986768039773  3.07839021136364 35.0885558948864  L 35.0878900568182 3.07905604943182  C 36.2980109659091 1.88291644943182  38.2452209659091 1.88291644943182  39.4553473295455 3.07905604943182  L 43.8228100568182 7.44419789488636  C 42.6609891477273 8.60019007670455  42.0077936931818 10.1715529857955  42.0077936931818 11.8104990767045  C 42.0077936931818 13.4494451676136  42.6609891477273 15.0208086221591  43.8228100568182 16.1768010767045  C 44.9788000568182 17.33861953125  46.5501646022727 17.9918158039773  48.1891082386364 17.9918158039773  Z M 25.3631036931818 15.2296672585227  C 25.3631036931818 15.61537753125  25.5193856931818 15.9846289857955  25.7962835113636 16.2531450767045  L 29.8368809659091 20.2937417130682  C 30.1053946022727 20.5706378948864  30.4746455113636 20.7269201676136  30.8603555113636 20.7269201676136  C 31.2460682386364 20.7269201676136  31.6153191477273 20.5706378948864  31.8838355113636 20.2937417130682  C 32.1607300568182 20.0252256221591  32.3170136931818 19.6559728039773  32.3170136931818 19.2702628039773  C 32.3170136931818 18.8845514403409  32.1607300568182 18.5152999857955  31.8838355113636 18.2467849857955  L 27.8432386022727 14.2061883494318  C 27.2660116022727 13.6266426221591  26.3735102386364 13.6266426221591  25.7962835113636 14.2061883494318  C 25.5193856931818 14.4747044403409  25.3631036931818 14.8439572585227  25.3631036931818 15.2296672585227  Z M 32.3171173295455 22.1843458039773  C 32.3171173295455 22.5700560767045  32.4733982386364 22.93930753125  32.7502955113636 23.2078236221591  L 36.790891875 27.2484188948864  C 37.3681164204545 27.8279659857955  38.3139373295455 27.8279659857955  38.8378491477273 27.2484188948864  C 39.1147436931818 26.9799041676136  39.2710273295455 26.6106502585227  39.2710273295455 26.2249427130682  C 39.2710273295455 25.8392299857955  39.1147436931818 25.46997853125  38.8378491477273 25.2014638039773  L 34.7972527840909 21.1608668948864  C 34.2200255113636 20.5813200767045  33.3275227840909 20.5813200767045  32.7502955113636 21.1608668948864  C 32.4733982386364 21.4293829857955  32.3171173295455 21.7986358039773  32.3171173295455 22.1843458039773  Z M 39.272461875 29.1390246221591  C 39.272461875 29.5247340767045  39.4287455113636 29.8939849857955  39.7056400568182 30.1625013494318  L 43.7462364204545 34.2030977130682  C 44.0147527840909 34.4799949857955  44.3840036931818 34.6362786221591  44.7697136931818 34.6362786221591  C 45.1554264204545 34.6362786221591  45.5246746022727 34.4799949857955  45.7931936931818 34.2030977130682  C 46.0700855113636 33.9345840767045  46.2263691477273 33.5653277130682  46.2263691477273 33.1796204403409  C 46.2263691477273 32.7939077130682  46.0700855113636 32.4246568039773  45.7931936931818 32.1561431676136  L 41.7525973295455 28.1155457130682  C 41.1753700568182 27.5359986221591  40.2828673295455 27.5359986221591  39.7056400568182 28.1155457130682  C 39.4287455113636 28.3840628948864  39.272461875 28.7533143494318  39.272461875 29.1390246221591  Z " fill-rule="nonzero" fill="url(#LinearGradient5296)" stroke="none" transform="matrix(1 0 0 1 674 280 )" />
  </g>
</svg>