<?xml version="1.0" encoding="utf-8"?>
<svg version="1.1" xmlns:xlink="http://www.w3.org/1999/xlink" width="60px" height="49px" xmlns="http://www.w3.org/2000/svg">
  <defs>
    <linearGradient gradientUnits="userSpaceOnUse" x1="29.1155594117647" y1="-7.33392513385667E-12" x2="29.1155594117647" y2="48.9999977349216" id="LinearGradient5312">
      <stop id="Stop5313" stop-color="#fba113" offset="0" />
      <stop id="Stop5314" stop-color="#fba113" stop-opacity="0.650980392156863" offset="1" />
    </linearGradient>
  </defs>
  <g transform="matrix(1 0 0 1 -1320 -286 )">
    <path d="M 53 46.2756898333333  L 53 16.6078256166667  C 53.6486865587061 15.9928426777778  53.4044647405243 15.4023502111111  52.9678420132516 14.9674221277778  C 52.5312956496152 14.5323173722222  51.9381956496152 14.2890601388889  51.3205638314334 15  L 8.68116128597884 15  C 8.06377792234247 14.2895871611111  7.47082410416066 14.5323029444444  7.03388119506975 14.9674221277778  C 6.59693828597884 15.4025410388889  6.35265019506975 15.9930190777778  7 16.6083785  L 7 46.2762397222222  C 6.35265019506975 46.8910481666667  6.59749355870611 47.4809727777778  7.03388119506975 47.9160927777778  C 7.47026883143338 48.3512100555556  8.06377792234247 48.5939261111111  8.68116128597884 48  L 51.3205638314334 48  C 51.9381601950697 48.5942282777778  52.5311811041607 48.3510222222222  52.9678883768879 47.9161390555556  C 53.4045956496152 47.4812531666667  53.6488229223425 46.8907051666667  53 46.2756898333333  Z M 55.6704629223425 0  C 56.8566165587061 0  57.818187467797 0.95978848  57.818187467797 2.143747795  C 57.818187467797 3.32770732777778  56.8566165587061 4.28749564444445  55.6704629223425 5  L 43.9091456496152 5  L 43.9091456496152 14.2916497888889  L 39 14.2916497888889  L 39 5  L 20.2639035587061 5  L 20.2639035587061 14.2916497888889  L 16 14.2916497888889  L 16 5  L 4.3295429496152 5  C 3.14338754052429 4.28749564444445  2.18181837688793 3.32770732777778  2.18181837688793 2.143747795  C 2.18181837688793 0.95978848  3.14338754052429 0  4.32954344052429 0  L 55.6704629223425 0  Z M 44.9731583768879 25  C 45.9220829223425 25.0104166666667  46.6913347405243 25.7782483  46.6913347405243 26.7254144888889  C 46.6913347405243 27.6725812222222  45.9220829223425 28.4404112222222  44.9731583768879 28  L 26.154969467797 28  C 25.2060462859788 28.4404112222222  24.4367898314334 27.6725812222222  24.4367898314334 26.7254144888889  C 24.4367898314334 25.7782483  25.2060462859788 25.0104166666667  26.154969467797 25  L 44.9731583768879 25  Z M 46.6911001950698 34.9432556666667  C 46.6911001950698 35.8904229444444  45.9218456496152 36.6582529444444  44.9729211041607 36  L 15.0274837405243 36  C 14.0785591950697 36.6582529444444  13.3093041041607 35.8904229444444  13.3093041041607 34.9432556666667  C 13.3093041041607 33.9960883888889  14.0785591950697 33.2282583888889  15.0274837405243 33  L 44.9729211041607 33  C 45.9218456496152 33.2282583888889  46.6911001950698 33.9960883888889  46.6911001950698 34.9432556666667  Z " fill-rule="nonzero" fill="url(#LinearGradient5312)" stroke="none" transform="matrix(1 0 0 1 1320 286 )" />
  </g>
</svg>