<?xml version="1.0" encoding="utf-8"?>
<svg version="1.1" xmlns:xlink="http://www.w3.org/1999/xlink" width="13px" height="20px" xmlns="http://www.w3.org/2000/svg">
  <g>
    <path d="M 0.237428966666676 11.2795290140845  C 0.22112483611112 10.7072061971831  0.22112483611112 10.6118190492958  0.204820705555556 9.94410908450704  C 0.221124836111112 9.68974338028169  0.221124836111112 9.41947982394366  0.237428966666668 9.16511415492958  C 0.253733097222224 8.89485059859155  0.286341358333334 8.60868919014085  0.318949619444446 8.33842559859155  C 0.351557880555558 8.11585559859155  0.384166141666668 7.90918348591549  0.433078569444447 7.67071566901408  C 0.514599258333336 7.27326926056338  0.596119911111114 6.859925  0.726552991666669 6.46247859154929  C 1.21567705277778 4.84089725352113  1.9982755 3.36239661971831  3.07434840555556 2.04287454225352  C 3.64499311944445 1.35926672535211  4.28085439166667 0.707454612676055  4.96562805555556 0.135131795774648  C 4.98193218611111 0.119233943661971  5.01454044722222 0.103336091549296  5.03084461388889 0.071540352112676  C 5.04714874444445 0.0556424999999995  5.07975700555556 0.0556424999999995  5.09606113611111 0.071540352112676  C 5.12866939722223 0.103336056338028  5.16127765833333 0.13513176056338  5.19388595555556 0.151029647887324  C 6.09061335277778 1.00951387323944  6.97103665555556 1.86799813380282  7.86776405277778 2.71058450704225  L 7.96558887222223 2.80597161971831  L 7.96558887222223 2.83776735915493  C 7.93298061111111 2.86956306338028  7.91667648055556 2.90135876760563  7.88406818333334 2.93315447183098  C 7.54168136944445 3.28290732394366  7.21559865 3.61676228873239  6.88951596666667 3.95061728873239  C 6.69386636388889 4.15728943661972  6.48191259444445 4.3480636971831  6.28626299166667 4.57063366197183  C 6.25365473055556 4.60242936619718  6.2373506 4.61832721830986  6.20474230277778 4.6342251056338  L 6.17213404166667 4.6342251056338  C 6.15582991111111 4.61832725352113  6.12322165 4.60242940140845  6.10691748333334 4.57063366197183  C 5.86235545277778 4.31626795774648  5.63409758888889 4.06190225352113  5.38953555833333 3.82343443661972  C 5.32431903611111 3.75984302816901  5.27540660833334 3.69625158450704  5.22649421666667 3.64855802816901  C 5.177581825 3.58496661971831  5.16127769444445 3.60086447183099  5.09606113611111 3.66445588028169  L 5.04714874444445 3.71214943661972  C 4.90041153333334 3.88702584507042  4.75367432222223 4.07780014084507  4.62324124166667 4.25267654929577  C 4.06890065833334 4.99987580985915  3.66129728611112 5.81066647887324  3.36782286388889 6.7009464084507  C 3.22108565277778 7.14608637323944  3.09065257222223 7.60712422535211  2.99282775277778 8.06816204225352  C 2.94391536111112 8.32252774647887  2.89500293333334 8.5927913028169  2.86239467222223 8.86305485915493  C 2.79717815000001 9.33999056338028  2.78087398333334 9.80102838028169  2.79717811388889 10.2938619366197  C 2.79717811388889 10.5641254929577  2.82978637500001 10.8184911971831  2.86239467222223 11.0887547535211  C 2.87869880277778 11.2954269014084  2.91130706388889 11.5179968661972  2.96021949166667 11.7405668661972  C 3.02543601388889 12.1221154225352  3.10695670277778 12.5036639788732  3.22108565277778 12.8852125  C 3.46564768333334 13.7119010211268  3.84064275833334 14.5226916901408  4.32976681944445 15.2857888028169  C 4.54172058888889 15.6196437676056  4.75367432222223 15.9217030633803  5.01454048333334 16.207864471831  C 5.0308446138889 16.2396601760563  5.063452875 16.255558028169  5.09606113611112 16.2873537676056  L 5.12866939722223 16.2873537676056  C 5.14497352777779 16.271455915493  5.16127765833334 16.2555580633803  5.19388595555556 16.2396601760563  C 5.25910247777778 16.1760687676056  5.32431903611112 16.1283751760563  5.35692729722223 16.0806816197183  C 6.13952578055556 15.3175845070423  6.93842835833334 14.5703852816901  7.72102684166667 13.8072881690141  C 8.11232608333334 13.4257396126761  8.50362532500001 13.0759867957746  8.89492456666667 12.7103360915493  C 9.36774446111112 12.2651961267606  9.74273957222223 11.7405668661972  9.95469330555556 11.1205504577465  C 10.0362139944444 10.8979804577465  10.0851263861111 10.6754104929577  10.1177346833333 10.4369426408451  C 10.166647075 10.166679084507  10.166647075 9.88051767605633  10.1340388138889 9.6102541197183  C 10.0688222916667 9.02203345070422  9.88947678333334 8.46560845070422  9.54708993333334 7.97277492957746  C 9.51448167222223 7.92508137323943  9.48187341111112 7.87738778169013  9.44926515000001 7.84559207746478  C 9.43296101944445 7.82969422535211  9.43296101944445 7.79789852112676  9.44926515000001 7.78200063380281  C 9.48187341111112 7.75020492957746  9.49817754166668 7.71840922535211  9.53078580277779 7.68661352112676  L 11.0959827694445 6.06503218309859  L 11.1775034222222 5.98554288732394  C 11.1938075527778 5.96964503521126  11.2101116833333 5.96964503521126  11.22641585 5.98554288732394  L 11.3731530611111 6.12862359154929  C 11.4709778805556 6.25580644366197  11.5688026638889 6.36709144366197  11.6503233527778 6.51017214788732  C 12.1068391166667 7.17788211267605  12.4329218361111 7.90918348591549  12.5959631416667 8.7040763028169  C 12.6937879611111 9.1651141197183  12.7263962222222 9.64204982394365  12.7263962222222 10.1348833802817  C 12.6774838305556 11.3590183098591  12.3024887194445 12.4877660915493  11.5524985333333 13.489331056338  C 11.3568489305556 13.7754924647887  11.1285910305556 14.0298581690141  10.8677248694445 14.2683260211268  C 10.3296884166667 14.7929552816901  9.77534783333334 15.3175845422535  9.23731138055557 15.826315915493  L 7.11777386666668 17.8453436619718  L 5.16127769444446 19.7053928521127  C 5.12866943333334 19.737188556338  5.09606117222223 19.7689842605634  5.06345287500001 19.7848821478873  C 5.0308446138889 19.8166778521127  4.99823635277779 19.8166778521127  4.96562805555557 19.7848821478873  C 4.93301975833334 19.753086443662  4.90041153333334 19.7371885915493  4.86780323611112 19.7053928521127  C 4.8025867138889 19.641801443662  4.73737015555557 19.57821  4.67215363333334 19.530516443662  C 3.6286889888889 18.6084407746479  2.71565746111112 17.5750801056338  1.99827553611112 16.3986387323944  C 1.31350187222223 15.2857888028169  0.808073680555566 14.0934495774648  0.514599258333344 12.837518943662  C 0.433078569444455 12.5354596830986  0.384166177777789 12.2175025352113  0.335253786111121 11.9154432746479  C 0.302645525000009 11.7087711267606  0.270037263888899 11.5020990140845  0.237428966666676 11.2795290140845  Z " fill-rule="nonzero" fill="#01bf8b" stroke="none" />
  </g>
</svg>