<?xml version="1.0" encoding="utf-8"?>
<svg version="1.1" xmlns:xlink="http://www.w3.org/1999/xlink" width="28px" height="26px" xmlns="http://www.w3.org/2000/svg">
  <defs>
    <filter x="1823px" y="43px" width="28px" height="26px" filterUnits="userSpaceOnUse" id="filter5343">
      <feOffset dx="0" dy="0" in="SourceAlpha" result="shadowOffsetInner" />
      <feGaussianBlur stdDeviation="1.5" in="shadowOffsetInner" result="shadowGaussian" />
      <feComposite in2="shadowGaussian" operator="atop" in="SourceAlpha" result="shadowComposite" />
      <feColorMatrix type="matrix" values="0 0 0 0 0  0 0 0 0 1  0 0 0 0 1  0 0 0 0.933333333333333 0  " in="shadowComposite" />
    </filter>
    <g id="widget5344">
      <path d="M 9.47880784313725 19.632  L 9.48294901960784 19.6361739130435  L 9.37251764705882 19.5429565217391  L 0.623592156862745 11.2758260869565  C -0.0218517187121688 10.6661538251446  -0.105316545498554 9.6632680838642  0.43033725490196 8.95373913043479  L 0.543529411764705 8.81460869565218  L 0.622211764705882 8.73530434782609  L 9.37113725490196 0.459826086956522  C 9.58473564848092 0.2557998975819  9.86781551546376 0.142080276328849  10.1620952339712 0.142080276328849  C 10.79714905831 0.142080276328849  11.3119619006379 0.660962785394517  11.3119619006379 1.30103679806798  C 11.3119619006379 1.57284794329663  11.2171751505686 1.83601195957612  11.0441725490196 2.04452173913044  L 10.9447843137255 2.15026086956522  L 3.87027450980392 9  L 20.7773176470588 9  C 21.4090334539675 8.84681921019907  21.918121921971 9.36460776284287  21.918121921971 10.0013435665208  C 21.918121921971 10.5843331702818  21.488942975575 11.0768089613367  20.9153568627451 11.152  L 20.7773176470588 11  L 3.86199215686275 11  L 10.9447843137255 17.8497391304348  C 11.370165440714 18.249521184096  11.4323851354533 18.9064993273058  11.0897254901961 19.3801739130435  L 10.9972392156863 19.4928695652174  C 10.5984573291252 19.9188208314185  9.94726076748454 19.9784885005591  9.47880784313725 19.632  Z " fill-rule="nonzero" fill="#4fb9e4" stroke="none" transform="matrix(1 0 0 1 1826 46 )" />
    </g>
  </defs>
  <g transform="matrix(1 0 0 1 -1823 -43 )">
    <use xlink:href="#widget5344" filter="url(#filter5343)" />
    <use xlink:href="#widget5344" />
  </g>
</svg>