<?xml version="1.0" encoding="utf-8"?>
<svg version="1.1" xmlns:xlink="http://www.w3.org/1999/xlink" width="1920px" height="1016px" xmlns="http://www.w3.org/2000/svg">
  <defs>
    <linearGradient gradientUnits="userSpaceOnUse" x1="1882.11357005177" y1="496.416017797553" x2="53.8553449621664" y2="496.416017797553" id="LinearGradient5350">
      <stop id="Stop5351" stop-color="#ffffff" stop-opacity="0.0470588235294118" offset="0" />
      <stop id="Stop5352" stop-color="#ffffff" stop-opacity="0.0392156862745098" offset="1" />
    </linearGradient>
    <radialGradient cx="17.2082379862633" cy="27.4859903381685" r="1945.66184391597" gradientTransform="matrix(0.984263793770157 0.176705360057859 -0.107153134237699 0.596852016173289 3.21600239416592 8.04013369898908 )" gradientUnits="userSpaceOnUse" id="RadialGradient5353">
      <stop id="Stop5354" stop-color="#ffffff" stop-opacity="0.403921568627451" offset="0" />
      <stop id="Stop5355" stop-color="#ffffff" stop-opacity="0" offset="1" />
    </radialGradient>
  </defs>
  <g>
    <path d="M 0.5 12  A 11.5 11.5 0 0 1 12 0.5 L 1908 0.5  A 11.5 11.5 0 0 1 1919.5 12 L 1919.5 1004  A 11.5 11.5 0 0 1 1908 1015.5 L 12 1015.5  A 11.5 11.5 0 0 1 0.5 1004 L 0.5 12  Z " fill-rule="nonzero" fill="url(#LinearGradient5350)" stroke="none" />
    <path d="M 0.5 12  A 11.5 11.5 0 0 1 12 0.5 L 1908 0.5  A 11.5 11.5 0 0 1 1919.5 12 L 1919.5 1004  A 11.5 11.5 0 0 1 1908 1015.5 L 12 1015.5  A 11.5 11.5 0 0 1 0.5 1004 L 0.5 12  Z " stroke-width="1" stroke="url(#RadialGradient5353)" fill="none" />
  </g>
</svg>