<?xml version="1.0" encoding="utf-8"?>
<svg version="1.1" xmlns:xlink="http://www.w3.org/1999/xlink" width="12px" height="20px" xmlns="http://www.w3.org/2000/svg">
  <g transform="matrix(1 0 0 1 -5 0 )">
    <path d="M 11.8835978863636 9.56256056338028  C 11.9143819090909 9.68974341549295  11.8989898977273 9.8328241197183  11.9143819090909 9.99180267605634  C 11.9143819090909 10.3097597887324  11.8989898977273 10.6277169366197  11.868205875 10.9297761971831  C 11.8528138636364 11.1841419014085  11.8220298409091 11.4385076056338  11.7758537727273 11.6928732746479  C 11.6373256363636 12.7580296478873  11.3602693636364 13.7754924295775  10.9600769659091 14.7770573943662  C 10.6060606022727 15.6355416197183  10.1750841818182 16.4622301760563  9.65175565909091 17.2253272887324  C 9.06685909090909 18.0997093661972  8.38961038636364 18.8787043309859  7.635401625 19.57821  C 7.54304952272727 19.6576992957747  7.46608946590909 19.7212907042254  7.389129375 19.8166778521127  C 7.37373736363636 19.8325757042254  7.35834535227273 19.848473556338  7.32756132954545 19.848473556338  L 7.29677730681818 19.848473556338  C 7.26599328409091 19.8325757042254  7.23520926136363 19.80078  7.21981721590909 19.7848821478873  C 6.35786434090909 18.9263979225352  5.52669552272727 18.0679136619718  4.66474264772727 17.2094294014085  L 4.61856661363636 17.1617358450704  C 4.60317460227273 17.1458379929577  4.60317460227273 17.1140422887324  4.61856661363636 17.0981444366197  C 4.64935063636364 17.0663487323944  4.68013465909091 17.0186551408451  4.72631072727272 16.9868594366197  C 4.92640694318182 16.7642894366197  5.126503125 16.541719471831  5.34199135227273 16.319149471831  C 5.619047625 16.0170902112676  5.91149590909091 15.6991330633803  6.18855218181818 15.3970738028169  L 6.26551227272727 15.3175845070423  C 6.28090428409091 15.3016866549296  6.29629629545454 15.3016866549296  6.31168830681818 15.3175845070423  C 6.35786434090909 15.381175915493  6.41943242045454 15.4288695070423  6.45021644318182 15.4765630985915  C 6.68109668181818 15.7468266549296  6.896584875 16.0170902112676  7.12746511363636 16.2873537676056  C 7.142857125 16.319149471831  7.17364114772727 16.3350473239437  7.20442520454545 16.366843028169  L 7.23520922727272 16.366843028169  L 7.35834535227272 16.2396601760563  C 7.65079363636363 15.8581116197183  7.91245789772727 15.4606652112676  8.14333813636363 15.0473209507042  C 8.65127464772727 14.1411431338028  9.00529101136363 13.1872717605634  9.22077920454545 12.1857068309859  C 9.28234725 11.8995454225352  9.34391532954545 11.6133840140845  9.35930737499999 11.3113247535211  C 9.42087542045454 10.8184911971831  9.45165947727272 10.3256576760563  9.43626743181818 9.83282411971831  C 9.43626743181818 9.70564126760563  9.43626743181818 9.57845841549296  9.42087542045454 9.45127556338028  C 9.4054834090909 9.24460341549296  9.39009139772726 9.0379313028169  9.35930737499999 8.8153613028169  C 9.34391536363635 8.64048489436619  9.31313134090908 8.46560845070423  9.2823472840909 8.29073204225352  C 9.22077923863636 7.87738778169014  9.12842713636363 7.46404352112676  9.00529101136363 7.06659711267605  C 8.77441077272727 6.27170429577465  8.45117846590908 5.50860718309859  8.03559402272727 4.79320366197183  C 7.82010579545454 4.4116551056338  7.58922559090908 4.07780014084507  7.31216931818181 3.72804728873239  L 7.26599324999999 3.68035373239437  C 7.25060123863636 3.66445588028169  7.23520922727272 3.66445588028169  7.21981721590908 3.68035373239437  C 7.15824917045454 3.72804728873239  7.09668109090908 3.79163873239437  7.06589706818181 3.83933228873239  C 6.7734487840909 4.1254936971831  6.49639251136363 4.42755295774648  6.20394419318181 4.71371440140845  C 5.60365557954545 5.33373080985915  5.00336699999999 5.92195147887324  4.40307838636363 6.54196785211268  C 4.17219814772727 6.78043570422535  3.92592589772726 7.00300566901408  3.69504569318181 7.24147352112676  C 3.55651755681817 7.38455422535211  3.4025974090909 7.54353278169014  3.2794612840909 7.71840922535211  C 2.9100529090909 8.19534492957746  2.67917267045454 8.73587204225352  2.57142855681818 9.33999056338028  C 2.52525252272727 9.57845841549296  2.49446846590908 9.80102838028169  2.50986051136363 10.0394962323944  C 2.52525252272727 10.7548997535211  2.70995672727272 11.4226097183099  3.09475707954545 12.0267282746479  C 3.11014909090909 12.0585239788732  3.14093311363636 12.0903196830986  3.1563251590909 12.1221154225352  C 3.17171717045454 12.1380132746479  3.17171717045454 12.1698089788732  3.1563251590909 12.1857068309859  C 3.14093314772727 12.2016046830986  3.12554113636363 12.2334003873239  3.09475707954545 12.2492982746479  C 2.83309281818181 12.5513575352113  2.55603654545454 12.837518943662  2.2943722840909 13.1395782042254  C 2.07888405681818 13.378046056338  1.84800385227272 13.6324117605634  1.63251562499999 13.8708796126761  L 1.54016355681817 13.9662667253521  C 1.52477154545454 13.9821645774648  1.49398752272727 13.9821645774648  1.47859547727272 13.9662667253521  L 1.44781145454545 13.9344710211268  C 1.1399711590909 13.5529224647887  0.878306897727265 13.1713739084507  0.678210681818174 12.7421317957746  C 0.555074556818175 12.4559703873239  0.44733044318181 12.1539111267606  0.339586329545448 11.8518518661972  C 0.231842215909083 11.5179969014084  0.170274170454538 11.2000397535211  0.124098136363629 10.8661847535211  C 0.0471380454545383 10.4210447887324  0.0163540227272666 9.96000693661971  0.0471380454545383 9.53076482394366  C 0.0933140795454467 8.84715700704225  0.247234261363629 8.17944704225351  0.539682545454538 7.5435328169014  C 0.785954795454539 7.00300570422535  1.09379509090908 6.52607  1.46320346590908 6.08093003521126  C 1.58633959090908 5.92195147887323  1.74025973863636 5.74707507042253  1.87878787499999 5.60399433098591  C 2.84848482954545 4.60242940140845  3.81818181818181 3.60086443661971  4.81866282954545 2.61519735915492  C 5.60365561363636 1.83620239436619  6.37325638636363 1.05720742957746  7.15824917045454 0.278212499999993  L 7.28138529545454 0.151029647887317  C 7.29677730681817 0.13513179577464  7.32756132954545 0.13513179577464  7.34295334090909 0.151029647887317  L 7.389129375 0.198723204225345  C 8.17412215909091 0.914126725352106  8.89754689772727 1.70901954225351  9.52861953409091 2.58340165492957  C 10.1904761931818 3.50547732394366  10.7291967272727 4.5229401056338  11.1139971136364 5.61989218309859  C 11.2987012840909 6.14452144366197  11.4526214659091 6.66915070422535  11.5603655454545 7.2096778169014  C 11.6373256363636 7.54353278169013  11.6835016704545 7.87738778169013  11.74506975 8.19534489436619  C 11.7758537727273 8.41791489436619  11.8066377954545 8.6563827112676  11.8374218522727 8.8789527112676  C 11.868205875 9.1015227112676  11.868205875 9.33999052816901  11.8835978863636 9.56256056338028  Z " fill-rule="nonzero" fill="#01bf8b" stroke="none" transform="matrix(1 0 0 1 5 0 )" />
  </g>
</svg>