<?xml version="1.0" encoding="utf-8"?>
<svg version="1.1" xmlns:xlink="http://www.w3.org/1999/xlink" width="10px" height="12px" xmlns="http://www.w3.org/2000/svg">
  <g transform="matrix(1 0 0 1 -918 -791 )">
    <path d="M 0.412698375000005 11.23809525  C 0.356261000000003 9.60141099999997  0.356261000000003 7.85185187499997  0.356261000000003 6.045855375  L 0.356261000000003 0.684303374999999  C 0.356261000000003 0.345679000000004  0.356261000000003 0.345679000000004  0.638448000000004 0.345679000000004  L 3.629629625 0.345679000000004  C 3.629629625 0.345679000000004  3.686067 0.345679000000004  3.686067 0.402116375000006  L 3.686067 2.09523812499999  C 3.686067 2.03880074999999  3.742504375 1.98236337499999  3.79894175 1.92592587499999  C 3.968253875 1.643738875  4.19400350000001 1.36155199999999  4.41975312500001 1.1358025  C 4.75837750000001 0.797178125000002  5.09700175 0.514991249999994  5.54850087500001 0.34567899999999  C 5.77425037500001 0.232804249999987  6.05643737500002 0.176366874999985  6.28218700000001 0.119929499999984  C 6.564374 0.063492124999982  6.90299825000001 0.063492124999982  7.24162262500001 0.063492124999982  C 7.80599650000001 0.063492124999982  8.31393300000001 0.176366874999985  8.87830687500001 0.345678999999976  C 8.93474425000001 0.345678999999976  9.04761900000001 0.402116374999977  9.10405637500001 0.458553749999979  C 9.44268075000001 0.627865874999983  9.38624337500001 0.51499112499998  9.27336862500002 0.853615499999975  C 8.93474425000002 1.53086412499998  8.65255737500001 2.20811287499997  8.31393300000002 2.88536149999997  C 8.31393300000002 2.94179887499998  8.25749562500002 2.99823624999998  8.25749562500002 3.05467374999998  L 8.20105825000002 3.05467374999998  C 8.14462087500002 3.05467374999998  8.08818350000001 2.99823637499998  7.97530862500001 2.94179899999997  C 7.41093475000001 2.71604949999997  6.90299825000001 2.60317462499998  6.28218700000001 2.65961199999998  C 6.00000000000001 2.65961199999998  5.71781312500001 2.77248674999998  5.49206350000001 2.88536149999999  C 4.98412700000001 3.11111099999999  4.53262787500001 3.39329799999999  4.25044087500001 3.84479712499999  C 4.08112875000001 4.12698412499998  3.96825387500001 4.46560837499999  3.85537925000001 4.74779537499998  C 3.79894187500001 5.02998237499997  3.74250450000001 5.36860662499998  3.74250437500001 5.65079362499998  L 3.74250437500001 11.576719625  L 0.469135750000007 11.576719625  L 0.412698375000005 11.520282125  L 0.412698375000005 11.46384475  L 0.412698375000005 11.23809525  Z " fill-rule="nonzero" fill="#ffffff" stroke="none" transform="matrix(1 0 0 1 918 791 )" />
  </g>
</svg>