<?xml version="1.0" encoding="utf-8"?>
<svg version="1.1" xmlns:xlink="http://www.w3.org/1999/xlink" width="44px" height="71px" xmlns="http://www.w3.org/2000/svg">
  <g transform="matrix(1 0 0 1 -910 -707 )">
    <path d="M 43.57319225 33.94709  C 43.686067 34.398589125  43.629629625 34.906525625  43.686067 35.4708995  C 43.686067 36.59964725  43.629629625 37.728395125  43.516754875 38.8007055  C 43.4603175 39.70370375  43.34744275 40.606702  43.1781305 41.509700125  C 42.670194 45.29100525  41.654321 48.902998125  40.186948875 52.45855375  C 38.888888875 55.50617275  37.308642 58.440917125  35.38977075 61.149911875  C 33.24515 64.25396825  30.76190475 67.019400375  27.996472625 69.5026455  C 27.65784825 69.7848325  27.375661375 70.010582  27.093474375 70.349206375  C 27.037037 70.40564375  26.980599625 70.462081125  26.867724875 70.462081125  L 26.754850125 70.462081125  C 26.641975375 70.40564375  26.529100625 70.292769  26.472663125 70.236331625  C 23.31216925 67.188712625  20.26455025 64.1410935  17.104056375 61.093474375  L 16.93474425 60.92416225  C 16.878306875 60.867724875  16.878306875 60.754850125  16.93474425 60.69841275  C 17.047619 60.585538  17.16049375 60.41622575  17.329806 60.303351  C 18.063492125 59.5132275  18.797178125 58.723104125  19.587301625 57.932980625  C 20.603174625 56.86067025  21.675485 55.731922375  22.691358 54.659612  L 22.973545 54.377425  C 23.029982375 54.320987625  23.08641975 54.320987625  23.142857125 54.377425  C 23.31216925 54.6031745  23.537918875 54.77248675  23.650793625 54.941799  C 24.4973545 55.901234625  25.287477875 56.86067025  26.13403875 57.820105875  C 26.190476125 57.932980625  26.303350875 57.989418  26.41622575 58.10229275  L 26.5291005 58.10229275  L 26.980599625 57.650793625  C 28.05291 56.29629625  29.012345625 54.8853615  29.8589065 53.417989375  C 31.721340375 50.201058125  33.019400375 46.81481475  33.80952375 43.25925925  C 34.03527325 42.24338625  34.261022875 41.22751325  34.317460375 40.155202875  C 34.543209875 38.40564375  34.65608475 36.65608475  34.59964725 34.906525625  C 34.59964725 34.4550265  34.59964725 34.003527375  34.543209875 33.55202825  C 34.4867725 32.818342125  34.430335125 32.084656125  34.317460375 31.294532625  C 34.261023 30.673721375  34.14814825 30.05291  34.035273375 29.43209875  C 33.809523875 27.964726625  33.4708995 26.4973545  33.019400375 25.08641975  C 32.1728395 22.26455025  30.987654375 19.5555555  29.46384475 17.015873  C 28.67372125 15.661375625  27.8271605 14.4761905  26.8112875 13.234567875  L 26.64197525 13.06525575  C 26.585537875 13.008818375  26.5291005 13.008818375  26.472663125 13.06525575  C 26.246913625 13.234567875  26.021164 13.4603175  25.90828925 13.629629625  C 24.835978875 14.645502625  23.820105875 15.717813  22.747795375 16.733686125  C 20.546737125 18.934744375  18.345679 21.02292775  16.14462075 23.223985875  C 15.298059875 24.07054675  14.395061625 24.860670125  13.548500875 25.707231  C 13.040564375 26.2151675  12.4761905 26.779541375  12.024691375 27.40035275  C 10.670194 29.0934745  9.82363312499997 31.01234575  9.42857137499998 33.1569665  C 9.25925924999998 34.003527375  9.14638437499998 34.79365075  9.20282187499998 35.640211625  C 9.25925924999998 38.179894125  9.93650799999998 40.5502645  11.347442625 42.694885375  C 11.40388 42.807760125  11.51675475 42.920634875  11.57319225 43.03350975  C 11.629629625 43.089947125  11.629629625 43.202821875  11.57319225 43.25925925  C 11.516754875 43.315696625  11.4603175 43.428571375  11.347442625 43.485008875  C 10.388007 44.55731925  9.37213399999998 45.57319225  8.41269837499998 46.645502625  C 7.62257487499998 47.4920635  6.77601412499997 48.39506175  5.98589062499997 49.241622625  L 5.64726637499997 49.580246875  C 5.59082899999997 49.63668425  5.47795424999997 49.63668425  5.42151674999997 49.580246875  L 5.30864199999997 49.467372125  C 4.17989424999997 48.11287475  3.22045862499997 46.758377375  2.48677249999997 45.234567875  C 2.03527337499997 44.218694875  1.64021162499997 43.1463845  1.24514987499997 42.074074125  C 0.850088124999971 40.888889  0.624338624999972 39.760141125  0.455026499999974 38.574955875  C 0.172839499999974 36.994709  0.0599647499999776 35.358024625  0.172839499999974 33.834215125  C 0.342151624999971 31.407407375  0.906525624999972 29.037037  1.97883599999997 26.7795415  C 2.88183424999998 24.86067025  4.01058199999997 23.1675485  5.36507937499997 21.587301625  C 5.81657849999997 21.02292775  6.38095237499997 20.4021165  6.88888887499997 19.894179875  C 10.444444375 16.338624375  14 12.78306875  17.668430375 9.28395062499998  C 20.54673725 6.51851849999998  23.36860675 3.75308637499998  26.246913625 0.987654374999977  L 26.69841275 0.536155249999975  C 26.754850125 0.479717874999974  26.867724875 0.479717874999974  26.92416225 0.536155249999975  L 27.093474375 0.705467374999976  C 29.97178125 3.24514987499998  32.624338625 6.06701937499998  34.938271625 9.17107587499998  C 37.365079375 12.4444445  39.340388 16.056437375  40.75132275 19.95061725  C 41.428571375 21.813051125  41.992945375 23.675485  42.388007 25.59435625  C 42.670194 26.779541375  42.839506125 27.964726625  43.06525575 29.093474375  C 43.1781305 29.883597875  43.29100525 30.730158625  43.403880125 31.520282125  C 43.516754875 32.310405625  43.516754875 33.156966375  43.57319225 33.94709  Z " fill-rule="nonzero" fill="#01bf8b" stroke="none" transform="matrix(1 0 0 1 910 707 )" />
  </g>
</svg>