<?xml version="1.0" encoding="utf-8"?>
<svg version="1.1" xmlns:xlink="http://www.w3.org/1999/xlink" width="45px" height="71px" xmlns="http://www.w3.org/2000/svg">
  <g transform="matrix(1 0 0 1 -894 -707 )">
    <path d="M 0.821869500000034 40.042328  C 0.765432125000032 38.010582  0.765432125000032 37.671957625  0.708994750000002 35.30158725  C 0.765432125000004 34.398589  0.765432125000004 33.439153375  0.821869500000005 32.53615525  C 0.878306875000007 31.576719625  0.991181625000003 30.560846625  1.10405637500001 29.601410875  C 1.21693112500001 28.811287375  1.32980587500001 28.077601375  1.49911812500001 27.231040625  C 1.78130512500001 25.820105875  2.06349200000001 24.35273375  2.51499112500001 22.941799  C 4.20811287500001 17.18518525  6.91710750000001 11.936508  10.64197525 7.252204625  C 12.617283875 4.825396875  14.818342125 2.511463875  17.1887125 0.479717874999999  C 17.245149875 0.423280499999997  17.358024625 0.366843124999999  17.414462125 0.25396825  C 17.4708995 0.197530874999998  17.58377425 0.197530874999998  17.640211625 0.25396825  C 17.753086375 0.366842999999999  17.865961125 0.479717749999999  17.978836 0.53615525  C 21.082892375 3.58377425  24.1305115 6.631393375  27.234567875 9.622575  L 27.57319225 9.96119925  L 27.57319225 10.074074125  C 27.4603175 10.186948875  27.403880125 10.299823625  27.29100525 10.412698375  C 26.105820125 11.654321  24.97707225 12.839506125  23.8483245 14.024691375  C 23.171075875 14.7583775  22.43738975 15.435626125  21.760141125 16.2257495  C 21.647266375 16.33862425  21.590829 16.395061625  21.477954125 16.451499125  L 21.365079375 16.451499125  C 21.308642 16.39506175  21.19576725 16.338624375  21.13932975 16.2257495  C 20.292768875 15.32275125  19.5026455 14.419753  18.656084625 13.57319225  C 18.430335125 13.34744275  18.261022875 13.121693125  18.09171075 12.952381  C 17.922398625 12.7266315  17.86596125 12.783068875  17.640211625 13.008818375  L 17.4708995 13.1781305  C 16.962963 13.79894175  16.4550265 14.4761905  16.003527375 15.09700175  C 14.084656125 17.749559125  12.673721375 20.627866  11.657848375 23.78835975  C 11.149911875 25.368606625  10.69841275 27.005291  10.359788375 28.64197525  C 10.19047625 29.5449735  10.021164 30.504409125  9.90828925000002 31.46384475  C 9.68253975000002 33.1569665  9.62610225000002 34.79365075  9.68253962500002 36.543209875  C 9.68253962500002 37.5026455  9.79541437500002 38.40564375  9.90828925000002 39.365079375  C 9.96472662500002 40.0987655  10.077601375 40.888888875  10.246913625 41.679012375  C 10.472663125 43.03350975  10.754850125 44.388007125  11.149911875 45.742504375  C 11.99647275 48.677248625  13.294532625 51.5555555  14.987654375 54.26455025  C 15.7213405 55.449735375  16.4550265 56.522045875  17.35802475 57.537918875  C 17.414462125 57.650793625  17.527336875 57.707231  17.640211625 57.820105875  L 17.753086375 57.820105875  C 17.80952375 57.7636685  17.865961125 57.707231125  17.978836 57.650793625  C 18.2045855 57.425044125  18.430335125 57.255731875  18.543209875 57.08641975  C 21.252204625 54.377425  24.017636625 51.72486775  26.726631375 49.015873  C 28.08112875 47.661375625  29.435626125 46.419753125  30.7901235 45.121693125  C 32.42680775 43.54144625  33.72486775 41.679012375  34.45855375 39.477954125  C 34.74074075 38.687830625  34.910052875 37.89770725  35.02292775 37.051146375  C 35.192239875 36.09171075  35.192239875 35.07583775  35.079365125 34.116402125  C 34.853615625 32.02821875  34.23280425 30.05291  33.047619 28.303351  C 32.93474425 28.134038875  32.8218695 27.964726625  32.70899475 27.851851875  C 32.652557375 27.7954145  32.652557375 27.68253975  32.70899475 27.62610225  C 32.8218695 27.5132275  32.878306875 27.40035275  32.991181625 27.287478  L 38.409171125 21.53086425  L 38.691358 21.24867725  C 38.747795375 21.192239875  38.80423275 21.192239875  38.86067025 21.24867725  L 39.36860675 21.75661375  C 39.707231125 22.208112875  40.045855375 22.603174625  40.328042375 23.111111125  C 41.90828925 25.4814815  43.037037125 28.077601375  43.601410875 30.899470875  C 43.94003525 32.536155125  44.05291 34.229276875  44.05291 35.978836  C 43.883597875 40.324515  42.585537875 44.331569625  39.989418 47.88712525  C 39.312169375 48.90299825  38.522045875 49.8059965  37.619047625 50.652557375  C 35.75661375 52.51499125  33.8377425 54.377425125  31.975308625 56.1834215  L 24.638448 63.35097  L 17.86596125 69.954144625  C 17.7530865 70.067019375  17.64021175 70.179894125  17.527336875 70.236331625  C 17.414462125 70.349206375  17.301587375 70.349206375  17.1887125 70.236331625  C 17.075837625 70.123456875  16.962963 70.0670195  16.850088125 69.954144625  C 16.624338625 69.728395125  16.398589 69.5026455  16.1728395 69.333333375  C 12.5608465 66.05996475  9.40035275000004 62.391534375  6.91710762500004 58.2151675  C 4.54673725000004 54.26455025  2.79717812500004 50.031746  1.78130512500004 45.57319225  C 1.49911812500004 44.500881875  1.32980600000004 43.372134  1.16049387500004 42.299823625  C 1.04761912500003 41.5661375  0.934744375000037 40.8324515  0.821869500000034 40.042328  Z " fill-rule="nonzero" fill="#01bf8b" stroke="none" transform="matrix(1 0 0 1 894 707 )" />
  </g>
</svg>