<?xml version="1.0" encoding="utf-8"?>
<svg version="1.1" xmlns:xlink="http://www.w3.org/1999/xlink" width="4px" height="17px" xmlns="http://www.w3.org/2000/svg">
  <g transform="matrix(1 0 0 1 -944 -786 )">
    <path d="M 0.261022874999995 16.294532625  L 0.261022874999995 11.045855375  L 0.261022874999995 5.684303375  C 0.261022874999995 5.345679  0.261022874999995 5.345679  0.543209874999988 5.345679  L 3.42151675 5.345679  C 3.42151675 5.345679  3.477954125 5.345679  3.477954125 5.40211637500001  L 3.477954125 16.294532625  C 3.477954125 16.689594375  3.5343915 16.633157  3.13932975 16.633157  L 0.373897749999998 16.633157  C 0.261022999999994 16.633157  0.261022999999994 16.633157  0.261022874999995 16.520282125  L 0.261022874999995 16.294532625  Z M 3.25220462499999 3.5396825  C 2.80070549999999 3.483245125  2.34920637499999 3.483245125  1.89770725 3.483245125  L 0.317460374999996 3.483245125  L 0.261022874999995 3.483245125  L 0.261022874999995 3.31393299999999  L 0.261022874999995 1.05643737499999  L 0.261022874999995 0.887125249999983  C 0.261022874999995 0.887125249999983  0.261022874999995 0.830687874999981  0.317460374999996 0.830687874999981  L 3.477954125 0.830687874999981  C 3.477954125 0.830687874999981  3.5343915 0.830687874999981  3.5343915 0.887125249999983  L 3.5343915 3.483245125  C 3.5343915 3.483245125  3.5343915 3.5396825  3.477954125 3.5396825  L 3.25220462499999 3.5396825  Z " fill-rule="nonzero" fill="#ffffff" stroke="none" transform="matrix(1 0 0 1 944 786 )" />
  </g>
</svg>