<?xml version="1.0" encoding="utf-8"?>
<svg version="1.1" xmlns:xlink="http://www.w3.org/1999/xlink" width="111px" height="17px" xmlns="http://www.w3.org/2000/svg">
  <g transform="matrix(1 0 0 1 -869 -786 )">
    <path d="M 0.142857125000001 12.5132275  C 0.0299823750000012 11.045855375  0.0299823750000012 9.80423275  0.0299823749999995 8.506172875  L 0.0299823749999995 0.661375625000005  L 0.0299823749999995 0.379188750000012  L 3.69841275 0.379188750000012  C 3.867724875 0.379188750000012  3.98059975 0.435626125000013  4.093474375 0.548500875000016  C 4.14991175 0.604938250000018  4.206349125 0.717813000000021  4.319224 0.774250500000022  C 4.8271605 1.50793662500003  5.335097 2.18518525000002  5.8430335 2.91887125000002  C 7.705467375 5.57142862500002  9.56790125 8.22398587500003  11.37389775 10.820105875  C 11.7689595 11.328042375  12.107583875 11.89241625  12.38977075 12.456790125  C 12.446208125 12.569664875  12.559082875 12.682539625  12.61552025 12.851851875  L 12.671957625 12.851851875  L 12.671957625 12.62610225  L 12.671957625 10.08641975  L 12.671957625 0.830687875000024  L 12.671957625 0.54850087500003  C 12.671957625 0.492063500000029  12.728395 0.492063500000029  12.7848325 0.492063500000029  L 16.001763625 0.492063500000029  C 16.001763625 0.492063500000029  16.058201 0.492063500000029  16 0.54850087500003  L 16 16.576719625  C 16.058201 16.915344  16.058201 16.858906625  15.776014125 16.8589065  L 12.89770725 16.8589065  C 12.61552025 16.8589065  12.333333375 16.74603175  12.164021125 16.576719625  C 12.051146375 16.463844875  11.938271625 16.350970125  11.88183425 16.23809525  C 11.543209875 15.786596125  11.261023 15.335097  10.922398625 14.883597875  C 8.83421525 11.948853625  6.689594375 9.014109375  4.601410875 6.07936512500001  C 4.375661375 5.74074075000001  4.14991175 5.40211650000001  3.92416225 5.00705462500001  C 3.8112875 4.781305125  3.69841275 4.55555550000001  3.5291005 4.329806  L 3.472663125 4.273368625  L 3.41622575 4.273368625  L 3.41622575 5.797178125  C 3.41622575 9.07054675000001  3.472663125 12.343915375  3.472663125 15.617284  L 3.472663125 16.8589065  L 0.199294500000001 16.8589065  C 0.199294500000001 16.8589065  0.142857125000001 16.8589065  0.142857125000001 16.802469125  L 0.142857125000001 16.576719625  L 0.142857125000001 12.5132275  Z M 97.045855375 16.35097  C 97.10229275 13.754850125  97.10229275 11.158730125  97.10229275 8.56261025000001  L 97.10229275 0.717813000000007  L 97.10229275 0.435626125000013  C 97.10229275 0.435626125000013  97.10229275 0.379188750000012  97.158730125 0.379188750000012  L 100.375661375 0.379188750000012  C 100.375661375 0.379188750000012  100.43209875 0.379188750000012  100.43209875 0.435626125000013  L 100.43209875 10.1992945  L 100.488536125 10.1992945  C 100.601410875 10.142857125  100.714285625 10.029982375  100.770723125 9.973545  L 100.94003525 9.80423275  C 102.35097 8.56261012499999  103.705467375 7.320987625  105.05996475 6.079365125  C 105.229276875 5.96649037499999  105.34215175 5.797178125  105.511463875 5.684303375  C 105.737213375 5.45855387499999  105.962963 5.40211637500001  106.30158725 5.40211637500001  L 109.970017625 5.40211637500001  L 109.970017625 5.45855375000001  C 109.744268125 5.68430325000001  109.462081125 5.91005287500001  109.179894125 6.13580250000001  C 107.768959375 7.32098762500002  106.414462 8.44973550000002  105.003527375 9.63492062500001  C 104.94709 9.69135800000001  104.890652625 9.69135800000001  104.834215125 9.74779537500001  L 104.834215125 9.80423275000001  C 104.8906525 9.86067012500001  104.8906525 9.91710750000001  104.94709 9.97354500000002  C 106.696649125 12.11816575  108.38977075 14.262786625  110.13932975 16.46384475  C 110.13932975 16.520282125  110.195767125 16.520282125  110.252204625 16.576719625  C 110.252204625 16.576719625  110.308642 16.633157  110.308642 16.689594375  L 107.035273375 16.689594375  C 106.696649 16.689594375  106.414462125 16.576719625  106.1887125 16.35097  C 106.07583775 16.23809525  105.962963 16.1252205  105.906525625 16.012345625  C 105.56790125 15.5608465  105.229277 15.05291  104.8906525 14.601410875  C 104.156966375 13.64197525  103.47971775 12.682539625  102.74603175 11.723104  L 102.633157 11.61022925  L 102.576719625 11.61022925  C 102.576719625 11.61022925  102.52028225 11.61022925  102.520282125 11.666666625  C 101.899470875 12.174603125  101.335097 12.682539625  100.71428575 13.19047625  C 100.657848375 13.246913625  100.601411 13.303351  100.488536125 13.359788375  C 100.37566125 13.41622575  100.319224 13.5291005  100.319224 13.64197525  L 100.319224 16.576719625  C 100.319224 16.576719625  100.319224 16.633157  100.262786625 16.633157  L 97.158730125 16.633157  L 97.045855375 16.633157  L 97.045855375 16.576719625  L 97.045855375 16.35097  Z M 47.268077625 16.689594375  C 47.43738975 16.74603175  47.493827125 16.689594375  47.43738975 16.689594375  C 47.380952375 16.633157  47.324515 16.52028225  47.324515 16.46384475  C 46.8165785 15.617283875  46.590828875 14.65784825  46.590828875 13.64197525  L 46.590828875 10.08641975  C 46.590828875 9.63492062499999  46.590828875 9.12698412499999  46.5343915 8.67548499999999  C 46.5343915 8.393298  46.477954125 8.1675485  46.42151675 7.88536149999999  C 46.252204625 7.15167537499998  45.857142875 6.58730149999998  45.292769 6.13580249999998  C 45.0670195 5.96649037499998  44.89770725 5.85361549999999  44.671957625 5.74074074999999  C 44.276895875 5.51499124999998  43.881834125 5.34567899999999  43.430335125 5.23280424999999  C 42.809523875 5.06349212499998  42.1887125 5.00705474999998  41.511463875 4.95061724999999  L 39.818342125 4.95061724999999  C 39.25396825 4.95061724999999  38.689594375 5.007054625  38.1252205 5.1199295  C 37.673721375 5.176366875  37.165784875 5.345679  36.71428575 5.51499112499999  C 36.375661375 5.627865875  36.0934745 5.79717812499999  35.754850125 6.02292774999999  C 34.964726625 6.58730162499999  34.456790125 7.32098775  34.174603125 8.223985875  L 34.174603125 8.336860625  C 34.287477875 8.336860625  34.456790125 8.393298  34.569664875 8.393298  C 34.964726625 8.449735375  35.303351 8.449735375  35.64197525 8.506172875  C 36.037037 8.56261025000001  36.488536125 8.61904762500001  36.94003525 8.67548500000001  L 37.165784875 8.67548500000001  C 37.22222225 8.61904762500001  37.22222225 8.56261025000001  37.278659625 8.4497355  C 37.560846625 7.82892425  38.01234575 7.4338625  38.633157 7.26455025  C 38.8589065 7.1516755  39.1410935 7.1516755  39.423280375 7.09523812499999  C 39.705467375 7.09523812499999  39.98765425 7.03880074999999  40.213403875 7.03880074999999  L 41.229276875 7.03880074999999  C 41.455026375 7.03880074999999  41.624338625 7.03880074999999  41.850088125 7.09523812499999  C 42.075837625 7.09523812499999  42.30158725 7.208112875  42.4708995 7.320987625  C 42.7530865 7.49029975000001  42.922398625 7.716049375  43.035273375 7.941799  C 43.09171075 8.11111112500001  43.148148125 8.223986  43.148148125 8.393298  L 43.148148125 8.56261025000001  C 43.148148125 8.73192237500001  43.035273375 8.84479725  42.922398625 8.957672  C 42.86596125 8.957672  42.7530865 9.014109375  42.696649 9.014109375  C 42.4708995 9.07054675000001  42.1887125 9.12698412500001  41.906525625 9.18342150000001  C 41.1728395 9.35273362500001  40.4391535 9.522045875  39.705467375 9.63492062500001  C 39.02821875 9.80423275000001  38.35097 9.917107625  37.673721375 10.029982375  C 37.278659625 10.08641975  36.883597875 10.1992945  36.43209875 10.31216925  C 36.037037 10.425044  35.585537875 10.59435625  35.19047625 10.820105875  C 34.90828925 10.989418  34.569665 11.215167625  34.343915375 11.440917125  C 33.89241625 11.89241625  33.61022925 12.456790125  33.553791875 13.077601375  C 33.4973545 13.585537875  33.553791875 14.093474375  33.723104 14.601410875  C 33.9488535 15.222222125  34.34391525 15.730158625  34.964726625 16.068783125  C 35.190476125 16.181657875  35.359788375 16.294532625  35.585537875 16.294532625  C 36.319224 16.520282125  37.05291 16.633157  37.8430335 16.689594375  L 38.802469125 16.689594375  C 39.25396825 16.633157  39.76190475 16.576719625  40.213403875 16.46384475  C 40.94709 16.23809525  41.680776 15.899470875  42.35802475 15.504409125  C 42.58377425 15.391534375  42.7530865 15.222222125  42.922398625 15.1093475  C 42.978836 15.052910125  43.09171075 14.99647275  43.148148125 14.883597875  C 43.2045855 14.8271605  43.2045855 14.8271605  43.261022875 14.883597875  C 43.261022875 14.94003525  43.31746025 14.996472625  43.317460375 15.05291  C 43.4867725 15.44797175  43.712522125 15.8430335  43.88183425 16.23809525  C 43.88183425 16.294532625  43.938271625 16.407407375  43.994709 16.46384475  C 44.051146375 16.5767195  44.164021125 16.68959425  44.333333375 16.689594375  L 47.268077625 16.689594375  Z M 43.59964725 10.763668375  C 43.712522 12.2310404999999  43.035273375 13.3033508749999  42.245149875 13.92416225  C 42.07583775 14.037037  41.9065255 14.14991175  41.680776 14.262786625  C 41.28571425 14.43209875  40.834215125 14.601411  40.382716 14.657848375  C 39.98765425 14.71428575  39.5925925 14.770723125  39.084656125 14.770723125  C 38.74603175 14.770723125  38.294532625 14.71428575  37.899470875 14.601410875  C 37.786596125 14.601410875  37.673721375 14.5449735  37.5608465 14.488536125  C 37.2786595 14.375661375  37.109347375 14.14991175  36.996472625 13.867724875  C 36.94003525 13.641975375  36.94003525 13.359788375  36.996472625 13.077601375  C 37.05291 12.795414375  37.222222125 12.569664875  37.44797175 12.40035275  C 37.504409125 12.343915375  37.617283875 12.287478  37.673721375 12.231040625  C 38.181657875 12.005291125  38.74603175 11.7795415  39.310405625 11.61022925  C 39.592592625 11.553791875  39.818342125 11.4973545  40.100529125 11.440917125  C 40.721340375 11.328042375  41.34215175 11.2151676249999  41.962963 11.045855375  C 42.414462125 10.932980625  42.86596125 10.763668375  43.317460375 10.537918875  C 43.37389775 10.537918875  43.430335125 10.4814815  43.4867725 10.4814815  L 43.543209875 10.4814815  C 43.543209875 10.59435625  43.59964725 10.707231  43.59964725 10.763668375  Z M 32.029982375 13.472663125  C 32.08641975 13.5291005  32.029982375 13.472663125  32.029982375 13.472663125  C 31.634920625 13.41622575  31.1834215 13.359788375  30.731922375 13.303351  C 30.393298 13.246913625  30.05467375 13.246913625  29.716049375 13.19047625  C 29.377425 13.134038875  28.98236325 13.0776015  28.643739 13.021164  L 28.53086425 13.021164  C 28.474426875 13.077601375  28.474426875 13.13403875  28.417989375 13.19047625  C 28.305114625 13.359788375  28.192239875 13.529100625  28.1358025 13.64197525  C 27.910053 13.980599625  27.571428625 14.206349125  27.176366875 14.375661375  C 26.894179875 14.488536125  26.611993 14.601410875  26.329806 14.601410875  C 26.160493875 14.65784825  25.991181625 14.65784825  25.8218695 14.657848375  L 24.975308625 14.657848375  C 24.63668425 14.657848375  24.29806 14.601411  23.959435625 14.488536125  C 23.282187 14.262786625  22.717813 13.867724875  22.266313875 13.246913625  L 22.09700175 12.90828925  C 21.984127 12.5132275  21.87125225 12.174603125  21.758377375 11.7795415  L 21.758377375 11.666666625  L 31.80423275 11.666666625  C 31.80423275 11.666666625  31.860670125 11.666666625  31.86067025 11.61022925  L 31.86067025 11.440917125  C 31.86067025 10.989418  31.804232875 10.4814815  31.747795375 10.029982375  C 31.747795375 9.57848324999999  31.634920625 9.12698412499999  31.522045875 8.73192237499998  C 31.239858875 7.71604937499998  30.675485 6.86948849999999  29.828924125 6.19223987499998  C 29.320987625 5.79717812499999  28.813051125 5.51499124999998  28.192239875 5.34567899999999  C 27.289241625 5.063492  26.386243375 4.89417987499999  25.42680775 4.83774249999999  L 24.29806 4.83774249999999  C 23.846560875 4.89417987499999  23.39506175 4.95061724999999  22.88712525 5.063492125  C 22.37918875 5.176367  21.927689625 5.289241625  21.4761905 5.51499112499999  C 20.57319225 5.91005287499999  19.83950625 6.53086412499999  19.331569625 7.37742499999999  C 18.99294525 7.88536149999999  18.76719575 8.44973537499999  18.597883625 9.01410937499999  C 18.4285715 9.57848337499999  18.372134125 10.08641975  18.372134 10.650793625  C 18.372134 11.271604875  18.372134 11.89241625  18.597883625 12.5132275  C 18.76719575 13.190476125  19.04938275 13.8112875  19.500881875 14.375661375  C 20.06525575 15.1093475  20.798941875 15.617284  21.645502625 15.95590825  C 22.32275125 16.23809525  23 16.407407375  23.677248625 16.520282125  C 24.185185125 16.5767195  24.693121625 16.633156875  25.257495625 16.689594375  C 25.93474425 16.689594375  26.611993 16.633157  27.289241625 16.520282125  C 27.74074075 16.46384475  28.1358025 16.35097  28.587301625 16.23809525  C 29.095238125 16.068783125  29.54673725 15.899470875  29.941799 15.617284  C 30.4497355 15.335097  30.901234625 14.940035375  31.239858875 14.488536125  C 31.522045875 14.14991175  31.747795375 13.8112875  31.973545 13.472663125  C 32.029982375 13.5291005  32.08641975 13.5291005  32.029982375 13.472663125  Z M 21.70194 9.747795375  C 21.758377375 9.63492062499999  21.758377375 9.409171  21.814814875 9.239858875  C 21.927689625 8.78835975  22.15343925 8.393298  22.435626125 8.05467374999999  C 22.60493825 7.82892424999999  22.830687875 7.659612  23.056437375 7.54673724999999  C 23.5079365 7.32098774999999  24.015873 7.1516755  24.467372125 7.03880074999999  C 24.8059965 6.98236337499999  25.14462075 6.98236337499999  25.483245125 6.98236337499999  C 25.93474425 7.03880074999999  26.386243375 7.1516755  26.781305125 7.26455024999999  C 26.8377425 7.26455024999999  26.894179875 7.32098762499999  26.95061725 7.32098762499999  C 27.5714285 7.54673712499999  27.96649025 7.99823624999999  28.24867725 8.61904762499999  C 28.361552 8.844797125  28.47442675 9.12698412499999  28.47442675 9.409171125  C 28.47442675 9.57848325000001  28.47442675 9.69135812499999  28.361552 9.80423275  L 21.758377375 9.80423275  C 21.70194 9.80423275  21.70194 9.80423275  21.70194 9.747795375  Z " fill-rule="nonzero" fill="#ffffff" stroke="none" transform="matrix(1 0 0 1 869 786 )" />
  </g>
</svg>