<?xml version="1.0" encoding="utf-8"?>
<svg version="1.1" xmlns:xlink="http://www.w3.org/1999/xlink" width="60px" height="60px" xmlns="http://www.w3.org/2000/svg">
  <defs>
    <linearGradient gradientUnits="userSpaceOnUse" x1="30" y1="0" x2="30" y2="60" id="LinearGradient5308">
      <stop id="Stop5309" stop-color="#38e0e9" offset="0" />
      <stop id="Stop5310" stop-color="#38e0e9" stop-opacity="0.650980392156863" offset="1" />
    </linearGradient>
  </defs>
  <g transform="matrix(1 0 0 1 -997 -280 )">
    <path d="M 59.963865 28.527965  C 59.987955 29.0183483333333  60 29.5090266666667  60 30  C 60 30.4909716666667  59.9879533333333 30.9816491666667  59.96386 31.4720325  C 59.93977 31.9624125  59.9036641666667 32.4519075  59.8555425 32.9405175  C 59.8074175 33.4291258333333  59.7473341666667 33.9162575  59.6752925 34.4019125  C 59.6032525 34.8875708333333  59.5193391666667 35.37117  59.4235525 35.85271  C 59.3277675 36.3342483333333  59.2202275 36.8131475  59.1009325 37.2894075  C 58.9816341666667 37.7656641666667  58.8507266666667 38.2387091666667  58.70821 38.7085425  C 58.5656866666667 39.1783708333333  58.4117225 39.6444208333333  58.2463175 40.1066925  C 58.0809125 40.5689641666667  57.9042666666667 41.0268991666667  57.71638 41.4804975  C 57.5284933333333 41.9340975  57.3295916666667 42.3828158333333  57.119675 42.8266525  C 56.9097583333333 43.2704858333333  56.6890783333333 43.7089025  56.457635 44.1419025  C 56.22619 44.5749025  55.9842616666667 45.0019625  55.73185 45.4230825  C 55.47944 45.8442041666667  55.2168508333333 46.2588783333333  54.9440825 46.667105  C 54.6713125 47.0753333333333  54.3886925 47.4766233333333  54.0962225 47.870975  C 53.8037491666667 48.2653283333333  53.5017791666667 48.6522691666667  53.1903125 49.0317975  C 52.8788458333333 49.4113208333333  52.5582541666667 49.782975  52.2285375 50.14676  C 51.8988191666667 50.51055  51.5603741666667 50.8660291666667  51.2132025 51.2131975  C 50.8660325 51.5603675  50.510555 51.8988125  50.14677 52.2285325  C 49.782985 52.5582491666667  49.41133 52.8788425  49.031805 53.1903125  C 48.6522783333333 53.5017791666667  48.2653383333333 53.8037475  47.870985 54.0962175  C 47.47663 54.3886908333333  47.0753375 54.6713125  46.6671075 54.9440825  C 46.2588791666667 55.2168508333333  45.8442041666667 55.4794416666667  45.4230825 55.731855  C 45.0019625 55.9842633333333  44.5749041666667 56.22619  44.1419075 56.457635  C 43.7089041666667 56.6890783333333  43.2704858333333 56.9097583333333  42.8266525 57.119675  C 42.3828191666667 57.3295916666667  41.9341025 57.5284933333333  41.4805025 57.71638  C 41.0269041666667 57.9042666666667  40.5689691666667 58.0809125  40.1066975 58.2463175  C 39.6444241666667 58.4117225  39.1783733333333 58.5656866666667  38.708545 58.70821  C 38.2387116666667 58.8507266666667  37.765665 58.9816341666667  37.289405 59.1009325  C 36.8131466666667 59.2202275  36.3342483333333 59.3277675  35.85271 59.4235525  C 35.37117 59.5193391666667  34.8875716666667 59.6032508333333  34.401915 59.6752875  C 33.9162583333333 59.7473325  33.4291258333333 59.8074175  32.9405175 59.8555425  C 32.4519075 59.9036641666667  31.9624116666667 59.9397716666667  31.47203 59.963865  C 30.9816483333333 59.987955  30.4909716666667 60  30 60  C 29.5090266666667 60  29.0183483333333 59.9879533333333  28.527965 59.96386  C 28.0375866666667 59.93977  27.5480925 59.9036641666667  27.0594825 59.8555425  C 26.5708741666667 59.8074175  26.0837408333333 59.7473341666667  25.5980825 59.6752925  C 25.1124238333333 59.6032525  24.6288251666667 59.5193391666667  24.1472865 59.4235525  C 23.6657476666667 59.3277675  23.1868489166667 59.2202275  22.71059025 59.1009325  C 22.23433325 58.9816341666667  21.7612893333333 58.8507266666667  21.2914585 58.70821  C 20.8216261666667 58.5656866666667  20.3555743333333 58.4117225  19.893303 58.2463175  C 19.4310308333333 58.0809125  18.9730950833333 57.9042666666667  18.51949575 57.71638  C 18.06589725 57.5284933333333  17.61718075 57.3295916666667  17.17334625 57.119675  C 16.7295125833333 56.9097583333333  16.2910961666667 56.6890783333333  15.858097 56.457635  C 15.425098 56.22619  14.9980379166667 55.9842616666667  14.57691675 55.73185  C 14.1557955833333 55.47944  13.7411205 55.2168508333333  13.3328915 54.9440825  C 12.9246631666667 54.6713125  12.5233725 54.3886925  12.1290195 54.0962225  C 11.7346665 53.8037491666667  11.3477270833333 53.5017791666667  10.96820125 53.1903125  C 10.58867375 52.8788458333333  10.2170169166667 52.5582541666667  9.85323075 52.2285375  C 9.48944458333333 51.8988191666667  9.13396641666667 51.5603741666667  8.78679625 51.2132025  C 8.43962625 50.8660325  8.10118291666667 50.510555  7.77146625 50.14677  C 7.44174925 49.782985  7.121156 49.41133  6.8096865 49.031805  C 6.49821633333333 48.6522783333333  6.1962455 48.2653383333333  5.903774 47.870985  C 5.6113015 47.47663  5.3286805 47.0753375  5.055911 46.6671075  C 4.7831415 46.2588791666667  4.5205515 45.8442041666667  4.268141 45.4230825  C 4.01573116666667 45.0019625  3.77380475 44.5749041666667  3.54236175 44.1419075  C 3.31091891666667 43.7089041666667  3.09023875 43.2704858333333  2.88032125 42.8266525  C 2.67040341666667 42.3828191666667  2.47150094166667 41.9341025  2.283613825 41.4805025  C 2.095726775 41.0269041666667  1.91908150833333 40.5689691666667  1.753678025 40.1066975  C 1.58827434166667 39.6444241666667  1.43431161666667 39.1783733333333  1.29178985 38.708545  C 1.1492681 38.2387116666667  1.01835891666667 37.765665  0.8990623 37.289405  C 0.77976575 36.8131466666667  0.672225483333333 36.3342483333333  0.5764415 35.85271  C 0.480657533333333 35.37117  0.396745258333333 34.8875716666667  0.324704675 34.401915  C 0.252664061666667 33.9162583333333  0.1925819 33.4291258333333  0.14445819 32.9405175  C 0.0963344766666667 32.4519075  0.0602271833333333 31.9624116666667  0.03613631 31.47203  C 0.0120454366666667 30.9816483333333  0 30.4909716666667  0 30  C 0 29.5090266666667  0.0120454366666667 29.0183483333333  0.03613631 28.527965  C 0.0602271833333333 28.0375866666667  0.0963344766666667 27.5480925  0.14445819 27.0594825  C 0.1925819 26.5708741666667  0.252664053333333 26.0837408333333  0.32470465 25.5980825  C 0.39674525 25.1124238333333  0.480657533333333 24.6288251666667  0.5764415 24.1472865  C 0.672225483333333 23.6657476666667  0.77976575 23.1868489166667  0.8990623 22.71059025  C 1.01835891666667 22.23433325  1.1492681 21.7612893333333  1.29178985 21.2914585  C 1.43431161666667 20.8216261666667  1.58827429166667 20.3555743333333  1.753677875 19.893303  C 1.91908145833333 19.4310308333333  2.095726775 18.9730950833333  2.283613825 18.51949575  C 2.47150094166667 18.06589725  2.67040341666667 17.61718075  2.88032125 17.17334625  C 3.09023908333333 16.7295125833333  3.31091941666667 16.2910961666667  3.54236225 15.858097  C 3.77380508333333 15.425098  4.01573166666667 14.9980379166667  4.268142 14.57691675  C 4.52055216666667 14.1557955833333  4.783142 13.7411205  5.0559115 13.3328915  C 5.3286815 12.9246631666667  5.61130233333333 12.5233725  5.903774 12.1290195  C 6.196246 11.7346665  6.49821683333334 11.3477270833333  6.8096865 10.96820125  C 7.121156 10.58867375  7.44174908333333 10.2170169166667  7.77146575 9.85323075  C 8.10118275 9.48944458333333  8.43962625 9.13396641666667  8.78679625 8.78679625  C 9.13396641666667 8.43962625  9.48944458333333 8.10118291666667  9.85323075 7.77146625  C 10.2170169166667 7.44174925  10.58867375 7.121156  10.96820125 6.8096865  C 11.3477270833333 6.49821633333333  11.7346665 6.1962455  12.1290195 5.903774  C 12.5233725 5.6113015  12.9246631666667 5.3286805  13.3328915 5.055911  C 13.7411205 4.7831415  14.1557955833333 4.5205515  14.57691675 4.268141  C 14.9980385833333 4.01573116666667  15.4250995 3.77380475  15.8580995 3.54236175  C 16.2910978333333 3.31091891666667  16.7295138333333 3.09023875  17.1733475 2.88032125  C 17.6171811666667 2.67040341666667  18.06589725 2.47150094166667  18.51949575 2.283613825  C 18.9730950833333 2.095726775  19.4310308333333 1.91908150833333  19.893303 1.753678025  C 20.3555743333333 1.58827434166667  20.8216261666667 1.43431161666667  21.2914585 1.29178985  C 21.7612893333333 1.1492681  22.2343340833333 1.01835891666667  22.71059275 0.8990623  C 23.1868514166667 0.77976575  23.6657500833333 0.672225483333333  24.14728875 0.5764415  C 24.6288259166667 0.480657533333333  25.1124238333333 0.396745258333333  25.5980825 0.324704675  C 26.0837408333333 0.252664061666667  26.5708741666667 0.1925819  27.0594825 0.14445819  C 27.5480925 0.0963344766666667  28.0375866666667 0.0602271833333333  28.527965 0.03613631  C 29.0183483333333 0.0120454366666667  29.5090266666667 0  30 0  C 30.4909716666667 0  30.9816491666667 0.0120454366666667  31.4720325 0.03613631  C 31.9624125 0.0602271833333333  32.4519075 0.0963344766666667  32.9405175 0.14445819  C 33.4291258333333 0.1925819  33.9162575 0.252664053333333  34.4019125 0.32470465  C 34.8875708333333 0.39674525  35.37117 0.480657533333333  35.85271 0.5764415  C 36.3342483333333 0.672225483333333  36.8131475 0.77976575  37.2894075 0.8990623  C 37.7656641666667 1.01835891666667  38.2387091666667 1.1492681  38.7085425 1.29178985  C 39.1783708333333 1.43431161666667  39.6444208333333 1.58827429166667  40.1066925 1.753677875  C 40.5689641666667 1.91908145833333  41.0268991666667 2.095726775  41.4804975 2.283613825  C 41.9340975 2.47150094166667  42.3828158333333 2.67040341666667  42.8266525 2.88032125  C 43.2704858333333 3.09023908333333  43.7089025 3.31091941666667  44.1419025 3.54236225  C 44.5749025 3.77380508333333  45.0019625 4.01573166666667  45.4230825 4.268142  C 45.8442041666667 4.52055216666667  46.2588783333333 4.783142  46.667105 5.0559115  C 47.0753333333333 5.3286815  47.4766233333333 5.61130233333333  47.870975 5.903774  C 48.2653283333333 6.196246  48.6522691666667 6.49821683333334  49.0317975 6.8096865  C 49.4113208333333 7.121156  49.782975 7.44174908333333  50.14676 7.77146575  C 50.51055 8.10118275  50.8660291666667 8.43962625  51.2131975 8.78679625  C 51.5603675 9.13396641666667  51.8988125 9.48944458333333  52.2285325 9.85323075  C 52.5582491666667 10.2170169166667  52.8788425 10.58867375  53.1903125 10.96820125  C 53.5017791666667 11.3477270833333  53.8037475 11.7346665  54.0962175 12.1290195  C 54.3886908333333 12.5233725  54.6713125 12.9246631666667  54.9440825 13.3328915  C 55.2168508333333 13.7411205  55.4794416666667 14.1557955833333  55.731855 14.57691675  C 55.9842633333333 14.9980385833333  56.22619 15.4250995  56.457635 15.8580995  C 56.6890783333333 16.2910978333333  56.9097583333333 16.7295138333333  57.119675 17.1733475  C 57.3295916666667 17.6171811666667  57.5284933333333 18.06589725  57.71638 18.51949575  C 57.9042666666667 18.9730950833333  58.0809125 19.4310308333333  58.2463175 19.893303  C 58.4117225 20.3555743333333  58.5656866666667 20.8216261666667  58.70821 21.2914585  C 58.8507266666667 21.7612893333333  58.9816341666667 22.2343340833333  59.1009325 22.71059275  C 59.2202275 23.1868514166667  59.3277675 23.6657500833333  59.4235525 24.14728875  C 59.5193391666667 24.6288259166667  59.6032508333333 25.1124238333333  59.6752875 25.5980825  C 59.7473325 26.0837408333333  59.8074175 26.5708741666667  59.8555425 27.0594825  C 59.9036641666667 27.5480925  59.9397716666667 28.0375866666667  59.963865 28.527965  Z M 55.4688025 31.2511975  C 55.4892775 30.8343725  55.499515 30.4172975  55.499515 29.9999725  C 55.499515 29.5826441666667  55.4892758333333 29.1655683333333  55.4687975 28.748745  C 55.4483225 28.3319233333333  55.4176333333333 27.9158541666667  55.37673 27.5005375  C 55.3358233333333 27.0852191666667  55.2847525 26.671155  55.2235175 26.258345  C 55.1622825 25.8455333333333  55.0909575 25.4344741666667  55.0095425 25.0251675  C 54.9281258333333 24.61586  54.8367158333333 24.208796  54.7353125 23.8039755  C 54.6339108333333 23.3991566666667  54.5226391666667 22.9970685  54.4014975 22.597711  C 54.2803525 22.1983551666667  54.1494833333333 21.8022115833333  54.00889 21.40928025  C 53.868295 21.0163489166667  53.718145 20.62710275  53.55844 20.24154175  C 53.398735 19.8559824166667  53.2296675 19.4745735  53.0512375 19.097315  C 52.8728091666667 18.7200566666667  52.6852325 18.34740325  52.4885075 17.97935475  C 52.2917775 17.6113049166667  52.0861383333333 17.2483031666667  51.87159 16.8903495  C 51.6570416666667 16.5323956666667  51.4338391666667 16.1799215833333  51.2019825 15.83292725  C 50.9701308333333 15.4859329166667  50.7299033333333 15.1448354166667  50.4813 14.80963475  C 50.2327033333333 14.47443575  49.97603 14.1455376666667  49.71128 13.8229405  C 49.44653 13.500342  49.1740258333333 13.1844338333333  48.8937675 12.875216  C 48.6135075 12.5659966666667  48.32583 12.2638400833333  48.030735 11.96874625  C 47.7356383333333 11.6736524166667  47.4334808333333 11.38597575  47.1242625 11.10571625  C 46.8150425 10.82545675  46.4991341666667 10.55295225  46.1765375 10.28820275  C 45.8539425 10.0234535833333  45.5250425 9.7667785  45.1898375 9.5181775  C 44.8546408333333 9.269576  44.513545 9.029348  44.16655 8.7974935  C 43.8195566666667 8.5656395  43.4670833333333 8.34243825  43.10913 8.12788975  C 42.7511783333333 7.91334075  42.3881783333333 7.70770308333333  42.02013 7.51097675  C 41.6520816666667 7.31425041666667  41.2794275 7.12667225  40.9021675 6.94824225  C 40.5249091666667 6.76981208333333  40.1434991666667 6.60074491666667  39.7579375 6.44104075  C 39.3723791666667 6.28133675  38.9831341666667 6.13118825  38.5902025 5.99059525  C 38.1972725 5.85000258333333  37.80113 5.71913441666667  37.401775 5.59799075  C 37.002415 5.47684741666667  36.6003258333333 5.36557466666667  36.1955075 5.2641725  C 35.7906875 5.16277066666667  35.3836233333333 5.07136141666667  34.974315 4.98994475  C 34.5650083333333 4.90852841666667  34.15395 4.83720291666667  33.74114 4.77596825  C 33.3283316666667 4.71473391666667  32.9142691666667 4.66366425  32.4989525 4.62275925  C 32.0836358333333 4.58185391666667  31.667565 4.55116258333333  31.25074 4.53068525  C 30.833915 4.51020808333333  30.4168391666667 4.4999695  29.9995125 4.4999695  C 29.5821875 4.4999695  29.1651125 4.51020816666667  28.7482875 4.5306855  C 28.3314658333333 4.55116266666667  27.9153958333333 4.58185391666667  27.5000775 4.62275925  C 27.0847608333333 4.66366425  26.6706975 4.71473391666667  26.2578875 4.77596825  C 25.8450758333333 4.83720291666667  25.4340166666667 4.90852841666667  25.02471 4.98994475  C 24.6154023333333 5.07136141666667  24.20833825 5.16277066666667  23.80351775 5.2641725  C 23.3986974166667 5.36557466666667  22.99660925 5.47684741666667  22.59725325 5.59799075  C 22.19789575 5.71913441666667  21.8017514166667 5.85000275  21.40882025 5.99059575  C 21.0158889166667 6.13118841666667  20.6266435 6.28133675  20.241084 6.44104075  C 19.8555246666667 6.60074491666667  19.4741153333333 6.76981208333333  19.096856 6.94824225  C 18.7195968333333 7.12667225  18.3469430833333 7.31425041666667  17.97889475 7.51097675  C 17.61084475 7.70770308333333  17.2478429166667 7.91334075  16.88988925 8.12788975  C 16.5319370833333 8.34243825  16.1794638333333 8.5656395  15.8324695 8.7974935  C 15.485475 9.029348  15.1443775 9.269576  14.809177 9.5181775  C 14.4739778333333 9.7667785  14.14507975 10.0234535833333  13.82248275 10.28820275  C 13.4998849166667 10.55295225  13.18397675 10.82545675  12.87475825 11.10571625  C 12.56553975 11.38597575  12.2633831666667 11.6736524166667  11.9682885 11.96874625  C 11.6731946666667 12.2638400833333  11.385518 12.5659966666667  11.1052585 12.875216  C 10.824999 13.1844338333333  10.5524949166667 13.500342  10.28774625 13.8229405  C 10.02299675 14.1455376666667  9.76632125 14.4744365  9.51771975 14.809637  C 9.26911875 15.1448361666667  9.028891 15.4859329166667  8.7970365 15.83292725  C 8.56518233333333 16.1799215833333  8.34198075 16.5323956666667  8.12743175 16.8903495  C 7.91288291666667 17.2483031666667  7.70724533333333 17.6113045833333  7.510519 17.97935375  C 7.31379233333333 18.3474029166667  7.12621375 18.7200566666667  6.94778325 19.097315  C 6.76935308333333 19.4745735  6.60028625 19.8559824166667  6.44058275 20.24154175  C 6.28087891666667 20.62710275  6.1307305 21.0163481666667  5.9901375 21.409278  C 5.84954483333333 21.8022108333333  5.71867666666667 22.1983551666667  5.597533 22.597711  C 5.47638933333333 22.9970685  5.36511658333333 23.3991575  5.26371475 23.803978  C 5.16231258333333 24.2087968333333  5.07090325 24.61586  4.98948675 25.0251675  C 4.90807025 25.4344741666667  4.83674483333333 25.8455333333333  4.7755105 26.258345  C 4.714276 26.671155  4.66320633333333 27.0852191666667  4.6223015 27.5005375  C 4.58139616666667 27.9158541666667  4.55070491666667 28.3319233333333  4.53022775 28.748745  C 4.50975041666667 29.1655683333333  4.49951175 29.5826441666667  4.49951175 29.9999725  C 4.49951175 30.4172975  4.50975041666667 30.8343725  4.53022775 31.2511975  C 4.55070491666667 31.6680208333333  4.58139616666667 32.0840908333333  4.6223015 32.4994075  C 4.66320633333333 32.9147241666667  4.714276 33.3287875  4.7755105 33.7415975  C 4.83674483333333 34.1544075  4.90807025 34.5654658333333  4.98948675 34.9747725  C 5.07090325 35.3840808333333  5.16231258333333 35.791145  5.26371475 36.195965  C 5.36511658333333 36.6007833333333  5.47638933333333 37.0028716666667  5.597533 37.40223  C 5.71867666666667 37.801585  5.84954483333333 38.1977283333333  5.9901375 38.59066  C 6.1307305 38.9835916666667  6.28087891666667 39.3728366666667  6.44058275 39.758395  C 6.60028625 40.1439533333333  6.76935325 40.5253616666667  6.94778375 40.90262  C 7.12621391666667 41.2798766666667  7.31379233333333 41.6525308333333  7.510519 42.0205825  C 7.70724533333333 42.3886275  7.91288275 42.7516283333333  8.12743125 43.109585  C 8.34198025 43.4675366666667  8.56518175 43.8200091666667  8.79703575 44.1670025  C 9.02889025 44.5139975  9.26911825 44.855095  9.51771975 45.190295  C 9.76632125 45.5254966666667  10.02299675 45.8543966666667  10.28774625 46.176995  C 10.5524949166667 46.4995916666667  10.824999 46.8155  11.1052585 47.12472  C 11.385518 47.4339383333333  11.6731946666667 47.7360958333333  11.9682885 48.0311925  C 12.2633831666667 48.3262875  12.56553975 48.6139633333333  12.87475825 48.89422  C 13.1839775833333 49.1744783333333  13.4998861666667 49.4469825  13.822484 49.7117325  C 14.1450801666667 49.9764825  14.4739781666667 50.2331575  14.809178 50.4817575  C 15.1443778333333 50.7303625  15.485475 50.9705916666667  15.8324695 51.202445  C 16.1794638333333 51.4342983333333  16.5319370833333 51.6575008333333  16.88988925 51.8720525  C 17.2478429166667 52.0866008333333  17.61084475 52.2922383333333  17.97889475 52.488965  C 18.3469430833333 52.68569  18.7195968333333 52.8732666666667  19.096856 53.051695  C 19.4741153333333 53.230125  19.8555246666667 53.3991925  20.241084 53.5588975  C 20.6266435 53.7186025  21.0158889166667 53.8687525  21.40882025 54.0093475  C 21.8017514166667 54.1499408333333  22.19789575 54.2808083333333  22.59725325 54.40195  C 22.99660925 54.5230933333333  23.3986966666667 54.634365  23.8035155 54.735765  C 24.2083358333333 54.8371666666667  24.6153998333333 54.9285766666667  25.0247075 55.009995  C 25.4340158333333 55.0914133333333  25.845075 55.1627383333333  26.257885 55.22397  C 26.670695 55.2852083333333  27.0847591666667 55.3362808333333  27.5000775 55.3771875  C 27.9153958333333 55.4180875  28.3314658333333 55.4487766666667  28.7482875 55.469255  C 29.1651125 55.4897333333333  29.5821875 55.4999725  29.9995125 55.4999725  C 30.4168391666667 55.4999725  30.833915 55.4897333333333  31.25074 55.469255  C 31.6675633333333 55.4487766666667  32.0836333333333 55.4180875  32.49895 55.3771875  C 32.9142666666667 55.3362808333333  33.32833 55.28521  33.74114 55.223975  C 34.1539483333333 55.16274  34.5650058333333 55.0914133333333  34.9743125 55.009995  C 35.3836208333333 54.9285766666667  35.7906858333333 54.8371666666667  36.1955075 54.735765  C 36.6003258333333 54.634365  37.0024141666667 54.5230933333333  37.4017725 54.40195  C 37.8011275 54.2808016666667  38.19727 54.1499325  38.5902 54.0093425  C 38.9831316666667 53.8687458333333  39.3723766666667 53.7185958333333  39.757935 53.5588925  C 40.143495 53.3991908333333  40.5249041666667 53.2301233333333  40.9021625 53.05169  C 41.2794191666667 52.8732616666667  41.6520733333333 52.685685  42.020125 52.48896  C 42.3881766666667 52.2922333333333  42.7511783333333 52.0865941666667  43.10913 51.8720425  C 43.4670833333333 51.6574958333333  43.8195566666667 51.434295  44.16655 51.20244  C 44.513545 50.9705866666667  44.8546425 50.7303591666667  45.1898425 50.4817575  C 45.5250441666667 50.2331541666667  45.8539425 49.9764791666667  46.1765375 49.7117325  C 46.4991341666667 49.4469825  46.8150425 49.1744783333333  47.1242625 48.89422  C 47.4334808333333 48.6139633333333  47.7356383333333 48.3262875  48.030735 48.0311925  C 48.32583 47.7360958333333  48.6135075 47.4339383333333  48.8937675 47.12472  C 49.1740258333333 46.8155  49.44653 46.4995916666667  49.71128 46.176995  C 49.97603 45.8544  50.2327033333333 45.5255  50.4813 45.190295  C 50.7299033333333 44.8550983333333  50.9701308333333 44.5140025  51.2019825 44.1670075  C 51.4338391666667 43.8200141666667  51.6570416666667 43.4675408333333  51.87159 43.1095875  C 52.0861383333333 42.7516358333333  52.2917775 42.3886358333333  52.4885075 42.0205875  C 52.6852325 41.6525358333333  52.8728091666667 41.2798816666667  53.0512375 40.902625  C 53.2296675 40.5253633333333  53.398735 40.1439533333333  53.55844 39.758395  C 53.718145 39.3728366666667  53.868295 38.9835916666667  54.00889 38.59066  C 54.1494833333333 38.1977283333333  54.2803525 37.801585  54.4014975 37.40223  C 54.5226391666667 37.0028716666667  54.6339108333333 36.6007825  54.7353125 36.1959625  C 54.8367158333333 35.7911441666667  54.9281258333333 35.3840808333333  55.0095425 34.9747725  C 55.0909575 34.5654658333333  55.1622825 34.1544075  55.2235175 33.7415975  C 55.2847525 33.3287875  55.3358233333333 32.9147241666667  55.37673 32.4994075  C 55.4176333333333 32.0840908333333  55.4483241666667 31.6680208333333  55.4688025 31.2511975  Z M 10.9305275 36.4762125  C 10.65544975 34.413125  11.34314425 32.69389  12.99361225 31.4560375  C 14.712851 30.0806475  16.638397 30.0118775  18.70148175 31.18096  C 20.76456775 32.3500425  23.03396225 32.48758  25.3721225 31.662345  C 25.92228 31.4560375  26.1973575 31.04342  26.1973575 30.493265  C 26.1973575 29.9431075  25.85351 29.5992625  25.165815 29.5992625  C 23.79042625 29.5304925  22.41503725 29.186645  20.90210675 28.49895  C 19.595486 27.880025  18.426404 27.1235575  17.46363175 26.2295525  C 14.3690025 23.4100055  13.818847 20.17783875  15.74439275 16.4642835  C 16.500857 15.08889425  17.66994 13.9198125  19.320407 12.8882695  C 20.90210675 11.8567275  22.6213455 11.23780125  24.40935125 10.9627235  C 26.4724370833333 10.6876456666667  28.1229058333333 11.3753405833333  29.3607575 13.02580825  C 30.5986075 14.67627775  30.736145 16.6018225  29.567065 18.6649085  C 28.94814 19.83399025  28.6042925 21.07184175  28.6042925 22.37846125  C 28.6042925 23.478775  28.7418325 24.4415475  29.08568 25.40432  C 29.2919875 25.885705  29.704605 26.2295525  30.25476 26.160785  C 30.804915 26.092015  31.148765 25.7481675  31.148765 25.1292425  C 31.2175325 23.82262225  31.63015 22.37846125  32.317845 20.86553325  C 32.93677 19.55891125  33.624465 18.3898305  34.51847 17.427057  C 37.3380175 14.40119875  40.5701825 13.851043  44.2837425 15.776589  C 45.6591325 16.4642835  46.8282125 17.6333655  47.859755 19.2838335  C 48.8912975 20.86553325  49.5102225 22.584772  49.7853 24.372778  C 50.0603775 26.4358625  49.3726825 28.1551  47.722215 29.3929525  C 46.00298 30.6995725  44.077435 30.7683425  42.01435 29.5992625  C 40.845265 28.980335  39.607415 28.63649  38.3007925 28.63649  C 37.26925 28.63649  36.3064775 28.8427975  35.343705 29.186645  C 34.793545 29.3241825  34.51847 29.7368  34.51847 30.286955  C 34.51847 30.8371125  34.8623175 31.18096  35.5500125 31.18096  C 36.9254025 31.2497275  38.3007925 31.662345  39.8137225 32.3500425  C 41.1891075 32.9689675  42.289425 33.72543  43.2522 34.619435  C 46.3468275 37.370215  46.8969825 40.60238  44.9714375 44.31594  C 44.2837425 45.6913275  43.1146575 46.86041  41.46419 47.89195  C 39.88249 48.9234925  38.1632525 49.5424175  36.375245 49.817495  C 34.3121625 50.1613425  32.5929225 49.4736475  31.3550725 47.82318  C 30.11722 46.172715  29.9796825 44.247165  31.148765 42.18408  C 32.317845 40.1209925  32.455385 37.8516025  31.63015 35.44467  C 31.3550725 34.9632825  31.011225 34.6882025  30.4610675 34.6882025  C 29.9109125 34.6882025  29.567065 35.0320525  29.567065 35.719745  C 29.498295 37.0951375  29.08568 38.4705275  28.397985 39.983455  C 27.7790575 41.3588475  27.0913625 42.4591625  26.1973575 43.4219325  C 23.3778095 46.4477925  20.14564275 46.9979475  16.4320875 45.0724025  C 15.05669825 44.3847075  13.8876165 43.2156225  12.8560735 41.565155  C 11.8245315 39.983455  11.20560525 38.26422  10.9305275 36.4762125  Z M 31.8365025 31.799835  C 32.18035 31.3872175  32.3866575 30.90583  32.3866575 30.3556725  C 32.3866575 29.8055175  32.24912 29.3929  31.8365025 28.9802825  C 31.423885 28.5676675  31.01127 28.4301275  30.46111 28.3613575  C 29.9109566666667 28.3613575  29.4295708333333 28.5676658333333  29.0169525 28.9802825  C 28.673105 29.32413  28.4667975 29.8055175  28.4667975 30.3556725  C 28.4667975 30.90583  28.604335 31.3872175  29.0169525 31.799835  C 29.42957 32.14368  29.910955 32.34999  30.46111 32.34999  C 31.01127 32.34999  31.423885 32.14368  31.8365025 31.799835  Z " fill-rule="nonzero" fill="url(#LinearGradient5308)" stroke="none" transform="matrix(1 0 0 1 997 280 )" />
  </g>
</svg>