<?xml version="1.0" encoding="utf-8"?>
<svg version="1.1" xmlns:xlink="http://www.w3.org/1999/xlink" width="28px" height="28px" xmlns="http://www.w3.org/2000/svg">
  <g transform="matrix(1 0 0 1 -1738 -54 )">
    <path d="M 21 11.0526315789474  L 28 11.0526315789474  L 28 4.17543859649123  L 25.717 6.41838596491228  C 23.1279070196255 2.56445961587713  18.7421427486348 0.245262065227261  14.042 0.244631578947368  C 6.31 0.244631578947369  0.0409999999999999 6.40266666666667  0.0409999999999999 14  C 0.0409999999999999 21.5973333333333  6.31 27.7553684210526  14.042 27.7553684210526  C 19.7418559076427 27.756484152938  24.8735320716087 24.3630082912927  27.018 19.1745964912281  C 27.0762506771024 19.0337111326548  27.1062018379581 18.8830827023138  27.1062018379581 18.7310175438597  C 27.1062018379581 18.0800646728228  26.5690770294482 17.5523631065675  25.9065 17.5523631065675  C 25.4182718130417 17.5523631065675  24.9787415092961 17.8430405274961  24.795 18.2874385964912  C 23.0172928035596 22.5863977062277  18.7650522592513 25.3980390594737  14.042 25.3974736842105  C 7.635 25.3974736842105  2.441 20.2945964912281  2.441 14  C 2.441 7.70540350877193  7.635 2.60252631578947  14.042 2.60252631578947  C 18.181 2.60252631578947  21.915 4.7541052631579  23.98 8.1239298245614  L 21 11.0526315789474  Z " fill-rule="nonzero" fill="#ffffff" stroke="none" fill-opacity="0.996078431372549" transform="matrix(1 0 0 1 1738 54 )" />
  </g>
</svg>