<?xml version="1.0" encoding="utf-8"?>
<svg version="1.1" xmlns:xlink="http://www.w3.org/1999/xlink" width="466px" height="56px" xmlns="http://www.w3.org/2000/svg">
  <g transform="matrix(1 0 0 1 -1366 -624 )">
    <path d="M 1367 628  A 3 3 0 0 1 1370 625 L 1828 625  A 3 3 0 0 1 1831 628 L 1831 676  A 3 3 0 0 1 1828 679 L 1370 679  A 3 3 0 0 1 1367 676 L 1367 628  Z " fill-rule="nonzero" fill="#ffffff" stroke="none" fill-opacity="0" />
    <path d="M 1366.5 628  A 3.5 3.5 0 0 1 1370 624.5 L 1828 624.5  A 3.5 3.5 0 0 1 1831.5 628 L 1831.5 676  A 3.5 3.5 0 0 1 1828 679.5 L 1370 679.5  A 3.5 3.5 0 0 1 1366.5 676 L 1366.5 628  Z " stroke-width="1" stroke="#797979" fill="none" stroke-opacity="0.819607843137255" />
  </g>
</svg>