<?xml version="1.0" encoding="utf-8"?>
<svg version="1.1" xmlns:xlink="http://www.w3.org/1999/xlink" width="225px" height="225px" xmlns="http://www.w3.org/2000/svg">
  <defs>
    <linearGradient gradientUnits="userSpaceOnUse" x1="959.5" y1="480" x2="959.5" y2="705" id="LinearGradient2922">
      <stop id="Stop2923" stop-color="#325bee" stop-opacity="0.447058823529412" offset="0" />
      <stop id="Stop2924" stop-color="#000000" offset="1" />
    </linearGradient>
  </defs>
  <g transform="matrix(1 0 0 1 -847 -480 )">
    <path d="M 847.5 496  A 15.5 15.5 0 0 1 863 480.5 L 1056 480.5  A 15.5 15.5 0 0 1 1071.5 496 L 1071.5 689  A 15.5 15.5 0 0 1 1056 704.5 L 863 704.5  A 15.5 15.5 0 0 1 847.5 689 L 847.5 496  Z " fill-rule="nonzero" fill="url(#LinearGradient2922)" stroke="none" />
    <path d="M 847.5 496  A 15.5 15.5 0 0 1 863 480.5 L 1056 480.5  A 15.5 15.5 0 0 1 1071.5 496 L 1071.5 689  A 15.5 15.5 0 0 1 1056 704.5 L 863 704.5  A 15.5 15.5 0 0 1 847.5 689 L 847.5 496  Z " stroke-width="1" stroke="#ffffff" fill="none" />
  </g>
</svg>