<?xml version="1.0" encoding="utf-8"?>
<svg version="1.1" xmlns:xlink="http://www.w3.org/1999/xlink" width="48px" height="48px" xmlns="http://www.w3.org/2000/svg">
  <g transform="matrix(1 0 0 1 -1521 -88 )">
    <path d="M 1545 88.5  C 1558.16 88.5  1568.5 98.84  1568.5 112  C 1568.5 125.16  1558.16 135.5  1545 135.5  C 1531.84 135.5  1521.5 125.16  1521.5 112  C 1521.5 98.84  1531.84 88.5  1545 88.5  Z " fill-rule="nonzero" fill="#1990ff" stroke="none" fill-opacity="0" />
    <path d="M 1545 88.5  C 1558.16 88.5  1568.5 98.84  1568.5 112  C 1568.5 125.16  1558.16 135.5  1545 135.5  C 1531.84 135.5  1521.5 125.16  1521.5 112  C 1521.5 98.84  1531.84 88.5  1545 88.5  Z " stroke-width="1" stroke="#ffffff" fill="none" stroke-opacity="0.4" />
  </g>
</svg>