<?xml version="1.0" encoding="utf-8"?>
<svg version="1.1" xmlns:xlink="http://www.w3.org/1999/xlink" width="224px" height="96px" xmlns="http://www.w3.org/2000/svg">
  <defs>
    <linearGradient gradientUnits="userSpaceOnUse" x1="508.513227513228" y1="392.724130190796" x2="687.273620559334" y2="441.770145903479" id="LinearGradient2969">
      <stop id="Stop2970" stop-color="#cad2ec" stop-opacity="0.235294117647059" offset="0" />
      <stop id="Stop2971" stop-color="#ffffff" stop-opacity="0.0784313725490196" offset="1" />
    </linearGradient>
    <radialGradient cx="498.565597667638" cy="382.472406605739" r="222.743025864807" gradientTransform="matrix(0.994534200561022 0.104411320815555 -0.0390400533886948 0.37186262929643 17.6568027376161 188.189319286321 )" gradientUnits="userSpaceOnUse" id="RadialGradient2972">
      <stop id="Stop2973" stop-color="#ffffff" stop-opacity="0.549019607843137" offset="0" />
      <stop id="Stop2974" stop-color="#ffffff" stop-opacity="0" offset="0.99" />
    </radialGradient>
    <filter x="495px" y="377px" width="224px" height="96px" filterUnits="userSpaceOnUse" id="filter2975">
      <feOffset dx="1" dy="1" in="SourceAlpha" result="shadowOffsetInner" />
      <feGaussianBlur stdDeviation="1" in="shadowOffsetInner" result="shadowGaussian" />
      <feComposite in2="shadowGaussian" operator="atop" in="SourceAlpha" result="shadowComposite" />
      <feColorMatrix type="matrix" values="0 0 0 0 0.00784313725490196  0 0 0 0 0.654901960784314  0 0 0 0 0.941176470588235  0 0 0 0.552941176470588 0  " in="shadowComposite" />
    </filter>
    <g id="widget2976">
      <path d="M 496.5 390  A 11.5 11.5 0 0 1 508 378.5 L 704 378.5  A 11.5 11.5 0 0 1 715.5 390 L 715.5 458  A 11.5 11.5 0 0 1 704 469.5 L 508 469.5  A 11.5 11.5 0 0 1 496.5 458 L 496.5 390  Z " fill-rule="nonzero" fill="url(#LinearGradient2969)" stroke="none" />
      <path d="M 496.5 390  A 11.5 11.5 0 0 1 508 378.5 L 704 378.5  A 11.5 11.5 0 0 1 715.5 390 L 715.5 458  A 11.5 11.5 0 0 1 704 469.5 L 508 469.5  A 11.5 11.5 0 0 1 496.5 458 L 496.5 390  Z " stroke-width="1" stroke="url(#RadialGradient2972)" fill="none" />
    </g>
  </defs>
  <g transform="matrix(1 0 0 1 -495 -377 )">
    <use xlink:href="#widget2976" filter="url(#filter2975)" />
    <use xlink:href="#widget2976" />
  </g>
</svg>