<?xml version="1.0" encoding="utf-8"?>
<svg version="1.1" xmlns:xlink="http://www.w3.org/1999/xlink" width="15px" height="9px" xmlns="http://www.w3.org/2000/svg">
  <g transform="matrix(1 0 0 1 -1815 -464 )">
    <path d="M 8.061530625 8.63337128571429  C 7.91850975506757 8.78766211607143  7.72275060810811 8.87460658928571  7.51840913006757 8.87460658928571  C 7.31409359797297 8.87460658928571  7.11830850506757 8.78766211607143  6.97528763513513 8.63337128571428  L 0.384504298986487 1.52428952678571  C 0.0905025506756756 1.20721079464286  0.0953770945945947 0.698207330357144  0.395342356418919 0.387432883928571  C 0.695281697635135 0.0766858660714281  1.1767974070946 0.0817841249999997  1.47074728885135 0.398890258928572  L 7.51840913006757 6.92213836607143  L 13.5660709966216 0.398890258928572  C 13.8600208783784 0.0817566964285718  14.3414847212838 0.0765762053571437  14.6414759290541 0.387432883928571  C 14.9414671368243 0.698234732142857  14.9463157347973 1.20721079464286  14.6523139864865 1.52428952678571  L 8.061530625 8.63337128571429  Z " fill-rule="nonzero" fill="#ffffff" stroke="none" fill-opacity="0.996078431372549" transform="matrix(1 0 0 1 1815 464 )" />
  </g>
</svg>