<?xml version="1.0" encoding="utf-8"?>
<svg version="1.1" xmlns:xlink="http://www.w3.org/1999/xlink" width="24px" height="21px" xmlns="http://www.w3.org/2000/svg">
  <g transform="matrix(1 0 0 1 -119 -14 )">
    <path d="M 1.06930693069307 18.6980198019802  L 22.9306930693069 18.6980198019802  C 23.5212546534653 18.6980198019802  24 19.1767636277228  24 19.7673267326733  C 24 20.3578883168317  23.5212546534653 20.8366336633663  22.9306930693069 20.8366336633663  L 1.06930693069307 20.8366336633663  C 0.478744844673267 20.8366336633663  0 20.3578883168317  0 19.7673267326733  C 0 19.1767636277228  0.478744844673267 18.6980198019802  1.06930693069307 18.6980198019802  Z M 1.06930693069307 9.43069306930693  L 22.9306930693069 9.43069306930693  C 23.5212546534653 9.43069306930693  24 9.90943735128713  24 10.5  C 24 11.0905611279208  23.5212546534653 11.5693069306931  22.9306930693069 11.5693069306931  L 1.06930693069307 11.5693069306931  C 0.478744844673267 11.5693069306931  0 11.0905611279208  0 10.5  C 0 9.90943735128713  0.478744844673267 9.43069306930693  1.06930693069307 9.43069306930693  Z M 1.06930693069307 0.163366336633663  L 22.9306930693069 0.163366336633663  C 23.5212546534653 0.163366336633663  24 0.642111500673267  24 1.23267326732673  C 24 1.82323485148515  23.5212546534653 2.3019801980198  22.9306930693069 2.3019801980198  L 1.06930693069307 2.3019801980198  C 0.478744844673267 2.3019801980198  0 1.82323485148515  0 1.23267326732673  C 0 0.642111500673267  0.478744844673267 0.163366336633663  1.06930693069307 0.163366336633663  Z " fill-rule="nonzero" fill="#ffffff" stroke="none" fill-opacity="0.996078431372549" transform="matrix(1 0 0 1 119 14 )" />
  </g>
</svg>