<?xml version="1.0" encoding="utf-8"?>
<svg version="1.1" xmlns:xlink="http://www.w3.org/1999/xlink" width="21px" height="21px" xmlns="http://www.w3.org/2000/svg">
  <g transform="matrix(1 0 0 1 -35 -14 )">
    <path d="M 1.05791567210363 11.4048605404095  L 8.53722307490044 11.4048605404095  C 9.10410953333678 11.4048605404095  9.56366052441266 11.8644115310934  9.56366052441266 12.4312979890463  L 9.56366052441266 19.9735625513631  C 9.56366052441266 20.5404479874405  9.10410953333678 21  8.53722307490044 21  L 1.05791567210363 21  C 0.491029797596157 21  0.0314782225914122 20.5404479874405  0.0314782225914122 19.9735625513631  L 0.0314782225914122 12.4312979890463  C 0.0314782225914122 11.8644115310934  0.491029797596157 11.4048605404095  1.05791567210363 11.4048605404095  Z M 12.4627762222394 11.4048605404095  L 19.9420845009295 11.4048605404095  C 20.5089713973125 11.4048605404095  20.9685219504417 11.8644115310934  20.9685219504417 12.4312979890463  L 20.9685219504417 19.9735625513631  C 20.9685219504417 20.5404479874405  20.5089713973125 21  19.9420845009295 21  L 12.4627762222394 21  C 11.8958897638031 21  11.4363387727272 20.5404479874405  11.4363387727272 19.9735625513631  L 11.4363387727272 12.4312979890463  C 11.4363387727272 11.8644115310934  11.8958897638031 11.4048605404095  12.4627762222394 11.4048605404095  Z M 7.51078562538823 18.9471251027263  L 7.51078562538823 13.4577354376832  L 2.08435312161585 13.4577354376832  L 2.08435312161585 18.9471251027263  L 7.51078562538823 18.9471251027263  Z M 18.9156470514173 18.9471251027263  L 18.9156470514173 13.4577354376832  L 13.4892136717516 13.4577354376832  L 13.4892136717516 18.9471251027263  L 18.9156470514173 18.9471251027263  Z M 1.05791567210363 0  L 8.53722307490044 0  C 9.10410953333678 0  9.56366052441266 0.459552392113234  9.56366052441266 1.02643806176216  L 9.56366052441266 8.56870055113152  C 9.56366052441266 9.1355870090844  9.10410953333678 9.59513872967945  8.53722307490044 9.59513872967945  L 1.05791567210363 9.59513872967945  C 0.491029797596157 9.59513872967945  0.0314782225914122 9.1355870090844  0.0314782225914122 8.56870055113152  L 0.0314782225914122 1.02643744863685  C 0.0314782225914122 0.459551837380818  0.491029797596157 0  1.05791567210363 0  Z M 12.4627762222394 0  L 19.9420845009295 0  C 20.5089713973125 0  20.9685219504417 0.459552392113234  20.9685219504417 1.02643806176216  L 20.9685219504417 8.56870055113152  C 20.9685219504417 9.1355870090844  20.5089713973125 9.59513872967945  19.9420845009295 9.59513872967945  L 12.4627762222394 9.59513872967945  C 11.8958897638031 9.59513872967945  11.4363387727272 9.1355870090844  11.4363387727272 8.56870055113152  L 11.4363387727272 1.02643744863685  C 11.4363387727272 0.459551837380818  11.8958897638031 0  12.4627762222394 0  Z M 7.51078562538823 7.54226310249467  L 7.51078562538823 2.05287548120257  L 2.08435312161585 2.05287548120257  L 2.08435312161585 7.54226310249467  L 7.51078562538823 7.54226310249467  Z M 18.9156470514173 7.54226310249467  L 18.9156470514173 2.05287548120257  L 13.4892136717516 2.05287548120257  L 13.4892136717516 7.54226310249467  L 18.9156470514173 7.54226310249467  Z " fill-rule="nonzero" fill="#ffffff" stroke="none" fill-opacity="0.996078431372549" transform="matrix(1 0 0 1 35 14 )" />
  </g>
</svg>