<?xml version="1.0" encoding="utf-8"?>
<svg version="1.1" xmlns:xlink="http://www.w3.org/1999/xlink" width="14px" height="14px" xmlns="http://www.w3.org/2000/svg">
  <g transform="matrix(1 0 0 1 -1406 -316 )">
    <path d="M 9.07301585714285 7.04126985714285  L 13.74603175 11.7142857142857  C 14.0507936428571 12.0190476071429  14.0507936428571 12.5269841428571  13.74603175 12.7301587142857  L 12.7301587142857 13.74603175  C 12.4253968214286 14.0507936428571  11.9174602857143 14.0507936428571  11.7142857142857 13.74603175  L 7.04126985714286 9.07301585714285  L 2.36825396428571 13.74603175  C 2.06349207142857 14.0507936428571  1.55555553571428 14.0507936428571  1.35238096428571 13.74603175  L 0.33650792857143 12.7301587142857  C 0.0317460357142859 12.4253968214286  0.0317460357142859 11.9174602857143  0.33650792857143 11.7142857142857  L 5.00952382142857 7.04126985714285  L 0.33650792857143 2.36825396428571  C 0.0317460357142859 2.06349207142857  0.0317460357142859 1.55555553571428  0.33650792857143 1.35238096428571  L 1.35238096428571 0.336507928571426  C 1.65714285714286 0.0317460357142819  2.16507939285714 0.0317460357142819  2.36825396428571 0.336507928571426  L 7.04126985714286 5.00952382142857  L 11.7142857142857 0.336507928571426  C 12.0190476071429 0.0317460357142819  12.5269841428571 0.0317460357142819  12.7301587142857 0.336507928571426  L 13.74603175 1.35238096428571  C 14.0507936428571 1.65714285714285  14.0507936428571 2.16507939285714  13.74603175 2.36825396428571  L 9.07301585714285 7.04126985714285  Z " fill-rule="nonzero" fill="#ffffff" stroke="none" transform="matrix(1 0 0 1 1406 316 )" />
  </g>
</svg>