<?xml version="1.0" encoding="utf-8"?>
<svg version="1.1" xmlns:xlink="http://www.w3.org/1999/xlink" width="21px" height="21px" xmlns="http://www.w3.org/2000/svg">
  <g transform="matrix(1 0 0 1 -1757 -36 )">
    <path d="M 15.75 8.28947368421053  L 21 8.28947368421053  L 21 3.13157894736842  L 19.28775 4.81378947368421  C 17.3459302647191 1.92334471190785  14.0566070614761 0.183946548920446  10.5315 0.183473684210526  C 4.7325 0.183473684210526  0.0307499999999999 4.802  0.0307499999999999 10.5  C 0.0307499999999999 16.198  4.7325 20.8165263157895  10.5315 20.8165263157895  C 14.806391930732 20.8173631147035  18.6551490537065 18.2722562184695  20.2635 14.3809473684211  C 20.3071880078268 14.2752833494911  20.3296513784686 14.1623120267353  20.3296513784686 14.0482631578947  C 20.3296513784686 13.5600485046171  19.9268077720862 13.1642723299256  19.429875 13.1642723299256  C 19.0637038597813 13.1642723299256  18.734056131972 13.3822803956221  18.59625 13.7155789473684  C 17.2629696026697 16.9397982796708  14.0737891944385 19.0485292946053  10.5315 19.0481052631579  C 5.72625 19.0481052631579  1.83075 15.2209473684211  1.83075 10.5  C 1.83075 5.77905263157895  5.72625 1.95189473684211  10.5315 1.95189473684211  C 13.63575 1.95189473684211  16.43625 3.56557894736842  17.985 6.09294736842105  L 15.75 8.28947368421053  Z " fill-rule="nonzero" fill="#ffffff" stroke="none" fill-opacity="0.996078431372549" transform="matrix(1 0 0 1 1757 36 )" />
  </g>
</svg>