<?xml version="1.0" encoding="utf-8"?>
<svg version="1.1" xmlns:xlink="http://www.w3.org/1999/xlink" width="600px" height="270px" xmlns="http://www.w3.org/2000/svg">
  <defs>
    <linearGradient gradientUnits="userSpaceOnUse" x1="1248.16049064118" y1="504.921579532814" x2="676.829795300677" y2="504.921579532814" id="LinearGradient25530">
      <stop id="Stop25531" stop-color="#ffffff" stop-opacity="0.0470588235294118" offset="0" />
      <stop id="Stop25532" stop-color="#ffffff" stop-opacity="0.0392156862745098" offset="1" />
    </linearGradient>
    <radialGradient cx="665.377574370707" cy="380.304347826088" r="605.745441001357" gradientTransform="matrix(0.991492181056675 0.130166258698161 -0.0676282378501784 0.51513249069085 31.3802248219341 97.7875124323839 )" gradientUnits="userSpaceOnUse" id="RadialGradient25533">
      <stop id="Stop25534" stop-color="#ffffff" stop-opacity="0.403921568627451" offset="0" />
      <stop id="Stop25535" stop-color="#ffffff" stop-opacity="0" offset="1" />
    </radialGradient>
  </defs>
  <g transform="matrix(1 0 0 1 -660 -373 )">
    <path d="M 660.5 397  A 23.5 23.5 0 0 1 684 373.5 L 1236 373.5  A 23.5 23.5 0 0 1 1259.5 397 L 1259.5 619  A 23.5 23.5 0 0 1 1236 642.5 L 684 642.5  A 23.5 23.5 0 0 1 660.5 619 L 660.5 397  Z " fill-rule="nonzero" fill="url(#LinearGradient25530)" stroke="none" />
    <path d="M 660.5 397  A 23.5 23.5 0 0 1 684 373.5 L 1236 373.5  A 23.5 23.5 0 0 1 1259.5 397 L 1259.5 619  A 23.5 23.5 0 0 1 1236 642.5 L 684 642.5  A 23.5 23.5 0 0 1 660.5 619 L 660.5 397  Z " stroke-width="1" stroke="url(#RadialGradient25533)" fill="none" />
  </g>
</svg>