<?xml version="1.0" encoding="utf-8"?>
<svg version="1.1" xmlns:xlink="http://www.w3.org/1999/xlink" width="5px" height="24px" xmlns="http://www.w3.org/2000/svg">
  <g transform="matrix(1 0 0 1 -1801 -122 )">
    <path d="M 2.5 4.51461989473684  C 3.83333332386363 4.51461989473684  4.92424241477273 3.50409357894737  4.92424241477273 2.26900584210526  C 4.92424241477273 1.03391813157895  3.83333332386363 0.0233918157894737  2.5 0.0233918157894737  C 1.16666667613637 0.0233918157894737  0.0757575852272732 1.03391813157895  0.0757575852272732 2.26900584210526  C 0.0757575852272732 3.50409355263158  1.16666667613636 4.51461989473684  2.5 4.51461989473684  Z M 2.5 23.9766081842105  C 3.83333332386363 23.9766081842105  4.92424241477273 22.9660818684211  4.92424241477273 21.7309941578947  C 4.92424241477273 20.4959064473684  3.83333332386364 19.485380131579  2.5 19.4853801052632  C 1.16666667613636 19.4853800789474  0.0757575852272732 20.4959064210526  0.0757575852272732 21.7309941578947  C 0.0757575852272732 22.9660818947368  1.16666667613636 23.9766081842105  2.5 23.9766081842105  Z M 2.5 14.2456140263158  C 3.83333332386363 14.2456140263158  4.92424241477273 13.2350877105263  4.92424241477273 12  C 4.92424241477273 10.7649122894737  3.83333332386364 9.75438597368421  2.5 9.75438597368421  C 1.16666667613636 9.75438597368421  0.0757575852272732 10.7649122894737  0.0757575852272732 12  C 0.0757575852272732 13.2350877105263  1.16666667613636 14.2456140263158  2.5 14.2456140263158  Z " fill-rule="nonzero" fill="#ffffff" stroke="none" fill-opacity="0.996078431372549" transform="matrix(1 0 0 1 1801 122 )" />
  </g>
</svg>