<?xml version="1.0" encoding="utf-8"?>
<svg version="1.1" xmlns:xlink="http://www.w3.org/1999/xlink" width="26px" height="28px" xmlns="http://www.w3.org/2000/svg">
  <g transform="matrix(1 0 0 1 -1335 -642 )">
    <path d="M 17.7127407407407 2.0406779661017  C 17.4623466471939 1.6029759157518  17.1257898872889 1.21896939750523  16.7228148148148 0.911186440677966  C 16.1391572224343 0.494509564424657  15.4484676572995 0.247848702775672  14.7294814814815 0.199322033898305  C 14.2064346183331 0.16411729337735  13.682137469333 0.15018455604101  13.1579259259259 0.157559322033898  L 12.8401481481481 0.157559322033898  C 12.3326046529048 0.148138579424615  11.824891633387 0.162074649499739  11.3186666666667 0.199322033898305  C 10.5831850502581 0.24957153359453  9.87787592168998 0.507221585397547  9.28681481481481 0.941559322033898  C 8.87923724711237 1.26209132738847  8.5423772195685 1.66130119490179  8.29688888888889 2.11471186440678  C 8.06192592592592 2.52094915254237  7.82888888888889 3.02589830508475  7.56503703703704 3.59918644067797  L 7.10666666666667 4.58630508474576  L 1.44444444444444 4.58630508474576  C 0.734983545809954 4.58630508474576  0.159851851851852 5.15318847540068  0.159851851851852 5.85247457627119  C 0.159851851851852 6.55176067714169  0.734983545809954 7.11864406779661  1.44444444444444 7.11864406779661  L 2.40740740740741 7.11864406779661  L 2.40740740740741 23.2542372881356  C 2.40740740740741 25.8752496602139  4.56307342674062 28  7.22222222222222 28  L 18.7777777777778 28  C 21.4369265732594 28  23.5925925925926 25.8752496602139  23.5925925925926 23.2542372881356  L 23.5925925925926 7.11864406779661  L 24.5555555555556 7.11864406779661  C 25.2451503650418 7.09231098079993  25.7904178467147 6.53363855802228  25.7904178467147 5.85342372881356  C 25.7904178467147 5.17320889960483  25.2451503650418 4.61453647682719  24.5555555555556 4.58820338983051  L 19.0108148148148 4.58820338983051  L 18.4638518518519 3.47389830508475  C 18.2338716557717 2.98604147382608  17.9832821141951 2.50788315289192  17.7127407407407 2.0406779661017  Z M 15.5114074074074 3.34481355932203  C 15.6808888888889 3.62006779661017  15.8677037037037 3.99593220338983  16.1585185185185 4.58820338983051  L 9.92814814814815 4.58820338983051  C 10.1101633015741 4.17408735012024  10.309343220791 3.76750799969006  10.5251851851852 3.36949152542373  C 10.7183476995593 2.98272911069947  11.1126082957651 2.732910792895  11.5497777777778 2.72027118644068  C 11.8925925925926 2.68989830508475  12.3374814814815 2.68989830508475  13.0442962962963 2.68989830508475  C 13.7337777777778 2.68989830508475  14.169037037037 2.68989830508475  14.5002962962963 2.72027118644068  C 14.9269996287688 2.73329384237354  15.3134543612203 2.97199891935687  15.5114074074074 3.34481355932203  Z M 10.7524444444444 20.3593220338983  C 10.7524444444444 20.883524508314  10.3213112405778 21.3084745762712  9.78948148148148 21.3084745762712  C 9.25765172238516 21.3084745762712  8.82651851851852 20.883524508314  8.82651851851852 20.3593220338983  L 8.82651851851852 12.7661016949153  C 8.82651851851852 12.2418992204996  9.25765172238516 11.8169491525424  9.78948148148148 11.8169491525424  C 10.3213112405778 11.8169491525424  10.7524444444444 12.2418992204996  10.7524444444444 12.7661016949153  L 10.7524444444444 20.3593220338983  Z M 17.1734814814815 12.7661016949153  L 17.1734814814815 20.3593220338983  C 17.1734814814815 20.883524508314  16.7423482776148 21.3084745762712  16.2105185185185 21.3084745762712  C 15.6786887594222 21.3084745762712  15.2475555555556 20.883524508314  15.2475555555556 20.3593220338983  L 15.2475555555556 12.7661016949153  C 15.2475555555556 12.2418992204996  15.6786887594222 11.8169491525424  16.2105185185185 11.8169491525424  C 16.7423482776148 11.8169491525424  17.1734814814815 12.2418992204996  17.1734814814815 12.7661016949153  Z " fill-rule="nonzero" fill="#ffffff" stroke="none" transform="matrix(1 0 0 1 1335 642 )" />
  </g>
</svg>