<?xml version="1.0" encoding="utf-8"?>
<svg version="1.1" xmlns:xlink="http://www.w3.org/1999/xlink" width="26px" height="26px" xmlns="http://www.w3.org/2000/svg">
  <g transform="matrix(1 0 0 1 -1312 -33 )">
    <path d="M 25.5427043650794 23.4784126984127  L 15.0042698412698 12.940003968254  L 25.5426785714286 2.40156944444444  C 26.075369047619 1.86885317460317  26.075369047619 0.994371031746032  25.5426785714286 0.461654761904762  L 25.4849781746032 0.403954365079365  C 24.9522876984127 -0.128736111111111  24.0777797619048 -0.128736111111111  23.5450892857143 0.403954365079365  L 13.0066547619048 10.9557242063492  L 2.46822023809524 0.399517857142857  C 1.93552976190476 -0.133172619047619  1.06102182539683 -0.133172619047619  0.528331349206349 0.399517857142857  L 0.470605158730159 0.457218253968254  C -0.0753948412698411 0.98990873015873  -0.0753948412698411 1.86441666666667  0.470605158730159 2.39710714285714  L 11.0090654761905 12.940003968254  L 0.470605158730159 23.4784126984127  C -0.0620853174603175 24.0111031746032  -0.0620853174603175 24.8856111111111  0.470605158730159 25.4183015873016  L 0.528331349206349 25.4760277777778  C 1.06102182539683 26.0087182539683  1.93552976190476 26.0087182539683  2.46822023809524 25.4760277777778  L 13.0066547619048 14.9375674603175  L 23.5451150793651 25.4760277777778  C 24.0778055555556 26.0087182539683  24.9523134920635 26.0087182539683  25.485003968254 25.4760277777778  L 25.5427043650794 25.4183015873016  C 26.0753948412698 24.8856111111111  26.0753948412698 24.0111031746032  25.5427043650794 23.4784126984127  Z " fill-rule="nonzero" fill="#ffffff" stroke="none" transform="matrix(1 0 0 1 1312 33 )" />
  </g>
</svg>