<?xml version="1.0" encoding="utf-8"?>
<svg version="1.1" xmlns:xlink="http://www.w3.org/1999/xlink" width="18px" height="18px" xmlns="http://www.w3.org/2000/svg">
  <g transform="matrix(1 0 0 1 -347 -239 )">
    <path d="M 9 14.0707365517241  C 6.19768551724138 14.0707365517241  3.92876689655172 11.8018179310345  3.92876689655172 9  C 3.92876689655172 6.20076413793103  6.19768551724138 3.93187034482759  9 3.93187034482759  C 11.79864 3.93187034482759  14.0675337931035 6.20078896551724  14.0675337931035 9  C 14.0675337931034 11.8018427586207  11.79864 14.0707365517241  9 14.0707365517241  Z M 9 1.39615448275862  C 4.80016551724138 1.39615448275862  1.39374620689655 4.80014068965517  1.39374620689655 9  C 1.39374620689655 13.1992634482759  4.80016551724138 16.6062537931034  9 16.6062537931034  C 13.1986675862069 16.6062537931034  16.6025793103448 13.1992386206897  16.6025793103448 9  C 16.6025793103448 4.80014068965517  13.1986675862069 1.39615448275862  9 1.39615448275862  Z M 9 17.87256  C 4.09838896551724 17.87256  0.12744 13.9011144827586  0.12744 9  C 0.12744 4.10139310344828  4.09838896551724 0.12744  9 0.12744  C 13.8980110344828 0.12744  17.87256 4.10139310344828  17.87256 9  C 17.87256 13.9011144827586  13.8980110344828 17.87256  9 17.87256  Z " fill-rule="nonzero" fill="#325bee" stroke="none" transform="matrix(1 0 0 1 347 239 )" />
  </g>
</svg>