<?xml version="1.0" encoding="utf-8"?>
<svg version="1.1" xmlns:xlink="http://www.w3.org/1999/xlink" width="18px" height="18px" xmlns="http://www.w3.org/2000/svg">
  <defs>
    <mask fill="white" id="clip5602">
      <path d="M 9 1.39615448275869  C 4.80016551724141 1.39615448275869  1.39374620689666 4.80014068965511  1.39374620689666 9  C 1.39374620689666 13.1992634482758  4.80016551724141 16.6062537931035  9 16.6062537931035  C 13.1986675862068 16.6062537931035  16.6025793103448 13.1992386206897  16.6025793103448 9  C 16.6025793103448 4.80014068965511  13.1986675862068 1.39615448275869  9 1.39615448275869  Z M 9 17.87256  C 4.09838896551712 17.87256  0.127440000000109 13.9011144827586  0.127440000000109 9  C 0.127440000000109 4.10139310344834  4.09838896551712 0.127439999999962  9 0.127439999999962  C 13.8980110344829 0.127439999999962  17.8725599999999 4.10139310344834  17.8725599999999 9  C 17.8725599999999 13.9011144827586  13.8980110344829 17.87256  9 17.87256  Z " fill-rule="evenodd" />
    </mask>
  </defs>
  <g transform="matrix(1 0 0 1 -249 -239 )">
    <path d="M 9 1.39615448275869  C 4.80016551724141 1.39615448275869  1.39374620689666 4.80014068965511  1.39374620689666 9  C 1.39374620689666 13.1992634482758  4.80016551724141 16.6062537931035  9 16.6062537931035  C 13.1986675862068 16.6062537931035  16.6025793103448 13.1992386206897  16.6025793103448 9  C 16.6025793103448 4.80014068965511  13.1986675862068 1.39615448275869  9 1.39615448275869  Z M 9 17.87256  C 4.09838896551712 17.87256  0.127440000000109 13.9011144827586  0.127440000000109 9  C 0.127440000000109 4.10139310344834  4.09838896551712 0.127439999999962  9 0.127439999999962  C 13.8980110344829 0.127439999999962  17.8725599999999 4.10139310344834  17.8725599999999 9  C 17.8725599999999 13.9011144827586  13.8980110344829 17.87256  9 17.87256  Z " fill-rule="nonzero" fill="#ffffff" stroke="none" fill-opacity="0.149019607843137" transform="matrix(1 0 0 1 249 239 )" />
    <path d="M 9 1.39615448275869  C 4.80016551724141 1.39615448275869  1.39374620689666 4.80014068965511  1.39374620689666 9  C 1.39374620689666 13.1992634482758  4.80016551724141 16.6062537931035  9 16.6062537931035  C 13.1986675862068 16.6062537931035  16.6025793103448 13.1992386206897  16.6025793103448 9  C 16.6025793103448 4.80014068965511  13.1986675862068 1.39615448275869  9 1.39615448275869  Z " stroke-width="2" stroke="#d7d7d7" fill="none" stroke-opacity="0.913725490196078" transform="matrix(1 0 0 1 249 239 )" mask="url(#clip5602)" />
    <path d="M 9 17.87256  C 4.09838896551712 17.87256  0.127440000000109 13.9011144827586  0.127440000000109 9  C 0.127440000000109 4.10139310344834  4.09838896551712 0.127439999999962  9 0.127439999999962  C 13.8980110344829 0.127439999999962  17.8725599999999 4.10139310344834  17.8725599999999 9  C 17.8725599999999 13.9011144827586  13.8980110344829 17.87256  9 17.87256  Z " stroke-width="2" stroke="#d7d7d7" fill="none" stroke-opacity="0.913725490196078" transform="matrix(1 0 0 1 249 239 )" mask="url(#clip5602)" />
  </g>
</svg>