<?xml version="1.0" encoding="utf-8"?>
<svg version="1.1" xmlns:xlink="http://www.w3.org/1999/xlink" width="1024px" height="968px" xmlns="http://www.w3.org/2000/svg">
  <defs>
    <linearGradient gradientUnits="userSpaceOnUse" x1="1451.79390402761" y1="484.963292547275" x2="476.722850646489" y2="484.963292547275" id="LinearGradient5581">
      <stop id="Stop5582" stop-color="#ffffff" stop-opacity="0.0470588235294118" offset="0" />
      <stop id="Stop5583" stop-color="#ffffff" stop-opacity="0.0392156862745098" offset="1" />
    </linearGradient>
    <radialGradient cx="457.177726926007" cy="38.1874396135306" r="1202.51129953553" gradientTransform="matrix(0.476314573831227 0.879274943778097 -0.709278217401517 0.384225155328248 266.50283185633 -378.47005544303 )" gradientUnits="userSpaceOnUse" id="RadialGradient5584">
      <stop id="Stop5585" stop-color="#ffffff" stop-opacity="0.403921568627451" offset="0" />
      <stop id="Stop5586" stop-color="#ffffff" stop-opacity="0" offset="1" />
    </radialGradient>
  </defs>
  <g transform="matrix(1 0 0 1 -448 -12 )">
    <path d="M 448.5 36  A 23.5 23.5 0 0 1 472 12.5 L 1448 12.5  A 23.5 23.5 0 0 1 1471.5 36 L 1471.5 956  A 23.5 23.5 0 0 1 1448 979.5 L 472 979.5  A 23.5 23.5 0 0 1 448.5 956 L 448.5 36  Z " fill-rule="nonzero" fill="url(#LinearGradient5581)" stroke="none" />
    <path d="M 448.5 36  A 23.5 23.5 0 0 1 472 12.5 L 1448 12.5  A 23.5 23.5 0 0 1 1471.5 36 L 1471.5 956  A 23.5 23.5 0 0 1 1448 979.5 L 472 979.5  A 23.5 23.5 0 0 1 448.5 956 L 448.5 36  Z " stroke-width="1" stroke="url(#RadialGradient5584)" fill="none" />
  </g>
</svg>