<?xml version="1.0" encoding="utf-8"?>
<svg version="1.1" xmlns:xlink="http://www.w3.org/1999/xlink" width="16px" height="16px" xmlns="http://www.w3.org/2000/svg">
  <g transform="matrix(1 0 0 1 -1408 -52 )">
    <path d="M 10.3691609795918 8.0471655510204  L 15.7097505714286 13.3877551020408  C 16.058049877551 13.7360544081633  16.058049877551 14.3165533061224  15.7097505714286 14.5487528163265  L 14.5487528163265 15.7097505714286  C 14.2004535102041 16.058049877551  13.6199546122449 16.058049877551  13.3877551020408 15.7097505714286  L 8.04716555102041 10.3691609795918  L 2.70657595918367 15.7097505714286  C 2.35827665306122 16.058049877551  1.77777775510204 16.058049877551  1.54557824489796 15.7097505714286  L 0.38458048979592 14.5487528163265  C 0.0362811836734696 14.2004535102041  0.0362811836734696 13.6199546122449  0.38458048979592 13.3877551020408  L 5.72517008163265 8.0471655510204  L 0.38458048979592 2.70657595918367  C 0.0362811836734696 2.35827665306122  0.0362811836734696 1.77777775510203  0.38458048979592 1.54557824489795  L 1.54557824489796 0.384580489795915  C 1.89387755102041 0.036281183673465  2.47437644897959 0.036281183673465  2.70657595918367 0.384580489795915  L 8.04716555102041 5.72517008163265  L 13.3877551020408 0.384580489795915  C 13.7360544081633 0.036281183673465  14.3165533061224 0.036281183673465  14.5487528163265 0.384580489795915  L 15.7097505714286 1.54557824489795  C 16.058049877551 1.8938775510204  16.058049877551 2.47437644897959  15.7097505714286 2.70657595918367  L 10.3691609795918 8.0471655510204  Z " fill-rule="nonzero" fill="#ffffff" stroke="none" transform="matrix(1 0 0 1 1408 52 )" />
  </g>
</svg>