<?xml version="1.0" encoding="utf-8"?>
<svg version="1.1" xmlns:xlink="http://www.w3.org/1999/xlink" width="544px" height="48px" xmlns="http://www.w3.org/2000/svg">
  <g transform="matrix(1 0 0 1 -374 -82 )">
    <path d="M 375 86  A 3 3 0 0 1 378 83 L 914 83  A 3 3 0 0 1 917 86 L 917 126  A 3 3 0 0 1 914 129 L 378 129  A 3 3 0 0 1 375 126 L 375 86  Z " fill-rule="nonzero" fill="#ffffff" stroke="none" fill-opacity="0" />
    <path d="M 374.5 86  A 3.5 3.5 0 0 1 378 82.5 L 914 82.5  A 3.5 3.5 0 0 1 917.5 86 L 917.5 126  A 3.5 3.5 0 0 1 914 129.5 L 378 129.5  A 3.5 3.5 0 0 1 374.5 126 L 374.5 86  Z " stroke-width="1" stroke="#797979" fill="none" stroke-opacity="0.819607843137255" />
  </g>
</svg>