<?xml version="1.0" encoding="utf-8"?>
<svg version="1.1" xmlns:xlink="http://www.w3.org/1999/xlink" width="256px" height="424px" xmlns="http://www.w3.org/2000/svg">
  <defs>
    <linearGradient gradientUnits="userSpaceOnUse" x1="1866.9484760069" y1="315.16573971079" x2="1623.18071266162" y2="315.16573971079" id="LinearGradient3111">
      <stop id="Stop3112" stop-color="#ffffff" stop-opacity="0.0470588235294118" offset="0" />
      <stop id="Stop3113" stop-color="#ffffff" stop-opacity="0.0392156862745098" offset="1" />
    </linearGradient>
    <radialGradient cx="1618.2944317315" cy="119.470531400968" r="508.172137180679" gradientTransform="matrix(0.119614513170431 0.992820410869459 -0.491077191514673 0.0591647376998309 1483.39218414267 -1494.27365387166 )" gradientUnits="userSpaceOnUse" id="RadialGradient3114">
      <stop id="Stop3115" stop-color="#ffffff" stop-opacity="0.403921568627451" offset="0" />
      <stop id="Stop3116" stop-color="#ffffff" stop-opacity="0" offset="1" />
    </radialGradient>
  </defs>
  <g transform="matrix(1 0 0 1 -1616 -108 )">
    <path d="M 1616.5 132  A 23.5 23.5 0 0 1 1640 108.5 L 1848 108.5  A 23.5 23.5 0 0 1 1871.5 132 L 1871.5 508  A 23.5 23.5 0 0 1 1848 531.5 L 1640 531.5  A 23.5 23.5 0 0 1 1616.5 508 L 1616.5 132  Z " fill-rule="nonzero" fill="url(#LinearGradient3111)" stroke="none" />
    <path d="M 1616.5 132  A 23.5 23.5 0 0 1 1640 108.5 L 1848 108.5  A 23.5 23.5 0 0 1 1871.5 132 L 1871.5 508  A 23.5 23.5 0 0 1 1848 531.5 L 1640 531.5  A 23.5 23.5 0 0 1 1616.5 508 L 1616.5 132  Z " stroke-width="1" stroke="url(#RadialGradient3114)" fill="none" />
  </g>
</svg>