<?xml version="1.0" encoding="utf-8"?>
<svg version="1.1" xmlns:xlink="http://www.w3.org/1999/xlink" width="280px" height="448px" xmlns="http://www.w3.org/2000/svg">
  <defs>
    <linearGradient gradientUnits="userSpaceOnUse" x1="1630.13403093902" y1="130.548091758779" x2="1866.53026190222" y2="518.751525592379" id="LinearGradient3103">
      <stop id="Stop3104" stop-color="#000000" stop-opacity="0.835294117647059" offset="0" />
      <stop id="Stop3105" stop-color="#00091a" stop-opacity="0.894117647058824" offset="1" />
    </linearGradient>
    <radialGradient cx="1856.38629921797" cy="526.535867469408" r="425.4572416915" gradientTransform="matrix(-0.265773781728043 -0.964035423076338 0.715256312275179 -0.197188163907516 1973.15700346248 2419.98465976687 )" gradientUnits="userSpaceOnUse" id="RadialGradient3106">
      <stop id="Stop3107" stop-color="#ffffff" offset="0" />
      <stop id="Stop3108" stop-color="#000000" stop-opacity="0" offset="1" />
    </radialGradient>
    <filter x="1600px" y="96px" width="280px" height="448px" filterUnits="userSpaceOnUse" id="filter3109">
      <feOffset dx="-4" dy="0" in="SourceAlpha" result="shadowOffsetInner" />
      <feGaussianBlur stdDeviation="6" in="shadowOffsetInner" result="shadowGaussian" />
      <feComposite in2="shadowGaussian" operator="atop" in="SourceAlpha" result="shadowComposite" />
      <feColorMatrix type="matrix" values="0 0 0 0 0.113725490196078  0 0 0 0 0.168627450980392  0 0 0 0 0.407843137254902  0 0 0 0.870588235294118 0  " in="shadowComposite" />
    </filter>
    <g id="widget3110">
      <path d="M 1616.5 132  A 23.5 23.5 0 0 1 1640 108.5 L 1848 108.5  A 23.5 23.5 0 0 1 1871.5 132 L 1871.5 508  A 23.5 23.5 0 0 1 1848 531.5 L 1640 531.5  A 23.5 23.5 0 0 1 1616.5 508 L 1616.5 132  Z " fill-rule="nonzero" fill="url(#LinearGradient3103)" stroke="none" />
      <path d="M 1616.5 132  A 23.5 23.5 0 0 1 1640 108.5 L 1848 108.5  A 23.5 23.5 0 0 1 1871.5 132 L 1871.5 508  A 23.5 23.5 0 0 1 1848 531.5 L 1640 531.5  A 23.5 23.5 0 0 1 1616.5 508 L 1616.5 132  Z " stroke-width="1" stroke="url(#RadialGradient3106)" fill="none" />
    </g>
  </defs>
  <g transform="matrix(1 0 0 1 -1600 -96 )">
    <use xlink:href="#widget3110" filter="url(#filter3109)" />
    <use xlink:href="#widget3110" />
  </g>
</svg>