<?xml version="1.0" encoding="utf-8"?>
<svg version="1.1" xmlns:xlink="http://www.w3.org/1999/xlink" width="30px" height="30px" xmlns="http://www.w3.org/2000/svg">
  <defs>
    <filter x="287px" y="25px" width="30px" height="30px" filterUnits="userSpaceOnUse" id="filter3162">
      <feOffset dx="0" dy="0" in="SourceAlpha" result="shadowOffsetInner" />
      <feGaussianBlur stdDeviation="1.5" in="shadowOffsetInner" result="shadowGaussian" />
      <feComposite in2="shadowGaussian" operator="atop" in="SourceAlpha" result="shadowComposite" />
      <feColorMatrix type="matrix" values="0 0 0 0 0  0 0 0 0 1  0 0 0 0 1  0 0 0 0.768627450980392 0  " in="shadowComposite" />
    </filter>
    <g id="widget3163">
      <path d="M 4.13600663333333 4.14821118333334  C 4.5698957 3.71445305  5.27322836666667 3.71445305  5.70711703333333 4.14821118333334  C 6.1408745 4.58209931666667  6.1408745 5.28543318333333  5.70711703333333 5.71932185  C 2.23682583333333 9.19102091666666  2.23758543333333 14.8184975833333  5.70881436666667 18.2892575833333  C 9.18004103333333 21.7600189166667  14.8075178333333 21.7600189166667  18.2787471666667 18.2892589166667  C 21.7499791666667 14.81850025  21.7507391666667 9.19102411666667  18.2804498333333 5.71932185  C 17.8335871666667 5.28777211666667  17.8273671666667 4.57367518333334  18.2666378333333 4.13440291666667  C 18.7059111666667 3.69512998333334  19.4200085 3.70135185  19.8515591666667 4.14821118333334  C 24.1904471666667 8.48821065  24.1893338333333 15.5226549166667  19.8504471666667 19.8604309166667  C 15.5115591666667 24.1993229166667  8.47600623333333 24.1993229166667  4.13711703333334 19.8604309166667  C -0.200659433333333 15.5226535833333  -0.202881659999998 8.48932198333334  4.13600663333333 4.14821118333334  Z M 10.8882262333333 2.00043383666667  C 10.8882262333333 1.38678427666666  11.3856881 0.889322916666667  11.9993375666667 0.889322916666667  C 12.5626423666667 0.88939692178  13.0367647666667 1.31099721  13.1026701 1.87043397  L 13.1104507666667 2.00043383666667  L 13.1104507666667 10.8893215833333  C 13.1097971666667 11.4772027833333  12.6513278333333 11.9628371833333  12.0644543666667 11.99729025  C 11.4775842333333 12.0317421166667  10.9654401 11.60308705  10.8960062333333 11.01932145  L 10.8882262333333 10.8893215833333  L 10.8882262333333 2.00043383666667  Z " fill-rule="nonzero" fill="#4fb9e4" stroke="none" transform="matrix(1 0 0 1 290 28 )" />
    </g>
  </defs>
  <g transform="matrix(1 0 0 1 -287 -25 )">
    <use xlink:href="#widget3163" filter="url(#filter3162)" />
    <use xlink:href="#widget3163" />
  </g>
</svg>