<?xml version="1.0" encoding="utf-8"?>
<svg version="1.1" xmlns:xlink="http://www.w3.org/1999/xlink" width="1848px" height="788px" xmlns="http://www.w3.org/2000/svg">
  <defs>
    <linearGradient gradientUnits="userSpaceOnUse" x1="1847.53431117483" y1="495.015572858732" x2="87.8357695260851" y2="495.015572858732" id="LinearGradient5629">
      <stop id="Stop5630" stop-color="#ffffff" stop-opacity="0.0470588235294118" offset="0" />
      <stop id="Stop5631" stop-color="#ffffff" stop-opacity="0.0392156862745098" offset="1" />
    </linearGradient>
    <radialGradient cx="52.5629290617784" cy="131.317874396139" r="1864.13930459448" gradientTransform="matrix(0.992892755030372 0.119012507780479 -0.0586893104513279 0.48963081470677 8.08053311140672 60.7649505660662 )" gradientUnits="userSpaceOnUse" id="RadialGradient5632">
      <stop id="Stop5633" stop-color="#ffffff" stop-opacity="0.403921568627451" offset="0" />
      <stop id="Stop5634" stop-color="#ffffff" stop-opacity="0" offset="1" />
    </radialGradient>
  </defs>
  <g transform="matrix(1 0 0 1 -36 -110 )">
    <path d="M 36.5 134  A 23.5 23.5 0 0 1 60 110.5 L 1860 110.5  A 23.5 23.5 0 0 1 1883.5 134 L 1883.5 874  A 23.5 23.5 0 0 1 1860 897.5 L 60 897.5  A 23.5 23.5 0 0 1 36.5 874 L 36.5 134  Z " fill-rule="nonzero" fill="url(#LinearGradient5629)" stroke="none" />
    <path d="M 36.5 134  A 23.5 23.5 0 0 1 60 110.5 L 1860 110.5  A 23.5 23.5 0 0 1 1883.5 134 L 1883.5 874  A 23.5 23.5 0 0 1 1860 897.5 L 60 897.5  A 23.5 23.5 0 0 1 36.5 874 L 36.5 134  Z " stroke-width="1" stroke="url(#RadialGradient5632)" fill="none" />
  </g>
</svg>