<?xml version="1.0" encoding="utf-8"?>
<svg version="1.1" xmlns:xlink="http://www.w3.org/1999/xlink" width="20px" height="20px" xmlns="http://www.w3.org/2000/svg">
  <g transform="matrix(1 0 0 1 -292 -30 )">
    <path d="M 3.44667219444444 3.45684265277778  C 3.80824641666667 3.09537754166667  4.39435697222222 3.09537754166667  4.75593086111111 3.45684265277778  C 5.11739541666667 3.81841609722222  5.11739541666667 4.40452765277778  4.75593086111111 4.76610154166667  C 1.86402152777778 7.65918409722222  1.86465452777778 12.3487479861111  4.75734530555556 15.2410479861111  C 7.65003419444445 18.1333490972222  12.3395981944444 18.1333490972222  15.2322893055556 15.2410490972222  C 18.1249826388889 12.3487502083333  18.1256159722222 7.65918676388889  15.2337081944444 4.76610154166667  C 14.8613226388889 4.40647676388889  14.8561393055556 3.81139598611111  15.2221981944444 3.44533576388889  C 15.5882593055556 3.07927498611111  16.1833404166667 3.084459875  16.5429659722222 3.45684265277778  C 20.1587059722222 7.073508875  20.1577781944444 12.9355457638889  16.5420393055556 16.5503590972222  C 12.9262993055556 20.1661024305556  7.06333852777778 20.1661024305556  3.44759752777778 16.5503590972222  C -0.167216194444444 12.9355446527778  -0.169068049999998 7.07443498611111  3.44667219444444 3.45684265277778  Z M 9.07352186111111 1.66702819722222  C 9.07352186111111 1.15565356388889  9.48807341666667 0.741102430555556  9.99944797222222 0.741102430555556  C 10.4688686388889 0.741164101483333  10.8639706388889 1.092497675  10.91889175 1.558694975  L 10.9253756388889 1.66702819722222  L 10.9253756388889 9.07443465277778  C 10.9248309722222 9.56433565277778  10.5427731944444 9.96903098611111  10.0537119722222 9.997741875  C 9.56465352777778 10.0264517638889  9.13786675 9.66923920833333  9.08000519444444 9.182767875  L 9.07352186111111 9.07443465277778  L 9.07352186111111 1.66702819722222  Z " fill-rule="nonzero" fill="#7f7f7f" stroke="none" transform="matrix(1 0 0 1 292 30 )" />
  </g>
</svg>