<?xml version="1.0" encoding="utf-8"?>
<svg version="1.1" xmlns:xlink="http://www.w3.org/1999/xlink" width="880px" height="200px" xmlns="http://www.w3.org/2000/svg">
  <defs>
    <linearGradient gradientUnits="userSpaceOnUse" x1="50.0529100529119" y1="32.0089786756433" x2="765.094482237338" y2="138.630751964084" id="LinearGradient3180">
      <stop id="Stop3181" stop-color="#cad2ec" stop-opacity="0.156862745098039" offset="0" />
      <stop id="Stop3182" stop-color="#ffffff" stop-opacity="0.0392156862745098" offset="1" />
    </linearGradient>
    <radialGradient cx="10.2623906705521" cy="9.72262305595519" r="887.895420302961" gradientTransform="matrix(0.998694309391477 0.0510849918183472 -0.0104530469079895 0.204353531070977 0.115030541992132 7.21151655975681 )" gradientUnits="userSpaceOnUse" id="RadialGradient3183">
      <stop id="Stop3184" stop-color="#ffffff" stop-opacity="0.549019607843137" offset="0" />
      <stop id="Stop3185" stop-color="#ffffff" stop-opacity="0" offset="0.99" />
    </radialGradient>
  </defs>
  <g>
    <path d="M 0.5 12  A 11.5 11.5 0 0 1 12 0.5 L 868 0.5  A 11.5 11.5 0 0 1 879.5 12 L 879.5 188  A 11.5 11.5 0 0 1 868 199.5 L 12 199.5  A 11.5 11.5 0 0 1 0.5 188 L 0.5 12  Z " fill-rule="nonzero" fill="url(#LinearGradient3180)" stroke="none" />
    <path d="M 0.5 12  A 11.5 11.5 0 0 1 12 0.5 L 868 0.5  A 11.5 11.5 0 0 1 879.5 12 L 879.5 188  A 11.5 11.5 0 0 1 868 199.5 L 12 199.5  A 11.5 11.5 0 0 1 0.5 188 L 0.5 12  Z " stroke-width="1" stroke="url(#RadialGradient3183)" fill="none" />
  </g>
</svg>