<?xml version="1.0" encoding="utf-8"?>
<svg version="1.1" xmlns:xlink="http://www.w3.org/1999/xlink" width="432px" height="200px" xmlns="http://www.w3.org/2000/svg">
  <defs>
    <linearGradient gradientUnits="userSpaceOnUse" x1="423.475553261649" y1="97.7196885428254" x2="12.1174526164874" y2="97.7196885428254" id="LinearGradient3191">
      <stop id="Stop3192" stop-color="#ffffff" stop-opacity="0.0784313725490196" offset="0" />
      <stop id="Stop3193" stop-color="#ffffff" stop-opacity="0.0666666666666667" offset="1" />
    </linearGradient>
    <radialGradient cx="3.87185354690924" cy="5.4106280193245" r="436.357276140447" gradientTransform="matrix(0.990605997226848 0.136747059413364 -0.0730200687200355 0.528962877171123 0.431456632746529 2.01914206790087 )" gradientUnits="userSpaceOnUse" id="RadialGradient3194">
      <stop id="Stop3195" stop-color="#ffffff" stop-opacity="0.403921568627451" offset="0" />
      <stop id="Stop3196" stop-color="#ffffff" stop-opacity="0" offset="1" />
    </radialGradient>
  </defs>
  <g>
    <path d="M 0.5 12  A 11.5 11.5 0 0 1 12 0.5 L 420 0.5  A 11.5 11.5 0 0 1 431.5 12 L 431.5 188  A 11.5 11.5 0 0 1 420 199.5 L 12 199.5  A 11.5 11.5 0 0 1 0.5 188 L 0.5 12  Z " fill-rule="nonzero" fill="url(#LinearGradient3191)" stroke="none" />
    <path d="M 0.5 12  A 11.5 11.5 0 0 1 12 0.5 L 420 0.5  A 11.5 11.5 0 0 1 431.5 12 L 431.5 188  A 11.5 11.5 0 0 1 420 199.5 L 12 199.5  A 11.5 11.5 0 0 1 0.5 188 L 0.5 12  Z " stroke-width="1" stroke="url(#RadialGradient3194)" fill="none" />
  </g>
</svg>