<?xml version="1.0" encoding="utf-8"?>
<svg version="1.1" xmlns:xlink="http://www.w3.org/1999/xlink" width="432px" height="92px" xmlns="http://www.w3.org/2000/svg">
  <defs>
    <linearGradient gradientUnits="userSpaceOnUse" x1="919.571428571429" y1="230.724130190796" x2="1270.59183673469" y2="279.770145903479" id="LinearGradient3220">
      <stop id="Stop3221" stop-color="#cad2ec" stop-opacity="0.156862745098039" offset="0.02" />
      <stop id="Stop3222" stop-color="#ffffff" stop-opacity="0.0392156862745098" offset="1" />
    </linearGradient>
    <radialGradient cx="900.037900874635" cy="220.472406605739" r="435.806929681348" gradientTransform="matrix(0.998865389212248 0.0476228331146247 -0.00913395934972992 0.191580283326634 3.03497871139166 135.371885732317 )" gradientUnits="userSpaceOnUse" id="RadialGradient3223">
      <stop id="Stop3224" stop-color="#ffffff" stop-opacity="0.549019607843137" offset="0" />
      <stop id="Stop3225" stop-color="#ffffff" stop-opacity="0" offset="0.99" />
    </radialGradient>
  </defs>
  <g transform="matrix(1 0 0 1 -895 -216 )">
    <path d="M 895.5 228  A 11.5 11.5 0 0 1 907 216.5 L 1315 216.5  A 11.5 11.5 0 0 1 1326.5 228 L 1326.5 296  A 11.5 11.5 0 0 1 1315 307.5 L 907 307.5  A 11.5 11.5 0 0 1 895.5 296 L 895.5 228  Z " fill-rule="nonzero" fill="url(#LinearGradient3220)" stroke="none" />
    <path d="M 895.5 228  A 11.5 11.5 0 0 1 907 216.5 L 1315 216.5  A 11.5 11.5 0 0 1 1326.5 228 L 1326.5 296  A 11.5 11.5 0 0 1 1315 307.5 L 907 307.5  A 11.5 11.5 0 0 1 895.5 296 L 895.5 228  Z " stroke-width="1" stroke="url(#RadialGradient3223)" fill="none" />
  </g>
</svg>