<?xml version="1.0" encoding="utf-8"?>
<svg version="1.1" xmlns:xlink="http://www.w3.org/1999/xlink" width="284px" height="36px" xmlns="http://www.w3.org/2000/svg">
  <g transform="matrix(1 0 0 1 -1280 -14 )">
    <path d="M 1281 18  A 3 3 0 0 1 1284 15 L 1560 15  A 3 3 0 0 1 1563 18 L 1563 46  A 3 3 0 0 1 1560 49 L 1284 49  A 3 3 0 0 1 1281 46 L 1281 18  Z " fill-rule="nonzero" fill="#1f2128" stroke="none" fill-opacity="0" />
    <path d="M 1280.5 18  A 3.5 3.5 0 0 1 1284 14.5 L 1560 14.5  A 3.5 3.5 0 0 1 1563.5 18 L 1563.5 46  A 3.5 3.5 0 0 1 1560 49.5 L 1284 49.5  A 3.5 3.5 0 0 1 1280.5 46 L 1280.5 18  Z " stroke-width="1" stroke="#325bee" fill="none" stroke-opacity="0.6" />
  </g>
</svg>