<?xml version="1.0" encoding="utf-8"?>
<svg version="1.1" xmlns:xlink="http://www.w3.org/1999/xlink" width="432px" height="200px" xmlns="http://www.w3.org/2000/svg">
  <defs>
    <linearGradient gradientUnits="userSpaceOnUse" x1="24.5714285714295" y1="32.0089786756433" x2="375.591836734693" y2="138.630751964084" id="LinearGradient5729">
      <stop id="Stop5730" stop-color="#cad2ec" stop-opacity="0.156862745098039" offset="0" />
      <stop id="Stop5731" stop-color="#ffffff" stop-opacity="0.0392156862745098" offset="1" />
    </linearGradient>
    <radialGradient cx="5.03790087463467" cy="9.72262305595519" r="437.944085706801" gradientTransform="matrix(0.992801646312005 0.119770159389442 -0.0494521950765952 0.409920308498094 0.517069644359977 5.13373222270415 )" gradientUnits="userSpaceOnUse" id="RadialGradient5732">
      <stop id="Stop5733" stop-color="#ffffff" stop-opacity="0.549019607843137" offset="0" />
      <stop id="Stop5734" stop-color="#ffffff" stop-opacity="0" offset="0.99" />
    </radialGradient>
  </defs>
  <g>
    <path d="M 0.5 12  A 11.5 11.5 0 0 1 12 0.5 L 420 0.5  A 11.5 11.5 0 0 1 431.5 12 L 431.5 188  A 11.5 11.5 0 0 1 420 199.5 L 12 199.5  A 11.5 11.5 0 0 1 0.5 188 L 0.5 12  Z " fill-rule="nonzero" fill="url(#LinearGradient5729)" stroke="none" />
    <path d="M 0.5 12  A 11.5 11.5 0 0 1 12 0.5 L 420 0.5  A 11.5 11.5 0 0 1 431.5 12 L 431.5 188  A 11.5 11.5 0 0 1 420 199.5 L 12 199.5  A 11.5 11.5 0 0 1 0.5 188 L 0.5 12  Z " stroke-width="1" stroke="url(#RadialGradient5732)" fill="none" />
  </g>
</svg>