<?xml version="1.0" encoding="utf-8"?>
<svg version="1.1" xmlns:xlink="http://www.w3.org/1999/xlink" width="14px" height="24px" xmlns="http://www.w3.org/2000/svg">
  <g transform="matrix(1 0 0 1 -1277 -250 )">
    <path d="M 1.55891891891892 23.7709091015625  C 1.39931203716216 23.9181818203125  1.19567567567568 23.989090921875  0.997542993243244 23.9890908984375  C 0.777395570945946 23.9890908984375  0.557248148648649 23.9018181796875  0.392137587837838 23.72727271875  C 0.0836582707119921 23.3962660763773  0.100824137423666 22.8810273694657  0.430663388513514 22.5709091015625  L 11.7957739493243 12.06  L 0.430663388513514 1.5545454609375  C 0.0949385641891891 1.243636359375  0.0784275270270275 0.7309091015625  0.392137587837836 0.3981818203125  C 0.703712598114468 0.0683518418853655  1.22606903675611 0.051258219329019  1.55891891891892 0.36  L 13.5679606858108 11.4654545390625  C 13.7330712466216 11.6181818203125  13.8321375878378 11.836363640625  13.8321375878378 12.0654545390625  C 13.8321375878378 12.2945454375  13.7385749256757 12.50727271875  13.5679606858108 12.6654545390625  L 1.55891891891892 23.7709091015625  Z " fill-rule="nonzero" fill="#ffffff" stroke="none" transform="matrix(1 0 0 1 1277 250 )" />
  </g>
</svg>