<?xml version="1.0" encoding="utf-8"?>
<svg version="1.1" xmlns:xlink="http://www.w3.org/1999/xlink" width="132px" height="202px" xmlns="http://www.w3.org/2000/svg">
  <defs>
    <linearGradient gradientUnits="userSpaceOnUse" x1="0" y1="142.484170468352" x2="132" y2="143.101610080773" id="LinearGradient5774">
      <stop id="Stop5775" stop-color="#ffffff" stop-opacity="0.149019607843137" offset="0" />
      <stop id="Stop5776" stop-color="#ffffff" stop-opacity="0.447058823529412" offset="0.51" />
      <stop id="Stop5777" stop-color="#ffffff" stop-opacity="0.149019607843137" offset="1" />
    </linearGradient>
  </defs>
  <g transform="matrix(1 0 0 1 0 -40 )">
    <path d="M 0.5 60  A 19.5 19.5 0 0 1 20 40.5 L 112 40.5  A 19.5 19.5 0 0 1 131.5 60 L 131.5 222  A 19.5 19.5 0 0 1 112 241.5 L 20 241.5  A 19.5 19.5 0 0 1 0.5 222 L 0.5 60  Z " fill-rule="nonzero" fill="#2f3744" stroke="none" fill-opacity="0.549019607843137" />
    <path d="M 0.5 60  A 19.5 19.5 0 0 1 20 40.5 L 112 40.5  A 19.5 19.5 0 0 1 131.5 60 L 131.5 222  A 19.5 19.5 0 0 1 112 241.5 L 20 241.5  A 19.5 19.5 0 0 1 0.5 222 L 0.5 60  Z " stroke-width="1" stroke="url(#LinearGradient5774)" fill="none" />
  </g>
</svg>