<?xml version="1.0" encoding="utf-8"?>
<svg version="1.1" xmlns:xlink="http://www.w3.org/1999/xlink" width="11px" height="7px" xmlns="http://www.w3.org/2000/svg">
  <g transform="matrix(1 0 0 1 -112 -15 )">
    <path d="M 5.911789125 6.71484433333333  C 5.80690715371622 6.8348483125  5.66335044594595 6.90247179166667  5.51350002871622 6.90247179166667  C 5.36366863851351 6.90247179166667  5.22009290371622 6.8348483125  5.11521093243243 6.71484433333333  L 0.281969819256757 1.18555852083333  C 0.0663685371621621 0.938941729166667  0.0699432027027028 0.543050145833334  0.289917728040541 0.3013366875  C 0.509873244932432 0.0596445624999997  0.862984765202703 0.0636098749999997  1.07854801182432 0.310247979166667  L 5.51350002871622 5.38388539583333  L 9.94845206418919 0.310247979166667  C 10.1640153108108 0.063588541666667  10.5170887956081 0.059559270833334  10.737082347973 0.3013366875  C 10.9570759003378 0.543071458333333  10.9606315388514 0.938941729166667  10.7450302567568 1.18555852083333  L 5.911789125 6.71484433333333  Z " fill-rule="nonzero" fill="#ffffff" stroke="none" fill-opacity="0.996078431372549" transform="matrix(1 0 0 1 112 15 )" />
  </g>
</svg>