<?xml version="1.0" encoding="utf-8"?>
<svg version="1.1" xmlns:xlink="http://www.w3.org/1999/xlink" width="544px" height="116px" xmlns="http://www.w3.org/2000/svg">
  <g transform="matrix(1 0 0 1 -374 -295 )">
    <path d="M 375 299  A 3 3 0 0 1 378 296 L 914 296  A 3 3 0 0 1 917 299 L 917 407  A 3 3 0 0 1 914 410 L 378 410  A 3 3 0 0 1 375 407 L 375 299  Z " fill-rule="nonzero" fill="#ffffff" stroke="none" fill-opacity="0" />
    <path d="M 374.5 299  A 3.5 3.5 0 0 1 378 295.5 L 914 295.5  A 3.5 3.5 0 0 1 917.5 299 L 917.5 407  A 3.5 3.5 0 0 1 914 410.5 L 378 410.5  A 3.5 3.5 0 0 1 374.5 407 L 374.5 299  Z " stroke-width="1" stroke="#797979" fill="none" stroke-opacity="0.819607843137255" />
  </g>
</svg>