<?xml version="1.0" encoding="utf-8"?>
<svg version="1.1" xmlns:xlink="http://www.w3.org/1999/xlink" width="184px" height="188px" xmlns="http://www.w3.org/2000/svg">
  <defs>
    <linearGradient gradientUnits="userSpaceOnUse" x1="0" y1="137.381307168566" x2="184" y2="137.955953936561" id="LinearGradient5805">
      <stop id="Stop5806" stop-color="#ffffff" stop-opacity="0.149019607843137" offset="0" />
      <stop id="Stop5807" stop-color="#ffffff" stop-opacity="0.447058823529412" offset="0.51" />
      <stop id="Stop5808" stop-color="#ffffff" stop-opacity="0.149019607843137" offset="1" />
    </linearGradient>
  </defs>
  <g transform="matrix(1 0 0 1 0 -42 )">
    <path d="M 0.5 62  A 19.5 19.5 0 0 1 20 42.5 L 164 42.5  A 19.5 19.5 0 0 1 183.5 62 L 183.5 210  A 19.5 19.5 0 0 1 164 229.5 L 20 229.5  A 19.5 19.5 0 0 1 0.5 210 L 0.5 62  Z " fill-rule="nonzero" fill="#2f3744" stroke="none" fill-opacity="0.549019607843137" />
    <path d="M 0.5 62  A 19.5 19.5 0 0 1 20 42.5 L 164 42.5  A 19.5 19.5 0 0 1 183.5 62 L 183.5 210  A 19.5 19.5 0 0 1 164 229.5 L 20 229.5  A 19.5 19.5 0 0 1 0.5 210 L 0.5 62  Z " stroke-width="1" stroke="url(#LinearGradient5805)" fill="none" />
  </g>
</svg>