<?xml version="1.0" encoding="utf-8"?>
<svg version="1.1" xmlns:xlink="http://www.w3.org/1999/xlink" width="16px" height="15px" xmlns="http://www.w3.org/2000/svg">
  <g transform="matrix(1 0 0 1 -14 -12 )">
    <path d="M 15.734868 11.7992166666667  C 15.734868 9.32708166666667  12.8432898947368 7.92890466666667  10.8746052631579 9.46744833333334  L 8.94723667368421 7.99218733333333  L 8.94723667368421 6.08177066666667  C 10.2630263157895 5.785677  11.2956578947368 4.59869783333333  11.2956578947368 3.18124966666667  C 11.2956578947368 1.54192708333333  9.94618505263158 0.208333333333333  8.2893419368421 0.208333333333333  C 6.63197368421053 0.208333333333333  5.2814472 1.54166666666667  5.2814472 3.18098958333333  C 5.2814472 4.59843758333333  6.31565772631579 5.7851565  7.6314472 6.08151075  L 7.6314472 7.99166683333333  L 5.70197376842105 9.46744833333334  C 3.73328964210526 7.92890625  0.838815789473684 9.32708333333333  0.838815789473684 11.7992183333333  C 0.838815789473684 13.4385416666667  2.1875 14.7723941666667  3.84486850526316 14.7723941666667  C 5.50171103157895 14.7723941666667  6.84986833684211 13.43854  6.84986833684211 11.7992166666667  C 6.84986833684211 11.3208316666667  6.73249974736842 10.8703108333333  6.52881578947368 10.46979  L 8.28697368421053 9.12604  L 10.0456578947368 10.46979  C 9.03855330526316 12.4515616666667  10.510132 14.7723941666667  12.7298701052632 14.7723941666667  C 14.3867105263158 14.7723941666667  15.734868 13.43854  15.734868 11.7992166666667  Z " fill-rule="nonzero" fill="#325bee" stroke="none" transform="matrix(1 0 0 1 14 12 )" />
  </g>
</svg>