<?xml version="1.0" encoding="utf-8"?>
<svg version="1.1" xmlns:xlink="http://www.w3.org/1999/xlink" width="17px" height="20px" xmlns="http://www.w3.org/2000/svg">
  <defs>
    <linearGradient gradientUnits="userSpaceOnUse" x1="2.61057268722465" y1="2.4382828021075" x2="14.5635829662262" y2="17.7790446575105" id="LinearGradient4620">
      <stop id="Stop4621" stop-color="#81a1ea" offset="0" />
      <stop id="Stop4622" stop-color="#4763a2" offset="1" />
    </linearGradient>
  </defs>
  <g transform="matrix(1 0 0 1 -1736 -22 )">
    <path d="M 16.649375 17.1276595744681  C 16.925625 16.6063829787234  16.861875 16.0106382978723  16.521875 15.5531914893617  L 14.47125 12.8191489361702  C 14.34375 12.6489361702128  14.269375 12.436170212766  14.269375 12.2127659574468  L 14.269375 6.82978723404255  C 14.269375 4.03191489361702  12.271875 1.69148936170213  9.636875 1.15957446808511  C 9.636875 1.1063829787234  9.636875 1.04255319148936  9.615625 0.978723404255319  C 9.605 0.904255319148936  9.58375 0.829787234042554  9.551875 0.765957446808511  C 9.49875 0.627659574468086  9.41375 0.5  9.296875 0.393617021276596  C 8.871875 -0.031914893617021  8.106875 -0.031914893617021  7.67125 0.393617021276596  C 7.618125 0.446808510638298  7.565 0.5  7.5225 0.563829787234043  C 7.48 0.627659574468086  7.448125 0.691489361702128  7.41625 0.765957446808511  C 7.384375 0.829787234042554  7.363125 0.914893617021277  7.3525 0.978723404255319  C 7.341875 1.03191489361702  7.341875 1.09574468085106  7.33125 1.15957446808511  C 4.685625 1.69148936170213  2.69875 4.03191489361702  2.69875 6.82978723404255  L 2.69875 12.2127659574468  C 2.69875 12.4255319148936  2.624375 12.6382978723404  2.496875 12.8191489361702  L 0.44625 15.5531914893617  C 0.10625 16.0106382978723  0.053125 16.6170212765957  0.308125000000001 17.1276595744681  C 0.563125000000001 17.6382978723404  1.073125 17.9574468085106  1.646875 17.9574468085106  L 6.109375 17.9574468085106  C 6.31125 19.0851063829787  7.299375 19.936170212766  8.47875 19.936170212766  C 9.658125 19.936170212766  10.635625 19.0851063829787  10.848125 17.9574468085106  L 15.310625 17.9574468085106  C 15.884375 17.9574468085106  16.394375 17.6382978723404  16.649375 17.1276595744681  Z M 9.66875 17.9468085106383  C 9.488125 18.4255319148936  9.03125 18.7659574468085  8.5 18.7659574468085  C 7.958125 18.7659574468085  7.50125 18.4255319148936  7.320625 17.9468085106383  L 9.66875 17.9468085106383  Z M 15.5975 16.2340425531915  C 15.714375 16.3936170212766  15.66125 16.5425531914894  15.629375 16.6063829787234  C 15.5975 16.6595744680851  15.5125 16.7978723404255  15.32125 16.7978723404255  L 1.668125 16.7978723404255  C 1.476875 16.7978723404255  1.391875 16.6702127659574  1.36 16.6063829787234  C 1.29625 16.4893617021277  1.3175 16.3510638297872  1.391875 16.2446808510638  L 3.665625 13.2021276595745  C 3.793125 13.031914893617  3.8675 12.8191489361702  3.8675 12.5957446808511  L 3.8675 7.03191489361702  C 3.8675 4.61702127659574  5.63125 2.45744680851064  8.0325 2.22340425531915  C 10.784375 1.95744680851064  13.121875 4.12765957446809  13.121875 6.82978723404255  L 13.121875 12.2446808510638  C 13.121875 12.6808510638298  13.26 13.1170212765957  13.525625 13.468085106383  L 15.5975 16.2340425531915  Z " fill-rule="nonzero" fill="url(#LinearGradient4620)" stroke="none" transform="matrix(1 0 0 1 1736 22 )" />
  </g>
</svg>