<?xml version="1.0" encoding="utf-8"?>
<svg version="1.1" xmlns:xlink="http://www.w3.org/1999/xlink" width="12px" height="12px" xmlns="http://www.w3.org/2000/svg">
  <g transform="matrix(1 0 0 1 -1516 -214 )">
    <path d="M 7.77687073469387 6.0353741632653  L 11.7823129285714 10.0408163265306  C 12.0435374081633 10.3020408061224  12.0435374081633 10.7374149795918  11.7823129285714 10.9115646122449  L 10.9115646122449 11.7823129285714  C 10.6503401326531 12.0435374081633  10.2149659591837 12.0435374081633  10.0408163265306 11.7823129285714  L 6.03537416326531 7.77687073469387  L 2.02993196938775 11.7823129285714  C 1.76870748979592 12.0435374081633  1.33333331632653 12.0435374081633  1.15918368367347 11.7823129285714  L 0.28843536734694 10.9115646122449  C 0.0272108877551022 10.6503401326531  0.0272108877551022 10.2149659591837  0.28843536734694 10.0408163265306  L 4.29387756122449 6.0353741632653  L 0.28843536734694 2.02993196938775  C 0.0272108877551022 1.76870748979591  0.0272108877551022 1.33333331632653  0.28843536734694 1.15918368367347  L 1.15918368367347 0.288435367346936  C 1.42040816326531 0.0272108877550987  1.85578233673469 0.0272108877550987  2.02993196938775 0.288435367346936  L 6.03537416326531 4.29387756122449  L 10.0408163265306 0.288435367346936  C 10.3020408061224 0.0272108877550987  10.7374149795918 0.0272108877550987  10.9115646122449 0.288435367346936  L 11.7823129285714 1.15918368367347  C 12.0435374081633 1.4204081632653  12.0435374081633 1.85578233673469  11.7823129285714 2.02993196938775  L 7.77687073469387 6.0353741632653  Z " fill-rule="nonzero" fill="#ffffff" stroke="none" transform="matrix(1 0 0 1 1516 214 )" />
  </g>
</svg>