<?xml version="1.0" encoding="utf-8"?>
<svg version="1.1" xmlns:xlink="http://www.w3.org/1999/xlink" width="14px" height="15px" xmlns="http://www.w3.org/2000/svg">
  <g transform="matrix(1 0 0 1 -1791 -24 )">
    <path d="M 6.85152734375 0.986499786376953  C 4.88502734375 0.986499786376953  3.29002734375 2.55449978637695  3.29002734375 4.48949978637695  C 3.29002734375 6.42449978637695  4.88452734375 7.99299978637695  6.85152734375 7.99299978637695  C 8.81852734375 7.99299978637695  10.41302734375 6.42449978637695  10.41302734375 4.48949978637695  C 10.41302734375 2.55499978637695  8.81852734375 0.986499786376953  6.85152734375 0.986499786376953  Z M 5.51602734375 9.16099978637695  C 2.97502734375 9.16099978637695  0.91552734375 11.186499786377  0.91552734375 13.685999786377  L 0.91552734375 13.977499786377  C 0.91552734375 14.998499786377  2.97502734375 14.999999786377  5.51602734375 14.999999786377  L 8.48452734375 14.999999786377  C 11.02502734375 14.999999786377  13.08502734375 14.962499786377  13.08502734375 13.977499786377  L 13.08502734375 13.685999786377  C 13.08502734375 11.186499786377  11.02552734375 9.16099978637695  8.48452734375 9.16099978637695  L 5.51602734375 9.16099978637695  Z " fill-rule="nonzero" fill="#040b1b" stroke="none" transform="matrix(1 0 0 1 1791 24 )" />
  </g>
</svg>