<?xml version="1.0" encoding="utf-8"?>
<svg version="1.1" xmlns:xlink="http://www.w3.org/1999/xlink" width="20px" height="20px" xmlns="http://www.w3.org/2000/svg">
  <defs>
    <linearGradient gradientUnits="userSpaceOnUse" x1="3.07126198497018" y1="2.4382828021075" x2="17.1336270190897" y2="17.7790446575105" id="LinearGradient4626">
      <stop id="Stop4627" stop-color="#81a1ea" offset="0" />
      <stop id="Stop4628" stop-color="#4763a2" offset="1" />
    </linearGradient>
  </defs>
  <g transform="matrix(1 0 0 1 -5 -5 )">
    <path d="M 0.999999999999999 10  C 0.999999999999999 5.038  5.037 1  10 1  C 14.963 1  19 5.038  19 10  C 19 14.962  14.963 19  10 19  C 5.037 19  0.999999999999999 14.962  0.999999999999999 10  Z M 10 0  C 4.477 0  0 4.477  0 10  C 0 15.523  4.477 20  10 20  C 15.523 20  20 15.523  20 10  C 20 4.477  15.523 0  10 0  Z M 16 10  C 16 9.724  15.776 9.5  15.5 9.5  L 10.5 9.5  L 10.5 4.5  C 10.5 4.224  10.276 4  10 4  C 9.724 4  9.5 4.224  9.5 4.5  L 9.5 9.5  L 4.5 9.5  C 4.224 9.5  4 9.724  4 10  C 4 10.276  4.224 10.5  4.5 10.5  L 9.5 10.5  L 9.5 15.5  C 9.5 15.776  9.724 16  10 16  C 10.276 16  10.5 15.776  10.5 15.5  L 10.5 10.5  L 15.5 10.5  C 15.776 10.5  16 10.276  16 10  Z " fill-rule="nonzero" fill="url(#LinearGradient4626)" stroke="none" transform="matrix(1 0 0 1 5 5 )" />
  </g>
</svg>