<?xml version="1.0" encoding="utf-8"?>
<svg version="1.1" xmlns:xlink="http://www.w3.org/1999/xlink" width="20px" height="20px" xmlns="http://www.w3.org/2000/svg">
  <defs>
    <linearGradient gradientUnits="userSpaceOnUse" x1="3.07126198497018" y1="2.4382828021075" x2="17.1336270190897" y2="17.7790446575105" id="LinearGradient4629">
      <stop id="Stop4630" stop-color="#81a1ea" offset="0" />
      <stop id="Stop4631" stop-color="#4763a2" offset="1" />
    </linearGradient>
  </defs>
  <g transform="matrix(1 0 0 1 -5 -5 )">
    <path d="M 20 10  C 20 15.5133333333333  15.5144444444444 20  10 20  C 4.48555555555555 20  0 15.5133333333333  0 10  C 0 4.48666666666666  4.48555555555555 0  10 0  C 15.5144444444444 0  20 4.48666666666667  20 10  Z M 10.5555555555556 10.5555555555556  L 16.1111111111111 10.5555555555556  C 16.4177777777778 10.5555555555556  16.6666666666667 10.3066666666667  16.6666666666667 10  C 16.6666666666667 9.69333333333333  16.4177777777778 9.44444444444444  16.1111111111111 9.44444444444444  L 10.5555555555556 9.44444444444444  L 10.5555555555556 3.88888888888889  C 10.5555555555556 3.58222222222222  10.3066666666667 3.33333333333333  10 3.33333333333333  C 9.69333333333333 3.33333333333333  9.44444444444444 3.58222222222222  9.44444444444444 3.88888888888889  L 9.44444444444444 9.44444444444444  L 3.88888888888889 9.44444444444444  C 3.58222222222222 9.44444444444444  3.33333333333333 9.69333333333333  3.33333333333333 10  C 3.33333333333333 10.3066666666667  3.58222222222222 10.5555555555556  3.88888888888889 10.5555555555556  L 9.44444444444444 10.5555555555556  L 9.44444444444444 16.1111111111111  C 9.44444444444444 16.4177777777778  9.69333333333333 16.6666666666667  10 16.6666666666667  C 10.3066666666667 16.6666666666667  10.5555555555556 16.4177777777778  10.5555555555556 16.1111111111111  L 10.5555555555556 10.5555555555556  Z " fill-rule="nonzero" fill="url(#LinearGradient4629)" stroke="none" transform="matrix(1 0 0 1 5 5 )" />
  </g>
</svg>