<?xml version="1.0" encoding="utf-8"?>
<svg version="1.1" xmlns:xlink="http://www.w3.org/1999/xlink" width="16px" height="13px" xmlns="http://www.w3.org/2000/svg">
  <g transform="matrix(1 0 0 1 -22 -22 )">
    <path d="M 4.23913979032258 9.36693333875  L 4.38365591935484 9.24213333875  L 3.2860215 10.34453333875  L 1.03569891935484 10.34453333875  L 1.03569891935484 7.88666666125  C 1.03569891935484 7.62245363693095  0.82310638766159 7.40826666125  0.560860209677419 7.40826666125  C 0.298614031693249 7.40826666125  0.0860215000000001 7.62245363693095  0.0860215000000001 7.88666666125  L 0.0860215 12.4696  C 0.0860215 12.7338130243191  0.298614031693249 12.948  0.560860209677419 12.948  C 0.82310638766159 12.948  1.03569891935484 12.7338130243191  1.03569891935484 12.4696  L 1.03569891935484 11.30133333875  L 3.67483870967742 11.30133333875  L 4.91010753225806 10.06026666125  C 5.0028749751212 9.96914004110865  5.05519063287186 9.84413516923322  5.05519063287186 9.7136  C 5.05519063287186 9.44619961675057  4.84003347096717 9.2294287761316  4.57462366129032 9.2294287761316  C 4.44927588053 9.2294287761316  4.32888881816462 9.27877174546039  4.23913979032258 9.36693333875  Z M 15.3806451612903 6.35786666125  L 15.3944085967742 6.3648  L 7.05032258064516 0.98453333875  C 7.04392771477166 0.971945522116598  7.03445389668982 0.961207543531721  7.02279569354839 0.95333333875  L 6.96774193548387 0.93253333875  L 5.72903225806452 0.13173333875  C 5.65398686362805 0.0800887560551639  5.56528937188798 0.0523138543851969  5.47440859677419 0.0519999999999998  L 4.18752688709677 0.052  C 4.02992391324 0.0524647861535648  3.88236554289994 0.130029162194154  3.7918279516129 0.26  L 1.2318279516129 4.14613333875  C 0.917435199647033 4.64411542304133  1.06206679920237 5.30448943695075  1.55526882258065 5.62293333875  L 9.24903225806452 10.608  C 9.55726659081499 10.8070548856076  9.91517918538415 10.9140319793975  10.2812903225806 10.91653333875  C 10.614647317993 10.9159984646517  10.9420584032153 10.8275559502525  11.2309677419355 10.66  L 15.3221505322581 8.35466666125  C 15.687048513375 8.14860727168668  15.9130069170667 7.76003330791626  15.9130069170667 7.33858846405474  C 15.9130069170667 6.94164635647064  15.7123689255029 6.57202917292489  15.3806451612903 6.35786666125  Z M 2.06107527419355 4.82906666125  C 2.00980986529299 4.79511010959275  1.99328983469379 4.72702131132892  2.02322580645161 4.67306666125  L 4.4318279516129 1.01226666125  L 5.32645161290323 1.01226666125  L 6.07655914516129 1.4976  L 3.28258064516129 5.616  L 2.06107527419355 4.82906666125  Z M 14.9746236612903 7.34933333875  L 14.9643010806452 7.34933333875  C 14.9646576119789 7.42380999291845  14.9234195904117 7.49216200677577  14.8576344032258 7.52613333875  L 10.7698924677419 9.83493333875  C 10.4538764344682 10.012798899904  10.0663053681072 10.0008046996251  9.76172043548387 9.80373333875  L 4.08086020967742 6.13253333875  L 6.88516129032258 2.01066666125  L 14.8817204354839 7.16906666125  C 14.9433177140065 7.207293702241  14.9790256929346 7.27658041070282  14.9746236612903 7.34933333875  Z " fill-rule="nonzero" fill="#ffffff" stroke="none" transform="matrix(1 0 0 1 22 22 )" />
  </g>
</svg>