<?xml version="1.0" encoding="utf-8"?>
<svg version="1.1" xmlns:xlink="http://www.w3.org/1999/xlink" width="16px" height="13px" xmlns="http://www.w3.org/2000/svg">
  <g transform="matrix(1 0 0 1 -14 -14 )">
    <path d="M 4.23913979032258 9.36693333875  L 4.38365591935484 9.24213333874999  L 3.2860215 10.34453333875  L 1.03569891935484 10.34453333875  L 1.03569891935484 7.88666666125  C 1.03569891935484 7.62245363693094  0.823106387661589 7.40826666125  0.560860209677422 7.40826666125  C 0.298614031693248 7.40826666125  0.0860215000000011 7.62245363693094  0.0860215000000011 7.88666666125  L 0.0860215000000011 12.4696  C 0.0860215000000011 12.733813024319  0.298614031693248 12.948  0.560860209677422 12.948  C 0.823106387661589 12.948  1.03569891935484 12.733813024319  1.03569891935484 12.4696  L 1.03569891935484 11.30133333875  L 3.67483870967742 11.30133333875  L 4.91010753225807 10.06026666125  C 5.0028749751212 9.96914004110866  5.05519063287186 9.84413516923321  5.05519063287186 9.7136  C 5.05519063287186 9.44619961675058  4.84003347096717 9.2294287761316  4.57462366129032 9.2294287761316  C 4.44927588053 9.2294287761316  4.32888881816462 9.27877174546039  4.23913979032258 9.36693333875  Z M 15.3806451612903 6.35786666125  L 15.3944085967742 6.3648  L 7.05032258064516 0.984533338749998  C 7.04392771477166 0.971945522116599  7.03445389668982 0.961207543531721  7.02279569354839 0.953333338749999  L 6.96774193548387 0.932533338749998  L 5.72903225806451 0.131733338750003  C 5.65398686362805 0.0800887560551615  5.56528937188799 0.0523138543851971  5.4744085967742 0.0519999999999996  L 4.18752688709677 0.0519999999999996  C 4.02992391324 0.0524647861535641  3.88236554289995 0.130029162194155  3.7918279516129 0.259999999999998  L 1.23182795161291 4.14613333875  C 0.917435199647031 4.64411542304133  1.06206679920237 5.30448943695075  1.55526882258064 5.62293333875  L 9.24903225806452 10.608  C 9.55726659081499 10.8070548856076  9.91517918538415 10.9140319793975  10.2812903225806 10.91653333875  C 10.614647317993 10.9159984646517  10.9420584032153 10.8275559502525  11.2309677419355 10.66  L 15.3221505322581 8.35466666125001  C 15.687048513375 8.14860727168669  15.9130069170667 7.76003330791626  15.9130069170667 7.33858846405474  C 15.9130069170667 6.94164635647064  15.7123689255029 6.57202917292489  15.3806451612903 6.35786666125  Z " fill-rule="nonzero" fill="#325bee" stroke="none" transform="matrix(1 0 0 1 14 14 )" />
  </g>
</svg>