<?xml version="1.0" encoding="utf-8"?>
<svg version="1.1" xmlns:xlink="http://www.w3.org/1999/xlink" width="16px" height="16px" xmlns="http://www.w3.org/2000/svg">
  <g transform="matrix(1 0 0 1 -22 -20 )">
    <path d="M 15.5555555555556 6.29013778047496  C 15.5545146666667 5.47639342514545  15.1651377777778 4.69904835869471  14.5108506666667 4.21163306994121  L 9.56467022222222 0.515994919856668  C 8.64324693333333 -0.171998306618889  7.35545048888889 -0.171998306618889  6.43402773333333 0.515994919856668  L 1.4878472 4.21163306994121  C 0.83460808 4.70008720313887  0.444444444444444 5.47639342514545  0.444444444444444 6.29013778047496  L 0.444444444444444 13.401845334055  C 0.444444444444444 14.8349893336569  1.61438097777778 15.9999902222222  3.05338542222222 15.9999902222222  L 12.9466142222222 15.9999902222222  C 14.3856186666667 15.9999902222222  15.5555555555556 14.8349893336569  15.5555555555556 13.401845334055  L 15.5555555555556 6.29013778047496  Z M 8.76660577777778 1.58411067067108  L 13.7127866666667 5.27974871408896  L 13.7143066666667 5.28088249186642  C 14.0523771851852 5.53273078809276  14.2216823703704 5.86914921762894  14.2222222222222 6.29013778047496  L 14.2222222222222 13.401845334055  C 14.2222222222222 14.2450530375245  13.7970195555556 14.6666568892593  12.9466142222222 14.6666568892593  L 3.05338542222222 14.6666568892593  C 2.20298032592593 14.6666568892593  1.77777777777778 14.2450530375245  1.77777777777778 13.401845334055  L 1.77777777777778 6.29013778047496  C 1.77777777777778 5.8698471731843  1.94715564444444 5.5330508177223  2.28591137777778 5.27974871408896  L 7.23174373333333 1.58437004844879  C 7.74348056296296 1.20227499670307  8.25510124444444 1.20218853744384  8.76660577777778 1.58411067067108  Z " fill-rule="nonzero" fill="#ffffff" stroke="none" transform="matrix(1 0 0 1 22 20 )" />
  </g>
</svg>