<?xml version="1.0" encoding="utf-8"?>
<svg version="1.1" xmlns:xlink="http://www.w3.org/1999/xlink" width="16px" height="15px" xmlns="http://www.w3.org/2000/svg">
  <g transform="matrix(1 0 0 1 -23 -20 )">
    <path d="M 8.35952170542635 14.7734426280738  C 8.24612192248062 14.8858548104508  8.13272215503876 14.9233255327869  7.9815224496124 14.9233255327869  C 7.83032274418605 14.9233255327869  7.67912303875969 14.8858548104508  7.60352319379845 14.7734426280738  L 5.3733275503876 12.6376112397541  L 1.6689347751938 12.6376112397541  C 0.799536480620155 12.6750819620902  0.0813378759689922 12.0380796209016  0.00573803100775194 11.1762529303279  L 0.00573803100775194 1.84604216188524  C -0.0698618139534884 0.946744733606554  0.610536852713178 0.159859487704915  1.51773506976744 0  L 14.2563102015504 0  C 15.1635084341085 0.084918027663931  15.8817070232558 0.834332551229505  15.8817070232558 1.73362997950819  L 15.8817070232558 10.9888993032787  C 15.9195069457364 11.8507259938525  15.2769082015504 12.562669795082  14.4075099069767 12.6376112397541  L 10.5519174263566 12.6376112397541  L 8.35952170542635 14.7734426280738  Z M 1.47993514728682 11.5509601844262  L 5.60012710077519 11.5509601844262  C 5.75132680620155 11.5509601844262  5.86472658914729 11.5884309067623  5.97812635658915 11.7008430891393  L 7.9815224496124 13.6118501127049  L 9.94711860465116 11.7008430891393  C 10.0605183875969 11.5884309067623  10.1739181550388 11.5509601844262  10.325117875969 11.5509601844262  L 14.2185102635659 11.5509601844262  C 14.483109751938 11.5884309067623  14.7477092248062 11.4010772797131  14.7855091627907 11.1387822079918  L 14.7855091627907 1.84604216188525  C 14.7855091627907 1.3963934477459  14.5965095348837 1.17156909836066  14.2185102635659 1.1715690829918  L 1.63113485271318 1.1715690829918  C 1.25313559689922 1.1715690829918  1.06413595348837 1.43386417008197  1.06413596899225 1.84604216188525  L 1.06413596899225 10.9888993032787  C 1.02633604651163 11.2511943903689  1.2153356744186 11.5134894620902  1.47993514728682 11.5509601844262  Z " fill-rule="nonzero" fill="#ffffff" stroke="none" transform="matrix(1 0 0 1 23 20 )" />
  </g>
</svg>