<?xml version="1.0" encoding="utf-8"?>
<svg version="1.1" xmlns:xlink="http://www.w3.org/1999/xlink" width="16px" height="15px" xmlns="http://www.w3.org/2000/svg">
  <g transform="matrix(1 0 0 1 -15 -12 )">
    <path d="M 8.35952170542635 14.7734426280738  C 8.24612192248063 14.8858548104508  8.13272215503875 14.9233255327869  7.98152244961241 14.9233255327869  C 7.83032274418605 14.9233255327869  7.67912303875968 14.8858548104508  7.60352319379845 14.7734426280738  L 5.37332755038759 12.6376112397541  L 1.6689347751938 12.6376112397541  C 0.799536480620162 12.6750819620902  0.0813378759689982 12.0380796209016  0.00573803100775194 11.1762529303279  L 0.00573803100775194 1.84604216188524  C -0.0698618139534943 0.94674473360655  0.610536852713182 0.159859487704921  1.51773506976744 0  L 14.2563102015504 0  C 15.1635084341085 0.0849180276639174  15.8817070232558 0.834332551229494  15.8817070232558 1.73362997950818  L 15.8817070232558 10.9888993032787  C 15.9195069457364 11.8507259938524  15.2769082015504 12.562669795082  14.4075099069767 12.6376112397541  L 10.5519174263566 12.6376112397541  L 8.35952170542635 14.7734426280738  Z M 8.35952170542635 11.1762529303279  L 7.98152244961241 13.5333333333343  C 7.98152244961241 13.5333333333343  8.32172176744183 11.4385480020492  8.35952170542635 11.1762529303279  Z " fill-rule="nonzero" fill="#325bee" stroke="none" transform="matrix(1 0 0 1 15 12 )" />
  </g>
</svg>