<?xml version="1.0" encoding="utf-8"?>
<svg version="1.1" xmlns:xlink="http://www.w3.org/1999/xlink" width="10px" height="5px" xmlns="http://www.w3.org/2000/svg">
  <g transform="matrix(1 0 0 1 -18 -16 )">
    <path d="M 9.881973328125 0.724688637820513  C 9.9200685625 1.03726495192308  9.65340190625 1.34984126602564  9.310544765625 1.34984126602564  L 0.701020953125 1.34984126602564  C 0.3581638125 1.34984126602564  0.091497140625 1.07633698717949  0.091497140625 0.724688637820513  C 0.091497140625 0.373040288461539  0.3581638125 0.0995360096153847  0.701020953125 0.0995360256410257  L 9.27244953125 0.0995360256410257  C 9.615306671875 0.0995360256410257  9.88197334375 0.373040304487179  9.881973328125 0.724688637820513  Z M 7.710544765625 4.31931623397436  C 7.74864 4.63189254807692  7.48197334375 4.94446886217949  7.1391161875 4.94446886217949  L 0.701020953125 4.94446886217949  C 0.3581638125 4.94446886217949  0.091497140625 4.67096458333333  0.091497140625 4.31931623397436  C 0.091497140625 3.96766788461539  0.3581638125 3.69416360576923  0.701020953125 3.69416362179487  L 7.101020953125 3.69416362179487  C 7.44387809375 3.69416362179487  7.710544765625 3.96766790064103  7.710544765625 4.31931623397436  Z " fill-rule="nonzero" fill="#2f3744" stroke="none" transform="matrix(1 0 0 1 18 16 )" />
  </g>
</svg>