<?xml version="1.0" encoding="utf-8"?>
<svg version="1.1" xmlns:xlink="http://www.w3.org/1999/xlink" width="16px" height="16px" xmlns="http://www.w3.org/2000/svg">
  <g transform="matrix(1 0 0 1 -23 -20 )">
    <path d="M 16 13.666666671875  C 16 14.966666671875  14.966666671875 16  13.666666671875 16  L 2.333333328125 16  C 1.033333328125 16  0 14.966666671875  0 13.666666671875  L 0 2.333333328125  C 0 1.033333328125  1.033333328125 0  2.333333328125 0  L 13.666666671875 0  C 14.966666671875 0  16 1.033333328125  16 2.333333328125  L 16 13.666666671875  Z M 13.666666671875 1.333333328125  L 2.333333328125 1.333333328125  C 1.766666671875 1.333333328125  1.333333328125 1.766666671875  1.333333328125 2.333333328125  L 1.333333328125 13.666666671875  C 1.333333328125 14.23333334375  1.76666665625 14.666666671875  2.333333328125 14.666666671875  L 13.666666671875 14.666666671875  C 14.23333334375 14.666666671875  14.666666671875 14.23333334375  14.666666671875 13.666666671875  L 14.666666671875 2.333333328125  C 14.666666671875 1.76666665625  14.23333334375 1.333333328125  13.666666671875 1.333333328125  Z M 12.666666671875 5.5  C 12.666666671875 5.166666671875  12.366666671875 4.866666671875  12.033333328125 4.866666671875  L 11.366666671875 4.866666671875  C 11.1 4.266666671875  10.53333334375 3.866666671875  9.833333328125 3.866666671875  C 9.1333333125 3.866666671875  8.56666665625 4.266666671875  8.3 4.866666671875  L 3.966666671875 4.866666671875  C 3.6 4.866666671875  3.33333334375 5.166666671875  3.333333328125 5.5  L 3.333333328125 5.533333328125  C 3.333333328125 5.9  3.633333328125 6.16666665625  3.966666671875 6.166666671875  L 8.3 6.166666671875  C 8.566666671875 6.766666671875  9.133333328125 7.166666671875  9.833333328125 7.166666671875  C 10.533333328125 7.166666671875  11.1 6.766666671875  11.366666671875 6.166666671875  L 12.033333328125 6.166666671875  C 12.4 6.166666671875  12.66666665625 5.866666671875  12.666666671875 5.533333328125  L 12.666666671875 5.5  Z M 12.666666671875 10.5  C 12.666666671875 10.166666671875  12.366666671875 9.866666671875  12.033333328125 9.866666671875  L 7.7 9.866666671875  C 7.433333328125 9.266666671875  6.866666671875 8.866666671875  6.166666671875 8.866666671875  C 5.466666671875 8.866666671875  4.9 9.266666671875  4.633333328125 9.866666671875  L 3.966666671875 9.866666671875  C 3.6 9.866666671875  3.33333334375 10.166666671875  3.333333328125 10.5  L 3.333333328125 10.533333328125  C 3.333333328125 10.9  3.633333328125 11.16666665625  3.966666671875 11.166666671875  L 4.633333328125 11.166666671875  C 4.9 11.766666671875  5.46666665625 12.166666671875  6.166666671875 12.166666671875  C 6.8666666875 12.166666671875  7.43333334375 11.766666671875  7.7 11.166666671875  L 12.033333328125 11.166666671875  C 12.4 11.166666671875  12.66666665625 10.866666671875  12.666666671875 10.533333328125  L 12.666666671875 10.5  Z " fill-rule="nonzero" fill="#ffffff" stroke="none" transform="matrix(1 0 0 1 23 20 )" />
  </g>
</svg>