<?xml version="1.0" encoding="utf-8"?>
<svg version="1.1" xmlns:xlink="http://www.w3.org/1999/xlink" width="16px" height="16px" xmlns="http://www.w3.org/2000/svg">
  <g transform="matrix(1 0 0 1 -15 -12 )">
    <path d="M 16 2.333333328125  C 16 1.033333328125  14.966666671875 0  13.666666671875 0  L 2.333333328125 0  C 1.666666671875 0  1.1 0.266666671875  0.666666671875 0.7  C 0.266666671875 1.133333328125  0 1.7  0 2.333333328125  L 0 13.666666671875  C 0 14.966666671875  1.033333328125 16  2.333333328125 16  L 13.666666671875 16  C 14.966666671875 16  16 14.966666671875  16 13.666666671875  L 16 2.333333328125  Z M 12.666666671875 10.533333328125  L 12.666666671875 10.566666671875  C 12.666666671875 10.93333334375  12.366666671875 11.2  12.033333328125 11.2  L 7.7 11.2  C 7.433333328125 11.8  6.866666671875 12.2  6.166666671875 12.2  C 5.466666671875 12.2  4.9 11.8  4.633333328125 11.2  L 3.966666671875 11.2  C 3.6 11.2  3.33333334375 10.9  3.333333328125 10.566666671875  L 3.333333328125 10.533333328125  C 3.333333328125 10.16666665625  3.633333328125 9.9  3.966666671875 9.9  L 4.633333328125 9.9  C 4.9 9.3  5.46666665625 8.9  6.166666671875 8.9  C 6.8666666875 8.9  7.43333334375 9.3  7.7 9.9  L 12.033333328125 9.9  C 12.4 9.9  12.66666665625 10.2  12.666666671875 10.533333328125  Z M 12.666666671875 5.533333328125  L 12.666666671875 5.566666671875  C 12.666666671875 5.93333334375  12.366666671875 6.2  12.033333328125 6.2  L 11.366666671875 6.2  C 11.1 6.8  10.53333334375 7.2  9.833333328125 7.2  C 9.1333333125 7.2  8.56666665625 6.8  8.3 6.2  L 3.966666671875 6.2  C 3.6 6.2  3.33333334375 5.9  3.333333328125 5.566666671875  L 3.333333328125 5.533333328125  C 3.333333328125 5.16666665625  3.633333328125 4.9  3.966666671875 4.9  L 8.3 4.9  C 8.566666671875 4.3  9.133333328125 3.9  9.833333328125 3.9  C 10.533333328125 3.9  11.1 4.3  11.366666671875 4.9  L 12.033333328125 4.9  C 12.4 4.9  12.66666665625 5.2  12.666666671875 5.533333328125  Z " fill-rule="nonzero" fill="#325bee" stroke="none" transform="matrix(1 0 0 1 15 12 )" />
  </g>
</svg>