<?xml version="1.0" encoding="utf-8"?>
<svg version="1.1" xmlns:xlink="http://www.w3.org/1999/xlink" width="14px" height="16px" xmlns="http://www.w3.org/2000/svg">
  <g transform="matrix(1 0 0 1 -23 -20 )">
    <path d="M 8.85861052631579 15.8366476190476  C 8.68884210526316 15.9292952380952  8.50964210526316 15.973180952381  8.32572631578947 15.973180952381  C 8.10408421052631 15.973180952381  7.88244210526316 15.9049142857143  7.69381052631579 15.7732571428571  L 5.12370526315789 13.9739428571429  C 4.77002105263158 13.7252571428571  4.55781052631579 13.3156571428571  4.55781052631579 12.8719238095238  L 4.55781052631579 6.62064761904762  L 0.483368421052631 2.42712380952381  C 0.0872421052631575 2.0224  -0.0306526315789477 1.41287619047619  0.181557894736842 0.881371428571428  C 0.393768421052631 0.349866666666666  0.893642105263157 0.00365714285714273  1.45010526315789 0  L 12.6265263157895 0  C 13.1829894736842 0.00365714285714273  13.6828631578947 0.349866666666667  13.8950736842105 0.881371428571428  C 14.1072842105263 1.41287619047619  13.9893894736842 2.0224  13.5885473684211 2.42712380952381  L 9.45751578947369 6.64502857142857  L 9.45751578947369 14.8028952380952  C 9.45751578947369 15.2368761904762  9.22644210526316 15.6318476190476  8.85861052631579 15.8366476190476  Z M 1.45482105263158 1.17881904761905  L 1.45482105263158 1.17394285714286  C 1.31334736842105 1.17394285714286  1.25675789473684 1.27146666666667  1.23317894736842 1.32510476190476  C 1.2096 1.38361904761905  1.18602105263158 1.49089523809524  1.28505263157895 1.59329523809524  L 5.52454736842105 5.96236190476191  C 5.63301052631579 6.07451428571428  5.6896 6.2208  5.6896 6.3768380952381  L 5.6896 12.8719238095238  C 5.6896 12.9255619047619  5.71317894736842 12.9743238095238  5.75562105263158 13.003580952381  L 8.32101052631579 14.798019047619  L 8.32101052631579 6.40121904761905  C 8.32101052631579 6.24518095238095  8.38231578947368 6.09401904761905  8.49077894736842 5.98674285714286  L 12.7915789473684 1.59817142857143  C 12.8906105263158 1.49577142857143  12.8670315789474 1.38361904761905  12.8434526315789 1.32998095238095  C 12.8198736842105 1.27634285714286  12.7632842105263 1.17881904761905  12.6218105263158 1.17881904761905  L 1.45482105263158 1.17881904761905  Z " fill-rule="nonzero" fill="#ffffff" stroke="none" transform="matrix(1 0 0 1 23 20 )" />
  </g>
</svg>