<?xml version="1.0" encoding="utf-8"?>
<svg version="1.1" xmlns:xlink="http://www.w3.org/1999/xlink" width="5px" height="8px" xmlns="http://www.w3.org/2000/svg">
  <g transform="matrix(1 0 0 1 -34 -27 )">
    <path d="M 4.91333333333333 0.652549019607843  C 4.91333333333333 0.98886274509804  4.67333333333333 1.25490196078431  4.38 1.25490196078431  L 0.562222222222223 1.25490196078431  C 0.26888888888889 1.25490196078431  0.0288888888888887 0.983843137254903  0.0288888888888887 0.652549019607843  C 0.0288888888888887 0.321254901960782  0.268888888888888 0.0501960784313715  0.562222222222223 0.0501960784313715  L 4.38 0.0501960784313715  C 4.67333333333333 0.0501960784313715  4.91333333333333 0.321254901960783  4.91333333333333 0.652549019607843  Z M 4.91333333333333 3.96549019607843  C 4.91333333333333 4.29678431372549  4.67333333333333 4.5678431372549  4.38 4.5678431372549  L 0.562222222222223 4.5678431372549  C 0.26888888888889 4.5678431372549  0.0288888888888887 4.29678431372549  0.0288888888888887 3.96549019607843  C 0.0288888888888887 3.63419607843137  0.268888888888888 3.36313725490196  0.562222222222223 3.36313725490196  L 4.38 3.36313725490196  C 4.67333333333333 3.36313725490196  4.91333333333333 3.63419607843137  4.91333333333333 3.96549019607843  Z M 4.91333333333333 7.27341176470588  C 4.91333333333333 7.60470588235294  4.67333333333333 7.87576470588235  4.38 7.87576470588235  L 0.562222222222223 7.87576470588235  C 0.26888888888889 7.87576470588235  0.0288888888888887 7.60470588235294  0.0288888888888887 7.27341176470588  C 0.0288888888888887 6.94211764705882  0.268888888888888 6.67105882352941  0.562222222222223 6.67105882352941  L 4.38 6.67105882352941  C 4.67333333333333 6.67105882352941  4.91333333333333 6.94211764705882  4.91333333333333 7.27341176470588  Z " fill-rule="nonzero" fill="#ffffff" stroke="none" transform="matrix(1 0 0 1 34 27 )" />
  </g>
</svg>