<?xml version="1.0" encoding="utf-8"?>
<svg version="1.1" xmlns:xlink="http://www.w3.org/1999/xlink" width="14px" height="16px" xmlns="http://www.w3.org/2000/svg">
  <g transform="matrix(1 0 0 1 -15 -12 )">
    <path d="M 8.85861052631579 15.8366476190476  C 8.68884210526316 15.9292952380952  8.50964210526317 15.973180952381  8.32572631578947 15.973180952381  C 8.10408421052631 15.973180952381  7.88244210526315 15.9049142857143  7.69381052631579 15.7732571428571  L 5.12370526315789 13.9739428571429  C 4.77002105263158 13.7252571428571  4.55781052631579 13.3156571428571  4.55781052631579 12.8719238095238  L 4.55781052631579 6.62064761904762  L 0.483368421052631 2.42712380952381  C 0.087242105263158 2.0224  -0.0306526315789455 1.41287619047619  0.181557894736841 0.881371428571429  C 0.393768421052627 0.349866666666666  0.893642105263154 0.00365714285714258  1.45010526315789 0  L 12.6265263157895 0  C 13.1829894736842 0.00365714285714258  13.6828631578947 0.349866666666666  13.8950736842105 0.881371428571429  C 14.1072842105263 1.41287619047619  13.9893894736842 2.0224  13.588547368421 2.42712380952381  L 9.45751578947369 6.64502857142857  L 9.45751578947369 14.8028952380952  C 9.45751578947369 15.2368761904762  9.22644210526316 15.6318476190476  8.85861052631579 15.8366476190476  Z " fill-rule="nonzero" fill="#325bee" stroke="none" transform="matrix(1 0 0 1 15 12 )" />
  </g>
</svg>