<?xml version="1.0" encoding="utf-8"?>
<svg version="1.1" xmlns:xlink="http://www.w3.org/1999/xlink" width="16px" height="14px" xmlns="http://www.w3.org/2000/svg">
  <g transform="matrix(1 0 0 1 -23 -21 )">
    <path d="M 16 12.3291503210784  C 15.96444445 13.2075816936275  15.2533333333333 13.9103267916667  14.4 14  L 1.6 14  C 0.746666666666667 13.9103267916667  0.0355555499999999 13.1783006421569  0 12.2998692867647  L 0 1.70013071323529  C 0.0355555499999999 0.821699340686274  0.746666666666666 0.0896731911764705  1.6 0  L 14.4 0  C 15.2533333333333 0.0896732083333334  15.96444445 0.821699357843137  16 1.70013071323529  L 16 12.3291503210784  Z M 14.4 1  L 1.6 1  C 1.20177778333333 0.968104580882353  0.888888883333333 1.29019607843137  1 1.70013071323529  L 1 12.3291503210784  C 0.888888883333333 12.7390849558824  1.20177776666667 13.0611764705882  1.6 13  L 14.4 13  C 14.7982222166667 13.0611764705882  15.1111111166667 12.7390849730392  15 12.3291503210784  L 15 1.70013071323529  C 15.1111111166667 1.29019607843137  14.7982222333333 0.96810456372549  14.4 1  Z " fill-rule="nonzero" fill="#ffffff" stroke="none" transform="matrix(1 0 0 1 23 21 )" />
  </g>
</svg>