<?xml version="1.0" encoding="utf-8"?>
<svg version="1.1" xmlns:xlink="http://www.w3.org/1999/xlink" width="16px" height="8px" xmlns="http://www.w3.org/2000/svg">
  <g transform="matrix(1 0 0 1 -23 -24 )">
    <path d="M 15.96444445 0.520888883333333  C 15.96444445 0.748444433333334  15.7653333333333 0.94755555  15.5377777833333 1  L 0.462222216666667 1  C 0.234666666666667 0.94755555  0.0355555500000002 0.748444433333334  0.0355555500000002 0.520888883333333  C 0.0355555500000002 0.293333333333333  0.234666666666667 0.0942222166666662  0.462222216666667 0  L 15.5377777833333 0  C 15.7653333333333 0.0942222166666662  15.96444445 0.293333333333333  15.96444445 0.520888883333333  Z M 4.928 7.83111111666667  C 4.87111111666667 7.85955556666667  4.75733333333333 7.91644445  4.64355555 7.91644445  C 4.52977776666667 7.91644445  4.416 7.888  4.33066666666667 7.80266666666667  L 2.22577778333333 5.69777778333333  C 2.05511111666667 5.52711111666667  2.05511111666667 5.27111111666667  2.22577778333333 5.10044445  L 4.33066666666667 2.99555555  C 4.50133333333333 2.82488888333333  4.75733333333333 2.82488888333333  4.928 2.99555555  C 5.09866666666667 3.16622221666667  5.09866666666667 3.42222221666667  4.928 3.59288888333333  L 3.10755555 5.41333333333333  L 4.928 7.23377778333333  C 5.09866666666667 7.40444445  5.09866666666667 7.66044445  4.928 7.83111111666667  Z M 11.6408888833333 7.77422221666666  C 11.55555555 7.85955555  11.4702222166667 7.91644443333333  11.35644445 7.91644445  C 11.2426666666667 7.91644445  11.1288889 7.888  11.04355555 7.80266666666667  C 10.8728888833333 7.632  10.8728888833333 7.376  11.04355555 7.20533333333333  L 12.864 5.38488888333333  L 11.04355555 3.56444445  C 10.8728888833333 3.39377778333333  10.8728888833333 3.13777778333333  11.04355555 2.96711111666666  C 11.2142222166667 2.79644445  11.4702222166667 2.79644445  11.6408888833333 2.96711111666666  L 13.7457777833333 5.072  C 13.91644445 5.24266666666666  13.91644445 5.49866666666666  13.7457777833333 5.66933333333333  L 11.6408888833333 7.77422221666666  Z " fill-rule="nonzero" fill="#ffffff" stroke="none" transform="matrix(1 0 0 1 23 24 )" />
  </g>
</svg>