<?xml version="1.0" encoding="utf-8"?>
<svg version="1.1" xmlns:xlink="http://www.w3.org/1999/xlink" width="16px" height="14px" xmlns="http://www.w3.org/2000/svg">
  <g transform="matrix(1 0 0 1 -15 -13 )">
    <path d="M 0.0355555499999999 2.6956862745098  L 15.96444445 2.6956862745098  L 15.96444445 1.67084967892157  C 15.96444445 0.792418306372549  15.2533333333333 0.0603921568627448  14.4 0  L 1.6 0  C 0.746666666666667 0.0603921568627448  0.0355555499999999 0.792418306372549  0.0355555499999999 1.67084967892157  L 0.0355555499999999 2.6956862745098  Z M 15.96444445 4  L 0.03555555 4  L 0.03555555 12.2998692867647  C 0.03555555 13.1783006593137  0.746666666666667 13.9103268088235  1.6 14  L 14.4 14  C 15.2533333333333 13.9103267916667  15.96444445 13.1783006421569  15.96444445 12.2998692867647  L 15.96444445 4  Z M 3.33511111666667 8.28836600735294  L 5.04177778333333 10.045228752451  C 5.26933333333333 10.2794771127451  5.26933333333333 10.6308496617647  5.04177778333333 10.8650980392157  C 4.928 10.9822222279412  4.78577778333333 11.0407843137255  4.64355555 11.0407843137255  C 4.50133331666667 11.0407843137255  4.3591111 10.9822222279412  4.24533333333333 10.8650980392157  L 2.14044445 8.69830065931373  C 1.9128889 8.46405229901961  1.9128889 8.11267975  2.14044445 7.87843137254902  L 4.24533333333333 5.71163399264706  C 4.47288888333333 5.47738563235294  4.81422221666667 5.47738563235294  5.04177778333333 5.71163399264706  C 5.26933333333333 5.94588235294118  5.26933333333333 6.29725490196078  5.04177778333333 6.5315032622549  L 3.33511111666667 8.28836600735294  Z M 8.82488888333333 5.18457516911765  C 9.13777776666666 5.30169935784314  9.30844443333333 5.62379085539216  9.22311111666667 5.94588235294118  L 7.88622221666667 10.6308496789216  C 7.80088888333333 10.8943790906863  7.57333333333333 11.0407843137255  7.34577778333333 11.0407843137255  C 7.2888889 11.0407843137255  7.232 11.0407843137255  7.17511111666667 11.0115032622549  C 6.86222223333333 10.923660125  6.69155556666667 10.601568627451  6.77688888333333 10.279477129902  L 8.11377778333333 5.59450980392157  C 8.19911111666667 5.27241830637255  8.512 5.09673203186274  8.82488888333333 5.18457516911765  Z M 13.85955555 7.87843137254902  C 14.0871111 8.08339869852941  14.0871111 8.46405228186275  13.85955555 8.69830065931373  L 11.7546666666667 10.8650980392157  C 11.6408888833333 10.9822222279412  11.4986666666667 11.0407843137255  11.35644445 11.0407843137255  C 11.2142222333333 11.0407843137255  11.072 10.9822222279412  10.9582222166667 10.8650980392157  C 10.7306666666667 10.6308496789216  10.7306666666667 10.279477129902  10.9582222166667 10.045228752451  L 12.6648888833333 8.28836600735294  L 10.9582222166667 6.5315032622549  C 10.7306666666667 6.29725490196079  10.7306666666667 5.94588235294118  10.9582222166667 5.71163399264706  C 11.1857777666667 5.47738563235294  11.5271111 5.47738563235294  11.7546666666667 5.71163399264706  L 13.85955555 7.87843137254902  Z " fill-rule="nonzero" fill="#325bee" stroke="none" transform="matrix(1 0 0 1 15 13 )" />
  </g>
</svg>