<?xml version="1.0" encoding="utf-8"?>
<svg version="1.1" xmlns:xlink="http://www.w3.org/1999/xlink" width="16px" height="16px" xmlns="http://www.w3.org/2000/svg">
  <g transform="matrix(1 0 0 1 -14 -12 )">
    <path d="M 8.33085318095238 0.55595966984127  C 8.22966562539683 0.499261968253969  8.1157314031746 0.46984441904762  8 0.470456177777777  C 7.88669257142857 0.470456177777777  7.77429201269841 0.497856101587303  7.66914681904762 0.553665523809522  L 1.29216274285714 4.00263608888889  C 1.05467733333333 4.13073147936508  0.906746006349205 4.38552665396825  0.906746006349205 4.66552055873016  L 0.906746006349205 11.332931047619  C 0.906746006349205 11.6129086984127  1.05467733333333 11.8677201269841  1.29216274285714 11.9958156190476  L 7.66914681904762 15.4429277460317  C 7.87596982857143 15.5540967619048  8.12402925714286 15.5540967619048  8.33085318095238 15.4429277460317  L 14.707836952381 11.9958156190476  C 14.9453216507937 11.8677211428571  15.0932540952381 11.6129066666667  15.0932540952381 11.332931047619  L 15.0932540952381 4.66552055873016  C 15.0932540952381 4.38552665396825  14.9453216507937 4.13074458412699  14.707836952381 4.00220210793651  L 8.33085318095238 0.55595966984127  Z " fill-rule="nonzero" fill="#325bee" stroke="none" transform="matrix(1 0 0 1 14 12 )" />
  </g>
</svg>