<?xml version="1.0" encoding="utf-8"?>
<svg version="1.1" xmlns:xlink="http://www.w3.org/1999/xlink" width="10px" height="8px" xmlns="http://www.w3.org/2000/svg">
  <g transform="matrix(1 0 0 1 -17 -17 )">
    <path d="M 1.56163191111111 0.651991911111111  L 4.96223955555556 2.46015164444444  L 8.31206577777778 0.676406044444445  C 8.59958311111111 0.520695555555555  8.95233244444444 0.644390133333332  9.09548622222222 0.946208533333333  C 9.23627022222222 1.24403973333333  9.12454222222222 1.60469644444444  8.83940977777777 1.75762346666667  L 5.55121528888889 3.50968506666667  L 5.55208337777778 7.31171377777778  C 5.54971315555556 7.62634044444444  5.31928933333333 7.88775111111111  5.02343751111111 7.91577244444444  C 4.70140497777778 7.91577244444444  4.38932293333333 7.64515022222222  4.38932293333333 7.31090044444444  L 4.38888888888889 3.51771457777778  L 1.08420142222222 1.75718942222222  C 0.836728444444447 1.62468551111111  0.717291555555555 1.33286755555556  0.789062488888888 1.05466124444445  C 0.923495822222222 0.775250311111115  1.2760968 0.537515822222222  1.56163191111111 0.651991911111111  Z " fill-rule="nonzero" fill="#2f3744" stroke="none" fill-opacity="0.996078431372549" transform="matrix(1 0 0 1 17 17 )" />
  </g>
</svg>