<?xml version="1.0" encoding="utf-8"?>
<svg version="1.1" xmlns:xlink="http://www.w3.org/1999/xlink" width="16px" height="16px" xmlns="http://www.w3.org/2000/svg">
  <g transform="matrix(1 0 0 1 -23 -20 )">
    <path d="M 14.709243697479 9.84406779661017  C 14.709243697479 9.36443661016949  14.3239959663866 8.97627118644068  13.8487394957983 8.97627118644068  L 8.68571428571429 8.97627118644068  C 8.21011361344538 8.97627118644068  7.82521008403361 9.36478372881356  7.82521008403361 9.84406779661017  L 7.82521008403361 15.0508474576271  C 7.82521008403361 15.5304786440678  8.21054386554622 15.9186440677966  8.68571428571429 15.9186440677966  L 13.8487394957983 15.9186440677966  C 14.3243401680672 15.9186440677966  14.709243697479 15.5301315254237  14.709243697479 15.0508474576271  L 14.709243697479 9.84406779661017  Z M 13.8344551260504 10.4030155932203  L 13.8344551260504 14.5575918644068  C 13.8344076072614 14.8479481724321  13.6009919732238 15.083303054802  13.3130756302521 15.0833030508475  L 9.19341176470588 15.0833030508475  C 8.90549542173421 15.083303054802  8.67207978769663 14.8479481724321  8.67203226890756 14.5575918644068  L 8.67203226890756 10.4030155932203  C 8.67207977823336 10.1126452431442  8.90548150160513 9.87726553906585  9.19341176470588 9.87721762711864  L 13.3130756302521 9.87721762711864  C 13.6010058933529 9.87726553906585  13.8344076167246 10.1126452431442  13.8344551260504 10.4030155932203  Z M 6.96470588235294 9.84406779661017  C 6.96470588235294 9.36443661016949  6.5794581512605 8.97627118644068  6.10420168067227 8.97627118644068  L 0.941176470588235 8.97627118644068  C 0.46548974789916 8.97627118644068  0.080672268907563 9.36487050847458  0.080672268907563 9.84406779661017  L 0.080672268907563 15.0508474576271  C 0.080672268907563 15.5304786440678  0.466006050420168 15.9186440677966  0.941176470588235 15.9186440677966  L 6.10420168067227 15.9186440677966  C 6.57988840336134 15.9186440677966  6.96470588235294 15.5301315254237  6.96470588235294 15.0508474576271  L 6.96470588235294 9.84406779661017  Z M 6.0755468907563 14.5575918644068  C 6.0755468907563 14.8479341354934  5.84215586544726 15.0833030508475  5.55425344537815 15.0833030508475  L 1.43450352941177 15.0833030508475  C 1.14660110934266 15.0833030508475  0.913210084033614 14.8479341354934  0.913210084033613 14.5575918644068  L 0.913210084033613 10.4030155932203  C 0.913210080112274 10.1126592812404  1.14658719036143 9.87726554860932  1.43450352941176 9.87721762711864  L 5.55416739495798 9.87721762711864  C 5.84208373400832 9.87726554860932  6.07546084425747 10.1126592812404  6.07546084033613 10.4030155932203  L 6.07546084033613 14.5575918644068  Z M 0.080672268907563 7.24067796610169  C 0.080672268907563 7.72030915254237  0.466006050420168 8.10847457627119  0.941176470588235 8.10847457627119  L 6.10420168067227 8.10847457627119  C 6.57988840336134 8.10847457627119  6.96470588235294 7.71987525423729  6.96470588235294 7.24067796610169  L 6.96470588235294 2.03389830508475  C 6.96470588235294 1.55418033898305  6.57937210084034 1.16610169491525  6.10420168067227 1.16610169491525  L 0.941176470588235 1.16610169491525  C 0.46548974789916 1.16610169491525  0.080672268907563 1.55470101694915  0.080672268907563 2.03389830508475  L 0.080672268907563 7.24067796610169  Z M 0.913210084033613 6.71852474576271  L 0.913210084033614 2.56394847457627  C 0.913210084033614 2.27360620348963  1.14660110934266 2.03823728813559  1.43450352941176 2.03823728813559  L 5.55416739495798 2.03823728813559  C 5.84206981502709 2.03823728813559  6.07546084033613 2.27360620348963  6.07546084033613 2.56394847457627  L 6.07546084033613 6.71852474576271  C 6.07546084033613 7.00886701684935  5.84206981502709 7.24423593220339  5.55416739495798 7.24423593220339  L 1.43450352941177 7.24423593220339  C 1.14660110934266 7.24423593220339  0.913210084033614 7.00886701684935  0.913210084033613 6.71852474576271  Z M 15.4390373109244 6.1680813559322  C 15.8509606722689 5.92830915254237  15.9915670588235 5.39773830508475  15.7539818487395 4.98267118644068  L 13.1725552941176 0.473513220338983  C 13.0188960128593 0.204978514443838  12.7348264644948 0.0395398523609997  12.4273932075068 0.0395398523609997  C 12.2762924544838 0.0395398523609997  12.1278566334433 0.0796724248994428  11.9970205042017 0.155899661016949  L 7.52575462184874 2.75920271186441  C 7.1138312605042 2.99906169491525  6.97322487394958 3.52963254237288  7.21081008403361 3.94469966101695  L 9.79223663865546 8.45377084745763  C 9.9458861613287 8.72234222714589  10.2299760859453 8.88780930042071  10.5374359640717 8.88780930042071  C 10.6885221330751 8.88780930042071  10.8369441495701 8.84768447015088  10.9677714285714 8.77147118644068  L 15.4390373109244 6.1680813559322  Z M 14.6776673238462 5.1946885213705  C 14.6776673238462 5.37291875922551  14.5838352997704 5.53774812261594  14.431214789916 5.62761762711864  L 11.0372141176471 7.62641355932204  C 10.8000159946896 7.76604230300848  10.4954900891305 7.68535154046204  10.3569855462185 7.44617220338983  L 8.37507226890756 4.02349559322034  C 8.2366678082454 3.78428030525733  8.31667050152151 3.47721203717443  8.55379899159664 3.33750237288136  L 11.9477136134454 1.33870644067797  C 12.1849117364028 1.19907769699152  12.4894376419619 1.27976845953796  12.6279421848739 1.51894779661017  L 14.6096833613445 4.94162440677966  C 14.6542035483941 5.01840377014108  14.6776673238462 5.10574553930597  14.6776673238462 5.1946885213705  Z " fill-rule="nonzero" fill="#ffffff" stroke="none" transform="matrix(1 0 0 1 23 20 )" />
  </g>
</svg>