<?xml version="1.0" encoding="utf-8"?>
<svg version="1.1" xmlns:xlink="http://www.w3.org/1999/xlink" width="16px" height="16px" xmlns="http://www.w3.org/2000/svg">
  <g transform="matrix(1 0 0 1 -15 -12 )">
    <path d="M 14.709243697479 9.84406779661017  C 14.709243697479 9.36443661016949  14.3239959663865 8.97627118644068  13.8487394957983 8.97627118644068  L 8.68571428571428 8.97627118644068  C 8.21011361344537 8.97627118644068  7.82521008403361 9.36478372881356  7.82521008403361 9.84406779661017  L 7.82521008403361 15.0508474576271  C 7.82521008403361 15.5304786440678  8.21054386554621 15.9186440677966  8.68571428571428 15.9186440677966  L 13.8487394957983 15.9186440677966  C 14.3243401680672 15.9186440677966  14.709243697479 15.5301315254237  14.709243697479 15.0508474576271  L 14.709243697479 9.84406779661017  Z M 6.96470588235294 9.84406779661017  C 6.96470588235294 9.36443661016949  6.57945815126051 8.97627118644068  6.10420168067228 8.97627118644068  L 0.941176470588232 8.97627118644068  C 0.465489747899156 8.97627118644068  0.0806722689075627 9.36487050847458  0.0806722689075627 9.84406779661017  L 0.0806722689075627 15.0508474576271  C 0.0806722689075627 15.5304786440678  0.466006050420162 15.9186440677966  0.941176470588232 15.9186440677966  L 6.10420168067228 15.9186440677966  C 6.57988840336134 15.9186440677966  6.96470588235294 15.5301315254237  6.96470588235294 15.0508474576271  L 6.96470588235294 9.84406779661017  Z M 0.0806722689075627 7.24067796610169  C 0.0806722689075627 7.72030915254237  0.466006050420162 8.10847457627118  0.941176470588232 8.10847457627118  L 6.10420168067228 8.10847457627118  C 6.57988840336134 8.10847457627118  6.96470588235294 7.71987525423729  6.96470588235294 7.24067796610169  L 6.96470588235294 2.03389830508475  C 6.96470588235294 1.55418033898305  6.57937210084033 1.16610169491526  6.10420168067228 1.16610169491526  L 0.941176470588232 1.16610169491526  C 0.465489747899156 1.16610169491526  0.0806722689075627 1.55470101694915  0.0806722689075627 2.03389830508475  L 0.0806722689075627 7.24067796610169  Z M 15.4390373109244 6.1680813559322  C 15.8509606722689 5.92830915254237  15.9915670588235 5.39773830508474  15.7539818487395 4.98267118644068  L 13.1725552941176 0.473513220338983  C 13.0188960128593 0.204978514443837  12.7348264644948 0.0395398523609991  12.4273932075068 0.0395398523609991  C 12.2762924544838 0.0395398523609991  12.1278566334433 0.0796724248994423  11.9970205042017 0.155899661016949  L 7.52575462184873 2.75920271186441  C 7.1138312605042 2.99906169491526  6.97322487394958 3.52963254237288  7.21081008403361 3.94469966101695  L 9.79223663865547 8.45377084745763  C 9.9458861613287 8.72234222714589  10.2299760859453 8.88780930042071  10.5374359640717 8.88780930042071  C 10.6885221330751 8.88780930042071  10.8369441495701 8.84768447015088  10.9677714285714 8.77147118644068  L 15.4390373109244 6.1680813559322  Z " fill-rule="nonzero" fill="#325bee" stroke="none" transform="matrix(1 0 0 1 15 12 )" />
  </g>
</svg>