<?xml version="1.0" encoding="utf-8"?>
<svg version="1.1" xmlns:xlink="http://www.w3.org/1999/xlink" width="10px" height="5px" xmlns="http://www.w3.org/2000/svg">
  <g transform="matrix(1 0 0 1 -154 -18 )">
    <path d="M 5.2204301108871 4.87363183768657  C 5.15929513501564 4.92817206616752  5.07738542940716 4.95820485511659  4.99247311491935 4.95721392723881  C 4.90694823519524 4.95714425560993  4.8249537027646 4.92564875126164  4.76451612903226 4.86965174440298  L 0.140860211693548 0.591044776119403  C 0.0852204507136607 0.535789376259011  0.0542830848879274 0.463071205686442  0.0542830848879274 0.387545541239575  C 0.0542830848879274 0.222684421887099  0.198707359136059 0.0890380785530077  0.376863730049218 0.0890380785530077  C 0.458480173886961 0.0890380785530077  0.537062713054092 0.117666685735029  0.596774193548387 0.169154225746269  L 4.99247311491935 4.23681592350746  L 9.39247311491935 0.169154225746269  C 9.4534905522493 0.108558298683587  9.53897182305914 0.0741459979395313  9.62847663327502 0.0741459979395313  C 9.80663300418818 0.0741459979395313  9.95105727843631 0.207792341273623  9.95105727843631 0.372653460626098  C 9.95105727843631 0.455478807393039  9.91386979214838 0.534580878888711  9.84838709677419 0.591044776119403  L 5.2204301108871 4.87363183768657  Z " fill-rule="nonzero" fill="#ffffff" stroke="none" fill-opacity="0.447058823529412" transform="matrix(1 0 0 1 154 18 )" />
  </g>
</svg>