<?xml version="1.0" encoding="utf-8"?>
<svg version="1.1" xmlns:xlink="http://www.w3.org/1999/xlink" width="16px" height="16px" xmlns="http://www.w3.org/2000/svg">
  <g transform="matrix(1 0 0 1 -14 -12 )">
    <path d="M 7.25303822222222 0.189535484444444  C 7.71939768888889 -0.0631784862222222  8.2806032 -0.0631784862222222  8.74696177777778 0.189535484444444  L 14.6805555555556 3.39667528888889  C 15.2210764444444 3.6888928  15.5555555555556 4.26212142222222  15.5555555555556 4.89700062222222  L 15.5555555555556 11.1012106666667  C 15.5555555555556 11.7336817777778  15.2190924444444 12.3089137777778  14.6805555555556 12.601536  L 8.74869795555555 15.8087306666667  C 8.28220026666667 16.0630035555556  7.72020124444444 16.0637626666667  7.25303822222222 15.8107386666667  L 1.31944444444444 12.6019155555556  C 0.778924408888889 12.3093244444444  0.444444444444444 11.7361173333333  0.444444444444444 11.1016444444444  L 0.444444444444444 4.89705484444444  C 0.444444444444444 4.2645832  0.780906568888889 3.68932684444444  1.31944444444444 3.39710933333333  L 7.25303822222222 0.189535484444444  Z M 8 1.41121511111111  C 7.900856 1.41121511111111  7.80250551111111 1.43562408888889  7.71050346666667 1.48445733333333  L 2.1306424 4.50230657777778  C 1.92284266666667 4.61439004444444  1.79340275555556 4.83733582222222  1.79340275555556 5.08233048888889  L 1.79340275555556 10.9163146666667  C 1.79340275555556 11.1612951111111  1.92284266666667 11.3842551111111  2.1306424 11.4963386666667  L 7.71050346666667 14.5125617777778  C 7.8914736 14.6098346666667  8.1085256 14.6098346666667  8.28949653333333 14.5125617777778  L 13.8693573333333 11.4963386666667  C 14.0771564444444 11.384256  14.2065973333333 11.1612933333333  14.2065973333333 10.9163146666667  L 14.2065973333333 5.08233048888889  C 14.2065973333333 4.83733582222222  14.0771564444444 4.61440151111111  13.8693573333333 4.50192684444444  L 8.28949653333333 1.48646471111111  C 8.20095742222222 1.43685422222222  8.10126497777778 1.41111386666667  8 1.41164915555556  Z M 7.96223955555556 7.46015164444445  L 11.3120657777778 5.67640604444444  C 11.5995831111111 5.52069555555556  11.9523324444444 5.64439013333333  12.0954862222222 5.94620853333333  C 12.2362702222222 6.24403973333333  12.1245422222222 6.60469644444444  11.8394097777778 6.75762346666667  L 8.55121528888889 8.50968506666667  L 8.55208337777778 12.3117137777778  C 8.54971315555556 12.6263404444444  8.31928933333333 12.8877511111111  8.02343751111111 12.9157724444444  L 7.97048613333333 12.9182133333333  C 7.6484536 12.9182133333333  7.38932293333333 12.6451502222222  7.38932293333333 12.3109004444444  L 7.38888888888889 8.51771457777778  L 4.08420142222222 6.75718942222222  C 3.83672844444444 6.62468551111111  3.71729155555556 6.33286755555556  3.78906248888889 6.05466124444444  L 3.8059896 5.9994312  L 3.82899306666667 5.94539475555556  C 3.9634264 5.66598382222222  4.2760968 5.53751582222222  4.56163191111111 5.65199191111111  L 4.61241315555556 5.675972  L 7.96223955555556 7.46015164444445  Z " fill-rule="nonzero" fill="#ffffff" stroke="none" transform="matrix(1 0 0 1 14 12 )" />
  </g>
</svg>