<?xml version="1.0" encoding="utf-8"?>
<svg version="1.1" xmlns:xlink="http://www.w3.org/1999/xlink" width="16px" height="16px" xmlns="http://www.w3.org/2000/svg">
  <g transform="matrix(1 0 0 1 -22 -20 )">
    <path d="M 0.0454545454545455 3.66136363636364  C 0.0454545454545455 6.01136363636364  4.14318181818182 7.27727272727273  8 7.27727272727273  C 11.8568181818182 7.27727272727273  15.9545454545455 6.01136363636364  15.9545454545455 3.66136363636364  C 15.9545454545455 1.31136363636364  11.8568181818182 0.0454545454545455  8 0.0454545454545455  C 4.14318181818182 0.0454545454545455  0.0454545454545455 1.31136363636364  0.0454545454545455 3.66136363636364  Z M 1.49090909090909 3.66136363636364  C 1.49090909090909 2.77727272727273  4.02727272727273 1.49090909090909  8 1.49090909090909  C 11.9727272727273 1.49090909090909  14.5090909090909 2.775  14.5090909090909 3.66136363636364  C 14.5090909090909 4.54772727272727  11.9727272727273 5.82954545454545  8 5.82954545454545  C 4.02727272727273 5.82954545454545  1.49090909090909 4.54545454545455  1.49090909090909 3.66136363636364  Z M 1.64772727272727 7.71136363636364  C 1.88181818181818 7.38636363636364  1.81136363636364 6.93409090909091  1.48863636363636 6.7  C 1.16590909090909 6.46363636363636  0.713636363636364 6.53636363636364  0.479545454545454 6.85909090909091  C 0.184090909090909 7.26363636363636  0.0386363636363634 7.69545454545455  0.0477272727272726 8.14090909090909  C 0.065909090909091 9.22954545454546  0.997727272727272 10.1772727272727  2.66590909090909 10.8113636363636  C 4.04545454545455 11.3363636363636  5.83409090909091 11.6181818181818  7.73181818181818 11.6181818181818  C 7.84090909090909 11.6181818181818  7.95227272727273 11.6159090909091  8.06363636363636 11.6159090909091  C 11.9204545454545 11.5477272727273  15.9954545454545 10.2090909090909  15.9545454545455 7.86363636363636  C 15.95 7.52272727272727  15.8545454545455 7.19090909090909  15.6681818181818 6.875  C 15.4659090909091 6.52954545454546  15.0181818181818 6.41590909090909  14.6795454545455 6.61818181818182  C 14.3340909090909 6.82045454545454  14.2181818181818 7.26363636363636  14.4227272727273 7.60909090909091  C 14.4795454545455 7.70681818181818  14.5068181818182 7.79545454545455  14.5090909090909 7.88636363636364  C 14.525 8.77045454545454  12.0113636363636 10.0977272727273  8.03863636363636 10.1704545454545  C 6.18863636363637 10.1931818181818  4.47272727272727 9.95  3.18181818181818 9.45909090909091  C 2.16363636363636 9.07272727272727  1.50227272727273 8.54545454545455  1.49545454545455 8.11363636363636  C 1.49318181818182 7.99090909090909  1.54545454545455 7.85454545454546  1.64772727272727 7.71136363636364  Z M 15.5818181818182 11.1772727272727  C 15.3590909090909 10.8454545454545  14.9090909090909 10.7590909090909  14.5772727272727 10.9818181818182  C 14.2477272727273 11.2045454545455  14.1568181818182 11.6545454545455  14.3818181818182 11.9863636363636  C 14.4681818181818 12.1136363636364  14.5090909090909 12.2295454545455  14.5090909090909 12.3386363636364  C 14.5090909090909 13.2227272727273  11.9727272727273 14.5090909090909  8 14.5090909090909  C 4.02727272727273 14.5090909090909  1.49090909090909 13.2227272727273  1.49090909090909 12.3386363636364  C 1.49090909090909 12.2318181818182  1.52954545454545 12.1204545454545  1.60681818181818 12.0022727272727  C 1.825 11.6681818181818  1.73409090909091 11.2204545454545  1.4 11  C 1.06590909090909 10.7818181818182  0.618181818181819 10.875  0.397727272727273 11.2068181818182  C 0.163636363636364 11.5636363636364  0.0454545454545461 11.9431818181818  0.0454545454545461 12.3363636363636  C 0.0454545454545455 14.6886363636364  4.14318181818182 15.9545454545455  8 15.9545454545455  C 11.8568181818182 15.9545454545455  15.9545454545455 14.6886363636364  15.9545454545455 12.3386363636364  C 15.9545454545455 11.9363636363636  15.8295454545455 11.5454545454545  15.5818181818182 11.1772727272727  Z " fill-rule="nonzero" fill="#ffffff" stroke="none" transform="matrix(1 0 0 1 22 20 )" />
  </g>
</svg>