<?xml version="1.0" encoding="utf-8"?>
<svg version="1.1" xmlns:xlink="http://www.w3.org/1999/xlink" width="16px" height="16px" xmlns="http://www.w3.org/2000/svg">
  <g transform="matrix(1 0 0 1 -14 -12 )">
    <path d="M 0 7.71929823684211  C 0 7.09782455263158  0.475733325000003 6.51957894736842  1.293866675 6.03508771052632  C 2.721066675 6.88  5.191466675 7.4385965  8 7.4385965  C 10.808533325 7.4385965  13.278933325 6.88  14.706133325 6.03508771052632  C 15.52426665 6.51957894736842  16 7.09782455263158  16 7.71929823684211  C 16 9.42484210526316  12.418133325 10.8070175263158  8 10.8070175526316  C 3.581866675 10.8070175526316  0 9.42484210526316  0 7.71929823684211  Z M 0 12.7719298157895  C 0 12.0252631578947  0.6864 11.3403508684211  1.8288 10.8070175526316  C 3.295466675 11.4930526315789  5.515733325 11.9298245789474  8 11.9298245526316  C 10.484266675 11.9298245526316  12.704 11.4930526315789  14.1712 10.8070175526316  C 15.3136 11.3403508947368  16 12.0252631578947  16 12.7719298157895  C 16 14.4774736842105  12.418133325 15.8596491052632  8 15.8596491315789  C 3.581866675 15.8596491315789  0 14.4774736842105  0 12.7719298157895  Z M 16 3.22807018421053  C 16 4.93361405263158  12.418133325 6.31578947368421  8 6.31578947368421  C 3.581866675 6.31578947368421  0 4.93361402631579  0 3.22807018421053  C 0 1.52252634210526  3.581866675 0.140350868421053  8 0.140350868421053  C 12.418133325 0.140350868421053  16 1.52252631578947  16 3.22807018421053  Z " fill-rule="nonzero" fill="#325bee" stroke="none" transform="matrix(1 0 0 1 14 12 )" />
  </g>
</svg>