<?xml version="1.0" encoding="utf-8"?>
<svg version="1.1" xmlns:xlink="http://www.w3.org/1999/xlink" width="14px" height="16px" xmlns="http://www.w3.org/2000/svg">
  <g transform="matrix(1 0 0 1 -24 -20 )">
    <path d="M 13.9406853528037 6.77688888333333  C 13.9127725747664 7.03288888333333  13.7452959392523 7.232  13.4940810023364 7.232  C 13.2707788271028 7.232  13.0753894135514 7.03288888333333  13.0753894135514 6.80533333333333  L 13.0753894135514 4.84266666666667  C 13.0753894135514 4.58666666666667  12.9358255560748 4.33066666666667  12.712523364486 4.21688888333333  L 7.35327102803738 1.03111111666667  C 7.12996885280374 0.8888889  6.85084112149533 0.8888889  6.62753894626168 1.03111111666667  L 1.2403738317757 4.18844445  C 1.01707165654206 4.33066666666667  0.877507782710281 4.55822223333333  0.877507782710281 4.81422221666667  L 0.877507782710281 5.89511111666667  C 0.877507782710281 6.12266666666667  0.682118369158879 6.32177778333333  0.458816193925234 6.32177778333333  C 0.235514018691589 6.32177778333333  0.0401246051401872 6.12266666666667  0.0401246051401872 5.89511111666667  L 0.0401246051401872 4.81422221666667  C 0.0401246051401872 4.24533333333333  0.347165098130842 3.73333333333333  0.821682242990654 3.44888888333333  L 6.20884735747664 0.29155555  C 6.68336448598131 0.00711109999999996  7.29744548831776 0.00711109999999996  7.77196261682243 0.29155555  L 13.1591277313084 3.44888888333333  C 13.6336448598131 3.73333333333333  13.9406853691589 4.24533333333333  13.9406853528037 4.81422221666667  L 13.9406853528037 6.77688888333333  Z M 7.77196261682243 15.70844445  C 7.5207476635514 15.8506666666667  7.24161993224299 15.936  6.99040497897196 15.936  C 6.71127724766355 15.936  6.46006229439252 15.8791111166667  6.20884735747664 15.7368888833333  L 0.821682242990654 12.5511111166667  C 0.347165114485981 12.2666666666667  0.0401246051401872 11.7546666666667  0.0401246051401872 11.1857777833333  L 0.0401246051401872 9.36533333333333  C 0.0401246051401872 9.13777778333334  0.235514018691589 8.93866666666667  0.458816193925234 8.93866666666667  C 0.682118369158878 8.93866666666667  0.877507782710281 9.13777778333334  0.877507782710281 9.36533333333333  L 0.877507782710281 11.1857777833333  C 0.877507782710281 11.4417777833333  1.01707164018692 11.6977777833333  1.2403738317757 11.81155555  L 6.62753894626168 14.9688888833333  C 6.85084112149533 15.1111111  7.12996885280374 15.1111111  7.35327102803738 14.9688888833333  L 12.7404361425234 11.81155555  C 12.963738317757 11.6693333333333  13.1033021915888 11.4417777666667  13.1033021752336 11.1857777833333  L 13.1033021752336 9.99111111666667  C 13.1033021752336 9.76355556666667  13.298691588785 9.56444445  13.5219937640187 9.56444445  C 13.7452959392523 9.56444445  13.9127725747664 9.73511111666667  13.9127725911215 9.99111111666667  L 13.9127725911215 11.1857777833333  C 13.9127725911215 11.7546666666667  13.6057320981308 12.2666666666667  13.131214953271 12.5511111166667  L 7.77196261682243 15.70844445  Z " fill-rule="nonzero" fill="#ffffff" stroke="none" transform="matrix(1 0 0 1 24 20 )" />
  </g>
</svg>