<?xml version="1.0" encoding="utf-8"?>
<svg version="1.1" xmlns:xlink="http://www.w3.org/1999/xlink" width="10px" height="12px" xmlns="http://www.w3.org/2000/svg">
  <g transform="matrix(1 0 0 1 -18 -14 )">
    <path d="M 9.4070175493421 9.39348837209302  C 9.77192983552631 9.18511627325581  9.96842105263158 8.79813954069767  9.96842105263158 8.3516279127907  L 9.96842105263158 3.6483720872093  C 9.96842105263158 3.23162790697674  9.74385965460526 2.84465115697674  9.40701754934211 2.60651162790698  L 5.56140350328947 0.254883715116279  C 5.22456139802632 0.0465116162790701  4.77543858552632 0.0465116162790701  4.43859649671053 0.254883715116279  L 0.592982450657895 2.60651162790698  C 0.256140345394737 2.81488372674419  0.0315789473684213 3.20186045930233  0.0315789473684213 3.6483720872093  L 0.0315789473684213 8.38139534302326  C 0.0315789473684213 8.79813952325581  0.256140345394737 9.18511627325581  0.592982450657895 9.42325581976744  L 4.43859649671053 11.7451162848837  C 4.77543860197368 11.9534883837209  5.22456141447368 11.9534883837209  5.56140350328947 11.7451162848837  L 9.4070175493421 9.39348837209302  Z " fill-rule="nonzero" fill="#325bee" stroke="none" transform="matrix(1 0 0 1 18 14 )" />
  </g>
</svg>