<?xml version="1.0" encoding="utf-8"?>
<svg version="1.1" xmlns:xlink="http://www.w3.org/1999/xlink" width="6px" height="5px" xmlns="http://www.w3.org/2000/svg">
  <g transform="matrix(1 0 0 1 -20 -17 )">
    <path d="M 2.73509433962264 0.0483333281250022  L 4.37735848584906 4.955  L 3.33886792924528 4.955  L 3.00075471226415 3.835  L 1.38264151415094 3.835  L 1.04452829716981 4.955  L 0.00603774056603867 4.955  L 1.62415093867925 0.0483333281250022  L 2.73509433962264 0.0483333281250022  Z M 1.62415093867924 3.008333328125  L 2.80754716981132 3.008333328125  L 2.30037735849057 1.301666671875  C 2.27622641037736 1.195  2.2520754764151 1.061666671875  2.22792452830189 0.874999999999999  L 2.20377358018868 0.874999999999999  C 2.20377358018868 1.008333328125  2.15547169811321 1.168333328125  2.13132075 1.301666671875  L 1.62415093867924 3.008333328125  Z M 4.95698112735849 0.0216666718749998  L 5.89886791981132 0.0216666718749998  L 5.89886791981132 4.928333328125  L 4.95698112735849 4.928333328125  L 4.95698112735849 0.0216666718749998  Z " fill-rule="nonzero" fill="#2f3744" stroke="none" fill-opacity="0.996078431372549" transform="matrix(1 0 0 1 20 17 )" />
  </g>
</svg>