<?xml version="1.0" encoding="utf-8"?>
<svg version="1.1" xmlns:xlink="http://www.w3.org/1999/xlink" width="16px" height="16px" xmlns="http://www.w3.org/2000/svg">
  <g transform="matrix(1 0 0 1 -23 -20 )">
    <path d="M 9.20926108374384 15.8392614188533  C 8.81213597124896 15.8962849426279  8.41136002115964 15.924995567259  8.01004926108374 15.9251700680272  C 7.09106159459202 15.9259014074163  6.17896989161817 15.7687085806017  5.31467980295566 15.4606413994169  C 5.12901381556249 15.386189172218  5.00758680839955 15.2082026734198  5.00758680839955 15.0105075438311  C 5.00758680839955 14.7421476070814  5.22813619271935 14.5245988946571  5.50019764583797 14.5245988946571  C 5.55049922784232 14.5245988946571  5.60050408414801 14.5321984203266  5.64847290640394 14.5471331389699  C 6.74009852216749 14.935860058309  7.89024630541872 15.0462585034014  9.06738916256157 14.8775510204082  C 12.0990437681036 14.4433429619751  14.4833847471774 12.0996571403223  14.9341871921182 9.11078717201166  C 15.1328078817734 7.7891156462585  14.9538916256158 6.45889212827989  14.4197044334975 5.26511175898931  C 14.3919591879975 5.20321622849004  14.3776274581932 5.13628637486102  14.3776274581932 5.06861030126336  C 14.3776274581932 4.80024600101661  14.5981804286168 4.58269375127901  14.8702463054187 4.58269375127901  C 15.0652647391093 4.58269375127901  15.2419240050764 4.69617456392835  15.3207881773399 4.87210884353741  C 15.9316256157635 6.23420796890185  16.1345812807882 7.74868804664723  15.9087684729064 9.2530612244898  C 15.393672031342 12.6661769700374  12.6711647558739 15.342639119456  9.20926108374384 15.8392614188533  Z M 0.845320197044334 10.6627793974733  C 0.627746138830367 10.6626955901196  0.43599628717764 10.5218274108931  0.373596059113302 10.3162293488824  C 0.177807410197094 9.67096160767299  0.0668179725180631 9.00356853016755  0.043349753694584 8.33041788143829  C 0.00263359236568218 7.23364607248159  0.19736454008077 6.14076830469284  0.614778325123151 5.12342079689018  C 1.4285648631581 3.14363328199952  3.01680664453658 1.57083459243126  5.02068965517241 0.760349854227406  C 6.05064736434721 0.34461074704667  7.15809314388497 0.148417132722152  8.2703448275862 0.184645286686104  C 8.99949815537275 0.206578356010667  9.7221580570276 0.327039713517374  10.4181280788177 0.542662779397474  C 10.6233670148272 0.606325222646891  10.7629842356247 0.793999178829254  10.7629842356247 1.00621963070943  C 10.7629842356247 1.27459513188406  10.5424220598115 1.49215646176778  10.2703448275862 1.49215646176778  C 10.2202163060221 1.49215646176778  10.1703814124567 1.48460957198587  10.1225615763547 1.46977648202138  C 9.44374523392534 1.2594993512292  8.73639942453413 1.15251769525084  8.0248965957334 1.15251769525084  C 4.15825039943036 1.15251769525084  1.02371432972354 4.24440701570994  1.02371432972354 8.05844578077076  C 1.02371432972354 8.728559121286  1.12259309012747 9.39510481974946  1.31724137931034 10.0371234207969  C 1.33104256902558 10.0824576862705  1.33805425885833 10.1295378386512  1.33805425885833 10.1768719784162  C 1.33805425885833 10.4452319151659  1.11750487453853 10.6627806275902  0.845443421419905 10.6627806275902  C 0.845073939052581 10.6627806275902  0.844704456801409 10.6627802175509  0.844334975369459 10.6627793974733  Z M 13.6145812807882 2.00952380952381  C 13.6133867250335 3.08247510831327  12.7318885580831 3.95198010292424  11.6441379310345 3.95315840621963  C 10.55589211856 3.95315840621963  9.67369458128079 3.08296355652244  9.67369458128079 2.00952380952381  C 9.67369458128079 0.936084062525183  10.55589211856 0.0658892128279885  11.6441379310345 0.0658892128279885  C 12.732383743509 0.0658892128279885  13.6145812807882 0.936084062525183  13.6145812807882 2.00952380952381  Z M 12.6293596059113 2.00952380952381  C 12.6287081544168 1.47307033022166  12.1879907686718 1.03834909938476  11.6441379310345 1.0377065111759  C 11.1000150247972 1.0377065111759  10.6589162561576 1.4728039360245  10.6589162561576 2.00952380952381  C 10.6589162561576 2.54624368302312  11.1000150247972 2.98134110787172  11.6441379310345 2.98134110787172  C 12.1882608372717 2.98134110787172  12.6293596059113 2.54624368302312  12.6293596059113 2.00952380952381  Z M 6.12256157635468 13.9065111758989  C 6.12136702060004 14.9794624746884  5.23986885364962 15.8489674692994  4.15211822660099 15.8501457725948  C 3.06387241412652 15.8501457725948  2.18167487684729 14.9799509228976  2.18167487684729 13.9065111758989  C 2.18167487684729 12.8330714289003  3.06387241412652 11.9628765792031  4.15211822660099 11.9628765792031  C 5.24036403907546 11.9628765792031  6.12256157635468 12.8330714289003  6.12256157635468 13.9065111758989  Z M 5.13733990147783 13.9065111758989  C 5.13668844998333 13.3700576965968  4.69597106423834 12.9353364657599  4.15211822660099 12.934693877551  C 3.60799532036375 12.934693877551  3.16689655172414 13.3697913023996  3.16689655172414 13.9065111758989  C 3.16689655172414 14.4432310493982  3.60799532036375 14.8783284742468  4.15211822660099 14.8783284742468  C 4.69624113283822 14.8783284742468  5.13733990147783 14.4432310493982  5.13733990147783 13.9065111758989  Z M 12.3988177339901 12.575898931001  C 12.1308682455967 12.8062302713288  11.7871416539057 12.9325796034609  11.431724137931 12.9313896987366  C 11.0310636215277 12.9314604136637  10.6468277367527 12.7743328503458  10.3637438423645 12.4946550048591  L 8.31133004926109 10.469387755102  C 7.87964777797818 10.6366207854967  7.41998465296044 10.7224655274047  6.95620314103615 10.7224655274047  C 4.90888629402793 10.7224655274047  3.24920806714452 9.08536795666937  3.24920806714452 7.06590576064086  C 3.24920806714452 6.62531929387  3.32993189049981 6.18835957932609  3.48748768472906 5.77609329446064  C 3.58269064125771 5.528006343685  3.8235669794961 5.36389264714147  4.09249131719189 5.36389264714147  C 4.26484988648404 5.36389264714147  4.43008188751338 5.4317398639517  4.55152709359606 5.55238095238095  L 4.55369458128078 5.55432458697765  L 6.04926108374384 7.02954324586978  C 6.24418667280233 7.2197254158026  6.5579808148824 7.21972541580261  6.75290640394089 7.02954324586977  L 6.92551724137931 6.85928085519922  C 7.11832261365605 6.66700731497146  7.11832261365605 6.3574824809469  6.92551724137931 6.16520894071914  L 5.42935960591133 4.68940719144801  C 5.27242620390403 4.5363438348368  5.20555363947992 4.31485563374081  5.2520197044335 4.10204081632653  C 5.29769416926384 3.89108672263713  5.44956153915828 3.717821861759  5.65458128078818 3.64275996112731  C 7.01551958424467 3.14241420614123  8.54725028116561 3.47010288926674  9.57576354679803 4.48163265306122  C 10.619860813888 5.50890916280373  10.9458000733967 7.04968803797612  10.4053201970443 8.40310981535471  L 12.472118226601 10.441788143829  C 12.7492481242748 10.7161405998512  12.9048537274604 11.087646869387  12.9048537274604 11.4749382896382  C 12.9048537274604 11.896698646993  12.7204203805788 12.2979623090479  12.3988177339901 12.575898931001  Z M 7.98029556650246 9.55296404275996  C 8.09082768050314 9.50869033114053  8.20897818727361 9.48585687483174  8.32827586206897 9.48571428571428  C 8.57099401991583 9.48560894416585  8.80374054807805 9.58095245897419  8.97497536945813 9.75063168124393  L 11.0602955665025 11.8075801749271  C 11.2520197044335 11.9965014577259  11.5550738916256 12.0124392614189  11.7499507389163 11.844120505345  C 11.8575859226251 11.7507258295095  11.9192728799554 11.6161606164907  11.9192728799554 11.4747576616607  C 11.9192728799554 11.3452438556966  11.8674938442152 11.2209549211492  11.7751724137931 11.1288629737609  L 9.67645320197044 9.05850340136055  C 9.41540050804946 8.80127669508142  9.3364666551029 8.41458262881238  9.47625615763547 8.07774538386783  C 9.60855525966776 7.7567225848744  9.67658298622006 7.41346737538547  9.67658298622006 7.06693360171617  C 9.67658298622006 5.58451331111107  8.45826818723745 4.38277422367924  6.95540072021021 4.38277422367924  C 6.81728724704478 4.38277422367924  6.67937419409764 4.39314605580095  6.54285714285715 4.41379980563654  L 7.62167487684729 5.4779397473275  C 8.19910691978457 6.04977945516196  8.19910691978457 6.97451597729675  7.62167487684729 7.5463556851312  L 7.44886699507389 7.71681243926142  C 7.32610805361879 7.83742180707091  7.18730720283757 7.93249178403295  7.03925828635383 8.00202237014754  C 6.48814854519221 8.26084887308  5.80888939289135 8.16577889611796  5.35192118226601 7.71681243926142  L 4.26817733990148 6.64781341107872  C 4.24603964397612 6.78619953829676  4.23491983221516 6.92608289333339  4.23491983221516 7.06618126256095  C 4.23491983221516 8.54860155316605  5.45323463119777 9.75034064059788  6.95610209822501 9.75034064059788  C 7.30721207047127 9.75034064059788  7.65500406552733 9.68331619368857  7.98029556650246 9.55296404275996  Z M 6.12532019704434 4.0019436345967  L 6.12413793103448 4.00058309037901  L 6.12532019704434 4.0019436345967  Z " fill-rule="nonzero" fill="#ffffff" stroke="none" transform="matrix(1 0 0 1 23 20 )" />
  </g>
</svg>