<?xml version="1.0" encoding="utf-8"?>
<svg version="1.1" xmlns:xlink="http://www.w3.org/1999/xlink" width="16px" height="14px" xmlns="http://www.w3.org/2000/svg">
  <g transform="matrix(1 0 0 1 -22 -21 )">
    <path d="M 15.7777777777778 10.1904858398438  C 15.7777777777778 10.9922045898437  15.318888 11.4657992148437  14.4811111111111 11.4657992148437  L 1.51888888888889 11.4657992148437  C 0.681111173333333 11.4657992148437  0.222222222222222 10.9922045898437  0.222222222222222 10.1915804648438  L 0.222222222222222 1.89548583984375  C 0.222222222222222 1.09486067359375  0.681111173333333 0.61907958984375  1.51888888888889 0.61907958984375  L 14.4822222222222 0.61907958984375  C 15.318888 0.62017340660625  15.7777777777778 1.09595481734375  15.7777777777778 1.89548583984375  L 15.7777777777778 10.1904858398438  Z M 14.4822231111111 1.89548583984375  L 14.4811111111111 2  L 1.51888888888889 2  L 1.51888888888889 10  L 14.4822222222222 10  L 14.4822231111111 1.89548583984375  Z M 7.77111137777778 7.88595485234375  L 7.31222195555556 8.33767333984375  L 6.85444471111111 7.88595485234375  L 5.02111137777778 6.08126735234375  L 5.93777804444444 5.17892360234375  L 7.31222275555556 6.53189261484375  L 10.0622231111111 3.82486118984375  L 10.9788906666667 4.72720511484375  L 7.77111137777778 7.88595485234375  Z M 3.93888897777778 12.8964250898438  C 3.93888897777778 12.6295483398438  4.16444435555556 12.4129867148438  4.44444444444444 12.4129867148438  L 5.88888888888889 12.4129867148438  L 6.05555555555556 12.1045492148438  L 9.94444444444444 12.1045492148438  L 10.1111111111111 12.4129867148438  L 11.5555555555556 12.4129867148438  C 11.8355555555556 12.4129867148438  12.0622222222222 12.6295500898438  12.0622222222222 12.8964233398438  C 12.0622222222222 13.1632983398437  11.8355555555556 13.3798608398438  11.5555555555556 13.3798608398438  L 4.44444444444444 13.3798617148437  C 4.16444435555556 13.3798617148437  3.93888897777778 13.1632983398437  3.93888897777778 12.8964250898438  Z " fill-rule="nonzero" fill="#ffffff" stroke="none" transform="matrix(1 0 0 1 22 21 )" />
  </g>
</svg>