<?xml version="1.0" encoding="utf-8"?>
<svg version="1.1" xmlns:xlink="http://www.w3.org/1999/xlink" width="16px" height="14px" xmlns="http://www.w3.org/2000/svg">
  <g transform="matrix(1 0 0 1 -14 -13 )">
    <path d="M 0.222222222222222 10.1915804648438  C 0.222222222222222 10.9922045898437  0.681111173333333 11.4657992148437  1.51888888888889 11.4657992148437  L 14.4811111111111 11.4657992148437  C 15.318888 11.4657992148437  15.7777777777778 10.9922045898437  15.7777777777778 10.1904858398438  L 15.7777777777778 1.89548583984375  C 15.7777777777778 1.09595481734375  15.318888 0.62017340660625  14.4822222222222 0.61907958984375  L 1.51888888888889 0.61907958984375  C 0.681111173333333 0.61907958984375  0.222222222222222 1.09486067359375  0.222222222222222 1.89548583984375  L 0.222222222222222 10.1915804648438  Z M 6.05555555555556 12.1045492148438  L 5.88888888888889 12.4129867148438  L 4.44444444444444 12.4129867148438  C 4.16444435555556 12.4129867148438  3.93888897777778 12.6295483398438  3.93888897777778 12.8964250898438  C 3.93888897777778 13.1632983398437  4.16444435555556 13.3798617148437  4.44444444444444 13.3798617148437  L 11.5555555555556 13.3798608398438  C 11.8355555555556 13.3798608398438  12.0622222222222 13.1632983398437  12.0622222222222 12.8964233398438  C 12.0622222222222 12.6295500898438  11.8355555555556 12.4129867148438  11.5555555555556 12.4129867148438  L 10.1111111111111 12.4129867148438  L 9.94444444444444 12.1045492148438  L 6.05555555555556 12.1045492148438  Z M 7.31194391111111 8.33762573984375  L 6.85416666666667 7.88590725234375  L 5.02083333333333 6.08121975234375  L 5.9375 5.17887600234375  L 7.31194471111111 6.53184510234375  L 10.0619448888889 3.82481385234375  L 10.9786124444444 4.72715760234375  L 7.77083333333333 7.88590725234375  L 7.31194391111111 8.33762573984375  Z " fill-rule="nonzero" fill="#325bee" stroke="none" transform="matrix(1 0 0 1 14 13 )" />
  </g>
</svg>