<?xml version="1.0" encoding="utf-8"?>
<svg version="1.1" xmlns:xlink="http://www.w3.org/1999/xlink" width="15px" height="15px" xmlns="http://www.w3.org/2000/svg">
  <g transform="matrix(1 0 0 1 -22 -21 )">
    <path d="M 3.94736840131579 14.1569009375  C 3.94736840131579 13.8108234375  3.68158426973684 13.5302734375  3.35372121710526 13.5302734375  L 1.51902763815789 13.5302734375  C 1.42504632236842 13.5302734375  1.34611426973684 13.4471026041667  1.34611426973684 13.3492026041667  L 1.34611426973684 1.55314127083333  C 1.34611426973684 1.4552409375  1.42504632236842 1.37207027083333  1.51902763815789 1.37207027083333  L 10.7178149013158 1.37207027083333  C 10.8117962171053 1.37207027083333  10.8907277960526 1.4552409375  10.8907277960526 1.55314127083333  L 10.8907277960526 5.1123046875  C 10.8907277960526 5.45838235416667  11.1565127960526 5.73893227083333  11.4843749013158 5.73893227083333  C 11.8122377960526 5.73893227083333  12.0780220065789 5.45838235416667  12.0780220065789 5.1123046875  L 12.0780220065789 1.55314127083333  C 12.0780220065789 0.762581379166667  11.4670435855263 0.118815104166667  10.7178149013158 0.118815104166667  L 1.51902763815789 0.118815104166667  C 0.76979859868421 0.118815104166667  0.158819901315789 0.762581379166667  0.158819901315789 1.55314127083333  L 0.158819901315789 13.3492026041667  C 0.158819901315789 14.1397634375  0.76979859868421 14.7835284375  1.51902763815789 14.7835284375  L 3.35372121710526 14.7835284375  C 3.68158426973684 14.7835284375  3.94736840131579 14.5029784375  3.94736840131579 14.1569009375  Z M 10.7892685855263 7.1725566875  L 14.4387654276316 13.1466292708333  C 14.754879375 13.6641267708333  14.6137285855263 14.3541492708333  14.1234701644737 14.6878242708333  C 13.9528325328947 14.8039692708333  13.7541014802632 14.8657367708333  13.551069375 14.8657384375  L 6.27261511184211 14.8657384375  C 5.68926834868421 14.8657384375  5.21638569078947 14.3665851041667  5.21638569078947 13.7508301041667  C 5.21638758552632 13.5374892708333  5.27437640131579 13.3286301041667  5.38347053289474 13.1490392708333  L 9.01244358552632 7.1749321875  C 9.32730858552632 6.65658952083333  9.98065884868421 6.50582435416667  10.4717209539474 6.83818102083333  C 10.5990275328947 6.9243574375  10.7073188486842 7.0383866875  10.7892685855263 7.1725566875  Z M 13.3105885855263 13.6124834375  L 9.90191279605263 8.03253335416667  L 6.51232521710526 13.6124834375  L 13.3105885855263 13.6124834375  Z M 2.56424753289474 4.09830727083333  C 2.56424753289474 4.4443849375  2.83003166447368 4.7249349375  3.15789471710526 4.7249349375  L 6.88939142763158 4.7249349375  C 7.21725416447368 4.7249349375  7.48303869078947 4.4443849375  7.48303869078947 4.09830727083333  C 7.48303869078947 3.75222960416667  7.21725416447368 3.4716796875  6.88939142763158 3.4716796875  L 3.15789471710526 3.4716796875  C 2.83003166447368 3.4716796875  2.56424753289474 3.75222960416667  2.56424753289474 4.09830727083333  Z M 2.56424753289474 6.57226560416667  C 2.56424753289474 6.9183429375  2.83003166447368 7.19889327083333  3.15789471710526 7.19889327083333  L 6.88939142763158 7.19889327083333  C 7.21725416447368 7.19889327083333  7.48303869078947 6.9183429375  7.48303869078947 6.57226560416667  C 7.48303869078947 6.22618835416667  7.21725416447368 5.94563802083333  6.88939142763158 5.94563802083333  L 3.15789471710526 5.94563802083333  C 2.83003166447368 5.94563802083333  2.56424753289474 6.22618835416667  2.56424753289474 6.57226560416667  Z M 2.56424753289474 9.1113284375  C 2.56424753289474 9.45740510416667  2.83003166447368 9.7379559375  3.15789471710526 9.7379559375  L 5.06681745394737 9.7379559375  C 5.39468050657895 9.7379559375  5.66046463815789 9.45740510416667  5.66046463815789 9.1113284375  C 5.66046463815789 8.7652509375  5.39468050657895 8.48470010416667  5.06681745394737 8.48470010416667  L 3.15789471710526 8.48470010416667  C 2.83003166447368 8.48470010416667  2.56424753289474 8.7652509375  2.56424753289474 9.1113284375  Z M 9.49529358552632 11.3295817708333  L 9.51015858552632 9.8462309375  C 9.51253253289474 9.60865010416667  9.69752042763158 9.4180909375  9.92333674342105 9.42059677083333  C 10.1491388486842 9.42308760416667  10.3302709539474 9.61771677083333  10.3278812171053 9.85529760416667  L 10.3130162171053 11.3386634375  C 10.3106422697368 11.5762284375  10.1256559539474 11.7667884375  9.89983805921053 11.7642817708333  C 9.67403674342105 11.7617917708333  9.49290463815789 11.5671634375  9.49529358552632 11.3295817708333  Z M 9.91159569078948 12.2200517708333  C 10.1500404276316 12.2200517708333  10.3433391118421 12.4240892708333  10.3433391118421 12.6757809375  C 10.3433391118421 12.9274734375  10.1500404276316 13.1315101041667  9.91159569078948 13.1315101041667  C 9.67315016447368 13.1315101041667  9.47985226973684 12.9274734375  9.47985226973684 12.6757809375  C 9.47985226973684 12.4240892708333  9.67315016447368 12.2200517708333  9.91159569078948 12.2200517708333  Z " fill-rule="nonzero" fill="#ffffff" stroke="none" transform="matrix(1 0 0 1 22 21 )" />
  </g>
</svg>