<?xml version="1.0" encoding="utf-8"?>
<svg version="1.1" xmlns:xlink="http://www.w3.org/1999/xlink" width="14px" height="14px" xmlns="http://www.w3.org/2000/svg">
  <g transform="matrix(1 0 0 1 -1093 -27 )">
    <path d="M 10.5 5.52631578947368  L 14 5.52631578947368  L 14 2.08771929824561  L 12.8585 3.20919298245614  C 11.5639535098128 1.28222980793857  9.37107137431739 0.122631032613631  7.021 0.122315789473684  C 3.155 0.122315789473684  0.0205 3.20133333333333  0.0205 7  C 0.0205 10.7986666666667  3.155 13.8776842105263  7.021 13.8776842105263  C 9.87092795382134 13.878242076469  12.4367660358044 12.1815041456463  13.509 9.58729824561404  C 13.5381253385512 9.51685556632739  13.553100918979 9.4415413511569  13.553100918979 9.36550877192983  C 13.553100918979 9.0400323364114  13.2845385147241 8.77618155328375  12.95325 8.77618155328375  C 12.7091359065209 8.77618155328375  12.489370754648 8.92152026374807  12.3975 9.14371929824562  C 11.5086464017798 11.2931988531138  9.38252612962564 12.6990195297369  7.021 12.6987368421053  C 3.8175 12.6987368421053  1.2205 10.147298245614  1.2205 7  C 1.2205 3.85270175438596  3.8175 1.30126315789474  7.021 1.30126315789474  C 9.0905 1.30126315789474  10.9575 2.37705263157895  11.99 4.0619649122807  L 10.5 5.52631578947368  Z " fill-rule="nonzero" fill="#ffffff" stroke="none" fill-opacity="0.996078431372549" transform="matrix(1 0 0 1 1093 27 )" />
  </g>
</svg>