<?xml version="1.0" encoding="utf-8"?>
<svg version="1.1" xmlns:xlink="http://www.w3.org/1999/xlink" width="184px" height="44px" xmlns="http://www.w3.org/2000/svg">
  <defs>
    <linearGradient gradientUnits="userSpaceOnUse" x1="610" y1="11.4312" x2="610" y2="54.12" id="LinearGradient4498">
      <stop id="Stop4499" stop-color="#010919" stop-opacity="0" offset="0" />
      <stop id="Stop4500" stop-color="#213072" offset="1" />
    </linearGradient>
    <linearGradient gradientUnits="userSpaceOnUse" x1="610" y1="11" x2="610" y2="54.12" id="LinearGradient4501">
      <stop id="Stop4502" stop-color="#010919" offset="0" />
      <stop id="Stop4503" stop-color="#027db4" offset="1" />
    </linearGradient>
  </defs>
  <g transform="matrix(1 0 0 1 -518 -11 )">
    <path d="M 518.5 11  L 701.5 11  L 701.5 12  A 42.5 42.5 0 0 1 659 54.5 L 561 54.5  A 42.5 42.5 0 0 1 518.5 12 L 518.5 11  Z " fill-rule="nonzero" fill="url(#LinearGradient4498)" stroke="none" />
    <path d="M 701.5 11  L 701.5 12  A 42.5 42.5 0 0 1 659 54.5 L 561 54.5  A 42.5 42.5 0 0 1 518.5 12 L 518.5 11  " stroke-width="1" stroke="url(#LinearGradient4501)" fill="none" />
  </g>
</svg>