<?xml version="1.0" encoding="utf-8"?>
<svg version="1.1" xmlns:xlink="http://www.w3.org/1999/xlink" width="37px" height="37px" xmlns="http://www.w3.org/2000/svg">
  <defs>
    <linearGradient gradientUnits="userSpaceOnUse" x1="13.5" y1="0" x2="13.5" y2="27" id="LinearGradient4509">
      <stop id="Stop4510" stop-color="#0095f7" offset="0" />
      <stop id="Stop4511" stop-color="#ffffff" stop-opacity="0.411764705882353" offset="1" />
    </linearGradient>
    <filter x="897px" y="592px" width="37px" height="37px" filterUnits="userSpaceOnUse" id="filter4512">
      <feOffset dx="1" dy="1" in="SourceAlpha" result="shadowOffsetInner" />
      <feGaussianBlur stdDeviation="2.5" in="shadowOffsetInner" result="shadowGaussian" />
      <feComposite in2="shadowGaussian" operator="atop" in="SourceAlpha" result="shadowComposite" />
      <feColorMatrix type="matrix" values="0 0 0 0 0  0 0 0 0 0  0 0 0 0 0  0 0 0 0.603921568627451 0  " in="shadowComposite" />
    </filter>
    <g id="widget4513">
      <path d="M 26.6122276330645 13.5922530245902  C 26.5760504096409 6.20264318384273  20.6911572263806 0.221276341840436  13.420734641129 0.18450604918033  C 6.13527423418328 0.18450604918033  0.229241649193548 6.18735884048137  0.229241649193548 13.5922530245902  C 0.229241649193548 20.997147208699  6.13527423418328 27  13.420734641129 27  C 20.7061950480748 27  26.6122276330645 20.997147208699  26.6122276330645 13.5922530245902  Z M 19.8122483467742 12.2044266331967  L 19.7966877459677 15.1303283852459  C 19.7966877459677 17.8980732663934  19.4076728891129 20.7765279405738  15.2607747883064 20.7765279405738  C 13.4713065665323 20.7765279405738  11.8374442439516 20.8911916844262  10.5925968326613 19.2700839651639  C 10.1335593266129 18.6849036147541  8.10679202419354 15.786679352459  7.45324711693548 14.869369567623  C 6.89462482336222 14.2330802886111  6.94317293763362 13.2585365787523  7.56217126814516 12.6828511413935  C 8.15384660162882 12.1419280323526  9.05172528546794 12.1419280323526  9.64340061895161 12.6828511413935  L 10.1257790262097 13.1612755942623  C 10.1727401865248 13.2043465932076  10.2336916008754 13.228282064574  10.2969455262097 13.2284922602459  C 10.4329259924123 13.2263324557079  10.5420414552716 13.113667816698  10.5420248528226 12.9754412889344  L 10.5420248528226 7.87092895696722  C 10.5505769746937 7.05358348595656  11.2083191227178 6.39743878664529  12.0125009758065 6.40402415778688  L 12.0475123004032 6.40402415778688  C 12.8167890519988 6.41891153449491  13.4327537583891 7.05700791244208  13.4327537583891 7.8390374755191  C 13.4327537583891 7.849668953648  13.4326375380698 7.86030010364532  13.4324051189516 7.87092895696722  L 13.4324051189516 9.36155729508197  C 13.647520461293 9.24833599518436  13.8864997107658 9.18998643028205  14.1287416512097 9.19153862704918  C 14.7434695848766 9.19165456745227  15.2883100813645 9.59381776613885  15.4786230907258 10.1879268196721  C 15.7126339227786 10.0414957513539  15.981850806682 9.96351111883232  16.2566528044355 9.96255328278689  C 16.8725810737477 9.95889490676208  17.4193810497265 10.3625044563438  17.6065342439516 10.9589414754098  C 17.8278103651347 10.8133941888494  18.0859843804947 10.7364582897659  18.349552578629 10.7375218893443  L 18.4156851048387 10.7375218893443  C 19.1907492470705 10.7503650776512  19.8124433162359 11.3926365952067  19.8124433162359 12.1805113926804  C 19.8124433162359 12.1884835500227  19.8123783241843 12.1964555705249  19.8122483467742 12.2044266331967  Z " fill-rule="nonzero" fill="url(#LinearGradient4509)" stroke="none" transform="matrix(1 0 0 1 901 596 )" />
    </g>
  </defs>
  <g transform="matrix(1 0 0 1 -897 -592 )">
    <use xlink:href="#widget4513" filter="url(#filter4512)" />
    <use xlink:href="#widget4513" />
  </g>
</svg>