<?xml version="1.0" encoding="utf-8"?>
<svg version="1.1" xmlns:xlink="http://www.w3.org/1999/xlink" width="66px" height="66px" xmlns="http://www.w3.org/2000/svg">
  <defs>
    <linearGradient gradientUnits="userSpaceOnUse" x1="28" y1="0" x2="28" y2="56" id="LinearGradient4514">
      <stop id="Stop4515" stop-color="#0095f7" offset="0" />
      <stop id="Stop4516" stop-color="#ffffff" stop-opacity="0.411764705882353" offset="1" />
    </linearGradient>
    <filter x="286px" y="563px" width="66px" height="66px" filterUnits="userSpaceOnUse" id="filter4517">
      <feOffset dx="1" dy="1" in="SourceAlpha" result="shadowOffsetInner" />
      <feGaussianBlur stdDeviation="2.5" in="shadowOffsetInner" result="shadowGaussian" />
      <feComposite in2="shadowGaussian" operator="atop" in="SourceAlpha" result="shadowComposite" />
      <feColorMatrix type="matrix" values="0 0 0 0 0  0 0 0 0 0  0 0 0 0 0  0 0 0 0.643137254901961 0  " in="shadowComposite" />
    </filter>
    <g id="widget4518">
      <path d="M 0 35  L 0 53.45625  C 0 54.8625  1.1375 56  2.54375 56  L 21 56  L 21 35  L 0 35  Z M 7.6875 48.35625  L 7.6875 43.2625  L 12.78125 43.2625  L 12.78125 48.35625  L 7.6875 48.35625  Z M 26 56  L 26 45.81875  L 30 45.81875  L 30 56  L 26 56  Z M 0 30  L 0 26  L 10.18125 26  L 10.18125 30  L 0 30  Z M 26 15.275  L 26 26  L 15.275 26  L 15.275 30  L 26 30  L 26 40.725  L 30 40.725  L 30 15.275  L 26 15.275  Z M 35 45  L 35 35  L 45 35  L 45 45  L 35 45  Z M 21 21  L 21 0  L 2.54375 0  C 1.1375 0  0 1.1375  0 2.54375  L 0 21  L 21 21  Z M 12.78125 7.625  L 12.78125 12.71875  L 7.6875 12.71875  L 7.6875 7.625  L 12.78125 7.625  Z M 56 2.54375  C 56 1.1375  54.8625 0  53.45625 0  L 35 0  L 35 21  L 56 21  L 56 2.54375  Z M 48.4125 7.625  L 48.4125 12.71875  L 43.31875 12.71875  L 43.31875 7.625  L 48.4125 7.625  Z M 26 10.18125  L 26 0  L 30 0  L 30 10.18125  L 26 10.18125  Z M 40.725 30  L 40.725 26  L 56 26  L 56 30  L 40.725 30  Z " fill-rule="nonzero" fill="url(#LinearGradient4514)" stroke="none" transform="matrix(1 0 0 1 290 567 )" />
    </g>
  </defs>
  <g transform="matrix(1 0 0 1 -286 -563 )">
    <use xlink:href="#widget4518" filter="url(#filter4517)" />
    <use xlink:href="#widget4518" />
  </g>
</svg>