<?xml version="1.0" encoding="utf-8"?>
<svg version="1.1" xmlns:xlink="http://www.w3.org/1999/xlink" width="10px" height="9px" xmlns="http://www.w3.org/2000/svg">
  <g transform="matrix(1 0 0 1 -19 -18 )">
    <path d="M 8.58822144230769 8.86817966292614  C 8.78604759615384 8.86817810838068  8.97968298076923 8.80753324474432  9.14594528846154 8.69350013565341  C 9.62363298076923 8.36589219928977  9.76116451923077 7.68841499019886  9.45315605769231 7.18032694474432  L 5.89723590384615 1.31487372383523  C 5.81738767307692 1.18314312110795  5.71187313461538 1.07118713019886  5.58783090384615 0.986577582017045  C 5.10936005769231 0.660263739289773  4.47276190384615 0.808287734362499  4.16597075 1.31720597565341  L 0.630048234615385 7.18269279928977  C 0.523751332307692 7.35901867201705  0.467249430142923 7.56408064474432  0.467247596153846 7.77354189928977  C 0.467247596153846 8.37810200838068  0.928005073076924 8.86817966292614  1.49639421153846 8.86817966292614  L 8.58822144230769 8.86817966292614  Z M 4.98422475 5.9425696265625  C 4.68778759615385 5.93927611747159  4.44998775 5.68177539928977  4.45312498076923 5.36748533565341  L 4.47265621153846 3.66996539019886  C 4.47577259615385 3.35567639019886  4.71856705769231 3.10355129019886  5.01502405769231 3.10686607201704  C 5.31146121153846 3.11016080838068  5.54926105769231 3.36766128110796  5.54612382692308 3.68195044474432  L 5.52659251923077 5.37947039019886  C 5.52347621153846 5.69373828110796  5.28068251923077 5.94588579928977  4.98422475 5.9425696265625  Z M 5.56640621153846 7.14836909019886  C 5.56640621153846 7.48132580838068  5.31303551923077 7.75121887201705  4.99999998076923 7.75121887201705  C 4.68696444230769 7.75121887201705  4.43284251923077 7.48132580838068  4.43284251923077 7.14836909019886  C 4.43284251923077 6.81541310838068  4.68696444230769 6.54551930838068  4.99999998076923 6.54551930838068  C 5.31303551923077 6.54551930838068  5.56640621153846 6.81541310838068  5.56640621153846 7.14836909019886  Z " fill-rule="nonzero" fill="#325bee" stroke="none" transform="matrix(1 0 0 1 19 18 )" />
  </g>
</svg>