<?xml version="1.0" encoding="utf-8"?>
<svg version="1.1" xmlns:xlink="http://www.w3.org/1999/xlink" width="16px" height="14px" xmlns="http://www.w3.org/2000/svg">
  <g transform="matrix(1 0 0 1 -1118 -659 )">
    <path d="M 15.8946838103448 7.1034716025  C 15.8946838103448 6.81341801  15.6630108275862 6.575189775  15.3772437413793 6.575189775  L 1.89077377586207 6.575189775  L 8.07706553448276 0.993919149999999  C 8.29067187931035 0.801212684999999  8.30992062068965 0.469254712499999  8.12004439655172 0.2524442725  C 7.93018581034483 0.0356875574999994  7.60318655172414 0.0160963599999995  7.38956255172414 0.2088207275  L 0.286247310344828 6.617434425  C 0.175765534482759 6.717073755  0.112567551724138 6.859960555  0.112567551724138 7.009974685  C 0.112567551724138 7.159988815  0.175765534482759 7.302875615  0.286247310344828 7.402514945  L 7.38958022413793 13.8110928025  C 7.48815284482759 13.90005904  7.61087901724138 13.9437542125  7.73312881034483 13.9437542125  C 7.87579181034483 13.9437542125  8.01785493103448 13.8841926825  8.12006205172414 13.7674513375  C 8.30992063793104 13.5506767025  8.29068953448276 13.2187008275  8.07708318965517 13.026012265  L 2.09806386206897 7.63175343  L 15.3772437413793 7.63175343  C 15.6630108103448 7.63175343  15.8946838103448 7.393525195  15.8946838103448 7.1034716025  Z " fill-rule="nonzero" fill="#ffffff" stroke="none" transform="matrix(1 0 0 1 1118 659 )" />
  </g>
</svg>