<?xml version="1.0" encoding="utf-8"?>
<svg version="1.1" xmlns:xlink="http://www.w3.org/1999/xlink" width="13px" height="15px" xmlns="http://www.w3.org/2000/svg">
  <g transform="matrix(1 0 0 1 -14 -12 )">
    <path d="M 12.4302976484375 1.55314127083333  L 12.4302976484375 7.81265652083333  L 11.0534627734375 5.62270960416667  C 10.9506603984375 5.45916835416667  10.8148128359375 5.32017710416667  10.6551118984375 5.21513585416667  C 10.0390938984375 4.81002327083333  9.2194910234375 4.99379235416667  8.8245063359375 5.6256051875  L 4.2721012546875 12.9074992708333  C 4.1352470046875 13.1264042708333  4.0625023359375 13.3809851041667  4.0624999796875 13.6410267708333  C 4.0624999796875 14.1202734375  4.3043626234375 14.5415717708333  4.6697274609375 14.7835284375  L 1.5633326109375 14.7835284375  C 0.7922510578125 14.7835284375  0.1634521484375 14.1397634375  0.1634521484375 13.3492026041667  L 0.1634521484375 1.55314127083333  C 0.1634521484375 0.762581379166667  0.7922510578125 0.118815104166667  1.5633326109375 0.118815104166667  L 11.0304178359375 0.118815104166667  C 11.8014990234375 0.118815104166667  12.4302976484375 0.762581379166667  12.4302976484375 1.55314127083333  Z M 2.6390380859375 4.09830727083333  C 2.6390380859375 4.4443849375  2.9125742546875 4.7249349375  3.2499999796875 4.7249349375  L 7.0903320109375 4.7249349375  C 7.4277574109375 4.7249349375  7.7012939859375 4.4443849375  7.7012939859375 4.09830727083333  C 7.7012939859375 3.75222960416667  7.4277574109375 3.4716796875  7.0903320109375 3.4716796875  L 3.2499999796875 3.4716796875  C 2.9125742546875 3.4716796875  2.6390380859375 3.75222960416667  2.6390380859375 4.09830727083333  Z M 2.6390380859375 6.57226560416667  C 2.6390380859375 6.9183429375  2.9125742546875 7.19889327083333  3.2499999796875 7.19889327083333  L 6.4999999796875 7.19889327083333  C 6.8374253796875 7.19889327083333  7.1109618734375 6.9183429375  7.1109618734375 6.57226560416667  C 7.1109618734375 6.22618835416667  6.8374253796875 5.94563802083333  6.4999999796875 5.94563802083333  L 3.2499999796875 5.94563802083333  C 2.9125742546875 5.94563802083333  2.6390380859375 6.22618835416667  2.6390380859375 6.57226560416667  Z M 2.6390380859375 9.1113284375  C 2.6390380859375 9.45740510416667  2.9125742546875 9.7379559375  3.2499999796875 9.7379559375  L 4.6242675984375 9.7379559375  C 4.9616933234375 9.7379559375  5.2352294921875 9.45740510416667  5.2352294921875 9.1113284375  C 5.2352294921875 8.7652509375  4.9616933234375 8.48470010416667  4.6242675984375 8.48470010416667  L 3.2499999796875 8.48470010416667  C 2.9125742546875 8.48470010416667  2.6390380859375 8.7652509375  2.6390380859375 9.1113284375  Z " fill-rule="nonzero" fill="#325bee" stroke="none" transform="matrix(1 0 0 1 14 12 )" />
  </g>
</svg>