<?xml version="1.0" encoding="utf-8"?>
<svg version="1.1" xmlns:xlink="http://www.w3.org/1999/xlink" width="234px" height="32px" xmlns="http://www.w3.org/2000/svg">
  <g transform="matrix(1 0 0 1 -784 -226 )">
    <path d="M 785 230  A 3 3 0 0 1 788 227 L 1014 227  A 3 3 0 0 1 1017 230 L 1017 254  A 3 3 0 0 1 1014 257 L 788 257  A 3 3 0 0 1 785 254 L 785 230  Z " fill-rule="nonzero" fill="#1f2128" stroke="none" fill-opacity="0" />
    <path d="M 784.5 230  A 3.5 3.5 0 0 1 788 226.5 L 1014 226.5  A 3.5 3.5 0 0 1 1017.5 230 L 1017.5 254  A 3.5 3.5 0 0 1 1014 257.5 L 788 257.5  A 3.5 3.5 0 0 1 784.5 254 L 784.5 230  Z " stroke-width="1" stroke="#325bee" fill="none" stroke-opacity="0.6" />
  </g>
</svg>