<?xml version="1.0" encoding="utf-8"?>
<svg version="1.1" xmlns:xlink="http://www.w3.org/1999/xlink" width="14px" height="14px" xmlns="http://www.w3.org/2000/svg">
  <g transform="matrix(1 0 0 1 -990 -235 )">
    <path d="M 0.00131436346424888 6.41666658260641  C 0.00131436346424888 2.87335274145785  2.87335287623139 0.000725891084753064  6.41666666666667 0  C 6.41703147164055 0  6.41739627660183 0  6.41776108158101 0  C 9.9615882263286 0  12.8344277482477 2.87283950276735  12.8344277482477 6.4166666238901  C 12.8344277482477 7.91723007620837  12.3085273043784 9.37033806932831  11.3481666666667 10.5233333565105  L 13.8681666666667 13.0433333397109  C 14.0641666666667 13.2346666717687  14.0373333333333 13.5776666694821  13.8098333333333 13.81100000126  C 13.5765 14.0384999997433  13.2335 14.0641666662389  13.0433333333333 13.8681666675455  L 10.5233333333333 11.3481666843451  C 9.37053374910749 12.3078439159168  7.91795679075768 12.8333332064965  6.41798103013092 12.8333332064965  C 2.87415388538333 12.8333332064965  0.00131436346424888 9.96049370372915  0.00131436346424888 6.41666658260641  Z M 11.6643333333333 6.4166667172208  C 11.6643333333333 3.83833340107587  9.7475 1.15500008563092  6.41666666666667 1.15500008563092  C 3.08583333333333 1.15500008563092  1.16433333333333 3.83833340107587  1.16433333333333 6.4166667172208  C 1.16433333333333 8.99500003336573  3.08 11.6900000153996  6.41433333333333 11.6900000153996  C 9.7475 11.6900000153996  11.6643333333333 8.99500003336572  11.6643333333333 6.4166667172208  Z " fill-rule="nonzero" fill="#ffffff" stroke="none" fill-opacity="0.447058823529412" transform="matrix(1 0 0 1 990 235 )" />
  </g>
</svg>