<?xml version="1.0" encoding="utf-8"?>
<svg version="1.1" xmlns:xlink="http://www.w3.org/1999/xlink" width="10px" height="6px" xmlns="http://www.w3.org/2000/svg">
  <g transform="matrix(1 0 0 1 -106 -13 )">
    <path d="M 5.37435375 5.75558085714286  C 5.27900650337838 5.85844141071429  5.14850040540541 5.91640439285714  5.01227275337838 5.91640439285714  C 4.87606239864865 5.91640439285714  4.74553900337838 5.85844141071428  4.65019175675676 5.75558085714286  L 0.256336199324324 1.01619301785714  C 0.0603350337837837 0.804807196428572  0.0635847297297298 0.465471553571429  0.263561570945946 0.258288589285714  C 0.463521131756757 0.0511239107142854  0.78453160472973 0.0545227499999998  0.980498192567568 0.265926839285714  L 5.01227275337838 4.61475891071429  L 9.04404733108108 0.265926839285714  C 9.24001391891892 0.0545044642857146  9.56098981418919 0.0510508035714291  9.7609839527027 0.258288589285714  C 9.96097809121622 0.465489821428571  9.96421048986486 0.804807196428572  9.76820932432432 1.01619301785714  L 5.37435375 5.75558085714286  Z " fill-rule="nonzero" fill="#ffffff" stroke="none" fill-opacity="0.996078431372549" transform="matrix(1 0 0 1 106 13 )" />
  </g>
</svg>