<?xml version="1.0" encoding="utf-8"?>
<svg version="1.1" xmlns:xlink="http://www.w3.org/1999/xlink" width="128px" height="340px" xmlns="http://www.w3.org/2000/svg">
  <defs>
    <linearGradient gradientUnits="userSpaceOnUse" x1="0" y1="210.498108709108" x2="128" y2="211.53736350229" id="LinearGradient4576">
      <stop id="Stop4577" stop-color="#ffffff" stop-opacity="0.149019607843137" offset="0" />
      <stop id="Stop4578" stop-color="#ffffff" stop-opacity="0.447058823529412" offset="0.51" />
      <stop id="Stop4579" stop-color="#ffffff" stop-opacity="0.149019607843137" offset="1" />
    </linearGradient>
  </defs>
  <g transform="matrix(1 0 0 1 0 -38 )">
    <path d="M 0.5 58  A 19.5 19.5 0 0 1 20 38.5 L 108 38.5  A 19.5 19.5 0 0 1 127.5 58 L 127.5 358  A 19.5 19.5 0 0 1 108 377.5 L 20 377.5  A 19.5 19.5 0 0 1 0.5 358 L 0.5 58  Z " fill-rule="nonzero" fill="#2f3744" stroke="none" fill-opacity="0.549019607843137" />
    <path d="M 0.5 58  A 19.5 19.5 0 0 1 20 38.5 L 108 38.5  A 19.5 19.5 0 0 1 127.5 58 L 127.5 358  A 19.5 19.5 0 0 1 108 377.5 L 20 377.5  A 19.5 19.5 0 0 1 0.5 358 L 0.5 58  Z " stroke-width="1" stroke="url(#LinearGradient4576)" fill="none" />
  </g>
</svg>