<?xml version="1.0" encoding="utf-8"?>
<svg version="1.1" xmlns:xlink="http://www.w3.org/1999/xlink" width="16px" height="15px" xmlns="http://www.w3.org/2000/svg">
  <g transform="matrix(1 0 0 1 -22 -20 )">
    <path d="M 15.734868 11.7992166666667  C 15.734868 9.32708166666667  12.8432898947368 7.92890466666667  10.8746052631579 9.46744833333334  L 8.94723667368421 7.99218733333333  L 8.94723667368421 6.08177066666667  C 10.2630263157895 5.785677  11.2956578947368 4.59869783333333  11.2956578947368 3.18124966666667  C 11.2956578947368 1.54192708333333  9.94618505263158 0.208333333333333  8.2893419368421 0.208333333333333  C 6.63197368421053 0.208333333333333  5.2814472 1.54166666666667  5.2814472 3.18098958333333  C 5.2814472 4.59843758333333  6.31565772631579 5.7851565  7.6314472 6.08151075  L 7.6314472 7.99166683333333  L 5.70197376842105 9.46744833333334  C 3.73328964210526 7.92890625  0.838815789473684 9.32708333333333  0.838815789473684 11.7992183333333  C 0.838815789473684 13.4385416666667  2.1875 14.7723941666667  3.84486850526316 14.7723941666667  C 5.50171103157895 14.7723941666667  6.84986833684211 13.43854  6.84986833684211 11.7992166666667  C 6.84986833684211 11.3208316666667  6.73249974736842 10.8703108333333  6.52881578947368 10.46979  L 8.28697368421053 9.12604  L 10.0456578947368 10.46979  C 9.03855330526316 12.4515616666667  10.510132 14.7723941666667  12.7298701052632 14.7723941666667  C 14.3867105263158 14.7723941666667  15.734868 13.43854  15.734868 11.7992166666667  Z M 5.46144703157895 11.2854183333333  C 5.81486833684211 12.3713558333333  4.99092063157895 13.47969  3.84513132631579 13.4796883333333  C 2.90749738947368 13.4788275  2.14748981052632 12.7270866666667  2.14618404210526 11.79922  C 2.14618404210526 9.89114666666667  4.87144711578947 9.4729175  5.46144703157895 11.2854183333333  Z M 8.28749966315789 4.86172  C 7.354868 4.86172  6.58881536842105 4.110678  6.58881536842105 3.18099025  C 6.58881536842105 2.25442766666667  7.3509208 1.50104233333333  8.28749966315789 1.50104233333333  C 9.22484307368421 1.50190325  9.98461536842105 2.25341158333333  9.98591978947368 3.18099025  C 9.98591978947368 4.11067766666667  9.21986707368421 4.86172  8.28749966315789 4.86172  Z M 14.4282903157895 11.79922  C 14.4271307368421 12.7270441666667  13.6671981052632 13.4788283333333  12.7296056842105 13.4796883333333  C 11.792116 13.478685  11.0323442105263 12.7269425  11.0311837894737 11.79922  C 11.0311837894737 11.1710941666667  11.3890793684211 10.5908866666667  11.9630271578947 10.3018241666667  C 13.0935526315789 9.73307416666667  14.4282903157895 10.5531266666667  14.4282903157895 11.79922  Z " fill-rule="nonzero" fill="#ffffff" stroke="none" transform="matrix(1 0 0 1 22 20 )" />
  </g>
</svg>