<?xml version="1.0" encoding="utf-8"?>
<svg version="1.1" xmlns:xlink="http://www.w3.org/1999/xlink" width="232px" height="42px" xmlns="http://www.w3.org/2000/svg">
  <g transform="matrix(1 0 0 1 -906 -415 )">
    <path d="M 907 419  A 3 3 0 0 1 910 416 L 1134 416  A 3 3 0 0 1 1137 419 L 1137 453  A 3 3 0 0 1 1134 456 L 910 456  A 3 3 0 0 1 907 453 L 907 419  Z " fill-rule="nonzero" fill="#ffffff" stroke="none" fill-opacity="0" />
    <path d="M 906.5 419  A 3.5 3.5 0 0 1 910 415.5 L 1134 415.5  A 3.5 3.5 0 0 1 1137.5 419 L 1137.5 453  A 3.5 3.5 0 0 1 1134 456.5 L 910 456.5  A 3.5 3.5 0 0 1 906.5 453 L 906.5 419  Z " stroke-width="1" stroke="#797979" fill="none" stroke-opacity="0.819607843137255" />
  </g>
</svg>