<?xml version="1.0" encoding="utf-8"?>
<svg version="1.1" xmlns:xlink="http://www.w3.org/1999/xlink" width="12px" height="12px" xmlns="http://www.w3.org/2000/svg">
  <g transform="matrix(1 0 0 1 -1286 -74 )">
    <path d="M 2.24655238095238 0.0571428571428571  L 9.75344761904762 0.0571428571428571  C 10.9176380952381 0.0571428571428571  11.8770285714286 0.931809523809524  11.9398095238095 2.04419047619048  L 11.9428571428571 2.16  L 11.9428571428571 5.32952380952381  C 11.9427797761384 5.5819421095069  11.7381326190267 5.78652655146431  11.4857143071871 5.78652655146431  C 11.2573198881688 5.78652655146431  11.063969739572 5.61795798659739  11.0328380952381 5.39169523809524  L 11.0285714285714 5.32952380952381  L 11.0285714285714 2.16  C 11.0285714285714 1.53828571428571  10.5129142857143 1.02019047619048  9.84914285714286 0.97447619047619  L 9.75344761904762 0.971428571428571  L 9.5047619047619 0.971428571428571  L 9.5047619047619 2.95238095238095  C 9.50474117227455 3.50743919434139  9.07904258467075 3.96971711263593  8.52586666666667 4.01539047619048  L 8.43809523809524 4.01904761904762  L 3.56190476190476 4.01904761904762  C 3.00684651994432 4.01902688656027  2.54456860164979 3.59332829895646  2.49889523809524 3.04015238095238  L 2.4952380952381 2.95238095238095  L 2.4952380952381 0.971428571428571  L 2.24655238095238 0.971428571428571  C 1.56998095238095 0.971428571428571  1.0232380952381 1.46148571428571  0.975085714285714 2.07222857142857  L 0.971428571428571 2.16  L 0.971428571428571 9.84  C 0.971428571428571 10.4617142857143  1.48708571428571 10.9798095238095  2.15085714285714 11.0255238095238  L 2.24655238095238 11.0285714285714  L 8.02118095238095 11.0285714285714  C 8.27359925236405 11.0286487952901  8.47818369432147 11.2332959524019  8.47818369432147 11.4857142642415  C 8.47818369432147 11.7141086832597  8.30961512945454 11.9074588318566  8.08335238095238 11.9385904761905  L 8.02118095238095 11.9428571428571  L 2.24655238095238 11.9428571428571  C 1.0823619047619 11.9428571428571  0.122971428571429 11.0681904761905  0.060190476190476 9.95580952380952  L 0.0571428571428571 9.84  L 0.0571428571428571 2.16  C 0.0571428571428571 1.03238095238095  0.977523809523809 0.11992380952381  2.12708571428571 0.0601904761904762  L 2.24655238095238 0.0571428571428571  Z M 10.5775238095238 6.88380952380952  L 10.6238476190476 6.93318095238095  L 11.8428952380952 8.45699047619048  C 11.9603130479134 8.60366683495415  11.9760290702149 8.80724976999749  11.8825142857143 8.97020952380952  L 11.8428952380952 9.02872380952381  L 10.6238476190476 10.5525333333333  C 10.5372015477522 10.6632362291076  10.4044393469389 10.7279170759222  10.2638595731315 10.7279170759222  C 10.0113865446375 10.7279170759222  9.80671671598868 10.5232472472734  9.80671671598868 10.2707742187793  C 9.80671671598868 10.1884339748238  9.82895616897997 10.107622336569  9.87108571428571 10.0368761904762  L 9.90948571428572 9.9808  L 10.5336380952381 9.2  L 6 9.2  C 5.74758170001691 9.19992263328128  5.5429972580595 8.99527547616956  5.5429972580595 8.74285716432994  C 5.5429972580595 8.5144627453117  5.71156582292642 8.32111259671483  5.93782857142857 8.28998095238095  L 6 8.28571428571428  L 10.5342476190476 8.28571428571428  L 9.90948571428572 7.50491428571429  C 9.76758357870337 7.32793683170266  9.77692399305804 7.07366999649228  9.93142857142857 6.90758095238095  L 9.9808 6.86186666666667  C 10.1577774540116 6.71996453108432  10.412044289222 6.72930494543899  10.5781333333333 6.88380952380952  Z M 8.59047619047619 2.95238095238095  L 8.59047619047619 0.971428571428572  L 3.40952380952381 0.971428571428572  L 3.40952380952381 2.95238095238095  C 3.40964123930267 3.02305972572547  3.45834461247141 3.08438055308301  3.5271619047619 3.10049523809524  L 3.56190476190476 3.10476190476191  L 8.43809523809524 3.10476190476191  C 8.50877401143976 3.10464447498305  8.57009483879729 3.0559411018143  8.58620952380952 2.98712380952381  L 8.59047619047619 2.95238095238095  Z " fill-rule="nonzero" fill="#ffffff" stroke="none" transform="matrix(1 0 0 1 1286 74 )" />
  </g>
</svg>