<?xml version="1.0" encoding="utf-8"?>
<svg version="1.1" xmlns:xlink="http://www.w3.org/1999/xlink" width="12px" height="12px" xmlns="http://www.w3.org/2000/svg">
  <g transform="matrix(1 0 0 1 -200 -14 )">
    <path d="M 12 6  C 12 2.68928571428571  9.31071428571429 0  6 0  C 2.68928571428571 0  0 2.68928571428571  0 6  C 0 9.31071428571429  2.68928571428571 12  6 12  C 9.31071428571429 12  12 9.31071428571429  12 6  Z M 6.42857142857143 8.57142857142857  L 6.42857142857143 9.42857142857143  L 5.57142857142857 9.42857142857143  L 5.57142857142857 8.57142857142857  L 6.42857142857143 8.57142857142857  Z M 8.01428571428571 4.58571428571429  C 8.01428571428571 5.56071428571429  7.35 6.09642857142857  6.57857142857143 6.70714285714286  L 6.50357142857143 6.77142857142857  C 6.46071428571429 6.80357142857143  6.42857142857143 6.87857142857143  6.42857142857143 6.94285714285714  L 6.42857142857143 7.725  L 5.57142857142857 7.725  L 5.57142857142857 6.94285714285714  C 5.57142857142857 6.61071428571428  5.72142857142857 6.3  5.96785714285714 6.09642857142857  L 6.04285714285714 6.03214285714286  C 6.79285714285714 5.43214285714286  7.15714285714286 5.12142857142857  7.15714285714286 4.58571428571428  C 7.15714285714286 3.94285714285714  6.64285714285714 3.42857142857143  6 3.42857142857143  C 5.33571428571429 3.42857142857143  4.84285714285714 3.92142857142857  4.84285714285714 4.58571428571429  L 3.98571428571429 4.58571428571429  C 3.98571428571429 3.46071428571429  4.875 2.57142857142857  6 2.57142857142857  C 7.11428571428571 2.57142857142857  8.01428571428571 3.47142857142857  8.01428571428571 4.58571428571429  Z " fill-rule="nonzero" fill="#ffffff" stroke="none" transform="matrix(1 0 0 1 200 14 )" />
  </g>
</svg>