<?xml version="1.0" encoding="utf-8"?>
<svg version="1.1" xmlns:xlink="http://www.w3.org/1999/xlink" width="100px" height="218px" xmlns="http://www.w3.org/2000/svg">
  <defs>
    <linearGradient gradientUnits="userSpaceOnUse" x1="0" y1="148.601728525252" x2="100" y2="149.268074245586" id="LinearGradient5121">
      <stop id="Stop5122" stop-color="#ffffff" stop-opacity="0.149019607843137" offset="0" />
      <stop id="Stop5123" stop-color="#ffffff" stop-opacity="0.447058823529412" offset="0.51" />
      <stop id="Stop5124" stop-color="#ffffff" stop-opacity="0.149019607843137" offset="1" />
    </linearGradient>
  </defs>
  <g transform="matrix(1 0 0 1 0 -38 )">
    <path d="M 0.5 58  A 19.5 19.5 0 0 1 20 38.5 L 80 38.5  A 19.5 19.5 0 0 1 99.5 58 L 99.5 236  A 19.5 19.5 0 0 1 80 255.5 L 20 255.5  A 19.5 19.5 0 0 1 0.5 236 L 0.5 58  Z " fill-rule="nonzero" fill="#2f3744" stroke="none" fill-opacity="0.549019607843137" />
    <path d="M 0.5 58  A 19.5 19.5 0 0 1 20 38.5 L 80 38.5  A 19.5 19.5 0 0 1 99.5 58 L 99.5 236  A 19.5 19.5 0 0 1 80 255.5 L 20 255.5  A 19.5 19.5 0 0 1 0.5 236 L 0.5 58  Z " stroke-width="1" stroke="url(#LinearGradient5121)" fill="none" />
  </g>
</svg>