<?xml version="1.0" encoding="utf-8"?>
<svg version="1.1" xmlns:xlink="http://www.w3.org/1999/xlink" width="12px" height="10px" xmlns="http://www.w3.org/2000/svg">
  <g transform="matrix(1 0 0 1 -84 -102 )">
    <path d="M 0.105185180555553 2.629629625  L 11.9451851805556 2.629629625  L 11.9451851805556 1.91851851388889  C 11.9451851805556 1.52740740277778  11.6251851805556 1.20740740277778  11.2340740694444 1.20740740277778  L 6.97925926388889 1.20740740277778  L 6.97925926388889 0.733333333333334  C 6.97925926388889 0.342222222222222  6.65925926388889 0.0222222222222225  6.26814815277777 0.0222222222222225  L 0.816296291666664 0.0222222222222225  C 0.425185180555553 0.0222222222222225  0.105185180555553 0.342222222222222  0.105185180555553 0.733333333333334  L 0.105185180555553 2.629629625  Z M 11.9451851805556 3.57777777777778  L 0.105185180555556 3.57777777777778  L 0.105185180555556 9.26666666666667  C 0.105185180555556 9.65777777777778  0.425185180555556 9.97777777777778  0.816296291666667 10  L 11.2340740694444 10  C 11.6251851805556 9.97777777777778  11.9451851805556 9.65777777777778  11.9451851805556 9.26666666666667  L 11.9451851805556 3.57777777777778  Z " fill-rule="nonzero" fill="#ffffff" stroke="none" transform="matrix(1 0 0 1 84 102 )" />
  </g>
</svg>