<?xml version="1.0" encoding="utf-8"?>
<svg version="1.1" xmlns:xlink="http://www.w3.org/1999/xlink" width="10px" height="6px" xmlns="http://www.w3.org/2000/svg">
  <g transform="matrix(1 0 0 1 -64 -104 )">
    <path d="M 9.72602739726027 1.45116279069768  C 10.1095890410959 1.06046511627907  10.0547945205479 0.558139534883721  9.78082191780822 0.223255813953489  C 9.61643835616438 0.0558139534883719  9.3972602739726 0  9.17808219178082 0  L 0.958904109589041 0.0558139534883719  C 0.73972602739726 0.0558139534883719  0.52054794520548 0.111627906976744  0.356164383561644 0.27906976744186  C 0.027397260273973 0.613953488372093  0.027397260273973 1.11627906976744  0.356164383561644 1.45116279069767  L 4.46575342465753 5.63720930232558  C 4.52054794520548 5.69302325581396  4.63013698630137 5.74883720930233  4.68493150684932 5.8046511627907  C 4.68493150684932 5.8046511627907  4.73972602739726 5.86046511627907  4.73972602739726 5.86046511627907  C 5.01369863013699 5.97209302325582  5.3972602739726 5.91627906976744  5.61643835616438 5.69302325581396  L 9.72602739726027 1.45116279069768  Z " fill-rule="nonzero" fill="#ffffff" stroke="none" transform="matrix(1 0 0 1 64 104 )" />
  </g>
</svg>