<?xml version="1.0" encoding="utf-8"?>
<svg version="1.1" xmlns:xlink="http://www.w3.org/1999/xlink" width="1568px" height="368px" xmlns="http://www.w3.org/2000/svg">
  <g transform="matrix(1 0 0 1 0 -48 )">
    <path d="M 1 56  A 7 7 0 0 1 8 49 L 1560 49  A 7 7 0 0 1 1567 56 L 1567 408  A 7 7 0 0 1 1560 415 L 8 415  A 7 7 0 0 1 1 408 L 1 56  Z " fill-rule="nonzero" fill="#ffffff" stroke="none" fill-opacity="0" />
    <path d="M 0.5 56  A 7.5 7.5 0 0 1 8 48.5 L 1560 48.5  A 7.5 7.5 0 0 1 1567.5 56 L 1567.5 408  A 7.5 7.5 0 0 1 1560 415.5 L 8 415.5  A 7.5 7.5 0 0 1 0.5 408 L 0.5 56  Z " stroke-width="1" stroke="#797979" fill="none" stroke-opacity="0.819607843137255" />
  </g>
</svg>