<?xml version="1.0" encoding="utf-8"?>
<svg version="1.1" xmlns:xlink="http://www.w3.org/1999/xlink" width="100px" height="24px" xmlns="http://www.w3.org/2000/svg">
  <g transform="matrix(1 0 0 1 -678 -12 )">
    <path d="M 679 16  A 3 3 0 0 1 682 13 L 774 13  A 3 3 0 0 1 777 16 L 777 32  A 3 3 0 0 1 774 35 L 682 35  A 3 3 0 0 1 679 32 L 679 16  Z " fill-rule="nonzero" fill="#ffffff" stroke="none" fill-opacity="0" />
    <path d="M 678.5 16  A 3.5 3.5 0 0 1 682 12.5 L 774 12.5  A 3.5 3.5 0 0 1 777.5 16 L 777.5 32  A 3.5 3.5 0 0 1 774 35.5 L 682 35.5  A 3.5 3.5 0 0 1 678.5 32 L 678.5 16  Z " stroke-width="1" stroke="#797979" fill="none" stroke-opacity="0.819607843137255" />
  </g>
</svg>