<?xml version="1.0" encoding="utf-8"?>
<svg version="1.1" xmlns:xlink="http://www.w3.org/1999/xlink" width="60px" height="24px" xmlns="http://www.w3.org/2000/svg">
  <g transform="matrix(1 0 0 1 -500 -12 )">
    <path d="M 501 16  A 3 3 0 0 1 504 13 L 556 13  A 3 3 0 0 1 559 16 L 559 32  A 3 3 0 0 1 556 35 L 504 35  A 3 3 0 0 1 501 32 L 501 16  Z " fill-rule="nonzero" fill="#ffffff" stroke="none" fill-opacity="0" />
    <path d="M 500.5 16  A 3.5 3.5 0 0 1 504 12.5 L 556 12.5  A 3.5 3.5 0 0 1 559.5 16 L 559.5 32  A 3.5 3.5 0 0 1 556 35.5 L 504 35.5  A 3.5 3.5 0 0 1 500.5 32 L 500.5 16  Z " stroke-width="1" stroke="#797979" fill="none" stroke-opacity="0.819607843137255" />
  </g>
</svg>