<?xml version="1.0" encoding="utf-8"?>
<svg version="1.1" xmlns:xlink="http://www.w3.org/1999/xlink" width="72px" height="160px" xmlns="http://www.w3.org/2000/svg">
  <defs>
    <linearGradient gradientUnits="userSpaceOnUse" x1="0" y1="113.175580568992" x2="72" y2="113.664641648137" id="LinearGradient5181">
      <stop id="Stop5182" stop-color="#ffffff" stop-opacity="0.149019607843137" offset="0" />
      <stop id="Stop5183" stop-color="#ffffff" stop-opacity="0.447058823529412" offset="0.51" />
      <stop id="Stop5184" stop-color="#ffffff" stop-opacity="0.149019607843137" offset="1" />
    </linearGradient>
  </defs>
  <g transform="matrix(1 0 0 1 0 -32 )">
    <path d="M 0.5 40  A 7.5 7.5 0 0 1 8 32.5 L 64 32.5  A 7.5 7.5 0 0 1 71.5 40 L 71.5 184  A 7.5 7.5 0 0 1 64 191.5 L 8 191.5  A 7.5 7.5 0 0 1 0.5 184 L 0.5 40  Z " fill-rule="nonzero" fill="#2f3744" stroke="none" fill-opacity="0.549019607843137" />
    <path d="M 0.5 40  A 7.5 7.5 0 0 1 8 32.5 L 64 32.5  A 7.5 7.5 0 0 1 71.5 40 L 71.5 184  A 7.5 7.5 0 0 1 64 191.5 L 8 191.5  A 7.5 7.5 0 0 1 0.5 184 L 0.5 40  Z " stroke-width="1" stroke="url(#LinearGradient5181)" fill="none" />
  </g>
</svg>