<?xml version="1.0" encoding="utf-8"?>
<svg version="1.1" xmlns:xlink="http://www.w3.org/1999/xlink" width="56px" height="24px" xmlns="http://www.w3.org/2000/svg">
  <g transform="matrix(1 0 0 1 -1158 -12 )">
    <path d="M 1159 16  A 3 3 0 0 1 1162 13 L 1210 13  A 3 3 0 0 1 1213 16 L 1213 32  A 3 3 0 0 1 1210 35 L 1162 35  A 3 3 0 0 1 1159 32 L 1159 16  Z " fill-rule="nonzero" fill="#ffffff" stroke="none" fill-opacity="0" />
    <path d="M 1158.5 16  A 3.5 3.5 0 0 1 1162 12.5 L 1210 12.5  A 3.5 3.5 0 0 1 1213.5 16 L 1213.5 32  A 3.5 3.5 0 0 1 1210 35.5 L 1162 35.5  A 3.5 3.5 0 0 1 1158.5 32 L 1158.5 16  Z " stroke-width="1" stroke="#797979" fill="none" stroke-opacity="0.819607843137255" />
  </g>
</svg>