<?xml version="1.0" encoding="utf-8"?>
<svg version="1.1" xmlns:xlink="http://www.w3.org/1999/xlink" width="16px" height="16px" xmlns="http://www.w3.org/2000/svg">
  <defs>
    <filter x="0px" y="13px" width="16px" height="16px" filterUnits="userSpaceOnUse" id="filter5197">
      <feOffset dx="1" dy="1" in="SourceAlpha" result="shadowOffsetInner" />
      <feGaussianBlur stdDeviation="0.5" in="shadowOffsetInner" result="shadowGaussian" />
      <feComposite in2="shadowGaussian" operator="atop" in="SourceAlpha" result="shadowComposite" />
      <feColorMatrix type="matrix" values="0 0 0 0 0  0 0 0 0 0  0 0 0 0 0  0 0 0 0.996078431372549 0  " in="shadowComposite" />
    </filter>
    <g id="widget5198">
      <path d="M 7 10.9439062068966  C 4.82042206896552 10.9439062068966  3.0557075862069 9.17919172413793  3.0557075862069 7  C 3.0557075862069 4.82281655172414  4.82042206896552 3.05812137931034  7 3.05812137931034  C 9.17672 3.05812137931034  10.9414151724138 4.82283586206897  10.9414151724138 7  C 10.9414151724138 9.17921103448276  9.17672 10.9439062068966  7 10.9439062068966  Z M 7 1.08589793103448  C 3.73346206896552 1.08589793103448  1.08402482758621 3.73344275862069  1.08402482758621 7  C 1.08402482758621 10.2660937931034  3.73346206896552 12.9159751724138  7 12.9159751724138  C 10.2656303448276 12.9159751724138  12.9131172413793 10.2660744827586  12.9131172413793 7  C 12.9131172413793 3.73344275862069  10.2656303448276 1.08589793103448  7 1.08589793103448  Z M 7 13.90088  C 3.18763586206897 13.90088  0.09912 10.8119779310345  0.09912 7  C 0.09912 3.1899724137931  3.18763586206897 0.09912  7 0.09912  C 10.809564137931 0.09912  13.90088 3.1899724137931  13.90088 7  C 13.90088 10.8119779310345  10.809564137931 13.90088  7 13.90088  Z " fill-rule="nonzero" fill="#325bee" stroke="none" transform="matrix(1 0 0 1 0 13 )" />
    </g>
  </defs>
  <g transform="matrix(1 0 0 1 0 -13 )">
    <use xlink:href="#widget5198" filter="url(#filter5197)" />
    <use xlink:href="#widget5198" />
  </g>
</svg>