<?xml version="1.0" encoding="utf-8"?>
<svg version="1.1" xmlns:xlink="http://www.w3.org/1999/xlink" width="340px" height="26px" xmlns="http://www.w3.org/2000/svg">
  <g transform="matrix(1 0 0 1 -368 -170 )">
    <path d="M 369 174  A 3 3 0 0 1 372 171 L 704 171  A 3 3 0 0 1 707 174 L 707 192  A 3 3 0 0 1 704 195 L 372 195  A 3 3 0 0 1 369 192 L 369 174  Z " fill-rule="nonzero" fill="#ffffff" stroke="none" fill-opacity="0" />
    <path d="M 368.5 174  A 3.5 3.5 0 0 1 372 170.5 L 704 170.5  A 3.5 3.5 0 0 1 707.5 174 L 707.5 192  A 3.5 3.5 0 0 1 704 195.5 L 372 195.5  A 3.5 3.5 0 0 1 368.5 192 L 368.5 174  Z " stroke-width="1" stroke="#797979" fill="none" stroke-opacity="0.819607843137255" />
  </g>
</svg>