<?xml version="1.0" encoding="utf-8"?>
<svg version="1.1" xmlns:xlink="http://www.w3.org/1999/xlink" width="12px" height="7px" xmlns="http://www.w3.org/2000/svg">
  <g transform="matrix(1 0 0 1 -1178 -21 )">
    <path d="M 6.4492245 6.71484433333333  C 6.33480780405406 6.8348483125  6.17820048648649 6.90247179166667  6.01472730405405 6.90247179166667  C 5.85127487837838 6.90247179166667  5.69464680405405 6.8348483125  5.58023010810811 6.71484433333333  L 0.307603439189189 1.18555852083333  C 0.0724020405405404 0.938941729166667  0.0763016756756758 0.543050145833334  0.316273885135135 0.3013366875  C 0.556225358108108 0.0596445624999997  0.941437925675676 0.0636098749999997  1.17659783108108 0.310247979166667  L 6.01472730405405 5.38388539583333  L 10.8528567972973 0.310247979166667  C 11.0880167027027 0.063588541666667  11.473187777027 0.059559270833334  11.7131807432432 0.3013366875  C 11.9531737094595 0.543071458333333  11.9570525878378 0.938941729166667  11.7218511891892 1.18555852083333  L 6.4492245 6.71484433333333  Z " fill-rule="nonzero" fill="#ffffff" stroke="none" transform="matrix(1 0 0 1 1178 21 )" />
  </g>
</svg>