<?xml version="1.0" encoding="utf-8"?>
<svg version="1.1" xmlns:xlink="http://www.w3.org/1999/xlink" width="884px" height="42px" xmlns="http://www.w3.org/2000/svg">
  <g transform="matrix(1 0 0 1 -204 -193 )">
    <path d="M 205 197  A 3 3 0 0 1 208 194 L 1084 194  A 3 3 0 0 1 1087 197 L 1087 231  A 3 3 0 0 1 1084 234 L 208 234  A 3 3 0 0 1 205 231 L 205 197  Z " fill-rule="nonzero" fill="#ffffff" stroke="none" fill-opacity="0" />
    <path d="M 204.5 197  A 3.5 3.5 0 0 1 208 193.5 L 1084 193.5  A 3.5 3.5 0 0 1 1087.5 197 L 1087.5 231  A 3.5 3.5 0 0 1 1084 234.5 L 208 234.5  A 3.5 3.5 0 0 1 204.5 231 L 204.5 197  Z " stroke-width="1" stroke="#797979" fill="none" stroke-opacity="0.819607843137255" />
  </g>
</svg>